<svg width="200" height="200" viewBox="0 0 200 200" fill="none" xmlns="http://www.w3.org/2000/svg">
<mask id="path-1-inside-1_24_114" fill="white">
<path fill-rule="evenodd" clip-rule="evenodd" d="M0 50H35C35 27.9086 52.9086 10 75 10C97.0914 10 115 27.9086 115 50H150V85C127.909 85 110 102.909 110 125C110 147.091 127.909 165 150 165V200H5C2.23858 200 0 197.761 0 195L0 50Z"/>
</mask>
<path fill-rule="evenodd" clip-rule="evenodd" d="M0 50H35C35 27.9086 52.9086 10 75 10C97.0914 10 115 27.9086 115 50H150V85C127.909 85 110 102.909 110 125C110 147.091 127.909 165 150 165V200H5C2.23858 200 0 197.761 0 195L0 50Z" fill="#F2E589"/>
<path d="M35 50V54H39V50H35ZM0 50L0 46H-4V50H0ZM115 50H111V54H115V50ZM150 50H154V46H150V50ZM150 85V89H154V85H150ZM150 165H154V161H150V165ZM150 200V204H154V200H150ZM35 46H0L0 54H35V46ZM75 6C50.6995 6 31 25.6995 31 50H39C39 30.1178 55.1178 14 75 14V6ZM119 50C119 25.6995 99.3005 6 75 6V14C94.8823 14 111 30.1178 111 50H119ZM150 46H115V54H150V46ZM154 85V50H146V85H154ZM114 125C114 105.118 130.118 89 150 89V81C125.699 81 106 100.699 106 125H114ZM150 161C130.118 161 114 144.882 114 125H106C106 149.301 125.699 169 150 169V161ZM154 200V165H146V200H154ZM5 204H150V196H5V204ZM-4 195C-4 199.971 0.0294454 204 5 204V196C4.44772 196 4 195.552 4 195H-4ZM-4 50L-4 195H4L4 50H-4Z" fill="white" mask="url(#path-1-inside-1_24_114)"/>
</svg>
