<svg width="200" height="200" viewBox="0 0 200 200" fill="none" xmlns="http://www.w3.org/2000/svg">
<mask id="path-1-inside-1_24_111" fill="white">
<path fill-rule="evenodd" clip-rule="evenodd" d="M50 200V165C27.9086 165 10 147.091 10 125C10 102.909 27.9086 85 50 85L50 50L85 50C85 72.0914 102.909 90 125 90C147.091 90 165 72.0914 165 50H200L200 195C200 197.761 197.761 200 195 200H50Z"/>
</mask>
<path fill-rule="evenodd" clip-rule="evenodd" d="M50 200V165C27.9086 165 10 147.091 10 125C10 102.909 27.9086 85 50 85L50 50L85 50C85 72.0914 102.909 90 125 90C147.091 90 165 72.0914 165 50H200L200 195C200 197.761 197.761 200 195 200H50Z" fill="#CCCCFF"/>
<path d="M50 165H54V161H50V165ZM50 200H46V204H50V200ZM50 85V89H54V85H50ZM50 50V46H46V50H50ZM85 50H89V46H85V50ZM165 50V46H161V50H165ZM200 50H204V46H200V50ZM46 165V200H54V165H46ZM6 125C6 149.301 25.6995 169 50 169V161C30.1178 161 14 144.882 14 125H6ZM50 81C25.6995 81 6 100.699 6 125H14C14 105.118 30.1178 89 50 89L50 81ZM46 50L46 85H54L54 50H46ZM85 46L50 46V54L85 54V46ZM125 86C105.118 86 89 69.8823 89 50L81 50C81 74.3005 100.699 94 125 94V86ZM161 50C161 69.8823 144.882 86 125 86V94C149.301 94 169 74.3005 169 50H161ZM200 46H165V54H200V46ZM204 195L204 50H196L196 195L204 195ZM195 204C199.971 204 204 199.971 204 195L196 195C196 195.552 195.552 196 195 196V204ZM50 204H195V196H50V204Z" fill="white" mask="url(#path-1-inside-1_24_111)"/>
</svg>
