<svg width="200" height="200" viewBox="0 0 200 200" fill="none" xmlns="http://www.w3.org/2000/svg">
<mask id="path-1-inside-1_24_113" fill="white">
<path fill-rule="evenodd" clip-rule="evenodd" d="M150 0V35C172.091 35 190 52.9086 190 75C190 97.0914 172.091 115 150 115V150H115C115 127.909 97.0914 110 75 110C52.9086 110 35 127.909 35 150H0V5C0 2.23858 2.23858 0 5 0H150Z"/>
</mask>
<path fill-rule="evenodd" clip-rule="evenodd" d="M150 0V35C172.091 35 190 52.9086 190 75C190 97.0914 172.091 115 150 115V150H115C115 127.909 97.0914 110 75 110C52.9086 110 35 127.909 35 150H0V5C0 2.23858 2.23858 0 5 0H150Z" fill="#FFAFAF"/>
<path d="M150 35H146V39H150V35ZM150 0H154V-4H150V0ZM150 115V111H146V115H150ZM150 150V154H154V150H150ZM115 150H111V154H115V150ZM35 150V154H39V150H35ZM0 150H-4V154H0V150ZM154 35V0H146V35H154ZM194 75C194 50.6995 174.301 31 150 31V39C169.882 39 186 55.1178 186 75H194ZM150 119C174.301 119 194 99.3005 194 75H186C186 94.8823 169.882 111 150 111V119ZM154 150V115H146V150H154ZM115 154H150V146H115V154ZM75 114C94.8823 114 111 130.118 111 150H119C119 125.699 99.3005 106 75 106V114ZM39 150C39 130.118 55.1178 114 75 114V106C50.6995 106 31 125.699 31 150H39ZM0 154H35V146H0V154ZM-4 5V150H4V5H-4ZM5 -4C0.0294337 -4 -4 0.0294454 -4 5H4C4 4.44772 4.44772 4 5 4V-4ZM150 -4H5V4H150V-4Z" fill="white" mask="url(#path-1-inside-1_24_113)"/>
</svg>
