<svg width="200" height="200" viewBox="0 0 200 200" fill="none" xmlns="http://www.w3.org/2000/svg">
<mask id="path-1-inside-1_24_112" fill="white">
<path fill-rule="evenodd" clip-rule="evenodd" d="M200 150H165C165 172.091 147.091 190 125 190C102.909 190 85 172.091 85 150H50V115C72.0914 115 90 97.0914 90 75C90 52.9086 72.0914 35 50 35V0L195 0C197.761 0 200 2.23858 200 5L200 150Z"/>
</mask>
<path fill-rule="evenodd" clip-rule="evenodd" d="M200 150H165C165 172.091 147.091 190 125 190C102.909 190 85 172.091 85 150H50V115C72.0914 115 90 97.0914 90 75C90 52.9086 72.0914 35 50 35V0L195 0C197.761 0 200 2.23858 200 5L200 150Z" fill="#CCFFCC"/>
<path d="M165 150V146H161V150H165ZM200 150V154H204V150H200ZM85 150H89V146H85V150ZM50 150H46V154H50V150ZM50 115V111H46V115H50ZM50 35H46V39H50V35ZM50 0V-4L46 -4V0L50 0ZM165 154H200V146H165V154ZM125 194C149.301 194 169 174.301 169 150H161C161 169.882 144.882 186 125 186L125 194ZM81 150C81 174.301 100.699 194 125 194L125 186C105.118 186 89 169.882 89 150H81ZM50 154H85V146H50V154ZM46 115V150H54V115H46ZM86 75C86 94.8823 69.8823 111 50 111V119C74.3005 119 94 99.3005 94 75H86ZM50 39C69.8823 39 86 55.1178 86 75H94C94 50.6995 74.3005 31 50 31V39ZM46 0V35H54V0L46 0ZM195 -4L50 -4V4L195 4V-4ZM204 5C204 0.0294337 199.971 -4 195 -4V4C195.552 4 196 4.44772 196 5L204 5ZM204 150L204 5L196 5L196 150H204Z" fill="white" mask="url(#path-1-inside-1_24_112)"/>
</svg>
