<svg width="125" height="100" viewBox="0 0 125 100" fill="none" xmlns="http://www.w3.org/2000/svg">
<mask id="path-1-inside-1_3_69" fill="white">
<path fill-rule="evenodd" clip-rule="evenodd" d="M100 100H0V75C13.8071 75 25 63.8071 25 50C25 36.1929 13.8071 25 0 25V0H100V25C113.807 25 125 36.1929 125 50C125 63.8071 113.807 75 100 75V100Z"/>
</mask>
<path fill-rule="evenodd" clip-rule="evenodd" d="M100 100H0V75C13.8071 75 25 63.8071 25 50C25 36.1929 13.8071 25 0 25V0H100V25C113.807 25 125 36.1929 125 50C125 63.8071 113.807 75 100 75V100Z" fill="#CCCCFF"/>
<path d="M0 100H-2V102H0V100ZM100 100V102H102V100H100ZM0 75V73H-2V75H0ZM0 25H-2V27H0V25ZM0 0V-2H-2V0H0ZM100 0H102V-2H100V0ZM100 25H98V27H100V25ZM100 75V73H98V75H100ZM0 102H100V98H0V102ZM-2 75V100H2V75H-2ZM23 50C23 62.7025 12.7026 73 0 73V77C14.9117 77 27 64.9117 27 50H23ZM0 27C12.7026 27 23 37.2975 23 50H27C27 35.0883 14.9117 23 0 23V27ZM-2 0V25H2V0H-2ZM100 -2H0V2H100V-2ZM102 25V0H98V25H102ZM100 27C112.703 27 123 37.2975 123 50H127C127 35.0883 114.912 23 100 23V27ZM123 50C123 62.7025 112.703 73 100 73V77C114.912 77 127 64.9117 127 50H123ZM102 100V75H98V100H102Z" fill="white" mask="url(#path-1-inside-1_3_69)"/>
<path d="M30.2 55.06C30.0667 55.06 29.9733 55.0133 29.92 54.92C29.8667 54.8267 29.84 54.7267 29.84 54.62C29.8533 54.3933 29.9067 54.2667 30 54.24C30.0933 54.2133 30.2067 54.2 30.34 54.2C30.7667 54.2 31.0667 54.1267 31.24 53.98C31.4133 53.82 31.52 53.6267 31.56 53.4C31.6133 53.16 31.64 52.9133 31.64 52.66V44.72C31.64 44.4667 31.6133 44.2267 31.56 44C31.52 43.76 31.4133 43.5667 31.24 43.42C31.0667 43.26 30.7667 43.18 30.34 43.18C30.2067 43.18 30.0933 43.1667 30 43.14C29.9067 43.1133 29.8533 42.9867 29.84 42.76C29.84 42.6533 29.8667 42.5533 29.92 42.46C29.9733 42.3667 30.0667 42.32 30.2 42.32C30.6267 42.3333 31.0267 42.3467 31.4 42.36C31.7733 42.3733 32.16 42.38 32.56 42.38H35.38C36.1533 42.38 36.76 42.44 37.2 42.56C37.6533 42.6667 38.0467 42.8267 38.38 43.04C38.7267 43.2667 39 43.58 39.2 43.98C39.4 44.3667 39.5 44.7933 39.5 45.26C39.5 45.86 39.36 46.3667 39.08 46.78C38.8 47.18 38.4467 47.5 38.02 47.74C37.6067 47.9667 37.2 48.1267 36.8 48.22V48.28C37.5067 48.2667 38.1333 48.3933 38.68 48.66C39.2267 48.9267 39.66 49.28 39.98 49.72C40.3 50.16 40.4667 50.64 40.48 51.16C40.5067 51.92 40.3467 52.5467 40 53.04C39.6533 53.5333 39.2 53.9267 38.64 54.22C38.0933 54.5133 37.4933 54.72 36.84 54.84C36.2 54.96 35.58 55.02 34.98 55.02L32.58 55C32.18 55 31.7867 55 31.4 55C31.0267 55.0133 30.6267 55.0333 30.2 55.06ZM33.62 47.88H34.46C34.7267 47.88 35.0267 47.8667 35.36 47.84C35.6933 47.8133 36.0133 47.7333 36.32 47.6C36.6267 47.4533 36.8733 47.22 37.06 46.9C37.26 46.5667 37.36 46.1 37.36 45.5C37.36 44.7933 37.1867 44.22 36.84 43.78C36.5067 43.34 35.9 43.12 35.02 43.12H33.62V47.88ZM35.06 54.22C35.66 54.2067 36.2067 54.1067 36.7 53.92C37.1933 53.7333 37.5867 53.42 37.88 52.98C38.1733 52.54 38.32 51.9333 38.32 51.16C38.28 50.7333 38.1333 50.3333 37.88 49.96C37.64 49.5867 37.24 49.28 36.68 49.04C36.1333 48.8 35.3867 48.68 34.44 48.68H33.62V52.66C33.62 53.3267 33.72 53.7533 33.92 53.94C34.12 54.1267 34.5 54.22 35.06 54.22ZM46.9019 55.24C45.9685 55.24 45.1485 55.02 44.4419 54.58C43.7485 54.14 43.2085 53.5667 42.8219 52.86C42.4352 52.1533 42.2419 51.4 42.2419 50.6C42.2419 49.8133 42.3819 49.1133 42.6619 48.5C42.9419 47.8867 43.3085 47.3733 43.7619 46.96C44.2285 46.5467 44.7352 46.2333 45.2819 46.02C45.8285 45.8067 46.3685 45.7 46.9019 45.7C47.8352 45.7 48.6485 45.92 49.3419 46.36C50.0485 46.8 50.5952 47.3733 50.9819 48.08C51.3685 48.7867 51.5619 49.54 51.5619 50.34C51.5619 51.1267 51.4152 51.8267 51.1219 52.44C50.8419 53.0533 50.4685 53.5667 50.0019 53.98C49.5485 54.3933 49.0485 54.7067 48.5019 54.92C47.9552 55.1333 47.4219 55.24 46.9019 55.24ZM46.9019 54.5C47.5552 54.5 48.0685 54.3067 48.4419 53.92C48.8285 53.5333 49.1019 53.0267 49.2619 52.4C49.4352 51.76 49.5219 51.0733 49.5219 50.34C49.5219 49.6333 49.4352 48.9867 49.2619 48.4C49.0885 47.8133 48.8085 47.34 48.4219 46.98C48.0352 46.62 47.5285 46.44 46.9019 46.44C46.2485 46.44 45.7285 46.6333 45.3419 47.02C44.9552 47.3933 44.6819 47.8933 44.5219 48.52C44.3619 49.1333 44.2819 49.8133 44.2819 50.56C44.2819 51.2533 44.3619 51.9 44.5219 52.5C44.6952 53.1 44.9752 53.5867 45.3619 53.96C45.7485 54.32 46.2619 54.5 46.9019 54.5ZM57.8589 55.24C56.9256 55.24 56.1056 55.02 55.3989 54.58C54.7056 54.14 54.1656 53.5667 53.7789 52.86C53.3922 52.1533 53.1989 51.4 53.1989 50.6C53.1989 49.8133 53.3389 49.1133 53.6189 48.5C53.8989 47.8867 54.2656 47.3733 54.7189 46.96C55.1856 46.5467 55.6922 46.2333 56.2389 46.02C56.7856 45.8067 57.3256 45.7 57.8589 45.7C58.7922 45.7 59.6056 45.92 60.2989 46.36C61.0056 46.8 61.5522 47.3733 61.9389 48.08C62.3256 48.7867 62.5189 49.54 62.5189 50.34C62.5189 51.1267 62.3722 51.8267 62.0789 52.44C61.7989 53.0533 61.4256 53.5667 60.9589 53.98C60.5056 54.3933 60.0056 54.7067 59.4589 54.92C58.9122 55.1333 58.3789 55.24 57.8589 55.24ZM57.8589 54.5C58.5122 54.5 59.0256 54.3067 59.3989 53.92C59.7856 53.5333 60.0589 53.0267 60.2189 52.4C60.3922 51.76 60.4789 51.0733 60.4789 50.34C60.4789 49.6333 60.3922 48.9867 60.2189 48.4C60.0456 47.8133 59.7656 47.34 59.3789 46.98C58.9922 46.62 58.4856 46.44 57.8589 46.44C57.2056 46.44 56.6856 46.6333 56.2989 47.02C55.9122 47.3933 55.6389 47.8933 55.4789 48.52C55.3189 49.1333 55.2389 49.8133 55.2389 50.56C55.2389 51.2533 55.3189 51.9 55.4789 52.5C55.6522 53.1 55.9322 53.5867 56.3189 53.96C56.7056 54.32 57.2189 54.5 57.8589 54.5ZM67.5583 55.34C67.1583 55.34 66.7783 55.24 66.4183 55.04C66.0583 54.84 65.7583 54.5333 65.5183 54.12C65.2916 53.7067 65.1783 53.1867 65.1783 52.56V46.68L64.0183 46.72C63.9249 46.72 63.8516 46.6867 63.7983 46.62C63.7583 46.54 63.7383 46.4533 63.7383 46.36C63.7383 46.0933 63.8316 45.94 64.0183 45.9C64.5116 45.8067 64.8849 45.6533 65.1383 45.44C65.3916 45.2133 65.5849 44.9467 65.7183 44.64C65.8649 44.3333 65.9983 44 66.1183 43.64C66.1583 43.5333 66.2183 43.4667 66.2983 43.44C66.3783 43.4 66.4649 43.38 66.5583 43.38C66.6383 43.38 66.7249 43.4 66.8183 43.44C66.9249 43.48 66.9783 43.5533 66.9783 43.66L66.8383 45.94L69.1783 45.8C69.2983 45.7867 69.3783 45.82 69.4183 45.9C69.4583 45.98 69.4783 46.0733 69.4783 46.18C69.4783 46.3133 69.4516 46.4467 69.3983 46.58C69.3583 46.7133 69.3049 46.78 69.2383 46.78L66.9983 46.72V52.8C66.9983 53.1867 67.0783 53.54 67.2383 53.86C67.4116 54.18 67.7183 54.34 68.1583 54.34C68.3049 54.34 68.4716 54.3267 68.6583 54.3C68.8449 54.2733 69.0449 54.2133 69.2583 54.12C69.3116 54.0933 69.3649 54.0733 69.4183 54.06C69.4716 54.0333 69.5249 54.02 69.5783 54.02C69.6849 54.02 69.7649 54.0667 69.8183 54.16C69.8716 54.24 69.9183 54.3267 69.9583 54.42C69.9983 54.54 69.9649 54.6333 69.8583 54.7C69.4449 54.9667 69.0649 55.14 68.7183 55.22C68.3716 55.3 67.9849 55.34 67.5583 55.34ZM75.1764 55.24C74.1497 55.24 73.2897 55.06 72.5964 54.7C71.9164 54.3267 71.5764 53.7933 71.5764 53.1C71.5764 52.7133 71.6897 52.4 71.9164 52.16C72.1564 51.92 72.4631 51.8 72.8364 51.8C73.0764 51.8 73.2697 51.8667 73.4164 52C73.5764 52.12 73.6564 52.2067 73.6564 52.26C73.6564 52.3 73.5764 52.3933 73.4164 52.54C73.2697 52.6733 73.1964 52.8933 73.1964 53.2C73.1964 53.5733 73.3697 53.8867 73.7164 54.14C74.0764 54.38 74.6164 54.5 75.3364 54.5C75.9631 54.5 76.4497 54.3667 76.7964 54.1C77.1564 53.82 77.3364 53.4333 77.3364 52.94C77.3364 52.54 77.2031 52.2333 76.9364 52.02C76.6831 51.7933 76.3497 51.6133 75.9364 51.48C75.5364 51.3467 75.1031 51.2133 74.6364 51.08C74.1831 50.9467 73.7497 50.78 73.3364 50.58C72.9231 50.38 72.5831 50.1067 72.3164 49.76C72.0631 49.4 71.9364 48.9267 71.9364 48.34C71.9364 47.74 72.1164 47.2467 72.4764 46.86C72.8364 46.4733 73.2964 46.1867 73.8564 46C74.4164 45.8 74.9831 45.7 75.5564 45.7C76.0497 45.7 76.5164 45.7733 76.9564 45.92C77.3964 46.0533 77.7564 46.26 78.0364 46.54C78.3297 46.82 78.4764 47.1733 78.4764 47.6C78.4764 47.9333 78.3697 48.2333 78.1564 48.5C77.9431 48.7667 77.6497 48.9 77.2764 48.9C77.0364 48.9 76.8364 48.84 76.6764 48.72C76.5297 48.5867 76.4564 48.4933 76.4564 48.44C76.4564 48.4133 76.5031 48.3667 76.5964 48.3C76.7031 48.22 76.8031 48.12 76.8964 48C76.9897 47.8667 77.0364 47.7 77.0364 47.5C77.0097 47.1133 76.8231 46.8267 76.4764 46.64C76.1297 46.4533 75.7431 46.36 75.3164 46.36C74.8497 46.36 74.4164 46.4733 74.0164 46.7C73.6164 46.9267 73.4164 47.2533 73.4164 47.68C73.4164 48.0667 73.4964 48.3667 73.6564 48.58C73.8297 48.7933 74.0964 48.98 74.4564 49.14C74.8297 49.2867 75.3097 49.4533 75.8964 49.64C76.4831 49.8267 76.9964 50.02 77.4364 50.22C77.8897 50.42 78.2364 50.6867 78.4764 51.02C78.7297 51.34 78.8564 51.78 78.8564 52.34C78.8564 52.9 78.6964 53.4 78.3764 53.84C78.0564 54.28 77.6164 54.6267 77.0564 54.88C76.5097 55.12 75.8831 55.24 75.1764 55.24ZM84.0036 55.34C83.6036 55.34 83.2236 55.24 82.8636 55.04C82.5036 54.84 82.2036 54.5333 81.9636 54.12C81.7369 53.7067 81.6236 53.1867 81.6236 52.56V46.68L80.4636 46.72C80.3703 46.72 80.2969 46.6867 80.2436 46.62C80.2036 46.54 80.1836 46.4533 80.1836 46.36C80.1836 46.0933 80.2769 45.94 80.4636 45.9C80.9569 45.8067 81.3303 45.6533 81.5836 45.44C81.8369 45.2133 82.0303 44.9467 82.1636 44.64C82.3103 44.3333 82.4436 44 82.5636 43.64C82.6036 43.5333 82.6636 43.4667 82.7436 43.44C82.8236 43.4 82.9103 43.38 83.0036 43.38C83.0836 43.38 83.1703 43.4 83.2636 43.44C83.3703 43.48 83.4236 43.5533 83.4236 43.66L83.2836 45.94L85.6236 45.8C85.7436 45.7867 85.8236 45.82 85.8636 45.9C85.9036 45.98 85.9236 46.0733 85.9236 46.18C85.9236 46.3133 85.8969 46.4467 85.8436 46.58C85.8036 46.7133 85.7503 46.78 85.6836 46.78L83.4436 46.72V52.8C83.4436 53.1867 83.5236 53.54 83.6836 53.86C83.8569 54.18 84.1636 54.34 84.6036 54.34C84.7503 54.34 84.9169 54.3267 85.1036 54.3C85.2903 54.2733 85.4903 54.2133 85.7036 54.12C85.7569 54.0933 85.8103 54.0733 85.8636 54.06C85.9169 54.0333 85.9703 54.02 86.0236 54.02C86.1303 54.02 86.2103 54.0667 86.2636 54.16C86.3169 54.24 86.3636 54.3267 86.4036 54.42C86.4436 54.54 86.4103 54.6333 86.3036 54.7C85.8903 54.9667 85.5103 55.14 85.1636 55.22C84.8169 55.3 84.4303 55.34 84.0036 55.34ZM88.2417 55.06C88.1484 55.06 88.0684 55.02 88.0017 54.94C87.9484 54.8467 87.9217 54.7533 87.9217 54.66C87.9484 54.46 88.0017 54.3533 88.0817 54.34C88.1617 54.3133 88.2684 54.3 88.4017 54.3C88.7751 54.3 89.0284 54.24 89.1617 54.12C89.2951 53.9867 89.3684 53.8133 89.3817 53.6C89.4084 53.3867 89.4217 53.1667 89.4217 52.94V48.36C89.4217 48.12 89.4084 47.9 89.3817 47.7C89.3684 47.4867 89.2951 47.32 89.1617 47.2C89.0284 47.0667 88.7751 47 88.4017 47C88.2817 47 88.1684 46.9867 88.0617 46.96C87.9684 46.92 87.9217 46.8 87.9217 46.6C87.9217 46.4 88.0284 46.28 88.2417 46.24C88.8551 46.1467 89.3217 46.0533 89.6417 45.96C89.9751 45.8667 90.2217 45.7867 90.3817 45.72C90.5551 45.6533 90.7084 45.6133 90.8417 45.6C90.9484 45.5867 91.0351 45.6067 91.1017 45.66C91.1817 45.7133 91.2217 45.82 91.2217 45.98V47.22H91.2817C91.7351 46.78 92.2017 46.42 92.6817 46.14C93.1617 45.8467 93.6017 45.7 94.0017 45.7C94.4684 45.7 94.8217 45.8733 95.0617 46.22C95.3151 46.5667 95.4417 46.9333 95.4417 47.32C95.4417 47.6533 95.3351 47.98 95.1217 48.3C94.9084 48.6067 94.5884 48.76 94.1617 48.76C93.9484 48.76 93.7751 48.72 93.6417 48.64C93.5217 48.5467 93.4551 48.48 93.4417 48.44C93.4417 48.4133 93.5017 48.3333 93.6217 48.2C93.7551 48.0667 93.8217 47.9 93.8217 47.7C93.8217 47.46 93.7551 47.2667 93.6217 47.12C93.5017 46.9733 93.3351 46.9 93.1217 46.9C92.8951 46.9 92.6017 47.0133 92.2417 47.24C91.8951 47.4667 91.5617 47.74 91.2417 48.06V52.94C91.2417 53.1667 91.2484 53.3867 91.2617 53.6C91.2884 53.8133 91.3684 53.9867 91.5017 54.12C91.6484 54.24 91.9084 54.3 92.2817 54.3C92.4017 54.3 92.5017 54.3133 92.5817 54.34C92.6751 54.3533 92.7284 54.46 92.7417 54.66C92.7417 54.7533 92.7151 54.8467 92.6617 54.94C92.6084 55.02 92.5284 55.06 92.4217 55.06C92.0351 55.0333 91.6751 55.0133 91.3417 55C91.0217 55 90.6817 55 90.3217 55C89.9617 55 89.6217 55 89.3017 55C88.9817 55.0133 88.6284 55.0333 88.2417 55.06ZM99.1178 55.24C98.3045 55.24 97.6511 55.0067 97.1578 54.54C96.6778 54.0733 96.4378 53.5133 96.4378 52.86C96.4378 52.18 96.6111 51.6467 96.9578 51.26C97.3178 50.8733 97.7845 50.5867 98.3578 50.4C98.9445 50.2133 99.5778 50.0867 100.258 50.02C100.951 49.9533 101.624 49.9 102.278 49.86V48.28C102.278 47.6533 102.118 47.1667 101.798 46.82C101.491 46.46 100.964 46.28 100.218 46.28C99.8445 46.28 99.4911 46.4 99.1578 46.64C98.8378 46.88 98.6778 47.2267 98.6778 47.68C98.6778 47.8933 98.7311 48.0733 98.8378 48.22C98.9445 48.3667 99.0511 48.48 99.1578 48.56C99.2645 48.64 99.3178 48.6933 99.3178 48.72C99.3178 48.7733 99.2378 48.8733 99.0778 49.02C98.9311 49.1533 98.7245 49.22 98.4578 49.22C98.0445 49.22 97.7245 49.0667 97.4978 48.76C97.2711 48.4533 97.1578 48.1133 97.1578 47.74C97.1578 47.2333 97.3111 46.8333 97.6178 46.54C97.9378 46.2467 98.3445 46.0333 98.8378 45.9C99.3311 45.7667 99.8311 45.7 100.338 45.7C100.938 45.7 101.518 45.7733 102.078 45.92C102.651 46.0667 103.118 46.3467 103.478 46.76C103.851 47.1733 104.038 47.7933 104.038 48.62V53.28C104.051 53.4133 104.084 53.5733 104.138 53.76C104.191 53.9467 104.291 54.1133 104.438 54.26C104.598 54.3933 104.811 54.46 105.078 54.46C105.171 54.46 105.244 54.48 105.298 54.52C105.351 54.5467 105.378 54.6333 105.378 54.78C105.378 54.9 105.311 54.9933 105.178 55.06C105.044 55.1267 104.891 55.1733 104.718 55.2C104.544 55.2267 104.398 55.24 104.278 55.24C103.784 55.24 103.344 55.1 102.958 54.82C102.571 54.5267 102.344 54.1267 102.278 53.62C101.984 54.1533 101.544 54.56 100.958 54.84C100.384 55.1067 99.7711 55.24 99.1178 55.24ZM99.7578 54.16C100.211 54.16 100.624 54.0467 100.998 53.82C101.384 53.5933 101.691 53.2867 101.918 52.9C102.158 52.5 102.278 52.06 102.278 51.58V50.44C100.904 50.5333 99.9245 50.7533 99.3378 51.1C98.7511 51.4467 98.4578 52.0133 98.4578 52.8C98.4578 53.7067 98.8911 54.16 99.7578 54.16ZM106.46 59.16C106.366 59.16 106.286 59.1133 106.22 59.02C106.166 58.94 106.14 58.8533 106.14 58.76C106.153 58.56 106.2 58.4467 106.28 58.42C106.373 58.4067 106.48 58.4 106.6 58.4C106.96 58.4 107.206 58.3333 107.34 58.2C107.486 58.08 107.573 57.9133 107.6 57.7C107.626 57.4867 107.64 57.2667 107.64 57.04V48.36C107.64 48.12 107.626 47.9 107.6 47.7C107.586 47.4867 107.513 47.32 107.38 47.2C107.246 47.0667 106.993 47 106.62 47C106.5 47 106.386 46.9867 106.28 46.96C106.186 46.92 106.14 46.8 106.14 46.6C106.14 46.4 106.246 46.28 106.46 46.24C107.073 46.1467 107.54 46.0533 107.86 45.96C108.193 45.8667 108.44 45.7867 108.6 45.72C108.773 45.6533 108.926 45.6133 109.06 45.6C109.166 45.5867 109.253 45.6067 109.32 45.66C109.4 45.7133 109.44 45.82 109.44 45.98V46.94H109.5C109.873 46.5933 110.32 46.3 110.84 46.06C111.36 45.82 111.86 45.7 112.34 45.7C113.153 45.7 113.873 45.9 114.5 46.3C115.126 46.7 115.62 47.26 115.98 47.98C116.34 48.6867 116.52 49.5133 116.52 50.46C116.52 51.42 116.3 52.26 115.86 52.98C115.42 53.7 114.853 54.26 114.16 54.66C113.466 55.0467 112.726 55.24 111.94 55.24C111.34 55.24 110.853 55.1733 110.48 55.04C110.12 54.92 109.806 54.78 109.54 54.62H109.46V57.04C109.46 57.2667 109.473 57.4867 109.5 57.7C109.526 57.9133 109.613 58.08 109.76 58.2C109.906 58.3333 110.153 58.4 110.5 58.4C110.62 58.4 110.72 58.4067 110.8 58.42C110.893 58.4467 110.946 58.56 110.96 58.76C110.96 58.8533 110.933 58.94 110.88 59.02C110.826 59.1133 110.746 59.16 110.64 59.16C110.253 59.1333 109.893 59.1133 109.56 59.1C109.24 59.1 108.9 59.1 108.54 59.1C108.18 59.1 107.84 59.1 107.52 59.1C107.2 59.1133 106.846 59.1333 106.46 59.16ZM111.78 54.56C112.3 54.56 112.733 54.4333 113.08 54.18C113.426 53.9133 113.7 53.58 113.9 53.18C114.113 52.7667 114.26 52.3267 114.34 51.86C114.433 51.38 114.48 50.9333 114.48 50.52C114.48 49.8933 114.38 49.2933 114.18 48.72C113.993 48.1333 113.686 47.6533 113.26 47.28C112.846 46.8933 112.3 46.7 111.62 46.7C111.113 46.7 110.693 46.8067 110.36 47.02C110.026 47.22 109.726 47.46 109.46 47.74V53.1C109.606 53.4467 109.873 53.78 110.26 54.1C110.66 54.4067 111.166 54.56 111.78 54.56Z" fill="#001324"/>
</svg>
