<svg width="125" height="100" viewBox="0 0 125 100" fill="none" xmlns="http://www.w3.org/2000/svg">
<g clip-path="url(#clip0_29_2)">
<path fill-rule="evenodd" clip-rule="evenodd" d="M95 100C97.7614 100 100 97.7614 100 95V5C100 2.23858 97.7614 0 95 0H0V25C13.8071 25 25 36.1929 25 50C25 63.8071 13.8071 75 0 75V100H95Z" fill="#FFAFAF"/>
<mask id="mask0_29_2" style="mask-type:luminance" maskUnits="userSpaceOnUse" x="0" y="0" width="100" height="100">
<path fill-rule="evenodd" clip-rule="evenodd" d="M95 100C97.7614 100 100 97.7614 100 95V5C100 2.23858 97.7614 0 95 0H0V25C13.8071 25 25 36.1929 25 50C25 63.8071 13.8071 75 0 75V100H95Z" fill="white"/>
</mask>
<g mask="url(#mask0_29_2)">
<path d="M0 0V-2H-2V0H0ZM0 25H-2V27H0V25ZM0 75V73H-2V75H0ZM0 100H-2V102H0V100ZM98 95C98 96.6569 96.6569 98 95 98V102C98.866 102 102 98.866 102 95H98ZM98 5V95H102V5H98ZM95 2C96.6569 2 98 3.34315 98 5H102C102 1.13401 98.866 -2 95 -2V2ZM0 2H95V-2H0V2ZM2 25V0H-2V25H2ZM0 27C12.7026 27 23 37.2975 23 50H27C27 35.0883 14.9117 23 0 23V27ZM23 50C23 62.7025 12.7026 73 0 73V77C14.9117 77 27 64.9117 27 50H23ZM2 100V75H-2V100H2ZM95 98H0V102H95V98Z" fill="white"/>
</g>
<path d="M39.18 58.4C38.06 58.4 37.0267 58.1667 36.08 57.7C35.1467 57.22 34.3933 56.4933 33.82 55.52C33.26 54.5333 32.98 53.2867 32.98 51.78C32.98 50.42 33.2733 49.2333 33.86 48.22C34.46 47.1933 35.2867 46.4 36.34 45.84C37.3933 45.2667 38.6 44.98 39.96 44.98C40.4267 44.98 40.9067 45.0333 41.4 45.14C41.8933 45.2467 42.3533 45.4133 42.78 45.64C43.2067 45.8533 43.5467 46.14 43.8 46.5C44.0667 46.86 44.2 47.2933 44.2 47.8C44.2 48.3467 44.0333 48.8467 43.7 49.3C43.3667 49.74 42.9 49.96 42.3 49.96C42.0467 49.96 41.78 49.9 41.5 49.78C41.2333 49.6467 41.0933 49.4667 41.08 49.24C41.08 49.2 41.16 49.1267 41.32 49.02C41.4933 48.9133 41.66 48.7533 41.82 48.54C41.9933 48.3133 42.08 48.02 42.08 47.66C42.08 47.0867 41.86 46.6333 41.42 46.3C40.98 45.9533 40.4133 45.78 39.72 45.78C38.9067 45.78 38.1667 46.0067 37.5 46.46C36.8333 46.9133 36.3 47.58 35.9 48.46C35.5133 49.3267 35.32 50.3933 35.32 51.66C35.32 52.86 35.5067 53.8933 35.88 54.76C36.2667 55.6133 36.8 56.2733 37.48 56.74C38.1733 57.1933 38.9733 57.42 39.88 57.42C40.32 57.42 40.7 57.3933 41.02 57.34C41.34 57.2867 41.68 57.2067 42.04 57.1V55.06C42.04 54.6867 42.0267 54.3933 42 54.18C41.9733 53.9533 41.88 53.7867 41.72 53.68C41.56 53.5733 41.28 53.52 40.88 53.52C40.7467 53.52 40.62 53.5067 40.5 53.48C40.3933 53.4533 40.3333 53.3267 40.32 53.1C40.32 52.9933 40.3533 52.8933 40.42 52.8C40.5 52.7067 40.6067 52.66 40.74 52.66C41.1667 52.6733 41.5267 52.6867 41.82 52.7C42.1133 52.7133 42.4867 52.72 42.94 52.72C43.3933 52.72 43.76 52.7133 44.04 52.7C44.3333 52.6867 44.6867 52.6733 45.1 52.66C45.2333 52.66 45.3267 52.7067 45.38 52.8C45.4467 52.8933 45.48 52.9933 45.48 53.1C45.4667 53.3267 45.4067 53.4533 45.3 53.48C45.1933 53.5067 45.0667 53.52 44.92 53.52C44.5467 53.52 44.28 53.58 44.12 53.7C43.9733 53.8067 43.88 53.9733 43.84 54.2C43.8133 54.4267 43.8 54.7133 43.8 55.06V57.42C43.28 57.66 42.7933 57.8533 42.34 58C41.9 58.1467 41.4267 58.2467 40.92 58.3C40.4267 58.3667 39.8467 58.4 39.18 58.4ZM46.73 58.06C46.6367 58.06 46.5567 58.02 46.49 57.94C46.4367 57.8467 46.41 57.7533 46.41 57.66C46.4367 57.46 46.49 57.3533 46.57 57.34C46.65 57.3133 46.7567 57.3 46.89 57.3C47.2633 57.3 47.5167 57.24 47.65 57.12C47.7833 56.9867 47.8567 56.8133 47.87 56.6C47.8967 56.3867 47.91 56.1667 47.91 55.94V51.36C47.91 51.12 47.8967 50.9 47.87 50.7C47.8567 50.4867 47.7833 50.32 47.65 50.2C47.5167 50.0667 47.2633 50 46.89 50C46.77 50 46.6567 49.9867 46.55 49.96C46.4567 49.92 46.41 49.8 46.41 49.6C46.41 49.4 46.5167 49.28 46.73 49.24C47.3433 49.1467 47.81 49.0533 48.13 48.96C48.4633 48.8667 48.7167 48.7867 48.89 48.72C49.0633 48.6533 49.2167 48.6133 49.35 48.6C49.4567 48.5867 49.5433 48.6067 49.61 48.66C49.69 48.7133 49.73 48.82 49.73 48.98V55.94C49.73 56.1667 49.7367 56.3867 49.75 56.6C49.7767 56.8133 49.8567 56.9867 49.99 57.12C50.1367 57.24 50.3967 57.3 50.77 57.3C50.89 57.3 50.99 57.3133 51.07 57.34C51.1633 57.3533 51.2167 57.46 51.23 57.66C51.23 57.7533 51.2033 57.8467 51.15 57.94C51.0967 58.02 51.0167 58.06 50.91 58.06C50.5233 58.0333 50.1633 58.0133 49.83 58C49.51 58 49.17 58 48.81 58C48.45 58 48.11 58 47.79 58C47.47 58.0133 47.1167 58.0333 46.73 58.06ZM48.71 46.38C48.3367 46.38 48.0233 46.2667 47.77 46.04C47.5167 45.8 47.39 45.5067 47.39 45.16C47.39 44.8533 47.5433 44.58 47.85 44.34C48.1567 44.1 48.5033 43.98 48.89 43.98C49.2233 43.98 49.4967 44.1 49.71 44.34C49.9233 44.5667 50.03 44.86 50.03 45.22C50.03 45.54 49.9033 45.8133 49.65 46.04C49.3967 46.2667 49.0833 46.38 48.71 46.38ZM55.9098 58.34C55.5098 58.34 55.1298 58.24 54.7698 58.04C54.4098 57.84 54.1098 57.5333 53.8698 57.12C53.6432 56.7067 53.5298 56.1867 53.5298 55.56V49.68L52.3698 49.72C52.2765 49.72 52.2032 49.6867 52.1498 49.62C52.1098 49.54 52.0898 49.4533 52.0898 49.36C52.0898 49.0933 52.1832 48.94 52.3698 48.9C52.8632 48.8067 53.2365 48.6533 53.4898 48.44C53.7432 48.2133 53.9365 47.9467 54.0698 47.64C54.2165 47.3333 54.3498 47 54.4698 46.64C54.5098 46.5333 54.5698 46.4667 54.6498 46.44C54.7298 46.4 54.8165 46.38 54.9098 46.38C54.9898 46.38 55.0765 46.4 55.1698 46.44C55.2765 46.48 55.3298 46.5533 55.3298 46.66L55.1898 48.94L57.5298 48.8C57.6498 48.7867 57.7298 48.82 57.7698 48.9C57.8098 48.98 57.8298 49.0733 57.8298 49.18C57.8298 49.3133 57.8032 49.4467 57.7498 49.58C57.7098 49.7133 57.6565 49.78 57.5898 49.78L55.3498 49.72V55.8C55.3498 56.1867 55.4298 56.54 55.5898 56.86C55.7632 57.18 56.0698 57.34 56.5098 57.34C56.6565 57.34 56.8232 57.3267 57.0098 57.3C57.1965 57.2733 57.3965 57.2133 57.6098 57.12C57.6632 57.0933 57.7165 57.0733 57.7698 57.06C57.8232 57.0333 57.8765 57.02 57.9298 57.02C58.0365 57.02 58.1165 57.0667 58.1698 57.16C58.2232 57.24 58.2698 57.3267 58.3098 57.42C58.3498 57.54 58.3165 57.6333 58.2098 57.7C57.7965 57.9667 57.4165 58.14 57.0698 58.22C56.7232 58.3 56.3365 58.34 55.9098 58.34ZM59.948 58.06C59.8413 58.06 59.7613 58.02 59.708 57.94C59.6546 57.8467 59.628 57.7533 59.628 57.66C59.6413 57.46 59.688 57.3533 59.768 57.34C59.8613 57.3133 59.968 57.3 60.088 57.3C60.4613 57.3 60.7146 57.24 60.848 57.12C60.9946 56.9867 61.0746 56.8133 61.088 56.6C61.1146 56.3867 61.128 56.1667 61.128 55.94V46.18C61.128 45.94 61.1146 45.72 61.088 45.52C61.0746 45.3067 61.0013 45.14 60.868 45.02C60.7346 44.8867 60.4813 44.82 60.108 44.82C59.988 44.82 59.8746 44.8067 59.768 44.78C59.6746 44.74 59.628 44.62 59.628 44.42C59.628 44.22 59.7346 44.1 59.948 44.06C60.5613 43.9667 61.028 43.8733 61.348 43.78C61.6813 43.6867 61.9346 43.6067 62.108 43.54C62.2813 43.46 62.4346 43.42 62.568 43.42C62.6746 43.42 62.7613 43.4467 62.828 43.5C62.908 43.54 62.948 43.64 62.948 43.8V50.24H62.988C63.2546 49.9867 63.528 49.7467 63.808 49.52C64.088 49.28 64.4146 49.0867 64.788 48.94C65.1746 48.78 65.648 48.7 66.208 48.7C67.1146 48.7 67.8346 48.9733 68.368 49.52C68.9013 50.0667 69.168 50.7867 69.168 51.68V55.94C69.168 56.1667 69.1746 56.3867 69.188 56.6C69.2146 56.8133 69.2946 56.9867 69.428 57.12C69.5746 57.24 69.828 57.3 70.188 57.3C70.3213 57.3 70.428 57.3133 70.508 57.34C70.588 57.3533 70.6346 57.46 70.648 57.66C70.648 57.7533 70.6213 57.8467 70.568 57.94C70.528 58.02 70.4546 58.06 70.348 58.06C69.9613 58.0333 69.6013 58.0133 69.268 58C68.9346 58 68.5946 58 68.248 58C67.888 58 67.548 58 67.228 58C66.908 58.0133 66.5546 58.0333 66.168 58.06C66.0613 58.06 65.9813 58.02 65.928 57.94C65.8746 57.8467 65.848 57.7533 65.848 57.66C65.8613 57.46 65.908 57.3533 65.988 57.34C66.068 57.3133 66.1746 57.3 66.308 57.3C66.6813 57.3 66.9346 57.24 67.068 57.12C67.2146 56.9867 67.2946 56.8133 67.308 56.6C67.3213 56.3867 67.328 56.1667 67.328 55.94V51.7C67.328 51.0333 67.128 50.5533 66.728 50.26C66.328 49.9533 65.8946 49.8 65.428 49.8C64.9746 49.8 64.5746 49.8867 64.228 50.06C63.8813 50.22 63.6013 50.4067 63.388 50.62C63.1746 50.8333 63.028 51.02 62.948 51.18V55.94C62.948 56.1667 62.9546 56.3867 62.968 56.6C62.9946 56.8133 63.0746 56.9867 63.208 57.12C63.3546 57.24 63.608 57.3 63.968 57.3C64.1013 57.3 64.208 57.3133 64.288 57.34C64.368 57.3533 64.4146 57.46 64.428 57.66C64.428 57.7533 64.4013 57.8467 64.348 57.94C64.308 58.02 64.2346 58.06 64.128 58.06C63.7413 58.0333 63.3813 58.0133 63.048 58C62.7146 58 62.3746 58 62.028 58C61.668 58 61.328 58 61.008 58C60.688 58.0133 60.3346 58.0333 59.948 58.06ZM75.6281 58.24C74.7215 58.24 74.0015 57.9667 73.4681 57.42C72.9348 56.8733 72.6681 56.1533 72.6681 55.26V51.56C72.6681 51.32 72.6548 51.1 72.6281 50.9C72.6148 50.6867 72.5415 50.52 72.4081 50.4C72.2748 50.2667 72.0215 50.2 71.6481 50.2C71.5281 50.2 71.4148 50.1867 71.3081 50.16C71.2148 50.12 71.1681 50 71.1681 49.8C71.1681 49.6 71.2748 49.48 71.4881 49.44C72.1015 49.3467 72.5681 49.2533 72.8881 49.16C73.2215 49.0667 73.4748 48.9867 73.6481 48.92C73.8215 48.8533 73.9748 48.8133 74.1081 48.8C74.2148 48.7867 74.3015 48.8067 74.3681 48.86C74.4481 48.9133 74.4881 49.02 74.4881 49.18V55.24C74.4881 55.68 74.5815 56.04 74.7681 56.32C74.9681 56.6 75.2148 56.8067 75.5081 56.94C75.8015 57.0733 76.1015 57.14 76.4081 57.14C76.8748 57.14 77.2815 57.06 77.6281 56.9C77.9748 56.7267 78.2548 56.5333 78.4681 56.32C78.6815 56.0933 78.8215 55.9067 78.8881 55.76V51.56C78.8881 51.32 78.8748 51.1 78.8481 50.9C78.8348 50.6867 78.7615 50.52 78.6281 50.4C78.4948 50.2667 78.2415 50.2 77.8681 50.2C77.7481 50.2 77.6348 50.1867 77.5281 50.16C77.4348 50.12 77.3881 50 77.3881 49.8C77.3881 49.6 77.4948 49.48 77.7081 49.44C78.3215 49.3467 78.7881 49.2533 79.1081 49.16C79.4415 49.0667 79.6948 48.9867 79.8681 48.92C80.0415 48.8533 80.1948 48.8133 80.3281 48.8C80.4348 48.7867 80.5215 48.8067 80.5881 48.86C80.6681 48.9133 80.7081 49.02 80.7081 49.18V56.1C80.7081 56.8867 81.2348 57.28 82.2881 57.28C82.4348 57.28 82.5281 57.32 82.5681 57.4C82.6081 57.48 82.6281 57.5667 82.6281 57.66C82.6281 57.8467 82.5148 57.96 82.2881 58L79.0681 58.22C78.9748 58.22 78.9215 58.18 78.9081 58.1C78.8948 58.02 78.8881 57.9267 78.8881 57.82V56.7H78.8481C78.5948 56.94 78.3215 57.18 78.0281 57.42C77.7481 57.66 77.4148 57.8533 77.0281 58C76.6548 58.16 76.1881 58.24 75.6281 58.24ZM84.6822 58.28C84.5622 58.28 84.4689 58.24 84.4022 58.16C84.3355 58.08 84.3022 57.9867 84.3022 57.88V46.2C84.3022 45.96 84.2889 45.74 84.2622 45.54C84.2489 45.3267 84.1755 45.16 84.0422 45.04C83.9089 44.9067 83.6555 44.84 83.2822 44.84C83.1622 44.84 83.0489 44.8267 82.9422 44.8C82.8489 44.76 82.8022 44.64 82.8022 44.44C82.8022 44.24 82.9089 44.12 83.1222 44.08C83.7355 43.9867 84.2022 43.8933 84.5222 43.8C84.8555 43.7067 85.1089 43.6267 85.2822 43.56C85.4555 43.4933 85.6089 43.4533 85.7422 43.44C85.8489 43.4267 85.9355 43.4467 86.0022 43.5C86.0822 43.5533 86.1222 43.66 86.1222 43.82V49.86H86.1822C86.5822 49.46 87.0289 49.1667 87.5222 48.98C88.0155 48.7933 88.4889 48.7 88.9422 48.7C89.7289 48.7 90.4355 48.9 91.0622 49.3C91.7022 49.7 92.2089 50.2533 92.5822 50.96C92.9555 51.6533 93.1422 52.4667 93.1422 53.4C93.1422 54.3067 92.9289 55.1267 92.5022 55.86C92.0755 56.5933 91.5155 57.1733 90.8222 57.6C90.1289 58.0267 89.3755 58.24 88.5622 58.24C87.3755 58.24 86.3489 57.9133 85.4822 57.26H85.3822C85.2889 57.46 85.1955 57.68 85.1022 57.92C85.0222 58.16 84.8822 58.28 84.6822 58.28ZM88.3822 57.56C89.1822 57.56 89.8355 57.1933 90.3422 56.46C90.8489 55.7267 91.1022 54.7333 91.1022 53.48C91.1022 52.8533 91.0022 52.2533 90.8022 51.68C90.6155 51.1067 90.3089 50.6333 89.8822 50.26C89.4689 49.8867 88.9222 49.7 88.2422 49.7C87.7889 49.7 87.3889 49.78 87.0422 49.94C86.6955 50.1 86.3889 50.3267 86.1222 50.62V55.9C86.1622 56.0867 86.2689 56.3133 86.4422 56.58C86.6289 56.8333 86.8822 57.06 87.2022 57.26C87.5222 57.46 87.9155 57.56 88.3822 57.56Z" fill="#001324"/>
</g>
<defs>
<clipPath id="clip0_29_2">
<rect width="100" height="100" fill="white"/>
</clipPath>
</defs>
</svg>
