<svg width="125" height="100" viewBox="0 0 125 100" fill="none" xmlns="http://www.w3.org/2000/svg">
<mask id="path-1-inside-1_3_70" fill="white">
<path fill-rule="evenodd" clip-rule="evenodd" d="M5 100L100 100V75C113.807 75 125 63.8071 125 50C125 36.1929 113.807 25 100 25V0L5 0C2.23858 0 0 2.23858 0 5L0 95C0 97.7614 2.23858 100 5 100Z"/>
</mask>
<path fill-rule="evenodd" clip-rule="evenodd" d="M5 100L100 100V75C113.807 75 125 63.8071 125 50C125 36.1929 113.807 25 100 25V0L5 0C2.23858 0 0 2.23858 0 5L0 95C0 97.7614 2.23858 100 5 100Z" fill="#FFAFAF"/>
<path d="M100 100V102H102V100H100ZM100 75V73H98V75H100ZM100 25H98V27H100V25ZM100 0H102V-2H100V0ZM100 98L5 98V102L100 102V98ZM98 75V100H102V75H98ZM123 50C123 62.7025 112.703 73 100 73V77C114.912 77 127 64.9117 127 50H123ZM100 27C112.703 27 123 37.2975 123 50H127C127 35.0883 114.912 23 100 23V27ZM98 0V25H102V0H98ZM5 2L100 2V-2L5 -2V2ZM2 5C2 3.34315 3.34315 2 5 2V-2C1.13401 -2 -2 1.13401 -2 5H2ZM2 95L2 5H-2L-2 95H2ZM5 98C3.34315 98 2 96.6569 2 95H-2C-2 98.866 1.13401 102 5 102V98Z" fill="white" mask="url(#path-1-inside-1_3_70)"/>
<path d="M23.464 58.072C23.304 58.072 23.192 58.016 23.128 57.904C23.064 57.792 23.032 57.672 23.032 57.544C23.048 57.272 23.112 57.12 23.224 57.088C23.336 57.056 23.472 57.04 23.632 57.04C24.144 57.04 24.504 56.952 24.712 56.776C24.92 56.584 25.048 56.352 25.096 56.08C25.16 55.792 25.192 55.496 25.192 55.192V45.664C25.192 45.36 25.16 45.072 25.096 44.8C25.048 44.512 24.92 44.28 24.712 44.104C24.504 43.912 24.144 43.816 23.632 43.816C23.472 43.816 23.336 43.8 23.224 43.768C23.112 43.736 23.048 43.584 23.032 43.312C23.032 43.184 23.064 43.064 23.128 42.952C23.192 42.84 23.304 42.784 23.464 42.784C23.976 42.8 24.456 42.816 24.904 42.832C25.352 42.848 25.816 42.856 26.296 42.856C27.272 42.856 28.272 42.832 29.296 42.784C29.456 42.784 29.568 42.84 29.632 42.952C29.696 43.064 29.728 43.184 29.728 43.312C29.712 43.584 29.648 43.736 29.536 43.768C29.44 43.8 29.304 43.816 29.128 43.816C28.632 43.816 28.272 43.912 28.048 44.104C27.84 44.28 27.712 44.512 27.664 44.8C27.616 45.072 27.584 45.36 27.568 45.664V49.912H35.104V45.664C35.104 45.36 35.072 45.072 35.008 44.8C34.96 44.512 34.832 44.28 34.624 44.104C34.416 43.912 34.056 43.816 33.544 43.816C33.384 43.816 33.24 43.8 33.112 43.768C33 43.736 32.936 43.584 32.92 43.312C32.92 43.184 32.952 43.064 33.016 42.952C33.096 42.84 33.208 42.784 33.352 42.784C34.392 42.832 35.392 42.856 36.352 42.856C36.832 42.856 37.296 42.848 37.744 42.832C38.208 42.816 38.696 42.8 39.208 42.784C39.352 42.784 39.456 42.84 39.52 42.952C39.6 43.064 39.64 43.184 39.64 43.312C39.624 43.584 39.56 43.736 39.448 43.768C39.336 43.8 39.2 43.816 39.04 43.816C38.544 43.816 38.184 43.912 37.96 44.104C37.736 44.28 37.6 44.512 37.552 44.8C37.504 45.072 37.472 45.36 37.456 45.664V55.192C37.472 55.496 37.504 55.792 37.552 56.08C37.6 56.352 37.736 56.584 37.96 56.776C38.184 56.952 38.544 57.04 39.04 57.04C39.2 57.04 39.336 57.056 39.448 57.088C39.56 57.12 39.624 57.272 39.64 57.544C39.64 57.672 39.6 57.792 39.52 57.904C39.456 58.016 39.352 58.072 39.208 58.072C38.696 58.04 38.208 58.016 37.744 58C37.28 58 36.808 58 36.328 58C35.384 58 34.392 58.024 33.352 58.072C33.208 58.072 33.096 58.016 33.016 57.904C32.952 57.792 32.92 57.672 32.92 57.544C32.936 57.272 33 57.12 33.112 57.088C33.24 57.056 33.384 57.04 33.544 57.04C34.056 57.04 34.416 56.952 34.624 56.776C34.832 56.584 34.96 56.352 35.008 56.08C35.072 55.792 35.104 55.496 35.104 55.192V50.944H27.568V55.192C27.584 55.496 27.616 55.792 27.664 56.08C27.712 56.352 27.84 56.584 28.048 56.776C28.272 56.952 28.632 57.04 29.128 57.04C29.304 57.04 29.44 57.056 29.536 57.088C29.648 57.12 29.712 57.272 29.728 57.544C29.728 57.672 29.696 57.792 29.632 57.904C29.568 58.016 29.456 58.072 29.296 58.072C28.272 58.024 27.28 58 26.32 58C25.84 58 25.368 58 24.904 58C24.456 58.016 23.976 58.04 23.464 58.072ZM44.671 58.072C44.511 58.072 44.399 58.016 44.335 57.904C44.271 57.792 44.239 57.672 44.239 57.544C44.255 57.272 44.319 57.12 44.431 57.088C44.543 57.056 44.679 57.04 44.839 57.04C45.351 57.04 45.711 56.952 45.919 56.776C46.127 56.584 46.255 56.352 46.303 56.08C46.367 55.792 46.399 55.496 46.399 55.192V43.744H44.743C44.199 43.76 43.775 43.88 43.471 44.104C43.167 44.312 42.943 44.648 42.799 45.112C42.655 45.56 42.527 46.144 42.415 46.864C42.399 47.008 42.295 47.12 42.103 47.2C41.927 47.264 41.751 47.296 41.575 47.296C41.463 47.296 41.335 47.256 41.191 47.176C41.063 47.096 40.999 46.976 40.999 46.816L41.071 43.432C41.071 43.208 41.135 43.056 41.263 42.976C41.391 42.896 41.543 42.856 41.719 42.856H53.455C53.631 42.856 53.775 42.896 53.887 42.976C54.015 43.056 54.079 43.208 54.079 43.432L54.175 46.816C54.175 46.976 54.103 47.096 53.959 47.176C53.831 47.256 53.703 47.296 53.575 47.296C53.415 47.296 53.247 47.264 53.071 47.2C52.895 47.12 52.791 47.008 52.759 46.864C52.647 46.144 52.511 45.56 52.351 45.112C52.207 44.648 51.983 44.312 51.679 44.104C51.391 43.88 50.967 43.76 50.407 43.744H48.775V55.192C48.791 55.496 48.823 55.792 48.871 56.08C48.919 56.352 49.047 56.584 49.255 56.776C49.479 56.952 49.839 57.04 50.335 57.04C50.495 57.04 50.631 57.056 50.743 57.088C50.855 57.12 50.919 57.272 50.935 57.544C50.935 57.672 50.903 57.792 50.839 57.904C50.775 58.016 50.663 58.072 50.503 58.072C49.991 58.04 49.503 58.016 49.039 58C48.591 58 48.135 58 47.671 58C46.711 58 45.711 58.024 44.671 58.072ZM64.7564 58.12C64.6604 58.12 64.5644 58.096 64.4684 58.048C64.3724 58.016 64.3004 57.96 64.2524 57.88L58.8524 45.664H58.7804L58.8284 55.192C58.8444 55.496 58.8684 55.792 58.9004 56.08C58.9484 56.352 59.0764 56.584 59.2844 56.776C59.4924 56.952 59.8444 57.04 60.3404 57.04C60.5164 57.04 60.6604 57.056 60.7724 57.088C60.8844 57.12 60.9484 57.272 60.9644 57.544C60.9644 57.672 60.9244 57.792 60.8444 57.904C60.7804 58.016 60.6764 58.072 60.5324 58.072C60.1964 58.056 59.9244 58.04 59.7164 58.024C59.5084 58.024 59.3084 58.016 59.1164 58C58.9244 58 58.6684 58 58.3484 58C57.8684 58 57.4764 58 57.1724 58C56.8844 58.016 56.4844 58.04 55.9724 58.072C55.8124 58.072 55.7004 58.016 55.6364 57.904C55.5724 57.792 55.5404 57.672 55.5404 57.544C55.5564 57.272 55.6204 57.12 55.7324 57.088C55.8444 57.056 55.9804 57.04 56.1404 57.04C56.6524 57.04 57.0044 56.952 57.1964 56.776C57.4044 56.584 57.5324 56.352 57.5804 56.08C57.6284 55.792 57.6524 55.496 57.6524 55.192L57.7004 45.664C57.7004 45.152 57.6444 44.776 57.5324 44.536C57.4204 44.28 57.2444 44.104 57.0044 44.008C56.7644 43.896 56.4604 43.808 56.0924 43.744C55.8684 43.696 55.7084 43.656 55.6124 43.624C55.5324 43.592 55.4924 43.448 55.4924 43.192C55.4924 42.92 55.5884 42.776 55.7804 42.76C55.9724 42.728 56.1964 42.712 56.4524 42.712C57.2364 42.712 57.9244 42.776 58.5164 42.904C59.1244 43.032 59.6524 43.28 60.1004 43.648C60.5484 44 60.9164 44.536 61.2044 45.256L65.3324 54.52H65.4044L70.1324 42.856H71.5004C71.9804 42.856 72.4444 42.848 72.8924 42.832C73.3564 42.816 73.8444 42.8 74.3564 42.784C74.5164 42.784 74.6284 42.84 74.6924 42.952C74.7564 43.064 74.7884 43.184 74.7884 43.312C74.7724 43.584 74.7084 43.736 74.5964 43.768C74.4844 43.8 74.3484 43.816 74.1884 43.816C73.6924 43.816 73.3324 43.912 73.1084 44.104C72.9004 44.28 72.7724 44.512 72.7244 44.8C72.6764 45.072 72.6444 45.36 72.6284 45.664V55.192C72.6444 55.496 72.6764 55.792 72.7244 56.08C72.7724 56.352 72.9004 56.584 73.1084 56.776C73.3324 56.952 73.6924 57.04 74.1884 57.04C74.3484 57.04 74.4844 57.056 74.5964 57.088C74.7084 57.12 74.7724 57.272 74.7884 57.544C74.7884 57.672 74.7564 57.792 74.6924 57.904C74.6284 58.016 74.5164 58.072 74.3564 58.072C73.8444 58.04 73.3564 58.016 72.8924 58C72.4284 58 71.9564 58 71.4764 58C70.5484 58 69.5644 58.024 68.5244 58.072C68.3644 58.072 68.2524 58.016 68.1884 57.904C68.1244 57.792 68.0924 57.672 68.0924 57.544C68.1084 57.272 68.1724 57.12 68.2844 57.088C68.3964 57.056 68.5324 57.04 68.6924 57.04C69.2044 57.04 69.5644 56.952 69.7724 56.776C69.9804 56.584 70.1084 56.352 70.1564 56.08C70.2204 55.792 70.2524 55.496 70.2524 55.192V45.664H70.1804L65.2364 57.88C65.2044 57.96 65.1404 58.016 65.0444 58.048C64.9484 58.096 64.8524 58.12 64.7564 58.12ZM77.2525 58.072C77.1085 58.072 77.0045 58.016 76.9405 57.904C76.8765 57.792 76.8445 57.672 76.8445 57.544C76.8605 57.272 76.9245 57.12 77.0365 57.088C77.1485 57.056 77.2845 57.04 77.4445 57.04C77.9565 57.04 78.3165 56.952 78.5245 56.776C78.7325 56.584 78.8605 56.352 78.9085 56.08C78.9725 55.792 79.0045 55.496 79.0045 55.192V45.664C79.0045 45.36 78.9725 45.072 78.9085 44.8C78.8605 44.512 78.7325 44.28 78.5245 44.104C78.3165 43.912 77.9565 43.816 77.4445 43.816C77.2845 43.816 77.1485 43.8 77.0365 43.768C76.9245 43.736 76.8605 43.584 76.8445 43.312C76.8445 43.184 76.8765 43.064 76.9405 42.952C77.0045 42.84 77.1085 42.784 77.2525 42.784C77.7805 42.8 78.2685 42.816 78.7165 42.832C79.1645 42.848 79.6285 42.856 80.1085 42.856C81.0845 42.856 82.0845 42.832 83.1085 42.784C83.2685 42.784 83.3805 42.84 83.4445 42.952C83.5085 43.064 83.5405 43.184 83.5405 43.312C83.5245 43.584 83.4605 43.736 83.3485 43.768C83.2365 43.8 83.1005 43.816 82.9405 43.816C82.4445 43.816 82.0845 43.912 81.8605 44.104C81.6525 44.28 81.5245 44.512 81.4765 44.8C81.4285 45.072 81.3965 45.36 81.3805 45.664V55.552C81.3965 55.76 81.4285 55.984 81.4765 56.224C81.5245 56.464 81.6605 56.664 81.8845 56.824C82.1245 56.984 82.5165 57.056 83.0605 57.04H85.2205C85.7805 57.024 86.2045 56.936 86.4925 56.776C86.7965 56.6 87.0365 56.312 87.2125 55.912C87.3885 55.512 87.5805 54.96 87.7885 54.256C87.8525 54.096 87.9565 53.992 88.1005 53.944C88.2605 53.896 88.4285 53.888 88.6045 53.92C88.7325 53.936 88.8605 53.992 88.9885 54.088C89.1325 54.184 89.1965 54.312 89.1805 54.472L88.7005 57.496C88.6525 57.72 88.5725 57.864 88.4605 57.928C88.3645 57.976 88.2125 58 88.0045 58H80.1325C79.6525 58 79.1805 58 78.7165 58C78.2685 58.016 77.7805 58.04 77.2525 58.072Z" fill="#001324"/>
</svg>
