<svg width="125" height="100" viewBox="0 0 125 100" fill="none" xmlns="http://www.w3.org/2000/svg">
<mask id="path-1-inside-1_3_26" fill="white">
<path fill-rule="evenodd" clip-rule="evenodd" d="M100 100H0V75C13.8071 75 25 63.8071 25 50C25 36.1929 13.8071 25 0 25V0H100V25C113.807 25 125 36.1929 125 50C125 63.8071 113.807 75 100 75V100Z"/>
</mask>
<path fill-rule="evenodd" clip-rule="evenodd" d="M100 100H0V75C13.8071 75 25 63.8071 25 50C25 36.1929 13.8071 25 0 25V0H100V25C113.807 25 125 36.1929 125 50C125 63.8071 113.807 75 100 75V100Z" fill="#9FD1FF"/>
<path d="M0 100H-2V102H0V100ZM100 100V102H102V100H100ZM0 75V73H-2V75H0ZM0 25H-2V27H0V25ZM0 0V-2H-2V0H0ZM100 0H102V-2H100V0ZM100 25H98V27H100V25ZM100 75V73H98V75H100ZM0 102H100V98H0V102ZM-2 75V100H2V75H-2ZM23 50C23 62.7025 12.7026 73 0 73V77C14.9117 77 27 64.9117 27 50H23ZM0 27C12.7026 27 23 37.2975 23 50H27C27 35.0883 14.9117 23 0 23V27ZM-2 0V25H2V0H-2ZM100 -2H0V2H100V-2ZM102 25V0H98V25H102ZM100 27C112.703 27 123 37.2975 123 50H127C127 35.0883 114.912 23 100 23V27ZM123 50C123 62.7025 112.703 73 100 73V77C114.912 77 127 64.9117 127 50H123ZM102 100V75H98V100H102Z" fill="white" mask="url(#path-1-inside-1_3_26)"/>
<path d="M35.464 58.072C35.304 58.072 35.192 58.016 35.128 57.904C35.064 57.792 35.032 57.672 35.032 57.544C35.048 57.272 35.112 57.12 35.224 57.088C35.336 57.056 35.472 57.04 35.632 57.04C36.144 57.04 36.504 56.952 36.712 56.776C36.92 56.584 37.048 56.352 37.096 56.08C37.16 55.792 37.192 55.496 37.192 55.192V45.688C37.192 45.384 37.16 45.088 37.096 44.8C37.048 44.512 36.92 44.28 36.712 44.104C36.504 43.912 36.144 43.816 35.632 43.816C35.472 43.816 35.336 43.8 35.224 43.768C35.112 43.736 35.048 43.584 35.032 43.312C35.032 43.184 35.064 43.064 35.128 42.952C35.192 42.84 35.304 42.784 35.464 42.784C35.976 42.8 36.456 42.816 36.904 42.832C37.368 42.848 37.84 42.856 38.32 42.856H42.448C43.744 42.872 44.792 43.072 45.592 43.456C46.408 43.84 47 44.328 47.368 44.92C47.736 45.512 47.92 46.128 47.92 46.768C47.92 47.616 47.576 48.416 46.888 49.168C46.216 49.92 45.264 50.456 44.032 50.776C44.64 51.736 45.256 52.704 45.88 53.68C46.504 54.64 47.224 55.544 48.04 56.392C48.264 56.568 48.48 56.712 48.688 56.824C48.912 56.936 49.176 57.008 49.48 57.04C49.608 57.056 49.736 57.08 49.864 57.112C49.992 57.128 50.064 57.272 50.08 57.544C50.08 57.672 50.048 57.792 49.984 57.904C49.92 58.016 49.808 58.072 49.648 58.072C49.312 58.056 49.04 58.04 48.832 58.024C48.64 58.024 48.448 58.016 48.256 58C48.064 58 47.808 58 47.488 58C46.832 57.872 46.272 57.64 45.808 57.304C45.36 56.968 44.92 56.504 44.488 55.912C44.04 55.304 43.624 54.688 43.24 54.064C42.856 53.44 42.48 52.832 42.112 52.24C41.904 51.904 41.688 51.664 41.464 51.52C41.256 51.36 40.856 51.28 40.264 51.28H39.568V55.192C39.584 55.496 39.616 55.792 39.664 56.08C39.712 56.352 39.84 56.584 40.048 56.776C40.272 56.952 40.632 57.04 41.128 57.04C41.288 57.04 41.424 57.056 41.536 57.088C41.648 57.12 41.712 57.272 41.728 57.544C41.728 57.672 41.696 57.792 41.632 57.904C41.568 58.016 41.456 58.072 41.296 58.072C40.272 58.024 39.272 58 38.296 58C37.816 58 37.352 58 36.904 58C36.456 58.016 35.976 58.04 35.464 58.072ZM39.568 50.344H41.68C42.496 50.344 43.136 50.232 43.6 50.008C44.08 49.784 44.44 49.496 44.68 49.144C44.92 48.792 45.072 48.424 45.136 48.04C45.216 47.656 45.256 47.304 45.256 46.984C45.256 46.456 45.136 45.944 44.896 45.448C44.672 44.952 44.264 44.544 43.672 44.224C43.096 43.904 42.288 43.744 41.248 43.744C40.56 43.744 40.104 43.88 39.88 44.152C39.672 44.408 39.568 44.936 39.568 45.736V50.344ZM56.1391 58.288C54.9071 58.288 53.8671 58.024 53.0191 57.496C52.1871 56.968 51.5631 56.264 51.1471 55.384C50.7311 54.504 50.5231 53.544 50.5231 52.504C50.5231 51.8 50.6431 51.12 50.8831 50.464C51.1391 49.792 51.4991 49.184 51.9631 48.64C52.4271 48.08 52.9871 47.64 53.6431 47.32C54.2991 47 55.0431 46.84 55.8751 46.84C57.3471 46.84 58.4511 47.224 59.1871 47.992C59.9391 48.744 60.3711 49.704 60.4831 50.872C60.4831 51.432 60.3231 51.8 60.0031 51.976C59.6991 52.152 59.2991 52.24 58.8031 52.24H52.9711C52.9711 53.168 53.0991 54 53.3551 54.736C53.6111 55.456 54.0111 56.032 54.5551 56.464C55.1151 56.88 55.8511 57.088 56.7631 57.088C57.4351 57.088 58.0111 56.944 58.4911 56.656C58.9711 56.368 59.4351 55.864 59.8831 55.144C60.0111 54.984 60.1871 54.976 60.4111 55.12C60.5391 55.184 60.6191 55.288 60.6511 55.432C60.6831 55.56 60.6671 55.672 60.6031 55.768C60.1071 56.552 59.4831 57.168 58.7311 57.616C57.9791 58.064 57.1151 58.288 56.1391 58.288ZM52.9711 51.328H56.8831C57.2671 51.328 57.5711 51.256 57.7951 51.112C58.0351 50.952 58.1631 50.688 58.1791 50.32C58.1791 49.632 57.9871 49.024 57.6031 48.496C57.2351 47.952 56.6591 47.68 55.8751 47.68C55.0751 47.68 54.4031 48 53.8591 48.64C53.3311 49.28 53.0351 50.176 52.9711 51.328ZM65.6179 58.288C64.6419 58.288 63.8579 58.008 63.2659 57.448C62.6899 56.888 62.4019 56.216 62.4019 55.432C62.4019 54.616 62.6099 53.976 63.0259 53.512C63.4579 53.048 64.0179 52.704 64.7059 52.48C65.4099 52.256 66.1699 52.104 66.9859 52.024C67.8179 51.944 68.6259 51.88 69.4099 51.832V49.936C69.4099 49.184 69.2179 48.6 68.8339 48.184C68.4659 47.752 67.8339 47.536 66.9379 47.536C66.4899 47.536 66.0659 47.68 65.6659 47.968C65.2819 48.256 65.0899 48.672 65.0899 49.216C65.0899 49.472 65.1539 49.688 65.2819 49.864C65.4099 50.04 65.5379 50.176 65.6659 50.272C65.7939 50.368 65.8579 50.432 65.8579 50.464C65.8579 50.528 65.7619 50.648 65.5699 50.824C65.3939 50.984 65.1459 51.064 64.8259 51.064C64.3299 51.064 63.9459 50.88 63.6739 50.512C63.4019 50.144 63.2659 49.736 63.2659 49.288C63.2659 48.68 63.4499 48.2 63.8179 47.848C64.2019 47.496 64.6899 47.24 65.2819 47.08C65.8739 46.92 66.4739 46.84 67.0819 46.84C67.8019 46.84 68.4979 46.928 69.1699 47.104C69.8579 47.28 70.4179 47.616 70.8499 48.112C71.2979 48.608 71.5219 49.352 71.5219 50.344V55.936C71.5379 56.096 71.5779 56.288 71.6419 56.512C71.7059 56.736 71.8259 56.936 72.0019 57.112C72.1939 57.272 72.4499 57.352 72.7699 57.352C72.8819 57.352 72.9699 57.376 73.0339 57.424C73.0979 57.456 73.1299 57.56 73.1299 57.736C73.1299 57.88 73.0499 57.992 72.8899 58.072C72.7299 58.152 72.5459 58.208 72.3379 58.24C72.1299 58.272 71.9539 58.288 71.8099 58.288C71.2179 58.288 70.6899 58.12 70.2259 57.784C69.7619 57.432 69.4899 56.952 69.4099 56.344C69.0579 56.984 68.5299 57.472 67.8259 57.808C67.1379 58.128 66.4019 58.288 65.6179 58.288ZM66.3859 56.992C66.9299 56.992 67.4259 56.856 67.8739 56.584C68.3379 56.312 68.7059 55.944 68.9779 55.48C69.2659 55 69.4099 54.472 69.4099 53.896V52.528C67.7619 52.64 66.5859 52.904 65.8819 53.32C65.1779 53.736 64.8259 54.416 64.8259 55.36C64.8259 56.448 65.3459 56.992 66.3859 56.992ZM79.7316 58.288C78.0836 58.288 76.7956 57.768 75.8676 56.728C74.9556 55.672 74.4996 54.28 74.4996 52.552C74.5476 51.448 74.8196 50.472 75.3156 49.624C75.8276 48.776 76.4996 48.112 77.3316 47.632C78.1796 47.136 79.1156 46.872 80.1396 46.84C80.6996 46.84 81.2676 46.912 81.8436 47.056C82.4356 47.184 82.9236 47.432 83.3076 47.8C83.7076 48.152 83.9076 48.664 83.9076 49.336C83.9076 49.8 83.7636 50.232 83.4756 50.632C83.1876 51.016 82.7876 51.208 82.2756 51.208C81.9236 51.208 81.6516 51.12 81.4596 50.944C81.2676 50.768 81.1716 50.64 81.1716 50.56C81.1716 50.528 81.2356 50.464 81.3636 50.368C81.5076 50.256 81.6436 50.112 81.7716 49.936C81.8996 49.744 81.9636 49.512 81.9636 49.24C81.9636 48.728 81.7796 48.352 81.4116 48.112C81.0436 47.872 80.6276 47.744 80.1636 47.728C79.4596 47.728 78.8916 47.872 78.4596 48.16C78.0436 48.448 77.7236 48.832 77.4996 49.312C77.2756 49.776 77.1236 50.288 77.0436 50.848C76.9796 51.408 76.9476 51.952 76.9476 52.48C76.9476 53.36 77.0836 54.152 77.3556 54.856C77.6276 55.544 78.0116 56.088 78.5076 56.488C79.0036 56.888 79.5956 57.088 80.2836 57.088C80.9876 57.088 81.5796 56.936 82.0596 56.632C82.5396 56.328 82.9796 55.88 83.3796 55.288C83.4916 55.128 83.6596 55.112 83.8836 55.24C83.9956 55.304 84.0756 55.392 84.1236 55.504C84.1716 55.616 84.1556 55.728 84.0756 55.84C83.5476 56.592 82.8916 57.192 82.1076 57.64C81.3236 58.072 80.5316 58.288 79.7316 58.288ZM90.0903 58.408C89.6103 58.408 89.1543 58.288 88.7223 58.048C88.2903 57.808 87.9303 57.44 87.6423 56.944C87.3703 56.448 87.2343 55.824 87.2343 55.072V48.016L85.8423 48.064C85.7303 48.064 85.6423 48.024 85.5783 47.944C85.5303 47.848 85.5063 47.744 85.5063 47.632C85.5063 47.312 85.6183 47.128 85.8423 47.08C86.4343 46.968 86.8823 46.784 87.1863 46.528C87.4903 46.256 87.7223 45.936 87.8823 45.568C88.0583 45.2 88.2183 44.8 88.3623 44.368C88.4103 44.24 88.4823 44.16 88.5783 44.128C88.6743 44.08 88.7783 44.056 88.8903 44.056C88.9863 44.056 89.0903 44.08 89.2023 44.128C89.3303 44.176 89.3943 44.264 89.3943 44.392L89.2263 47.128L92.0343 46.96C92.1783 46.944 92.2743 46.984 92.3223 47.08C92.3703 47.176 92.3943 47.288 92.3943 47.416C92.3943 47.576 92.3623 47.736 92.2983 47.896C92.2503 48.056 92.1863 48.136 92.1063 48.136L89.4183 48.064V55.36C89.4183 55.824 89.5143 56.248 89.7063 56.632C89.9143 57.016 90.2823 57.208 90.8103 57.208C90.9863 57.208 91.1863 57.192 91.4103 57.16C91.6343 57.128 91.8743 57.056 92.1303 56.944C92.1943 56.912 92.2583 56.888 92.3223 56.872C92.3863 56.84 92.4503 56.824 92.5143 56.824C92.6423 56.824 92.7383 56.88 92.8023 56.992C92.8663 57.088 92.9223 57.192 92.9703 57.304C93.0183 57.448 92.9783 57.56 92.8503 57.64C92.3543 57.96 91.8983 58.168 91.4823 58.264C91.0663 58.36 90.6023 58.408 90.0903 58.408Z" fill="#001324"/>
</svg>
