<?xml version="1.0" encoding="UTF-8"?>
<svg version="1.1" xmlns="http://www.w3.org/2000/svg" width="300" height="300">
<path d="M0 0 C16.5 0 33 0 50 0 C50.66 3.3 51.32 6.6 52 10 C55.90334425 23.93216131 62.95678299 34.94023353 75.55078125 42.5390625 C88.84481681 49.43824332 102.33433841 50.42603865 116.66015625 46.21875 C128.38629519 42.01401393 138.1608181 32.88566044 143.875 21.875 C147.165836 14.7210087 148.44331851 7.78340746 150 0 C166.5 0 183 0 200 0 C200 16.5 200 33 200 50 C203.3 50 206.6 50 210 50 C222.71393105 52.48717242 234.59401514 60.04869726 241.875 70.7578125 C250.15886006 84.25360118 252.2102699 97.96192285 249.34375 113.57421875 C244.99520206 127.9131807 235.96716035 138.33038748 223.05078125 145.48828125 C215.09679341 149.4296299 209.17017213 150 200 150 C200 166.5 200 183 200 200 C183.5 200 167 200 150 200 C150 203.3 150 206.6 150 210 C147.51282758 222.71393105 139.95130274 234.59401514 129.2421875 241.875 C115.74639882 250.15886006 102.03807715 252.2102699 86.42578125 249.34375 C72.0868193 244.99520206 61.66961252 235.96716035 54.51171875 223.05078125 C50.5703701 215.09679341 50 209.17017213 50 200 C33.5 200 17 200 0 200 C0 134 0 68 0 0 Z " fill="#CBFECB" transform="translate(50,50)"/>
<path d="M0 0 C16.5 0 33 0 50 0 C50.66 3.3 51.32 6.6 52 10 C55.90334425 23.93216131 62.95678299 34.94023353 75.55078125 42.5390625 C88.84481681 49.43824332 102.33433841 50.42603865 116.66015625 46.21875 C128.38629519 42.01401393 138.1608181 32.88566044 143.875 21.875 C147.165836 14.7210087 148.44331851 7.78340746 150 0 C166.5 0 183 0 200 0 C200 16.5 200 33 200 50 C203.3 50 206.6 50 210 50 C222.71393105 52.48717242 234.59401514 60.04869726 241.875 70.7578125 C250.15886006 84.25360118 252.2102699 97.96192285 249.34375 113.57421875 C244.99520206 127.9131807 235.96716035 138.33038748 223.05078125 145.48828125 C215.09679341 149.4296299 209.17017213 150 200 150 C200 166.5 200 183 200 200 C183.5 200 167 200 150 200 C150 203.3 150 206.6 150 210 C147.51282758 222.71393105 139.95130274 234.59401514 129.2421875 241.875 C115.74639882 250.15886006 102.03807715 252.2102699 86.42578125 249.34375 C72.0868193 244.99520206 61.66961252 235.96716035 54.51171875 223.05078125 C50.5703701 215.09679341 50 209.17017213 50 200 C33.5 200 17 200 0 200 C0 134 0 68 0 0 Z M5 5 C5 67.7 5 130.4 5 195 C21.5 195 38 195 55 195 C55 198.96 55 202.92 55 207 C57.93715668 220.21720505 64.49944775 230.97724791 75.6875 238.75 C86.76583609 245.12058313 99.78644123 247.15186205 112.1875 243.875 C124.83362379 239.4104407 134.8257377 232.06680922 141 220 C144.86617136 211.42648191 145 204.66623572 145 195 C161.5 195 178 195 195 195 C195 178.5 195 162 195 145 C198.96 145 202.92 145 207 145 C220.28320242 142.04817724 231.2445123 135.45303777 238.8125 124 C244.93016662 113.49491591 247.03338004 100.93525284 244.31640625 88.99609375 C239.86138906 76.00075314 232.30352533 65.39877417 220 59 C211.43373168 55.12824031 204.65729862 55 195 55 C195 38.5 195 22 195 5 C181.8 5 168.6 5 155 5 C152.525 13.415 152.525 13.415 150 22 C142.42265357 37.15469286 131.86056434 46.70747952 115.8125 52.4375 C100.59503203 56.67573838 85.73536924 54.05367217 71.921875 46.7890625 C55.88276341 36.96832305 49.41288954 22.65155815 45 5 C31.8 5 18.6 5 5 5 Z " fill="#FEFFFE" transform="translate(50,50)"/>
<path d="M0 0 C2.5 1.5 2.5 1.5 4 3 C3.67 4.65 3.34 6.3 3 8 C1.68 7.67 0.36 7.34 -1 7 C-1 5.68 -1 4.36 -1 3 C-2.98 3 -4.96 3 -7 3 C-7.40750992 5.36521945 -7.40750992 5.36521945 -7 8 C-4.88326554 9.84655792 -4.88326554 9.84655792 -2.125 11.1875 C2.90092879 13.90092879 2.90092879 13.90092879 5 16 C5.56321839 22.1954023 5.56321839 22.1954023 3.6875 24.875 C-0.07137109 27.38091406 -3.62045839 27.23050219 -8 27 C-10.375 26.375 -10.375 26.375 -12 25 C-12.75 21.875 -12.75 21.875 -13 19 C-11.35 18.67 -9.7 18.34 -8 18 C-8.020625 18.804375 -8.04125 19.60875 -8.0625 20.4375 C-8.29633621 22.93354885 -8.29633621 22.93354885 -7 24 C-4 24.16666667 -4 24.16666667 -1 24 C0.29633621 22.93354885 0.29633621 22.93354885 0.0625 20.4375 C0.041875 19.633125 0.02125 18.82875 0 18 C-0.92232422 17.51080078 -0.92232422 17.51080078 -1.86328125 17.01171875 C-3.07564453 16.35623047 -3.07564453 16.35623047 -4.3125 15.6875 C-5.11300781 15.25824219 -5.91351563 14.82898438 -6.73828125 14.38671875 C-8.87395564 13.07728109 -10.42203779 11.93749791 -12 10 C-12.52979878 6.4427796 -12.43204232 4.68406701 -10.5 1.625 C-7.00716211 -0.64534463 -4.06061644 -0.72392137 0 0 Z " fill="#0C0F0C" transform="translate(177,163)"/>
<path d="M0 0 C2.5 1.5 2.5 1.5 4 3 C3.67 4.65 3.34 6.3 3 8 C1.68 7.67 0.36 7.34 -1 7 C-0.67 5.68 -0.34 4.36 0 3 C-2.31 3 -4.62 3 -7 3 C-7 4.65 -7 6.3 -7 8 C-5.82630859 8.61488281 -5.82630859 8.61488281 -4.62890625 9.2421875 C-3.11103516 10.05042969 -3.11103516 10.05042969 -1.5625 10.875 C-0.55316406 11.40867188 0.45617187 11.94234375 1.49609375 12.4921875 C4 14 4 14 5 16 C5.4375 19.375 5.4375 19.375 5 23 C1.81423504 26.03036179 -0.26400992 26.91117361 -4.625 27.4375 C-8.15035683 26.9805093 -9.68466118 26.68579303 -12 24 C-12.25 21.3125 -12.25 21.3125 -12 19 C-10.35 18.67 -8.7 18.34 -7 18 C-7 19.98 -7 21.96 -7 24 C-4.08347826 24.16681109 -4.08347826 24.16681109 -1 24 C-0.34 23.34 0.32 22.68 1 22 C1.05338545 19.98256588 1.05338545 19.98256588 0 18 C-2.23192216 16.31654481 -2.23192216 16.31654481 -4.9375 14.9375 C-8.33879989 13.09247833 -9.81359584 12.27960623 -12 9 C-12.4957593 5.77756457 -12.28615881 4.4411615 -10.5 1.6875 C-7.01666616 -0.66375034 -4.09209193 -0.72953278 0 0 Z " fill="#0A0D0A" transform="translate(155,163)"/>
<path d="M0 0 C3.0625 1.5 3.0625 1.5 5 3 C4.67 4.98 4.34 6.96 4 9 C2.35 9.33 0.7 9.66 -1 10 C-1 7.69 -1 5.38 -1 3 C-4.37436186 2.66619186 -4.37436186 2.66619186 -8 3 C-10.2053086 5.16493682 -10.93257187 6.55642865 -11.3984375 9.62109375 C-11.45739751 16.84197468 -11.45739751 16.84197468 -8 23 C-5.20129973 24.39935013 -3.09501208 24.25265405 0 24 C1.7511573 22.5833253 1.7511573 22.5833253 3 21 C3.66 21 4.32 21 5 21 C4.06896676 23.32758311 3.34617872 24.74357132 1.3125 26.25 C-3.38172057 27.77244991 -6.83967362 27.58016319 -11.25 25.375 C-15.54080762 21.66930251 -17.13463321 18.15329274 -17.5625 12.5625 C-17.42944322 7.93682019 -15.63971148 5.58056851 -12.5078125 2.3125 C-8.85134335 -0.87033325 -4.61649179 -0.47756812 0 0 Z " fill="#0F130F" transform="translate(134,163)"/>
<path d="M0 0 C5.50366792 -0.32374517 9.43672206 -0.53286034 14 3 C13.67 4.98 13.34 6.96 13 9 C11.35 9.33 9.7 9.66 8 10 C8 7.69 8 5.38 8 3 C5.36 2.34 2.72 1.68 0 1 C0 0.67 0 0.34 0 0 Z " fill="#1D251D" transform="translate(125,163)"/>
<path d="M0 0 C0 1.65 0 3.3 0 5 C3.465 6.485 3.465 6.485 7 8 C7 8.33 7 8.66 7 9 C-1.26086957 9.31772575 -1.26086957 9.31772575 -4 7 C-4.75 3.875 -4.75 3.875 -5 1 C-3 0 -3 0 0 0 Z " fill="#1B221B" transform="translate(169,181)"/>
<path d="M0 0 C2.0625 0.4375 2.0625 0.4375 4 1 C4 2.65 4 4.3 4 6 C5.98 6.66 7.96 7.32 10 8 C10 8.33 10 8.66 10 9 C3.74117647 9.36108597 3.74117647 9.36108597 0.5625 7.8125 C-1 6 -1 6 -1.3125 3.375 C-1 1 -1 1 0 0 Z " fill="#181F18" transform="translate(144,181)"/>
<path d="M0 0 C7.38461538 -0.36923077 7.38461538 -0.36923077 10.5 1.5 C10.995 1.995 11.49 2.49 12 3 C11.67 4.65 11.34 6.3 11 8 C9.68 7.67 8.36 7.34 7 7 C7 5.68 7 4.36 7 3 C4.69 2.34 2.38 1.68 0 1 C0 0.67 0 0.34 0 0 Z " fill="#1B221B" transform="translate(169,163)"/>
</svg>
