<?xml version="1.0" encoding="UTF-8"?>
<svg version="1.1" xmlns="http://www.w3.org/2000/svg" width="300" height="300">
<path d="M0 0 C16.5 0 33 0 50 0 C50.66 3.3 51.32 6.6 52 10 C55.90334425 23.93216131 62.95678299 34.94023353 75.55078125 42.5390625 C88.84481681 49.43824332 102.33433841 50.42603865 116.66015625 46.21875 C128.38629519 42.01401393 138.1608181 32.88566044 143.875 21.875 C147.165836 14.7210087 148.44331851 7.78340746 150 0 C166.5 0 183 0 200 0 C200 16.5 200 33 200 50 C203.3 50 206.6 50 210 50 C222.71393105 52.48717242 234.59401514 60.04869726 241.875 70.7578125 C250.15886006 84.25360118 252.2102699 97.96192285 249.34375 113.57421875 C244.99520206 127.9131807 235.96716035 138.33038748 223.05078125 145.48828125 C215.09679341 149.4296299 209.17017213 150 200 150 C200 166.5 200 183 200 200 C174.80916 200.11284041 149.61852443 200.20495707 124.42749596 200.25906086 C112.73103161 200.28484919 101.03473536 200.32001197 89.33837891 200.37719727 C79.14455956 200.4270127 68.95086195 200.45928643 58.75692427 200.47044247 C53.35859269 200.47696433 47.96060939 200.49230597 42.56238937 200.52865028 C37.48163852 200.56258015 32.40137951 200.57305894 27.32052612 200.56553841 C25.45567782 200.56691429 23.59081313 200.57686465 21.72606277 200.59602737 C19.17894371 200.62091905 16.63367963 200.61492028 14.08651733 200.60127258 C12.98046695 200.62311889 12.98046695 200.62311889 11.85207212 200.64540654 C8.19606006 200.59248352 5.50389141 200.05197839 2.53968811 197.96268463 C-0.61295598 194.28495343 -0.83040663 191.63185094 -0.7215271 186.99577332 C-0.72665365 186.19520848 -0.7317802 185.39464365 -0.7370621 184.56981927 C-0.74693824 181.88971816 -0.71396095 179.21187549 -0.68115234 176.53198242 C-0.67945976 174.61008762 -0.68041017 172.68818893 -0.68380737 170.76629639 C-0.68553004 165.54947714 -0.65023572 160.33348434 -0.60836363 155.11685729 C-0.57087507 149.66496827 -0.56733274 144.21306064 -0.56021118 138.76106262 C-0.54155687 128.43729178 -0.4923117 118.11390182 -0.43211424 107.79029876 C-0.36506751 96.03713499 -0.33206468 84.2839531 -0.30194163 72.53064573 C-0.23921323 48.35350396 -0.12917302 24.17688437 0 0 Z " fill="#FEAEAE" transform="translate(50,50)"/>
<path d="M0 0 C16.5 0 33 0 50 0 C50.66 3.3 51.32 6.6 52 10 C55.90334425 23.93216131 62.95678299 34.94023353 75.55078125 42.5390625 C88.84481681 49.43824332 102.33433841 50.42603865 116.66015625 46.21875 C128.38629519 42.01401393 138.1608181 32.88566044 143.875 21.875 C147.165836 14.7210087 148.44331851 7.78340746 150 0 C166.5 0 183 0 200 0 C200 16.5 200 33 200 50 C203.3 50 206.6 50 210 50 C222.71393105 52.48717242 234.59401514 60.04869726 241.875 70.7578125 C250.15886006 84.25360118 252.2102699 97.96192285 249.34375 113.57421875 C244.99520206 127.9131807 235.96716035 138.33038748 223.05078125 145.48828125 C215.09679341 149.4296299 209.17017213 150 200 150 C200 166.5 200 183 200 200 C174.80916 200.11284041 149.61852443 200.20495707 124.42749596 200.25906086 C112.73103161 200.28484919 101.03473536 200.32001197 89.33837891 200.37719727 C79.14455956 200.4270127 68.95086195 200.45928643 58.75692427 200.47044247 C53.35859269 200.47696433 47.96060939 200.49230597 42.56238937 200.52865028 C37.48163852 200.56258015 32.40137951 200.57305894 27.32052612 200.56553841 C25.45567782 200.56691429 23.59081313 200.57686465 21.72606277 200.59602737 C19.17894371 200.62091905 16.63367963 200.61492028 14.08651733 200.60127258 C12.98046695 200.62311889 12.98046695 200.62311889 11.85207212 200.64540654 C8.19606006 200.59248352 5.50389141 200.05197839 2.53968811 197.96268463 C-0.61295598 194.28495343 -0.83040663 191.63185094 -0.7215271 186.99577332 C-0.72665365 186.19520848 -0.7317802 185.39464365 -0.7370621 184.56981927 C-0.74693824 181.88971816 -0.71396095 179.21187549 -0.68115234 176.53198242 C-0.67945976 174.61008762 -0.68041017 172.68818893 -0.68380737 170.76629639 C-0.68553004 165.54947714 -0.65023572 160.33348434 -0.60836363 155.11685729 C-0.57087507 149.66496827 -0.56733274 144.21306064 -0.56021118 138.76106262 C-0.54155687 128.43729178 -0.4923117 118.11390182 -0.43211424 107.79029876 C-0.36506751 96.03713499 -0.33206468 84.2839531 -0.30194163 72.53064573 C-0.23921323 48.35350396 -0.12917302 24.17688437 0 0 Z M5 5 C4.93233677 29.32996212 4.87704958 53.65984833 4.84456348 77.98988056 C4.82908019 89.28617529 4.80796277 100.5824075 4.77368164 111.87866211 C4.74382402 121.72196578 4.72443565 131.5652242 4.71773452 141.4085719 C4.71381608 146.62282899 4.70457694 151.83695658 4.68280983 157.05117226 C4.6625021 161.9553656 4.65615459 166.85937563 4.66067696 171.76360703 C4.65984919 173.56680865 4.65384962 175.37001618 4.64238358 177.17318153 C4.62752865 179.62901325 4.63102043 182.0841465 4.63923645 184.53999329 C4.63049793 185.25886209 4.6217594 185.9777309 4.61275607 186.71838361 C4.63737085 189.42733643 4.74931815 191.53871795 6.0562973 193.9437027 C9.08179483 195.58789699 12.10474049 195.40154996 15.46000671 195.36076355 C16.22619428 195.36332682 16.99238185 195.3658901 17.78178722 195.36853105 C20.35693412 195.37348442 22.93149864 195.35695078 25.5065918 195.34057617 C27.34937527 195.33973023 29.19215975 195.34020439 31.03494263 195.34190369 C36.04502388 195.34276636 41.05489077 195.32509654 46.06492209 195.30418181 C51.29797521 195.28546037 56.53103294 195.28366816 61.76411438 195.28010559 C71.67699125 195.27077178 81.58976916 195.24613993 91.5026024 195.21605712 C102.78660296 195.18255465 114.07060819 195.16603756 125.35464609 195.15097082 C148.5698316 195.11959153 171.78488142 195.06456278 195 195 C195 178.5 195 162 195 145 C198.96 145 202.92 145 207 145 C218.35505822 142.47665373 228.72883627 137.29181536 236 128 C243.73296607 115.7374792 247.27279783 103.30922292 244.3515625 88.7734375 C240.72608094 76.78146002 233.1820903 67.06387636 222.51953125 60.46484375 C213.18047068 55.49849061 205.82236036 55 195 55 C195 38.5 195 22 195 5 C181.8 5 168.6 5 155 5 C152.525 13.415 152.525 13.415 150 22 C142.42265357 37.15469286 131.86056434 46.70747952 115.8125 52.4375 C100.59503203 56.67573838 85.73536924 54.05367217 71.921875 46.7890625 C55.74617763 36.88469165 49.81607627 22.65894631 45 5 C31.8 5 18.6 5 5 5 Z " fill="#FFFEFE" transform="translate(50,50)"/>
<path d="M0 0 C3.1875 -0.5 3.1875 -0.5 7 0 C11.39186881 4.4754098 13.63290119 11.28722521 16 17 C16.74056641 15.41058594 16.74056641 15.41058594 17.49609375 13.7890625 C18.14321471 12.40103493 18.79035092 11.01301446 19.4375 9.625 C19.76298828 8.92632812 20.08847656 8.22765625 20.42382812 7.5078125 C22.88671875 2.2265625 22.88671875 2.2265625 24 0 C26.64 0 29.28 0 32 0 C31.67 0.66 31.34 1.32 31 2 C30.01 2 29.02 2 28 2 C28.33 8.6 28.66 15.2 29 22 C29.99 22.33 30.98 22.66 32 23 C32 23.66 32 24.32 32 25 C28.37 25 24.74 25 21 25 C21 24.34 21 23.68 21 23 C21.99 23 22.98 23 24 23 C23.67 18.38 23.34 13.76 23 9 C22.60167969 10.07121094 22.20335937 11.14242187 21.79296875 12.24609375 C21.25840706 13.64345676 20.7232182 15.04057996 20.1875 16.4375 C19.92646484 17.14455078 19.66542969 17.85160156 19.39648438 18.58007812 C18.68264671 20.42195557 17.84775525 22.21579492 17 24 C16.01 24.33 15.02 24.66 14 25 C11.36 19.06 8.72 13.12 6 7 C6 11.95 6 16.9 6 22 C6.99 22.33 7.98 22.66 9 23 C9 23.66 9 24.32 9 25 C6.03 25 3.06 25 0 25 C0 24.34 0 23.68 0 23 C0.99 23 1.98 23 3 23 C2.8904307 19.54099522 2.75973152 16.08310891 2.625 12.625 C2.5940625 11.64015625 2.563125 10.6553125 2.53125 9.640625 C2.49257812 8.69960937 2.45390625 7.75859375 2.4140625 6.7890625 C2.3826416 5.91975098 2.3512207 5.05043945 2.31884766 4.15478516 C2.18770567 1.79038206 2.18770567 1.79038206 0 0 Z " fill="#0D0909" transform="translate(158,152)"/>
<path d="M0 0 C3.63 0 7.26 0 11 0 C10.67 0.66 10.34 1.32 10 2 C9.01 2 8.02 2 7 2 C7 5.3 7 8.6 7 12 C11.29 12 15.58 12 20 12 C20 8.7 20 5.4 20 2 C18.68 1.67 17.36 1.34 16 1 C16 0.67 16 0.34 16 0 C19.63 0 23.26 0 27 0 C26.34 0.66 25.68 1.32 25 2 C24.62995706 4.22658154 24.62995706 4.22658154 24.5859375 6.7890625 C24.54726562 7.73007813 24.50859375 8.67109375 24.46875 9.640625 C24.42234375 11.11789063 24.42234375 11.11789063 24.375 12.625 C24.33632812 13.61757812 24.29765625 14.61015625 24.2578125 15.6328125 C24.1633686 18.08835385 24.07780125 20.5438841 24 23 C24.99 23 25.98 23 27 23 C27 23.66 27 24.32 27 25 C23.37 25 19.74 25 16 25 C16 24.34 16 23.68 16 23 C16.99 22.67 17.98 22.34 19 22 C19.33 19.03 19.66 16.06 20 13 C15.71 13 11.42 13 7 13 C7.33 15.97 7.66 18.94 8 22 C8.99 22.33 9.98 22.66 11 23 C11 23.66 11 24.32 11 25 C7.37 25 3.74 25 0 25 C0 24.34 0 23.68 0 23 C0.99 23 1.98 23 3 23 C2.8904307 19.54099522 2.75973152 16.08310891 2.625 12.625 C2.5940625 11.64015625 2.563125 10.6553125 2.53125 9.640625 C2.49257812 8.69960937 2.45390625 7.75859375 2.4140625 6.7890625 C2.3826416 5.91975098 2.3512207 5.05043945 2.31884766 4.15478516 C2.18770567 1.79038206 2.18770567 1.79038206 0 0 Z " fill="#120C0C" transform="translate(104,152)"/>
<path d="M0 0 C7.26 0 14.52 0 22 0 C22 2.31 22 4.62 22 7 C21.01 7 20.02 7 19 7 C18.7525 6.195625 18.505 5.39125 18.25 4.5625 C17.8375 3.716875 17.425 2.87125 17 2 C15.68 1.67 14.36 1.34 13 1 C13 8.26 13 15.52 13 23 C13.99 23 14.98 23 16 23 C16 23.66 16 24.32 16 25 C12.37 25 8.74 25 5 25 C5 24.34 5 23.68 5 23 C5.99 22.67 6.98 22.34 8 22 C8.33 15.07 8.66 8.14 9 1 C7.35 1.33 5.7 1.66 4 2 C2.62533375 4.47636012 2.62533375 4.47636012 2 7 C1.34 7 0.68 7 0 7 C0 4.69 0 2.38 0 0 Z " fill="#150E0E" transform="translate(134,152)"/>
<path d="M0 0 C3.63 0 7.26 0 11 0 C10.34 0.66 9.68 1.32 9 2 C8.62995706 4.22658154 8.62995706 4.22658154 8.5859375 6.7890625 C8.52792969 8.20058594 8.52792969 8.20058594 8.46875 9.640625 C8.42234375 11.11789063 8.42234375 11.11789063 8.375 12.625 C8.31699219 14.11386719 8.31699219 14.11386719 8.2578125 15.6328125 C8.1633686 18.08835385 8.07780125 20.5438841 8 23 C9.45947705 22.93993922 10.91779272 22.8511311 12.375 22.75 C13.18710938 22.70359375 13.99921875 22.6571875 14.8359375 22.609375 C17.18838927 22.2077908 17.18838927 22.2077908 18.2890625 19.953125 C18.52367187 19.30859375 18.75828125 18.6640625 19 18 C19.66 18 20.32 18 21 18 C20.67 20.31 20.34 22.62 20 25 C13.4 25 6.8 25 0 25 C0.33 24.34 0.66 23.68 1 23 C1.99 23 2.98 23 4 23 C3.9193749 19.54069307 3.80651536 16.08318225 3.6875 12.625 C3.66494141 11.64015625 3.64238281 10.6553125 3.61914062 9.640625 C3.58369141 8.69960937 3.54824219 7.75859375 3.51171875 6.7890625 C3.48553467 5.91975098 3.45935059 5.05043945 3.43237305 4.15478516 C3.18654782 1.61399973 3.18654782 1.61399973 0 0 Z " fill="#030202" transform="translate(193,152)"/>
<path d="M0 0 C2.64 0 5.28 0 8 0 C7.67 0.66 7.34 1.32 7 2 C6.01 2 5.02 2 4 2 C4.33 8.6 4.66 15.2 5 22 C5.99 22.33 6.98 22.66 8 23 C8 23.66 8 24.32 8 25 C4.37 25 0.74 25 -3 25 C-3 24.34 -3 23.68 -3 23 C-2.01 22.67 -1.02 22.34 0 22 C0.02696009 19.2291017 0.04681952 16.4584655 0.0625 13.6875 C0.07087891 12.90181641 0.07925781 12.11613281 0.08789062 11.30664062 C0.09272461 10.1706543 0.09272461 10.1706543 0.09765625 9.01171875 C0.10551147 7.96697388 0.10551147 7.96697388 0.11352539 6.90112305 C0.06895991 4.77502032 0.06895991 4.77502032 -1 2 C-0.67 1.34 -0.34 0.68 0 0 Z " fill="#080505" transform="translate(182,152)"/>
<path d="M0 0 C0.99 0.33 1.98 0.66 3 1 C3 6.61 3 12.22 3 18 C2.67 18 2.34 18 2 18 C1.67 13.71 1.34 9.42 1 5 C-0.32 8.3 -1.64 11.6 -3 15 C-3.66 14.67 -4.32 14.34 -5 14 C-4.54636829 12.41531323 -4.08688548 10.83230076 -3.625 9.25 C-3.36976563 8.36828125 -3.11453125 7.4865625 -2.8515625 6.578125 C-2.0790066 4.23919428 -1.16374324 2.16557438 0 0 Z " fill="#3C2929" transform="translate(180,156)"/>
<path d="M0 0 C0.33 0 0.66 0 1 0 C1 6.6 1 13.2 1 20 C2.65 20.33 4.3 20.66 6 21 C6 21.66 6 22.32 6 23 C3.03 23 0.06 23 -3 23 C-3 22.34 -3 21.68 -3 21 C-2.01 21 -1.02 21 0 21 C0 14.07 0 7.14 0 0 Z " fill="#463030" transform="translate(161,154)"/>
<path d="M0 0 C0.66 0 1.32 0 2 0 C1.67 2.31 1.34 4.62 1 7 C-2.63 6.67 -6.26 6.34 -10 6 C-10 5.67 -10 5.34 -10 5 C-8.72125 4.9175 -7.4425 4.835 -6.125 4.75 C-3.94666582 4.54130069 -3.94666582 4.54130069 -2 4 C-0.4100567 2.07935207 -0.4100567 2.07935207 0 0 Z " fill="#2B1D1D" transform="translate(212,170)"/>
<path d="M0 0 C2.97 0 5.94 0 9 0 C9 0.33 9 0.66 9 1 C8.21625 1.061875 7.4325 1.12375 6.625 1.1875 C5.75875 1.455625 4.8925 1.72375 4 2 C2.62533375 4.47636012 2.62533375 4.47636012 2 7 C1.34 7 0.68 7 0 7 C0 4.69 0 2.38 0 0 Z " fill="#050303" transform="translate(134,152)"/>
<path d="M0 0 C1.32 0 2.64 0 4 0 C4 2.31 4 4.62 4 7 C3.01 7 2.02 7 1 7 C0.67 4.69 0.34 2.38 0 0 Z " fill="#291C1C" transform="translate(152,152)"/>
</svg>
