<?xml version="1.0" encoding="UTF-8"?>
<svg version="1.1" xmlns="http://www.w3.org/2000/svg" width="300" height="300">
<path d="M0 0 C16.5 0 33 0 50 0 C50.66 3.3 51.32 6.6 52 10 C55.90334425 23.93216131 62.95678299 34.94023353 75.55078125 42.5390625 C88.84481681 49.43824332 102.33433841 50.42603865 116.66015625 46.21875 C128.38629519 42.01401393 138.1608181 32.88566044 143.875 21.875 C147.165836 14.7210087 148.44331851 7.78340746 150 0 C166.5 0 183 0 200 0 C200 16.5 200 33 200 50 C196.7 50.66 193.4 51.32 190 52 C176.06783869 55.90334425 165.05976647 62.95678299 157.4609375 75.55078125 C150.56175668 88.84481681 149.57396135 102.33433841 153.78125 116.66015625 C157.98598607 128.38629519 167.11433956 138.1608181 178.125 143.875 C185.2789913 147.165836 192.21659254 148.44331851 200 150 C200 166.5 200 183 200 200 C183.5 200 167 200 150 200 C150 203.3 150 206.6 150 210 C147.51282758 222.71393105 139.95130274 234.59401514 129.2421875 241.875 C115.74639882 250.15886006 102.03807715 252.2102699 86.42578125 249.34375 C72.0868193 244.99520206 61.66961252 235.96716035 54.51171875 223.05078125 C50.5703701 215.09679341 50 209.17017213 50 200 C33.5 200 17 200 0 200 C0 134 0 68 0 0 Z " fill="#F1E488" transform="translate(50,50)"/>
<path d="M0 0 C16.5 0 33 0 50 0 C50.66 3.3 51.32 6.6 52 10 C55.90334425 23.93216131 62.95678299 34.94023353 75.55078125 42.5390625 C88.84481681 49.43824332 102.33433841 50.42603865 116.66015625 46.21875 C128.38629519 42.01401393 138.1608181 32.88566044 143.875 21.875 C147.165836 14.7210087 148.44331851 7.78340746 150 0 C166.5 0 183 0 200 0 C200 16.5 200 33 200 50 C196.7 50.66 193.4 51.32 190 52 C176.06783869 55.90334425 165.05976647 62.95678299 157.4609375 75.55078125 C150.56175668 88.84481681 149.57396135 102.33433841 153.78125 116.66015625 C157.98598607 128.38629519 167.11433956 138.1608181 178.125 143.875 C185.2789913 147.165836 192.21659254 148.44331851 200 150 C200 166.5 200 183 200 200 C183.5 200 167 200 150 200 C150 203.3 150 206.6 150 210 C147.51282758 222.71393105 139.95130274 234.59401514 129.2421875 241.875 C115.74639882 250.15886006 102.03807715 252.2102699 86.42578125 249.34375 C72.0868193 244.99520206 61.66961252 235.96716035 54.51171875 223.05078125 C50.5703701 215.09679341 50 209.17017213 50 200 C33.5 200 17 200 0 200 C0 134 0 68 0 0 Z M5 5 C5 67.7 5 130.4 5 195 C21.5 195 38 195 55 195 C55 198.96 55 202.92 55 207 C57.93715668 220.21720505 64.49944775 230.97724791 75.6875 238.75 C86.24509183 244.8211298 98.28714 246.89363746 110.19921875 244.3046875 C122.74034782 240.48293498 132.88263243 233.91777432 139.3125 222.375 C144.39009499 212.66496904 145 206.31279384 145 195 C161.5 195 178 195 195 195 C195 181.8 195 168.6 195 155 C190.38 153.68 185.76 152.36 181 151 C166.67926883 144.8420856 155.73801869 135.44012761 149.6875 120.8125 C149.08853667 119.22158835 148.52853847 117.61567448 148 116 C147.64164063 114.91589844 147.28328125 113.83179688 146.9140625 112.71484375 C145.90428039 108.61098568 145.65407398 104.95356091 145.6875 100.75 C145.69313965 100.00274658 145.6987793 99.25549316 145.70458984 98.4855957 C146.01465043 84.2581126 151.74429085 71.50646913 161.58984375 61.25 C171.38523353 52.10551943 182.02367172 47.88362851 195 45 C195 31.8 195 18.6 195 5 C181.8 5 168.6 5 155 5 C152.525 13.415 152.525 13.415 150 22 C142.42265357 37.15469286 131.86056434 46.70747952 115.8125 52.4375 C100.59503203 56.67573838 85.73536924 54.05367217 71.921875 46.7890625 C55.74617763 36.88469165 49.81607627 22.65894631 45 5 C31.8 5 18.6 5 5 5 Z " fill="#FEFEFD" transform="translate(50,50)"/>
<path d="M0 0 C0 0.66 0 1.32 0 2 C0.53625 1.649375 1.0725 1.29875 1.625 0.9375 C4.85463921 -0.33735758 6.68944593 0.03442173 10 1 C12.375 2.5 12.375 2.5 14 5 C14.94643968 9.73219842 14.65665876 12.9620555 12.0625 17.0625 C7.94841058 19.66529126 4.7373412 19.46444522 0 19 C0.44703986 23.47883696 0.44703986 23.47883696 3 27 C0.03 27 -2.94 27 -6 27 C-5.34 26.67 -4.68 26.34 -4 26 C-4 18.41 -4 10.82 -4 3 C-4.66 3 -5.32 3 -6 3 C-6 2.34 -6 1.68 -6 1 C-3.92446352 0.4465236 -2.15634036 0 0 0 Z " fill="#19170E" transform="translate(165,186)"/>
<path d="M0 0 C2.5 1.5 2.5 1.5 4 3 C3.67 4.65 3.34 6.3 3 8 C1.68 8 0.36 8 -1 8 C-1 6.35 -1 4.7 -1 3 C-2.98 3 -4.96 3 -7 3 C-7.33 4.32 -7.66 5.64 -8 7 C-7.48050781 7.31453125 -6.96101563 7.6290625 -6.42578125 7.953125 C2.52109559 13.44362982 2.52109559 13.44362982 5 16 C5.5625 19 5.5625 19 5 22 C3.1329009 24.30275556 1.64352259 25.67823871 -1 27 C-8.12719532 27.57477382 -8.12719532 27.57477382 -11.5625 25.3125 C-13 23 -13 23 -12.75 20.25 C-12.5025 19.5075 -12.255 18.765 -12 18 C-10.68 18 -9.36 18 -8 18 C-8.020625 18.804375 -8.04125 19.60875 -8.0625 20.4375 C-8.29633621 22.93354885 -8.29633621 22.93354885 -7 24 C-4 24.16666667 -4 24.16666667 -1 24 C0.29633621 22.93354885 0.29633621 22.93354885 0.0625 20.4375 C0.041875 19.633125 0.02125 18.82875 0 18 C-0.69867188 17.67386719 -1.39734375 17.34773438 -2.1171875 17.01171875 C-3.02726562 16.57472656 -3.93734375 16.13773438 -4.875 15.6875 C-5.77992187 15.25824219 -6.68484375 14.82898438 -7.6171875 14.38671875 C-10 13 -10 13 -12 10 C-12.65882353 3.85098039 -12.65882353 3.85098039 -10.5 1.0625 C-6.95928686 -0.44230308 -3.79173171 -0.60605548 0 0 Z " fill="#0D0D07" transform="translate(103,179)"/>
<path d="M0 0 C0.69222656 0.08765625 1.38445312 0.1753125 2.09765625 0.265625 C3.9375 0.75 3.9375 0.75 5.9375 2.75 C6.32622293 6.35452172 6.44531525 9.94069211 6.59375 13.5625 C6.61021607 16.84085835 6.61021607 16.84085835 8.9375 18.75 C6.9575 18.75 4.9775 18.75 2.9375 18.75 C2.9375 18.09 2.9375 17.43 2.9375 16.75 C1.9475 17.41 0.9575 18.07 -0.0625 18.75 C-3.625 19 -3.625 19 -7.0625 18.75 C-9.0625 16.75 -9.0625 16.75 -9.5 14.3125 C-9.0625 11.75 -9.0625 11.75 -6.9375 9.9375 C-3.7517698 8.62165492 -1.47585136 8.51185921 1.9375 8.75 C1.6075 6.77 1.2775 4.79 0.9375 2.75 C-0.7125 2.75 -2.3625 2.75 -4.0625 2.75 C-4.0625 4.07 -4.0625 5.39 -4.0625 6.75 C-5.3825 6.42 -6.7025 6.09 -8.0625 5.75 C-7.75 3.875 -7.75 3.875 -7.0625 1.75 C-3.88217735 -0.3702151 -3.51682601 -0.4995865 0 0 Z " fill="#1F1D11" transform="translate(129.0625,140.25)"/>
<path d="M0 0 C0.69222656 0.08765625 1.38445312 0.1753125 2.09765625 0.265625 C3.9375 0.75 3.9375 0.75 5.9375 2.75 C6.32622293 6.35452172 6.44531525 9.94069211 6.59375 13.5625 C6.61021607 16.84085835 6.61021607 16.84085835 8.9375 18.75 C6.27083333 18.75 3.60416667 18.75 0.9375 18.75 C0.28652344 18.77320313 -0.36445313 18.79640625 -1.03515625 18.8203125 C-3.04371994 18.87287305 -5.05426042 18.81375364 -7.0625 18.75 C-9.0625 16.75 -9.0625 16.75 -9.4375 14.3125 C-9.0625 11.75 -9.0625 11.75 -7.5625 9.9375 C-3.93980459 8.21671968 -1.05211898 8.55051905 2.9375 8.75 C2.6075 6.77 2.2775 4.79 1.9375 2.75 C-1.0325 2.255 -1.0325 2.255 -4.0625 1.75 C-3.7325 3.4 -3.4025 5.05 -3.0625 6.75 C-4.3825 6.75 -5.7025 6.75 -7.0625 6.75 C-7.25 4.375 -7.25 4.375 -7.0625 1.75 C-3.88217735 -0.3702151 -3.51682601 -0.4995865 0 0 Z " fill="#212013" transform="translate(169.0625,140.25)"/>
<path d="M0 0 C3.63 0 7.26 0 11 0 C10.34 0.66 9.68 1.32 9 2 C8.67870311 4.22750192 8.67870311 4.22750192 8.69140625 6.796875 C8.66626953 7.7559375 8.64113281 8.715 8.61523438 9.703125 C8.58034959 11.71869037 8.54904248 13.73432114 8.52148438 15.75 C8.37160081 21.21892222 8.10774236 25.29268437 5 30 C1.7 33 1.7 33 -1 33 C1 29 1 29 2.04443359 27.19824219 C3.19511635 24.55114267 3.31802467 22.45925998 3.4140625 19.578125 C3.47207031 18.04091797 3.47207031 18.04091797 3.53125 16.47265625 C3.5621875 15.40917969 3.593125 14.34570312 3.625 13.25 C3.66367188 12.17105469 3.70234375 11.09210938 3.7421875 9.98046875 C3.83634631 7.32048225 3.92197387 4.6605006 4 2 C2.68 1.67 1.36 1.34 0 1 C0 0.67 0 0.34 0 0 Z " fill="#16150C" transform="translate(107,134)"/>
<path d="M0 0 C1.175625 0.0825 2.35125 0.165 3.5625 0.25 C6.03053687 3.95205531 6.11538088 6.95653444 5.5625 11.25 C4.375 13.75 4.375 13.75 2.5625 15.25 C0 15.625 0 15.625 -2.4375 15.25 C-4.4375 13.25 -4.4375 13.25 -4.66796875 10.46484375 C-4.65378906 9.38332031 -4.63960937 8.30179688 -4.625 7.1875 C-4.61855469 6.10339844 -4.61210937 5.01929688 -4.60546875 3.90234375 C-4.35318917 -0.08132682 -4.11233552 0.29907895 0 0 Z " fill="#E9DD84" transform="translate(169.4375,188.75)"/>
<path d="M0 0 C0.33 0.66 0.66 1.32 1 2 C1.99 1.34 2.98 0.68 4 0 C6.1875 0.375 6.1875 0.375 8 1 C8 2.65 8 4.3 8 6 C7.01 6 6.02 6 5 6 C5 5.01 5 4.02 5 3 C2.93719227 3.55013034 2.93719227 3.55013034 1 5 C0.29464389 7.8786935 0.29464389 7.8786935 0.25 11.125 C0.19328125 12.22070312 0.1365625 13.31640625 0.078125 14.4453125 C0.05234375 15.28835937 0.0265625 16.13140625 0 17 C0.99 17.33 1.98 17.66 3 18 C3 18.33 3 18.66 3 19 C-0.3 19 -3.6 19 -7 19 C-6.67 18.34 -6.34 17.68 -6 17 C-5.34 17 -4.68 17 -4 17 C-4 12.38 -4 7.76 -4 3 C-4.99 3 -5.98 3 -7 3 C-7 2.34 -7 1.68 -7 1 C-2.25 0 -2.25 0 0 0 Z " fill="#18170E" transform="translate(137,186)"/>
<path d="M0 0 C1 1 1 1 1.0625 3.5625 C1.041875 4.366875 1.02125 5.17125 1 6 C-0.32 6.33 -1.64 6.66 -3 7 C-3 5.35 -3 3.7 -3 2 C-4.98 2 -6.96 2 -9 2 C-9.02696365 3.79158489 -9.04637917 5.58328473 -9.0625 7.375 C-9.07410156 8.37273437 -9.08570312 9.37046875 -9.09765625 10.3984375 C-9.18006602 12.98432453 -9.18006602 12.98432453 -8 15 C-5.36 15 -2.72 15 0 15 C0 14.34 0 13.68 0 13 C0.66 13 1.32 13 2 13 C0.25 16.875 0.25 16.875 -2 18 C-9.01599016 18.56580566 -9.01599016 18.56580566 -12.5 16.5625 C-14.74713349 12.72364696 -14.86326707 9.33175085 -14 5 C-10.43589907 -0.63357889 -6.17407451 -0.89294466 0 0 Z " fill="#1B1A0F" transform="translate(126,187)"/>
<path d="M0 0 C2.25 -0.3125 2.25 -0.3125 5 0 C8.58297889 3.47759716 10.20959328 7.43446286 12 12 C13.32 8.37 14.64 4.74 16 1 C15.01 0.67 14.02 0.34 13 0 C15.97 0 18.94 0 22 0 C21.11054688 0.76570312 21.11054688 0.76570312 20.203125 1.546875 C17.55533641 4.49512187 16.19631079 7.61946475 14.75 11.25 C14.481875 11.8996875 14.21375 12.549375 13.9375 13.21875 C13.28274984 14.80885754 12.64012718 16.40394958 12 18 C11.01 18 10.02 18 9 18 C8.40251953 16.42798828 8.40251953 16.42798828 7.79296875 14.82421875 C7.25822827 13.44515121 6.72304898 12.06625377 6.1875 10.6875 C5.79594727 9.65206055 5.79594727 9.65206055 5.39648438 8.59570312 C3.50297841 3.73849908 3.50297841 3.73849908 0 0 Z " fill="#0E0D08" transform="translate(138,141)"/>
<path d="M0 0 C0.69222656 0.08765625 1.38445312 0.1753125 2.09765625 0.265625 C3.9375 0.75 3.9375 0.75 5.9375 2.75 C6.32622293 6.35452172 6.44531525 9.94069211 6.59375 13.5625 C6.61021607 16.84085835 6.61021607 16.84085835 8.9375 18.75 C7.2875 18.75 5.6375 18.75 3.9375 18.75 C3.6075 17.76 3.2775 16.77 2.9375 15.75 C2.2775 15.42 1.6175 15.09 0.9375 14.75 C1.5975 13.1 2.2575 11.45 2.9375 9.75 C1.6175 9.42 0.2975 9.09 -1.0625 8.75 C0.2575 8.75 1.5775 8.75 2.9375 8.75 C2.6075 6.77 2.2775 4.79 1.9375 2.75 C-1.0325 2.255 -1.0325 2.255 -4.0625 1.75 C-3.7325 3.4 -3.4025 5.05 -3.0625 6.75 C-4.3825 6.75 -5.7025 6.75 -7.0625 6.75 C-7.25 4.375 -7.25 4.375 -7.0625 1.75 C-3.88217735 -0.3702151 -3.51682601 -0.4995865 0 0 Z " fill="#060603" transform="translate(169.0625,140.25)"/>
<path d="M0 0 C0.66 0 1.32 0 2 0 C2 1.65 2 3.3 2 5 C3.65 5 5.3 5 7 5 C7 5.33 7 5.66 7 6 C5.35 6 3.7 6 2 6 C2 10.95 2 15.9 2 21 C3.98 21 5.96 21 8 21 C8 21.66 8 22.32 8 23 C4.625 23.625 4.625 23.625 1 24 C-1 22 -1 22 -1.1953125 18.3046875 C-1.182009 16.82799892 -1.15814835 15.35137642 -1.125 13.875 C-1.11597656 13.12089844 -1.10695312 12.36679688 -1.09765625 11.58984375 C-1.0740687 9.72642746 -1.03819719 7.86317407 -1 6 C-1.99 5.67 -2.98 5.34 -4 5 C-3.01 4.34 -2.02 3.68 -1 3 C-0.67 2.01 -0.34 1.02 0 0 Z " fill="#111009" transform="translate(186,182)"/>
<path d="M0 0 C0 5.61 0 11.22 0 17 C0.99 17.33 1.98 17.66 3 18 C3 18.33 3 18.66 3 19 C-0.3 19 -3.6 19 -7 19 C-6.67 18.34 -6.34 17.68 -6 17 C-5.34 17 -4.68 17 -4 17 C-4 12.38 -4 7.76 -4 3 C-4.99 3 -5.98 3 -7 3 C-7 2.34 -7 1.68 -7 1 C-2.25 0 -2.25 0 0 0 Z " fill="#19180E" transform="translate(154,186)"/>
<path d="M0 0 C1.99954746 -0.04254356 4.00041636 -0.04080783 6 0 C7 1 7 1 7.0625 4.0625 C7.041875 5.031875 7.02125 6.00125 7 7 C3.625 7.125 3.625 7.125 0 7 C-0.66 6.34 -1.32 5.68 -2 5 C-1.34 4.67 -0.68 4.34 0 4 C0 2.68 0 1.36 0 0 Z " fill="#DDD17D" transform="translate(165,142)"/>
<path d="M0 0 C2.5 0.125 2.5 0.125 3.5 1.125 C3.54080783 3.12458364 3.54254356 5.12545254 3.5 7.125 C0.86 7.455 -1.78 7.785 -4.5 8.125 C-3.48810613 0.17440531 -3.48810613 0.17440531 0 0 Z " fill="#E0D47F" transform="translate(127.5,141.875)"/>
<path d="M0 0 C1.32 0 2.64 0 4 0 C4 1.65 4 3.3 4 5 C7.465 6.485 7.465 6.485 11 8 C11 8.33 11 8.66 11 9 C3.73542601 9.48430493 3.73542601 9.48430493 0.4375 7.3125 C-1 5 -1 5 -0.75 2.25 C-0.5025 1.5075 -0.255 0.765 0 0 Z " fill="#232214" transform="translate(91,197)"/>
<path d="M0 0 C0.125 2.375 0.125 2.375 0 5 C-2 7 -2 7 -4.625 7.125 C-5.40875 7.08375 -6.1925 7.0425 -7 7 C-7.1875 4.625 -7.1875 4.625 -7 2 C-4 0 -4 0 0 0 Z " fill="#E6D982" transform="translate(131,150)"/>
<path d="M0 0 C7.38461538 -0.36923077 7.38461538 -0.36923077 10.5 1.5 C10.995 1.995 11.49 2.49 12 3 C11.67 4.65 11.34 6.3 11 8 C9.68 8 8.36 8 7 8 C7 6.35 7 4.7 7 3 C4.69 2.34 2.38 1.68 0 1 C0 0.67 0 0.34 0 0 Z " fill="#242214" transform="translate(95,179)"/>
<path d="M0 0 C-0.75 4.75 -0.75 4.75 -3 7 C-5.625 6.625 -5.625 6.625 -8 6 C-7.75 4.125 -7.75 4.125 -7 2 C-4.41847698 0.27898465 -3.15081975 0 0 0 Z " fill="#E6D982" transform="translate(172,150)"/>
<path d="M0 0 C2.97 0 5.94 0 9 0 C8.401875 0.515625 7.80375 1.03125 7.1875 1.5625 C4.4926464 4.56533687 3.44279381 7.24873609 2 11 C1.34 10.34 0.68 9.68 0 9 C0.99 6.36 1.98 3.72 3 1 C2.01 0.67 1.02 0.34 0 0 Z " fill="#1E1D11" transform="translate(151,141)"/>
<path d="M0 0 C0 1.65 0 3.3 0 5 C-0.99 5 -1.98 5 -3 5 C-3 4.01 -3 3.02 -3 2 C-4.65 2.66 -6.3 3.32 -8 4 C-5.97675095 -0.48005146 -4.79569304 -1.43870791 0 0 Z " fill="#222013" transform="translate(145,187)"/>
<path d="M0 0 C0.33 0 0.66 0 1 0 C1.103125 0.94875 1.20625 1.8975 1.3125 2.875 C1.68539295 6.29107501 1.68539295 6.29107501 5 8 C2.125 8.125 2.125 8.125 -1 8 C-1.66 7.34 -2.32 6.68 -3 6 C-2.63318342 3.06546739 -2.13562754 2.13562754 0 0 Z " fill="#050503" transform="translate(123,151)"/>
<path d="M0 0 C-0.33 0.66 -0.66 1.32 -1 2 C-2.32 2 -3.64 2 -5 2 C-4.67 3.65 -4.34 5.3 -4 7 C-5.32 7 -6.64 7 -8 7 C-8.1875 4.625 -8.1875 4.625 -8 2 C-4.77208445 -0.1519437 -3.71599191 -0.20086443 0 0 Z " fill="#2E2B1A" transform="translate(170,140)"/>
<path d="M0 0 C1.32 0 2.64 0 4 0 C3.67 1.65 3.34 3.3 3 5 C1.68 4.67 0.36 4.34 -1 4 C-0.67 2.68 -0.34 1.36 0 0 Z " fill="#1F1D11" transform="translate(150,177)"/>
<path d="M0 0 C0.99 0.33 1.98 0.66 3 1 C2.67 2.65 2.34 4.3 2 6 C0.68 5.67 -0.64 5.34 -2 5 C-1.125 1.125 -1.125 1.125 0 0 Z " fill="#0F0F08" transform="translate(123,141)"/>
</svg>
