<?xml version="1.0" encoding="UTF-8"?>
<svg version="1.1" xmlns="http://www.w3.org/2000/svg" width="300" height="300">
<path d="M0 0 C1.20084725 -0.00768982 1.20084725 -0.00768982 2.42595404 -0.015535 C5.10605516 -0.02541114 7.78389783 0.00756615 10.46379089 0.04037476 C12.3856857 0.04206734 14.30758438 0.04111693 16.22947693 0.03771973 C21.44629618 0.03599706 26.66228898 0.07129138 31.87891603 0.11316347 C37.33080504 0.15065203 42.78271267 0.15419436 48.23471069 0.16131592 C58.55848153 0.17997023 68.88187149 0.2292154 79.20547456 0.28941286 C90.95863832 0.35645959 102.71182021 0.38946241 114.46512759 0.41958547 C138.64226936 0.48231387 162.81888894 0.59235408 186.99577332 0.7215271 C186.99577332 17.2215271 186.99577332 33.7215271 186.99577332 50.7215271 C183.69577332 51.3815271 180.39577332 52.0415271 176.99577332 52.7215271 C163.063612 56.62487135 152.05553978 63.67831009 144.45671082 76.27230835 C137.55752999 89.56634391 136.56973467 103.05586551 140.77702332 117.38168335 C144.98175938 129.10782229 154.11011288 138.8823452 165.12077332 144.5965271 C172.27476462 147.8873631 179.21236585 149.16484561 186.99577332 150.7215271 C186.99577332 167.2215271 186.99577332 183.7215271 186.99577332 200.7215271 C170.49577332 200.7215271 153.99577332 200.7215271 136.99577332 200.7215271 C136.99577332 204.0215271 136.99577332 207.3215271 136.99577332 210.7215271 C134.5086009 223.43545815 126.94707605 235.31554224 116.23796082 242.5965271 C102.74217213 250.88038716 89.03385047 252.931797 73.42155457 250.0652771 C59.08259262 245.71672916 48.66538584 236.68868745 41.50749207 223.77230835 C37.56614342 215.81832051 36.99577332 209.89169923 36.99577332 200.7215271 C20.49577332 200.7215271 3.99577332 200.7215271 -13.00422668 200.7215271 C-13.11706709 175.5306871 -13.20918375 150.34005153 -13.26328754 125.14902306 C-13.28907588 113.45255871 -13.32423865 101.75626246 -13.38142395 90.05990601 C-13.43123938 79.86608666 -13.46351311 69.67238905 -13.47466916 59.47845137 C-13.48119101 54.08011979 -13.49653266 48.68213649 -13.53287697 43.28391647 C-13.56680683 38.20316562 -13.57728563 33.12290661 -13.56976509 28.04205322 C-13.57114097 26.17720492 -13.58109134 24.31234023 -13.60025406 22.44758987 C-13.62514573 19.90047081 -13.61914696 17.35520673 -13.60549927 14.80804443 C-13.62006347 14.07067751 -13.63462768 13.33331059 -13.64963323 12.57359922 C-13.59671021 8.91758716 -13.05620508 6.22541851 -10.96691132 3.26121521 C-7.28918012 0.10857112 -4.63607763 -0.10887953 0 0 Z " fill="#9ED0FE" transform="translate(63.00422668457031,49.278472900390625)"/>
<path d="M0 0 C1.20084725 -0.00768982 1.20084725 -0.00768982 2.42595404 -0.015535 C5.10605516 -0.02541114 7.78389783 0.00756615 10.46379089 0.04037476 C12.3856857 0.04206734 14.30758438 0.04111693 16.22947693 0.03771973 C21.44629618 0.03599706 26.66228898 0.07129138 31.87891603 0.11316347 C37.33080504 0.15065203 42.78271267 0.15419436 48.23471069 0.16131592 C58.55848153 0.17997023 68.88187149 0.2292154 79.20547456 0.28941286 C90.95863832 0.35645959 102.71182021 0.38946241 114.46512759 0.41958547 C138.64226936 0.48231387 162.81888894 0.59235408 186.99577332 0.7215271 C186.99577332 17.2215271 186.99577332 33.7215271 186.99577332 50.7215271 C183.69577332 51.3815271 180.39577332 52.0415271 176.99577332 52.7215271 C163.063612 56.62487135 152.05553978 63.67831009 144.45671082 76.27230835 C137.55752999 89.56634391 136.56973467 103.05586551 140.77702332 117.38168335 C144.98175938 129.10782229 154.11011288 138.8823452 165.12077332 144.5965271 C172.27476462 147.8873631 179.21236585 149.16484561 186.99577332 150.7215271 C186.99577332 167.2215271 186.99577332 183.7215271 186.99577332 200.7215271 C170.49577332 200.7215271 153.99577332 200.7215271 136.99577332 200.7215271 C136.99577332 204.0215271 136.99577332 207.3215271 136.99577332 210.7215271 C134.5086009 223.43545815 126.94707605 235.31554224 116.23796082 242.5965271 C102.74217213 250.88038716 89.03385047 252.931797 73.42155457 250.0652771 C59.08259262 245.71672916 48.66538584 236.68868745 41.50749207 223.77230835 C37.56614342 215.81832051 36.99577332 209.89169923 36.99577332 200.7215271 C20.49577332 200.7215271 3.99577332 200.7215271 -13.00422668 200.7215271 C-13.11706709 175.5306871 -13.20918375 150.34005153 -13.26328754 125.14902306 C-13.28907588 113.45255871 -13.32423865 101.75626246 -13.38142395 90.05990601 C-13.43123938 79.86608666 -13.46351311 69.67238905 -13.47466916 59.47845137 C-13.48119101 54.08011979 -13.49653266 48.68213649 -13.53287697 43.28391647 C-13.56680683 38.20316562 -13.57728563 33.12290661 -13.56976509 28.04205322 C-13.57114097 26.17720492 -13.58109134 24.31234023 -13.60025406 22.44758987 C-13.62514573 19.90047081 -13.61914696 17.35520673 -13.60549927 14.80804443 C-13.62006347 14.07067751 -13.63462768 13.33331059 -13.64963323 12.57359922 C-13.59671021 8.91758716 -13.05620508 6.22541851 -10.96691132 3.26121521 C-7.28918012 0.10857112 -4.63607763 -0.10887953 0 0 Z M-6.94792938 6.7778244 C-8.59212367 9.80332193 -8.40577664 12.82626758 -8.36499023 16.18153381 C-8.36755351 16.94772138 -8.37011678 17.71390895 -8.37275773 18.50331432 C-8.3777111 21.07846121 -8.36117746 23.65302574 -8.34480286 26.2281189 C-8.34395692 28.07090237 -8.34443108 29.91368685 -8.34613037 31.75646973 C-8.34699305 36.76655098 -8.32932323 41.77641787 -8.3084085 46.78644919 C-8.28968705 52.01950231 -8.28789484 57.25256004 -8.28433228 62.48564148 C-8.27499847 72.39851835 -8.25036662 82.31129626 -8.22028381 92.2241295 C-8.18678134 103.50813006 -8.17026424 114.79213529 -8.1551975 126.07617319 C-8.12381821 149.2913587 -8.06878946 172.50640852 -8.00422668 195.7215271 C8.49577332 195.7215271 24.99577332 195.7215271 41.99577332 195.7215271 C41.99577332 199.6815271 41.99577332 203.6415271 41.99577332 207.7215271 C44.93292999 220.93873215 51.49522106 231.69877501 62.68327332 239.4715271 C73.76160941 245.84211023 86.78221455 247.87338915 99.18327332 244.5965271 C112.43189724 239.91926249 121.30691169 232.80812873 127.76921082 220.33480835 C131.86304111 211.61260303 131.99577332 205.75942072 131.99577332 195.7215271 C148.49577332 195.7215271 164.99577332 195.7215271 181.99577332 195.7215271 C181.99577332 182.5215271 181.99577332 169.3215271 181.99577332 155.7215271 C177.37577332 154.4015271 172.75577332 153.0815271 167.99577332 151.7215271 C153.67504215 145.5636127 142.73379201 136.16165471 136.68327332 121.5340271 C136.08430999 119.94311545 135.52431179 118.33720158 134.99577332 116.7215271 C134.63741394 115.63742554 134.27905457 114.55332397 133.90983582 113.43637085 C132.9000537 109.33251278 132.64984729 105.67508801 132.68327332 101.4715271 C132.68891296 100.72427368 132.69455261 99.97702026 132.70036316 99.2071228 C133.01053215 84.97466557 138.74532472 72.24926112 148.57389832 61.97543335 C158.65621597 52.59237321 168.5939404 49.07198533 181.99577332 45.7215271 C181.99577332 32.5215271 181.99577332 19.3215271 181.99577332 5.7215271 C157.66581119 5.65386387 133.33592499 5.59857668 109.00589275 5.56609058 C97.70959803 5.55060729 86.41336581 5.52948987 75.11711121 5.49520874 C65.27380753 5.46535112 55.43054912 5.44596275 45.58720142 5.43926162 C40.37294432 5.43534318 35.15881673 5.42610404 29.94460106 5.40433693 C25.04040772 5.3840292 20.13639768 5.37768169 15.23216629 5.38220406 C13.42896467 5.38137629 11.62575714 5.37537672 9.82259178 5.36391068 C7.36676007 5.34905575 4.91162681 5.35254753 2.45578003 5.36076355 C1.73691122 5.35202503 1.01804242 5.3432865 0.27738971 5.33428317 C-2.43156311 5.35889795 -4.54294463 5.47084525 -6.94792938 6.7778244 Z " fill="#FEFEFF" transform="translate(63.00422668457031,49.278472900390625)"/>
<path d="M0 0 C2.75059381 -0.08107646 5.49879021 -0.14052813 8.25 -0.1875 C9.02730469 -0.21263672 9.80460937 -0.23777344 10.60546875 -0.26367188 C14.0987805 -0.30845792 16.38313493 -0.32713995 19.51171875 1.33203125 C21 3 21 3 21.5625 5.875 C20.83264627 9.92974297 19.08265324 11.37974474 16 14 C16.93441535 15.27310312 17.87267111 16.543388 18.8125 17.8125 C19.33457031 18.52019531 19.85664062 19.22789062 20.39453125 19.95703125 C21.83128877 21.78531393 23.31815763 23.39896688 25 25 C22.3125 25.3125 22.3125 25.3125 19 25 C16.10559064 22.6440854 14.27911115 20.49123562 12.4375 17.25 C11.20776413 14.82720174 11.20776413 14.82720174 8.8125 14.1875 C8.214375 14.125625 7.61625 14.06375 7 14 C7.33 16.64 7.66 19.28 8 22 C8.99 22.33 9.98 22.66 11 23 C11 23.66 11 24.32 11 25 C7.37 25 3.74 25 0 25 C0 24.34 0 23.68 0 23 C0.99 23 1.98 23 3 23 C2.8904307 19.54099522 2.75973152 16.08310891 2.625 12.625 C2.5940625 11.64015625 2.563125 10.6553125 2.53125 9.640625 C2.49257812 8.69960937 2.45390625 7.75859375 2.4140625 6.7890625 C2.3826416 5.91975098 2.3512207 5.05043945 2.31884766 4.15478516 C2.18770567 1.79038206 2.18770567 1.79038206 0 0 Z " fill="#0C1014" transform="translate(77,138)"/>
<path d="M0 0 C2.6796875 1.56640625 2.6796875 1.56640625 5 4 C5.48828125 7.453125 5.48828125 7.453125 5.3125 11.25 C5.24482422 13.14492187 5.24482422 13.14492187 5.17578125 15.078125 C5.11777344 16.04234375 5.05976563 17.0065625 5 18 C5.66 18.33 6.32 18.66 7 19 C4.33333333 19 1.66666667 19 -1 19 C-1.65097656 19.03480469 -2.30195313 19.06960937 -2.97265625 19.10546875 C-4.98053218 19.18428257 -6.99285224 19.09557846 -9 19 C-11 16 -11 16 -10.875 14 C-9.68138492 11.27173697 -8.64269068 10.39088983 -6 9 C-2.25 8.8125 -2.25 8.8125 1 9 C0.67 7.02 0.34 5.04 0 3 C-1.65 3 -3.3 3 -5 3 C-5 4.32 -5 5.64 -5 7 C-6.32 6.67 -7.64 6.34 -9 6 C-8.625 3.5625 -8.625 3.5625 -8 1 C-5.14675563 -0.42662219 -3.16545451 -0.31033868 0 0 Z " fill="#10151A" transform="translate(133,144)"/>
<path d="M0 0 C1.9375 1.25 1.9375 1.25 3 3 C3 4.65 3 6.3 3 8 C-0.96 8 -4.92 8 -9 8 C-8.34 10.31 -7.68 12.62 -7 15 C-1.67829506 15.29562367 -1.67829506 15.29562367 3 13 C2.625 14.9375 2.625 14.9375 2 17 C-1.47785711 18.73892856 -5.20533849 18.57964634 -9 18 C-11.70879965 15.8858149 -12.7230135 14.44616111 -13.37109375 11.0625 C-13.61174259 7.21211862 -13.24270904 5.38024417 -11.125 2.0625 C-7.32281131 -1.62785961 -5.09320852 -1.07225443 0 0 Z " fill="#07090B" transform="translate(116,145)"/>
<path d="M0 0 C0.66 0.33 1.32 0.66 2 1 C2 2.65 2 4.3 2 6 C0.68 6.33 -0.64 6.66 -2 7 C-2 5.35 -2 3.7 -2 2 C-3.65 2 -5.3 2 -7 2 C-8.18306728 4.36613456 -8.13354608 5.86780736 -8.125 8.5 C-8.12757813 9.2940625 -8.13015625 10.088125 -8.1328125 10.90625 C-8.13277996 13.05918534 -8.13277996 13.05918534 -7 15 C-4.36 15 -1.72 15 1 15 C1 14.34 1 13.68 1 13 C1.66 13 2.32 13 3 13 C2.0518738 15.37031549 1.31103322 16.76672508 -0.75 18.3125 C-3.88917552 19.27169252 -5.86169424 18.91533918 -9 18 C-11.375 16.5 -11.375 16.5 -13 14 C-13.95274111 9.23629444 -13.67304898 6.03060626 -11 1.9375 C-6.92850586 -0.69200664 -4.78247476 -0.47040735 0 0 Z " fill="#0B0E12" transform="translate(156,145)"/>
<path d="M0 0 C3.4375 0.25 3.4375 0.25 7 1 C9 4 9 4 8.75 6.5625 C8 9 8 9 6 11 C2.375 11.125 2.375 11.125 -1 11 C-1.02688151 9.35425434 -1.04634123 7.70838587 -1.0625 6.0625 C-1.07410156 5.14597656 -1.08570312 4.22945312 -1.09765625 3.28515625 C-1 1 -1 1 0 0 Z " fill="#93C2ED" transform="translate(85,139)"/>
<path d="M0 0 C0 1.65 0 3.3 0 5 C1.65 5 3.3 5 5 5 C5 5.33 5 5.66 5 6 C3.35 6 1.7 6 0 6 C0.33 10.62 0.66 15.24 1 20 C2.65 20.33 4.3 20.66 6 21 C6 21.66 6 22.32 6 23 C0.55752212 24.33038348 0.55752212 24.33038348 -1.6875 23 C-3.693425 19.94335238 -3.31578606 16.83543259 -3.1875 13.3125 C-3.16719727 12.2596582 -3.16719727 12.2596582 -3.14648438 11.18554688 C-3.11120182 9.45670171 -3.05739583 7.72825235 -3 6 C-3.99 5.67 -4.98 5.34 -6 5 C-1.125 0 -1.125 0 0 0 Z " fill="#090C0F" transform="translate(167,140)"/>
<path d="M0 0 C0 0.66 0 1.32 0 2 C-1.98 2.99 -1.98 2.99 -4 4 C-4 4.99 -4 5.98 -4 7 C-1.36 7 1.28 7 4 7 C3 9 3 9 1 10 C-0.875 10.203125 -0.875 10.203125 -3 10.25 C-4.051875 10.28867188 -4.051875 10.28867188 -5.125 10.328125 C-5.74375 10.21984375 -6.3625 10.1115625 -7 10 C-9 7 -9 7 -8.875 5 C-6.98328079 0.67607038 -4.54381563 0 0 0 Z " fill="#12171D" transform="translate(131,153)"/>
<path d="M0 0 C1.66611905 -0.042721 3.33382885 -0.04063832 5 0 C6 1 6 1 6.0625 4.0625 C6.041875 5.031875 6.02125 6.00125 6 7 C2.625 7.125 2.625 7.125 -1 7 C-1.66 6.34 -2.32 5.68 -3 5 C-2.34 4.67 -1.68 4.34 -1 4 C-0.34786708 1.97536745 -0.34786708 1.97536745 0 0 Z " fill="#97C7F3" transform="translate(128,146)"/>
<path d="M0 0 C-0.875 5.875 -0.875 5.875 -2 7 C-3.66617115 7.04063832 -5.33388095 7.042721 -7 7 C-7.33 5.68 -7.66 4.36 -8 3 C-3.375 0 -3.375 0 0 0 Z " fill="#95C5F0" transform="translate(134,154)"/>
<path d="M0 0 C1.2065625 0.0309375 1.2065625 0.0309375 2.4375 0.0625 C2.7675 2.0425 3.0975 4.0225 3.4375 6.0625 C0.7975 6.0625 -1.8425 6.0625 -4.5625 6.0625 C-3.48963568 0.08511307 -3.48963568 0.08511307 0 0 Z " fill="#95C4EF" transform="translate(111.5625,145.9375)"/>
<path d="M0 0 C6.38342541 0.60220994 6.38342541 0.60220994 8.9375 2.25 C10.35440053 4.58371852 10.21718696 6.32136078 10 9 C8.35 9 6.7 9 5 9 C5 6.69 5 4.38 5 2 C3.35 1.67 1.7 1.34 0 1 C0 0.67 0 0.34 0 0 Z " fill="#141B21" transform="translate(109,144)"/>
<path d="M0 0 C-0.33 0.66 -0.66 1.32 -1 2 C-3.0625 2.625 -3.0625 2.625 -5 3 C-5 4.32 -5 5.64 -5 7 C-6.32 6.67 -7.64 6.34 -9 6 C-8.625 3.5625 -8.625 3.5625 -8 1 C-5.29120665 -0.35439668 -2.99066732 -0.06501451 0 0 Z " fill="#202B34" transform="translate(133,144)"/>
<path d="M0 0 C0.66 0 1.32 0 2 0 C1.01906046 2.45234885 0.31296172 3.7809268 -1.875 5.3125 C-4.35009306 6.1132654 -5.58287634 5.86325845 -8 5 C-7.67 4.34 -7.34 3.68 -7 3 C-4.67843403 2.59270772 -2.3431213 2.25561323 0 2 C0 1.34 0 0.68 0 0 Z " fill="#364757" transform="translate(157,158)"/>
<path d="M0 0 C0.99 0.33 1.98 0.66 3 1 C3 2.65 3 4.3 3 6 C1.68 6.33 0.36 6.66 -1 7 C-0.67 4.69 -0.34 2.38 0 0 Z " fill="#12181E" transform="translate(155,145)"/>
<path d="M0 0 C0.33 0.99 0.66 1.98 1 3 C-2.22791555 5.1519437 -3.28400809 5.20086443 -7 5 C-7 4.34 -7 3.68 -7 3 C-5.5459375 2.5359375 -5.5459375 2.5359375 -4.0625 2.0625 C-1.15934208 1.30476658 -1.15934208 1.30476658 0 0 Z " fill="#1E2730" transform="translate(118,158)"/>
</svg>
