<svg width="125" height="100" viewBox="0 0 125 100" fill="none" xmlns="http://www.w3.org/2000/svg">
<mask id="path-1-inside-1_2_18" fill="white">
<path fill-rule="evenodd" clip-rule="evenodd" d="M100 100H0V75C13.8071 75 25 63.8071 25 50C25 36.1929 13.8071 25 0 25V0H100V25C113.807 25 125 36.1929 125 50C125 63.8071 113.807 75 100 75V100Z"/>
</mask>
<path fill-rule="evenodd" clip-rule="evenodd" d="M100 100H0V75C13.8071 75 25 63.8071 25 50C25 36.1929 13.8071 25 0 25V0H100V25C113.807 25 125 36.1929 125 50C125 63.8071 113.807 75 100 75V100Z" fill="#F2E589"/>
<path d="M0 100H-2V102H0V100ZM100 100V102H102V100H100ZM0 75V73H-2V75H0ZM0 25H-2V27H0V25ZM0 0V-2H-2V0H0ZM100 0H102V-2H100V0ZM100 25H98V27H100V25ZM100 75V73H98V75H100ZM0 102H100V98H0V102ZM-2 75V100H2V75H-2ZM23 50C23 62.7025 12.7026 73 0 73V77C14.9117 77 27 64.9117 27 50H23ZM0 27C12.7026 27 23 37.2975 23 50H27C27 35.0883 14.9117 23 0 23V27ZM-2 0V25H2V0H-2ZM100 -2H0V2H100V-2ZM102 25V0H98V25H102ZM100 27C112.703 27 123 37.2975 123 50H127C127 35.0883 114.912 23 100 23V27ZM123 50C123 62.7025 112.703 73 100 73V77C114.912 77 127 64.9117 127 50H123ZM102 100V75H98V100H102Z" fill="white" mask="url(#path-1-inside-1_2_18)"/>
<path d="M30.78 58.84C30.5533 58.88 30.4 58.7667 30.32 58.5C30.2533 58.2467 30.32 58.08 30.52 58C31.2133 57.7067 31.7133 57.2933 32.02 56.76C32.34 56.2267 32.54 55.5467 32.62 54.72C32.7133 53.8933 32.76 52.9067 32.76 51.76V44.72C32.76 44.4667 32.7333 44.2267 32.68 44C32.64 43.76 32.5333 43.5667 32.36 43.42C32.1867 43.26 31.8867 43.18 31.46 43.18C31.3267 43.18 31.2067 43.1667 31.1 43.14C31.0067 43.1133 30.9533 42.9867 30.94 42.76C30.94 42.6533 30.9667 42.5533 31.02 42.46C31.0867 42.3667 31.18 42.32 31.3 42.32C31.7267 42.3333 32.1267 42.3467 32.5 42.36C32.8867 42.3733 33.28 42.38 33.68 42.38C34.4933 42.38 35.3267 42.36 36.18 42.32C36.3 42.32 36.3867 42.3667 36.44 42.46C36.5067 42.5533 36.54 42.6533 36.54 42.76C36.5267 42.9867 36.4733 43.1133 36.38 43.14C36.2867 43.1667 36.1667 43.18 36.02 43.18C35.6067 43.18 35.3067 43.26 35.12 43.42C34.9467 43.5667 34.84 43.76 34.8 44C34.76 44.2267 34.7333 44.4667 34.72 44.72V52.44C34.72 53.4933 34.6 54.46 34.36 55.34C34.12 56.22 33.7133 56.96 33.14 57.56C32.5667 58.1733 31.78 58.6 30.78 58.84ZM39.9225 55.24C39.1092 55.24 38.4558 55.0067 37.9625 54.54C37.4825 54.0733 37.2425 53.5133 37.2425 52.86C37.2425 52.18 37.4158 51.6467 37.7625 51.26C38.1225 50.8733 38.5892 50.5867 39.1625 50.4C39.7492 50.2133 40.3825 50.0867 41.0625 50.02C41.7558 49.9533 42.4292 49.9 43.0825 49.86V48.28C43.0825 47.6533 42.9225 47.1667 42.6025 46.82C42.2958 46.46 41.7692 46.28 41.0225 46.28C40.6492 46.28 40.2958 46.4 39.9625 46.64C39.6425 46.88 39.4825 47.2267 39.4825 47.68C39.4825 47.8933 39.5358 48.0733 39.6425 48.22C39.7492 48.3667 39.8558 48.48 39.9625 48.56C40.0692 48.64 40.1225 48.6933 40.1225 48.72C40.1225 48.7733 40.0425 48.8733 39.8825 49.02C39.7358 49.1533 39.5292 49.22 39.2625 49.22C38.8492 49.22 38.5292 49.0667 38.3025 48.76C38.0758 48.4533 37.9625 48.1133 37.9625 47.74C37.9625 47.2333 38.1158 46.8333 38.4225 46.54C38.7425 46.2467 39.1492 46.0333 39.6425 45.9C40.1358 45.7667 40.6358 45.7 41.1425 45.7C41.7425 45.7 42.3225 45.7733 42.8825 45.92C43.4558 46.0667 43.9225 46.3467 44.2825 46.76C44.6558 47.1733 44.8425 47.7933 44.8425 48.62V53.28C44.8558 53.4133 44.8892 53.5733 44.9425 53.76C44.9958 53.9467 45.0958 54.1133 45.2425 54.26C45.4025 54.3933 45.6158 54.46 45.8825 54.46C45.9758 54.46 46.0492 54.48 46.1025 54.52C46.1558 54.5467 46.1825 54.6333 46.1825 54.78C46.1825 54.9 46.1158 54.9933 45.9825 55.06C45.8492 55.1267 45.6958 55.1733 45.5225 55.2C45.3492 55.2267 45.2025 55.24 45.0825 55.24C44.5892 55.24 44.1492 55.1 43.7625 54.82C43.3758 54.5267 43.1492 54.1267 43.0825 53.62C42.7892 54.1533 42.3492 54.56 41.7625 54.84C41.1892 55.1067 40.5758 55.24 39.9225 55.24ZM40.5625 54.16C41.0158 54.16 41.4292 54.0467 41.8025 53.82C42.1892 53.5933 42.4958 53.2867 42.7225 52.9C42.9625 52.5 43.0825 52.06 43.0825 51.58V50.44C41.7092 50.5333 40.7292 50.7533 40.1425 51.1C39.5558 51.4467 39.2625 52.0133 39.2625 52.8C39.2625 53.7067 39.6958 54.16 40.5625 54.16ZM51.2505 55.2C50.9171 54.4667 50.5838 53.6667 50.2505 52.8C49.9171 51.9333 49.5905 51.0867 49.2705 50.26C48.9505 49.4333 48.6438 48.7133 48.3505 48.1C48.1371 47.6067 47.9305 47.26 47.7305 47.06C47.5305 46.8467 47.2305 46.7133 46.8305 46.66C46.6571 46.6333 46.5371 46.6067 46.4705 46.58C46.4171 46.5533 46.3838 46.4533 46.3705 46.28C46.3571 46.0533 46.4171 45.9333 46.5505 45.92C46.6971 45.8933 46.8705 45.8733 47.0705 45.86C47.8971 45.82 48.5438 45.94 49.0105 46.22C49.4771 46.5 49.8571 46.9733 50.1505 47.64C50.3371 48.0533 50.5438 48.5667 50.7705 49.18C51.0105 49.7933 51.2571 50.4133 51.5105 51.04C51.7638 51.6667 52.0105 52.2333 52.2505 52.74H52.3105L54.2905 47.5C54.4238 47.1133 54.4305 46.8733 54.3105 46.78C54.1905 46.6867 53.9305 46.64 53.5305 46.64C53.4105 46.64 53.3105 46.6333 53.2305 46.62C53.1505 46.5933 53.1038 46.48 53.0905 46.28C53.0905 46.2 53.1105 46.1133 53.1505 46.02C53.2038 45.9267 53.2771 45.88 53.3705 45.88C53.7571 45.8933 54.0905 45.9067 54.3705 45.92C54.6505 45.9333 54.9638 45.94 55.3105 45.94C55.5505 45.94 55.7438 45.94 55.8905 45.94C56.0371 45.9267 56.1905 45.92 56.3505 45.92C56.5105 45.9067 56.7171 45.8933 56.9705 45.88C57.0771 45.88 57.1505 45.9267 57.1905 46.02C57.2438 46.1133 57.2705 46.2 57.2705 46.28C57.2571 46.48 57.2038 46.5933 57.1105 46.62C57.0305 46.6333 56.9371 46.64 56.8305 46.64C56.3905 46.64 56.0371 46.72 55.7705 46.88C55.5171 47.04 55.2971 47.3533 55.1105 47.82C55.1105 47.82 55.0371 48 54.8905 48.36C54.7571 48.7067 54.5771 49.16 54.3505 49.72C54.1238 50.28 53.8838 50.8733 53.6305 51.5C53.3771 52.1267 53.1305 52.72 52.8905 53.28C52.6638 53.84 52.4771 54.3 52.3305 54.66C52.1838 55.02 52.1038 55.2 52.0905 55.2H51.2505ZM60.0983 55.24C59.2849 55.24 58.6316 55.0067 58.1383 54.54C57.6583 54.0733 57.4183 53.5133 57.4183 52.86C57.4183 52.18 57.5916 51.6467 57.9383 51.26C58.2983 50.8733 58.7649 50.5867 59.3383 50.4C59.9249 50.2133 60.5583 50.0867 61.2383 50.02C61.9316 49.9533 62.6049 49.9 63.2583 49.86V48.28C63.2583 47.6533 63.0983 47.1667 62.7783 46.82C62.4716 46.46 61.9449 46.28 61.1983 46.28C60.8249 46.28 60.4716 46.4 60.1383 46.64C59.8183 46.88 59.6583 47.2267 59.6583 47.68C59.6583 47.8933 59.7116 48.0733 59.8183 48.22C59.9249 48.3667 60.0316 48.48 60.1383 48.56C60.2449 48.64 60.2983 48.6933 60.2983 48.72C60.2983 48.7733 60.2183 48.8733 60.0583 49.02C59.9116 49.1533 59.7049 49.22 59.4383 49.22C59.0249 49.22 58.7049 49.0667 58.4783 48.76C58.2516 48.4533 58.1383 48.1133 58.1383 47.74C58.1383 47.2333 58.2916 46.8333 58.5983 46.54C58.9183 46.2467 59.3249 46.0333 59.8183 45.9C60.3116 45.7667 60.8116 45.7 61.3183 45.7C61.9183 45.7 62.4983 45.7733 63.0583 45.92C63.6316 46.0667 64.0983 46.3467 64.4583 46.76C64.8316 47.1733 65.0183 47.7933 65.0183 48.62V53.28C65.0316 53.4133 65.0649 53.5733 65.1183 53.76C65.1716 53.9467 65.2716 54.1133 65.4183 54.26C65.5783 54.3933 65.7916 54.46 66.0583 54.46C66.1516 54.46 66.2249 54.48 66.2783 54.52C66.3316 54.5467 66.3583 54.6333 66.3583 54.78C66.3583 54.9 66.2916 54.9933 66.1583 55.06C66.0249 55.1267 65.8716 55.1733 65.6983 55.2C65.5249 55.2267 65.3783 55.24 65.2583 55.24C64.7649 55.24 64.3249 55.1 63.9383 54.82C63.5516 54.5267 63.3249 54.1267 63.2583 53.62C62.9649 54.1533 62.5249 54.56 61.9383 54.84C61.3649 55.1067 60.7516 55.24 60.0983 55.24ZM60.7383 54.16C61.1916 54.16 61.6049 54.0467 61.9783 53.82C62.3649 53.5933 62.6716 53.2867 62.8983 52.9C63.1383 52.5 63.2583 52.06 63.2583 51.58V50.44C61.8849 50.5333 60.9049 50.7533 60.3183 51.1C59.7316 51.4467 59.4383 52.0133 59.4383 52.8C59.4383 53.7067 59.8716 54.16 60.7383 54.16ZM71.1178 55.24C70.0911 55.24 69.2311 55.06 68.5378 54.7C67.8578 54.3267 67.5178 53.7933 67.5178 53.1C67.5178 52.7133 67.6311 52.4 67.8578 52.16C68.0978 51.92 68.4045 51.8 68.7778 51.8C69.0178 51.8 69.2111 51.8667 69.3578 52C69.5178 52.12 69.5978 52.2067 69.5978 52.26C69.5978 52.3 69.5178 52.3933 69.3578 52.54C69.2111 52.6733 69.1378 52.8933 69.1378 53.2C69.1378 53.5733 69.3111 53.8867 69.6578 54.14C70.0178 54.38 70.5578 54.5 71.2778 54.5C71.9045 54.5 72.3911 54.3667 72.7378 54.1C73.0978 53.82 73.2778 53.4333 73.2778 52.94C73.2778 52.54 73.1445 52.2333 72.8778 52.02C72.6245 51.7933 72.2911 51.6133 71.8778 51.48C71.4778 51.3467 71.0445 51.2133 70.5778 51.08C70.1245 50.9467 69.6911 50.78 69.2778 50.58C68.8645 50.38 68.5245 50.1067 68.2578 49.76C68.0045 49.4 67.8778 48.9267 67.8778 48.34C67.8778 47.74 68.0578 47.2467 68.4178 46.86C68.7778 46.4733 69.2378 46.1867 69.7978 46C70.3578 45.8 70.9245 45.7 71.4978 45.7C71.9911 45.7 72.4578 45.7733 72.8978 45.92C73.3378 46.0533 73.6978 46.26 73.9778 46.54C74.2711 46.82 74.4178 47.1733 74.4178 47.6C74.4178 47.9333 74.3111 48.2333 74.0978 48.5C73.8845 48.7667 73.5911 48.9 73.2178 48.9C72.9778 48.9 72.7778 48.84 72.6178 48.72C72.4711 48.5867 72.3978 48.4933 72.3978 48.44C72.3978 48.4133 72.4445 48.3667 72.5378 48.3C72.6445 48.22 72.7445 48.12 72.8378 48C72.9311 47.8667 72.9778 47.7 72.9778 47.5C72.9511 47.1133 72.7645 46.8267 72.4178 46.64C72.0711 46.4533 71.6845 46.36 71.2578 46.36C70.7911 46.36 70.3578 46.4733 69.9578 46.7C69.5578 46.9267 69.3578 47.2533 69.3578 47.68C69.3578 48.0667 69.4378 48.3667 69.5978 48.58C69.7711 48.7933 70.0378 48.98 70.3978 49.14C70.7711 49.2867 71.2511 49.4533 71.8378 49.64C72.4245 49.8267 72.9378 50.02 73.3778 50.22C73.8311 50.42 74.1778 50.6867 74.4178 51.02C74.6711 51.34 74.7978 51.78 74.7978 52.34C74.7978 52.9 74.6378 53.4 74.3178 53.84C73.9978 54.28 73.5578 54.6267 72.9978 54.88C72.4511 55.12 71.8245 55.24 71.1178 55.24ZM80.805 55.24C79.4317 55.24 78.3583 54.8067 77.585 53.94C76.825 53.06 76.445 51.9 76.445 50.46C76.485 49.54 76.7117 48.7267 77.125 48.02C77.5517 47.3133 78.1117 46.76 78.805 46.36C79.5117 45.9467 80.2917 45.7267 81.145 45.7C81.6117 45.7 82.085 45.76 82.565 45.88C83.0583 45.9867 83.465 46.1933 83.785 46.5C84.1183 46.7933 84.285 47.22 84.285 47.78C84.285 48.1667 84.165 48.5267 83.925 48.86C83.685 49.18 83.3517 49.34 82.925 49.34C82.6317 49.34 82.405 49.2667 82.245 49.12C82.085 48.9733 82.005 48.8667 82.005 48.8C82.005 48.7733 82.0583 48.72 82.165 48.64C82.285 48.5467 82.3983 48.4267 82.505 48.28C82.6117 48.12 82.665 47.9267 82.665 47.7C82.665 47.2733 82.5117 46.96 82.205 46.76C81.8983 46.56 81.5517 46.4533 81.165 46.44C80.5783 46.44 80.105 46.56 79.745 46.8C79.3983 47.04 79.1317 47.36 78.945 47.76C78.7583 48.1467 78.6317 48.5733 78.565 49.04C78.5117 49.5067 78.485 49.96 78.485 50.4C78.485 51.1333 78.5983 51.7933 78.825 52.38C79.0517 52.9533 79.3717 53.4067 79.785 53.74C80.1983 54.0733 80.6917 54.24 81.265 54.24C81.8517 54.24 82.345 54.1133 82.745 53.86C83.145 53.6067 83.5117 53.2333 83.845 52.74C83.9383 52.6067 84.0783 52.5933 84.265 52.7C84.3583 52.7533 84.425 52.8267 84.465 52.92C84.505 53.0133 84.4917 53.1067 84.425 53.2C83.985 53.8267 83.4383 54.3267 82.785 54.7C82.1317 55.06 81.4717 55.24 80.805 55.24ZM86.0972 55.06C86.0039 55.06 85.9239 55.02 85.8572 54.94C85.8039 54.8467 85.7772 54.7533 85.7772 54.66C85.8039 54.46 85.8572 54.3533 85.9372 54.34C86.0172 54.3133 86.1239 54.3 86.2572 54.3C86.6305 54.3 86.8839 54.24 87.0172 54.12C87.1505 53.9867 87.2239 53.8133 87.2372 53.6C87.2639 53.3867 87.2772 53.1667 87.2772 52.94V48.36C87.2772 48.12 87.2639 47.9 87.2372 47.7C87.2239 47.4867 87.1505 47.32 87.0172 47.2C86.8839 47.0667 86.6305 47 86.2572 47C86.1372 47 86.0239 46.9867 85.9172 46.96C85.8239 46.92 85.7772 46.8 85.7772 46.6C85.7772 46.4 85.8839 46.28 86.0972 46.24C86.7105 46.1467 87.1772 46.0533 87.4972 45.96C87.8305 45.8667 88.0772 45.7867 88.2372 45.72C88.4105 45.6533 88.5639 45.6133 88.6972 45.6C88.8039 45.5867 88.8905 45.6067 88.9572 45.66C89.0372 45.7133 89.0772 45.82 89.0772 45.98V47.22H89.1372C89.5905 46.78 90.0572 46.42 90.5372 46.14C91.0172 45.8467 91.4572 45.7 91.8572 45.7C92.3239 45.7 92.6772 45.8733 92.9172 46.22C93.1705 46.5667 93.2972 46.9333 93.2972 47.32C93.2972 47.6533 93.1905 47.98 92.9772 48.3C92.7639 48.6067 92.4439 48.76 92.0172 48.76C91.8039 48.76 91.6305 48.72 91.4972 48.64C91.3772 48.5467 91.3105 48.48 91.2972 48.44C91.2972 48.4133 91.3572 48.3333 91.4772 48.2C91.6105 48.0667 91.6772 47.9 91.6772 47.7C91.6772 47.46 91.6105 47.2667 91.4772 47.12C91.3572 46.9733 91.1905 46.9 90.9772 46.9C90.7505 46.9 90.4572 47.0133 90.0972 47.24C89.7505 47.4667 89.4172 47.74 89.0972 48.06V52.94C89.0972 53.1667 89.1039 53.3867 89.1172 53.6C89.1439 53.8133 89.2239 53.9867 89.3572 54.12C89.5039 54.24 89.7639 54.3 90.1372 54.3C90.2572 54.3 90.3572 54.3133 90.4372 54.34C90.5305 54.3533 90.5839 54.46 90.5972 54.66C90.5972 54.7533 90.5705 54.8467 90.5172 54.94C90.4639 55.02 90.3839 55.06 90.2772 55.06C89.8905 55.0333 89.5305 55.0133 89.1972 55C88.8772 55 88.5372 55 88.1772 55C87.8172 55 87.4772 55 87.1572 55C86.8372 55.0133 86.4839 55.0333 86.0972 55.06ZM94.5933 55.06C94.4999 55.06 94.4199 55.02 94.3533 54.94C94.2999 54.8467 94.2733 54.7533 94.2733 54.66C94.2999 54.46 94.3533 54.3533 94.4333 54.34C94.5133 54.3133 94.6199 54.3 94.7533 54.3C95.1266 54.3 95.3799 54.24 95.5133 54.12C95.6466 53.9867 95.7199 53.8133 95.7333 53.6C95.7599 53.3867 95.7733 53.1667 95.7733 52.94V48.36C95.7733 48.12 95.7599 47.9 95.7333 47.7C95.7199 47.4867 95.6466 47.32 95.5133 47.2C95.3799 47.0667 95.1266 47 94.7533 47C94.6333 47 94.5199 46.9867 94.4133 46.96C94.3199 46.92 94.2733 46.8 94.2733 46.6C94.2733 46.4 94.3799 46.28 94.5933 46.24C95.2066 46.1467 95.6733 46.0533 95.9933 45.96C96.3266 45.8667 96.5799 45.7867 96.7533 45.72C96.9266 45.6533 97.0799 45.6133 97.2133 45.6C97.3199 45.5867 97.4066 45.6067 97.4733 45.66C97.5533 45.7133 97.5933 45.82 97.5933 45.98V52.94C97.5933 53.1667 97.5999 53.3867 97.6133 53.6C97.6399 53.8133 97.7199 53.9867 97.8533 54.12C97.9999 54.24 98.2599 54.3 98.6333 54.3C98.7533 54.3 98.8533 54.3133 98.9333 54.34C99.0266 54.3533 99.0799 54.46 99.0933 54.66C99.0933 54.7533 99.0666 54.8467 99.0133 54.94C98.9599 55.02 98.8799 55.06 98.7733 55.06C98.3866 55.0333 98.0266 55.0133 97.6933 55C97.3733 55 97.0333 55 96.6733 55C96.3133 55 95.9733 55 95.6533 55C95.3333 55.0133 94.9799 55.0333 94.5933 55.06ZM96.5733 43.38C96.1999 43.38 95.8866 43.2667 95.6333 43.04C95.3799 42.8 95.2533 42.5067 95.2533 42.16C95.2533 41.8533 95.4066 41.58 95.7133 41.34C96.0199 41.1 96.3666 40.98 96.7533 40.98C97.0866 40.98 97.3599 41.1 97.5733 41.34C97.7866 41.5667 97.8933 41.86 97.8933 42.22C97.8933 42.54 97.7666 42.8133 97.5133 43.04C97.2599 43.2667 96.9466 43.38 96.5733 43.38ZM100.214 59.16C100.12 59.16 100.04 59.1133 99.9736 59.02C99.9203 58.94 99.8936 58.8533 99.8936 58.76C99.9069 58.56 99.9536 58.4467 100.034 58.42C100.127 58.4067 100.234 58.4 100.354 58.4C100.714 58.4 100.96 58.3333 101.094 58.2C101.24 58.08 101.327 57.9133 101.354 57.7C101.38 57.4867 101.394 57.2667 101.394 57.04V48.36C101.394 48.12 101.38 47.9 101.354 47.7C101.34 47.4867 101.267 47.32 101.134 47.2C101 47.0667 100.747 47 100.374 47C100.254 47 100.14 46.9867 100.034 46.96C99.9403 46.92 99.8936 46.8 99.8936 46.6C99.8936 46.4 100 46.28 100.214 46.24C100.827 46.1467 101.294 46.0533 101.614 45.96C101.947 45.8667 102.194 45.7867 102.354 45.72C102.527 45.6533 102.68 45.6133 102.814 45.6C102.92 45.5867 103.007 45.6067 103.074 45.66C103.154 45.7133 103.194 45.82 103.194 45.98V46.94H103.254C103.627 46.5933 104.074 46.3 104.594 46.06C105.114 45.82 105.614 45.7 106.094 45.7C106.907 45.7 107.627 45.9 108.254 46.3C108.88 46.7 109.374 47.26 109.734 47.98C110.094 48.6867 110.274 49.5133 110.274 50.46C110.274 51.42 110.054 52.26 109.614 52.98C109.174 53.7 108.607 54.26 107.914 54.66C107.22 55.0467 106.48 55.24 105.694 55.24C105.094 55.24 104.607 55.1733 104.234 55.04C103.874 54.92 103.56 54.78 103.294 54.62H103.214V57.04C103.214 57.2667 103.227 57.4867 103.254 57.7C103.28 57.9133 103.367 58.08 103.514 58.2C103.66 58.3333 103.907 58.4 104.254 58.4C104.374 58.4 104.474 58.4067 104.554 58.42C104.647 58.4467 104.7 58.56 104.714 58.76C104.714 58.8533 104.687 58.94 104.634 59.02C104.58 59.1133 104.5 59.16 104.394 59.16C104.007 59.1333 103.647 59.1133 103.314 59.1C102.994 59.1 102.654 59.1 102.294 59.1C101.934 59.1 101.594 59.1 101.274 59.1C100.954 59.1133 100.6 59.1333 100.214 59.16ZM105.534 54.56C106.054 54.56 106.487 54.4333 106.834 54.18C107.18 53.9133 107.454 53.58 107.654 53.18C107.867 52.7667 108.014 52.3267 108.094 51.86C108.187 51.38 108.234 50.9333 108.234 50.52C108.234 49.8933 108.134 49.2933 107.934 48.72C107.747 48.1333 107.44 47.6533 107.014 47.28C106.6 46.8933 106.054 46.7 105.374 46.7C104.867 46.7 104.447 46.8067 104.114 47.02C103.78 47.22 103.48 47.46 103.214 47.74V53.1C103.36 53.4467 103.627 53.78 104.014 54.1C104.414 54.4067 104.92 54.56 105.534 54.56ZM115.336 55.34C114.936 55.34 114.556 55.24 114.196 55.04C113.836 54.84 113.536 54.5333 113.296 54.12C113.069 53.7067 112.956 53.1867 112.956 52.56V46.68L111.796 46.72C111.702 46.72 111.629 46.6867 111.576 46.62C111.536 46.54 111.516 46.4533 111.516 46.36C111.516 46.0933 111.609 45.94 111.796 45.9C112.289 45.8067 112.662 45.6533 112.916 45.44C113.169 45.2133 113.362 44.9467 113.496 44.64C113.642 44.3333 113.776 44 113.896 43.64C113.936 43.5333 113.996 43.4667 114.076 43.44C114.156 43.4 114.242 43.38 114.336 43.38C114.416 43.38 114.502 43.4 114.596 43.44C114.702 43.48 114.756 43.5533 114.756 43.66L114.616 45.94L116.956 45.8C117.076 45.7867 117.156 45.82 117.196 45.9C117.236 45.98 117.256 46.0733 117.256 46.18C117.256 46.3133 117.229 46.4467 117.176 46.58C117.136 46.7133 117.082 46.78 117.016 46.78L114.776 46.72V52.8C114.776 53.1867 114.856 53.54 115.016 53.86C115.189 54.18 115.496 54.34 115.936 54.34C116.082 54.34 116.249 54.3267 116.436 54.3C116.622 54.2733 116.822 54.2133 117.036 54.12C117.089 54.0933 117.142 54.0733 117.196 54.06C117.249 54.0333 117.302 54.02 117.356 54.02C117.462 54.02 117.542 54.0667 117.596 54.16C117.649 54.24 117.696 54.3267 117.736 54.42C117.776 54.54 117.742 54.6333 117.636 54.7C117.222 54.9667 116.842 55.14 116.496 55.22C116.149 55.3 115.762 55.34 115.336 55.34Z" fill="#001324"/>
</svg>
