<svg width="150" height="125" viewBox="0 0 150 125" fill="none" xmlns="http://www.w3.org/2000/svg">
<mask id="path-1-inside-1_35_64" fill="white">
<path fill-rule="evenodd" clip-rule="evenodd" d="M125 100C138.807 100 150 88.8071 150 75C150 61.1929 138.807 50 125 50V25L100 25C100 38.8071 88.8071 50 75 50C61.1929 50 50 38.8071 50 25H25L25 120C25 122.761 27.2386 125 30 125L125 125L125 100Z"/>
</mask>
<path fill-rule="evenodd" clip-rule="evenodd" d="M125 100C138.807 100 150 88.8071 150 75C150 61.1929 138.807 50 125 50V25L100 25C100 38.8071 88.8071 50 75 50C61.1929 50 50 38.8071 50 25H25L25 120C25 122.761 27.2386 125 30 125L125 125L125 100Z" fill="#CCCCFF"/>
<path d="M125 100V98H123V100H125ZM125 50H123V52H125V50ZM125 25H127V23H125V25ZM100 25V23H98V25H100ZM50 25H52V23H50V25ZM25 25V23H23V25H25ZM25 120H23H25ZM125 125V127H127V125H125ZM148 75C148 87.7025 137.703 98 125 98V102C139.912 102 152 89.9117 152 75H148ZM125 52C137.703 52 148 62.2975 148 75H152C152 60.0883 139.912 48 125 48V52ZM127 50V25H123V50H127ZM125 23L100 23V27L125 27V23ZM98 25C98 37.7026 87.7025 48 75 48V52C89.9117 52 102 39.9117 102 25H98ZM75 48C62.2975 48 52 37.7026 52 25H48C48 39.9117 60.0883 52 75 52V48ZM50 23H25V27H50V23ZM23 25L23 120H27L27 25H23ZM23 120C23 123.866 26.134 127 30 127V123C28.3431 123 27 121.657 27 120H23ZM30 127L125 127V123L30 123V127ZM127 125L127 100H123L123 125H127Z" fill="white" mask="url(#path-1-inside-1_35_64)"/>
<path d="M36.2 84.06C36.0667 84.06 35.9733 84.0133 35.92 83.92C35.8667 83.8267 35.84 83.7267 35.84 83.62C35.8533 83.3933 35.9067 83.2667 36 83.24C36.0933 83.2133 36.2067 83.2 36.34 83.2C36.7667 83.2 37.0667 83.1267 37.24 82.98C37.4133 82.82 37.52 82.6267 37.56 82.4C37.6133 82.16 37.64 81.9133 37.64 81.66V73.72C37.64 73.4667 37.6133 73.2267 37.56 73C37.52 72.76 37.4133 72.5667 37.24 72.42C37.0667 72.26 36.7667 72.18 36.34 72.18C36.2067 72.18 36.0933 72.1667 36 72.14C35.9067 72.1133 35.8533 71.9867 35.84 71.76C35.84 71.6533 35.8667 71.5533 35.92 71.46C35.9733 71.3667 36.0667 71.32 36.2 71.32C36.6267 71.3333 37.0267 71.3467 37.4 71.36C37.7733 71.3733 38.16 71.38 38.56 71.38H41.38C42.1533 71.38 42.76 71.44 43.2 71.56C43.6533 71.6667 44.0467 71.8267 44.38 72.04C44.7267 72.2667 45 72.58 45.2 72.98C45.4 73.3667 45.5 73.7933 45.5 74.26C45.5 74.86 45.36 75.3667 45.08 75.78C44.8 76.18 44.4467 76.5 44.02 76.74C43.6067 76.9667 43.2 77.1267 42.8 77.22V77.28C43.5067 77.2667 44.1333 77.3933 44.68 77.66C45.2267 77.9267 45.66 78.28 45.98 78.72C46.3 79.16 46.4667 79.64 46.48 80.16C46.5067 80.92 46.3467 81.5467 46 82.04C45.6533 82.5333 45.2 82.9267 44.64 83.22C44.0933 83.5133 43.4933 83.72 42.84 83.84C42.2 83.96 41.58 84.02 40.98 84.02L38.58 84C38.18 84 37.7867 84 37.4 84C37.0267 84.0133 36.6267 84.0333 36.2 84.06ZM39.62 76.88H40.46C40.7267 76.88 41.0267 76.8667 41.36 76.84C41.6933 76.8133 42.0133 76.7333 42.32 76.6C42.6267 76.4533 42.8733 76.22 43.06 75.9C43.26 75.5667 43.36 75.1 43.36 74.5C43.36 73.7933 43.1867 73.22 42.84 72.78C42.5067 72.34 41.9 72.12 41.02 72.12H39.62V76.88ZM41.06 83.22C41.66 83.2067 42.2067 83.1067 42.7 82.92C43.1933 82.7333 43.5867 82.42 43.88 81.98C44.1733 81.54 44.32 80.9333 44.32 80.16C44.28 79.7333 44.1333 79.3333 43.88 78.96C43.64 78.5867 43.24 78.28 42.68 78.04C42.1333 77.8 41.3867 77.68 40.44 77.68H39.62V81.66C39.62 82.3267 39.72 82.7533 39.92 82.94C40.12 83.1267 40.5 83.22 41.06 83.22ZM52.9019 84.24C51.9685 84.24 51.1485 84.02 50.4419 83.58C49.7485 83.14 49.2085 82.5667 48.8219 81.86C48.4352 81.1533 48.2419 80.4 48.2419 79.6C48.2419 78.8133 48.3819 78.1133 48.6619 77.5C48.9419 76.8867 49.3085 76.3733 49.7619 75.96C50.2285 75.5467 50.7352 75.2333 51.2819 75.02C51.8285 74.8067 52.3685 74.7 52.9019 74.7C53.8352 74.7 54.6485 74.92 55.3419 75.36C56.0485 75.8 56.5952 76.3733 56.9819 77.08C57.3685 77.7867 57.5619 78.54 57.5619 79.34C57.5619 80.1267 57.4152 80.8267 57.1219 81.44C56.8419 82.0533 56.4685 82.5667 56.0019 82.98C55.5485 83.3933 55.0485 83.7067 54.5019 83.92C53.9552 84.1333 53.4219 84.24 52.9019 84.24ZM52.9019 83.5C53.5552 83.5 54.0685 83.3067 54.4419 82.92C54.8285 82.5333 55.1019 82.0267 55.2619 81.4C55.4352 80.76 55.5219 80.0733 55.5219 79.34C55.5219 78.6333 55.4352 77.9867 55.2619 77.4C55.0885 76.8133 54.8085 76.34 54.4219 75.98C54.0352 75.62 53.5285 75.44 52.9019 75.44C52.2485 75.44 51.7285 75.6333 51.3419 76.02C50.9552 76.3933 50.6819 76.8933 50.5219 77.52C50.3619 78.1333 50.2819 78.8133 50.2819 79.56C50.2819 80.2533 50.3619 80.9 50.5219 81.5C50.6952 82.1 50.9752 82.5867 51.3619 82.96C51.7485 83.32 52.2619 83.5 52.9019 83.5ZM63.8589 84.24C62.9256 84.24 62.1056 84.02 61.3989 83.58C60.7056 83.14 60.1656 82.5667 59.7789 81.86C59.3922 81.1533 59.1989 80.4 59.1989 79.6C59.1989 78.8133 59.3389 78.1133 59.6189 77.5C59.8989 76.8867 60.2656 76.3733 60.7189 75.96C61.1856 75.5467 61.6922 75.2333 62.2389 75.02C62.7856 74.8067 63.3256 74.7 63.8589 74.7C64.7922 74.7 65.6056 74.92 66.2989 75.36C67.0056 75.8 67.5522 76.3733 67.9389 77.08C68.3256 77.7867 68.5189 78.54 68.5189 79.34C68.5189 80.1267 68.3722 80.8267 68.0789 81.44C67.7989 82.0533 67.4256 82.5667 66.9589 82.98C66.5056 83.3933 66.0056 83.7067 65.4589 83.92C64.9122 84.1333 64.3789 84.24 63.8589 84.24ZM63.8589 83.5C64.5122 83.5 65.0256 83.3067 65.3989 82.92C65.7856 82.5333 66.0589 82.0267 66.2189 81.4C66.3922 80.76 66.4789 80.0733 66.4789 79.34C66.4789 78.6333 66.3922 77.9867 66.2189 77.4C66.0456 76.8133 65.7656 76.34 65.3789 75.98C64.9922 75.62 64.4856 75.44 63.8589 75.44C63.2056 75.44 62.6856 75.6333 62.2989 76.02C61.9122 76.3933 61.6389 76.8933 61.4789 77.52C61.3189 78.1333 61.2389 78.8133 61.2389 79.56C61.2389 80.2533 61.3189 80.9 61.4789 81.5C61.6522 82.1 61.9322 82.5867 62.3189 82.96C62.7056 83.32 63.2189 83.5 63.8589 83.5ZM73.5583 84.34C73.1583 84.34 72.7783 84.24 72.4183 84.04C72.0583 83.84 71.7583 83.5333 71.5183 83.12C71.2916 82.7067 71.1783 82.1867 71.1783 81.56V75.68L70.0183 75.72C69.9249 75.72 69.8516 75.6867 69.7983 75.62C69.7583 75.54 69.7383 75.4533 69.7383 75.36C69.7383 75.0933 69.8316 74.94 70.0183 74.9C70.5116 74.8067 70.8849 74.6533 71.1383 74.44C71.3916 74.2133 71.5849 73.9467 71.7183 73.64C71.8649 73.3333 71.9983 73 72.1183 72.64C72.1583 72.5333 72.2183 72.4667 72.2983 72.44C72.3783 72.4 72.4649 72.38 72.5583 72.38C72.6383 72.38 72.7249 72.4 72.8183 72.44C72.9249 72.48 72.9783 72.5533 72.9783 72.66L72.8383 74.94L75.1783 74.8C75.2983 74.7867 75.3783 74.82 75.4183 74.9C75.4583 74.98 75.4783 75.0733 75.4783 75.18C75.4783 75.3133 75.4516 75.4467 75.3983 75.58C75.3583 75.7133 75.3049 75.78 75.2383 75.78L72.9983 75.72V81.8C72.9983 82.1867 73.0783 82.54 73.2383 82.86C73.4116 83.18 73.7183 83.34 74.1583 83.34C74.3049 83.34 74.4716 83.3267 74.6583 83.3C74.8449 83.2733 75.0449 83.2133 75.2583 83.12C75.3116 83.0933 75.3649 83.0733 75.4183 83.06C75.4716 83.0333 75.5249 83.02 75.5783 83.02C75.6849 83.02 75.7649 83.0667 75.8183 83.16C75.8716 83.24 75.9183 83.3267 75.9583 83.42C75.9983 83.54 75.9649 83.6333 75.8583 83.7C75.4449 83.9667 75.0649 84.14 74.7183 84.22C74.3716 84.3 73.9849 84.34 73.5583 84.34ZM81.1764 84.24C80.1497 84.24 79.2897 84.06 78.5964 83.7C77.9164 83.3267 77.5764 82.7933 77.5764 82.1C77.5764 81.7133 77.6897 81.4 77.9164 81.16C78.1564 80.92 78.4631 80.8 78.8364 80.8C79.0764 80.8 79.2697 80.8667 79.4164 81C79.5764 81.12 79.6564 81.2067 79.6564 81.26C79.6564 81.3 79.5764 81.3933 79.4164 81.54C79.2697 81.6733 79.1964 81.8933 79.1964 82.2C79.1964 82.5733 79.3697 82.8867 79.7164 83.14C80.0764 83.38 80.6164 83.5 81.3364 83.5C81.9631 83.5 82.4497 83.3667 82.7964 83.1C83.1564 82.82 83.3364 82.4333 83.3364 81.94C83.3364 81.54 83.2031 81.2333 82.9364 81.02C82.6831 80.7933 82.3497 80.6133 81.9364 80.48C81.5364 80.3467 81.1031 80.2133 80.6364 80.08C80.1831 79.9467 79.7497 79.78 79.3364 79.58C78.9231 79.38 78.5831 79.1067 78.3164 78.76C78.0631 78.4 77.9364 77.9267 77.9364 77.34C77.9364 76.74 78.1164 76.2467 78.4764 75.86C78.8364 75.4733 79.2964 75.1867 79.8564 75C80.4164 74.8 80.9831 74.7 81.5564 74.7C82.0497 74.7 82.5164 74.7733 82.9564 74.92C83.3964 75.0533 83.7564 75.26 84.0364 75.54C84.3297 75.82 84.4764 76.1733 84.4764 76.6C84.4764 76.9333 84.3697 77.2333 84.1564 77.5C83.9431 77.7667 83.6497 77.9 83.2764 77.9C83.0364 77.9 82.8364 77.84 82.6764 77.72C82.5297 77.5867 82.4564 77.4933 82.4564 77.44C82.4564 77.4133 82.5031 77.3667 82.5964 77.3C82.7031 77.22 82.8031 77.12 82.8964 77C82.9897 76.8667 83.0364 76.7 83.0364 76.5C83.0097 76.1133 82.8231 75.8267 82.4764 75.64C82.1297 75.4533 81.7431 75.36 81.3164 75.36C80.8497 75.36 80.4164 75.4733 80.0164 75.7C79.6164 75.9267 79.4164 76.2533 79.4164 76.68C79.4164 77.0667 79.4964 77.3667 79.6564 77.58C79.8297 77.7933 80.0964 77.98 80.4564 78.14C80.8297 78.2867 81.3097 78.4533 81.8964 78.64C82.4831 78.8267 82.9964 79.02 83.4364 79.22C83.8897 79.42 84.2364 79.6867 84.4764 80.02C84.7297 80.34 84.8564 80.78 84.8564 81.34C84.8564 81.9 84.6964 82.4 84.3764 82.84C84.0564 83.28 83.6164 83.6267 83.0564 83.88C82.5097 84.12 81.8831 84.24 81.1764 84.24ZM90.0036 84.34C89.6036 84.34 89.2236 84.24 88.8636 84.04C88.5036 83.84 88.2036 83.5333 87.9636 83.12C87.7369 82.7067 87.6236 82.1867 87.6236 81.56V75.68L86.4636 75.72C86.3703 75.72 86.2969 75.6867 86.2436 75.62C86.2036 75.54 86.1836 75.4533 86.1836 75.36C86.1836 75.0933 86.2769 74.94 86.4636 74.9C86.9569 74.8067 87.3303 74.6533 87.5836 74.44C87.8369 74.2133 88.0303 73.9467 88.1636 73.64C88.3103 73.3333 88.4436 73 88.5636 72.64C88.6036 72.5333 88.6636 72.4667 88.7436 72.44C88.8236 72.4 88.9103 72.38 89.0036 72.38C89.0836 72.38 89.1703 72.4 89.2636 72.44C89.3703 72.48 89.4236 72.5533 89.4236 72.66L89.2836 74.94L91.6236 74.8C91.7436 74.7867 91.8236 74.82 91.8636 74.9C91.9036 74.98 91.9236 75.0733 91.9236 75.18C91.9236 75.3133 91.8969 75.4467 91.8436 75.58C91.8036 75.7133 91.7503 75.78 91.6836 75.78L89.4436 75.72V81.8C89.4436 82.1867 89.5236 82.54 89.6836 82.86C89.8569 83.18 90.1636 83.34 90.6036 83.34C90.7503 83.34 90.9169 83.3267 91.1036 83.3C91.2903 83.2733 91.4903 83.2133 91.7036 83.12C91.7569 83.0933 91.8103 83.0733 91.8636 83.06C91.9169 83.0333 91.9703 83.02 92.0236 83.02C92.1303 83.02 92.2103 83.0667 92.2636 83.16C92.3169 83.24 92.3636 83.3267 92.4036 83.42C92.4436 83.54 92.4103 83.6333 92.3036 83.7C91.8903 83.9667 91.5103 84.14 91.1636 84.22C90.8169 84.3 90.4303 84.34 90.0036 84.34ZM94.2417 84.06C94.1484 84.06 94.0684 84.02 94.0017 83.94C93.9484 83.8467 93.9217 83.7533 93.9217 83.66C93.9484 83.46 94.0017 83.3533 94.0817 83.34C94.1617 83.3133 94.2684 83.3 94.4017 83.3C94.7751 83.3 95.0284 83.24 95.1617 83.12C95.2951 82.9867 95.3684 82.8133 95.3817 82.6C95.4084 82.3867 95.4217 82.1667 95.4217 81.94V77.36C95.4217 77.12 95.4084 76.9 95.3817 76.7C95.3684 76.4867 95.2951 76.32 95.1617 76.2C95.0284 76.0667 94.7751 76 94.4017 76C94.2817 76 94.1684 75.9867 94.0617 75.96C93.9684 75.92 93.9217 75.8 93.9217 75.6C93.9217 75.4 94.0284 75.28 94.2417 75.24C94.8551 75.1467 95.3217 75.0533 95.6417 74.96C95.9751 74.8667 96.2217 74.7867 96.3817 74.72C96.5551 74.6533 96.7084 74.6133 96.8417 74.6C96.9484 74.5867 97.0351 74.6067 97.1017 74.66C97.1817 74.7133 97.2217 74.82 97.2217 74.98V76.22H97.2817C97.7351 75.78 98.2017 75.42 98.6817 75.14C99.1617 74.8467 99.6017 74.7 100.002 74.7C100.468 74.7 100.822 74.8733 101.062 75.22C101.315 75.5667 101.442 75.9333 101.442 76.32C101.442 76.6533 101.335 76.98 101.122 77.3C100.908 77.6067 100.588 77.76 100.162 77.76C99.9484 77.76 99.7751 77.72 99.6417 77.64C99.5217 77.5467 99.4551 77.48 99.4417 77.44C99.4417 77.4133 99.5017 77.3333 99.6217 77.2C99.7551 77.0667 99.8217 76.9 99.8217 76.7C99.8217 76.46 99.7551 76.2667 99.6217 76.12C99.5017 75.9733 99.3351 75.9 99.1217 75.9C98.8951 75.9 98.6017 76.0133 98.2417 76.24C97.8951 76.4667 97.5617 76.74 97.2417 77.06V81.94C97.2417 82.1667 97.2484 82.3867 97.2617 82.6C97.2884 82.8133 97.3684 82.9867 97.5017 83.12C97.6484 83.24 97.9084 83.3 98.2817 83.3C98.4017 83.3 98.5017 83.3133 98.5817 83.34C98.6751 83.3533 98.7284 83.46 98.7417 83.66C98.7417 83.7533 98.7151 83.8467 98.6617 83.94C98.6084 84.02 98.5284 84.06 98.4217 84.06C98.0351 84.0333 97.6751 84.0133 97.3417 84C97.0217 84 96.6817 84 96.3217 84C95.9617 84 95.6217 84 95.3017 84C94.9817 84.0133 94.6284 84.0333 94.2417 84.06ZM105.118 84.24C104.304 84.24 103.651 84.0067 103.158 83.54C102.678 83.0733 102.438 82.5133 102.438 81.86C102.438 81.18 102.611 80.6467 102.958 80.26C103.318 79.8733 103.784 79.5867 104.358 79.4C104.944 79.2133 105.578 79.0867 106.258 79.02C106.951 78.9533 107.624 78.9 108.278 78.86V77.28C108.278 76.6533 108.118 76.1667 107.798 75.82C107.491 75.46 106.964 75.28 106.218 75.28C105.844 75.28 105.491 75.4 105.158 75.64C104.838 75.88 104.678 76.2267 104.678 76.68C104.678 76.8933 104.731 77.0733 104.838 77.22C104.944 77.3667 105.051 77.48 105.158 77.56C105.264 77.64 105.318 77.6933 105.318 77.72C105.318 77.7733 105.238 77.8733 105.078 78.02C104.931 78.1533 104.724 78.22 104.458 78.22C104.044 78.22 103.724 78.0667 103.498 77.76C103.271 77.4533 103.158 77.1133 103.158 76.74C103.158 76.2333 103.311 75.8333 103.618 75.54C103.938 75.2467 104.344 75.0333 104.838 74.9C105.331 74.7667 105.831 74.7 106.338 74.7C106.938 74.7 107.518 74.7733 108.078 74.92C108.651 75.0667 109.118 75.3467 109.478 75.76C109.851 76.1733 110.038 76.7933 110.038 77.62V82.28C110.051 82.4133 110.084 82.5733 110.138 82.76C110.191 82.9467 110.291 83.1133 110.438 83.26C110.598 83.3933 110.811 83.46 111.078 83.46C111.171 83.46 111.244 83.48 111.298 83.52C111.351 83.5467 111.378 83.6333 111.378 83.78C111.378 83.9 111.311 83.9933 111.178 84.06C111.044 84.1267 110.891 84.1733 110.718 84.2C110.544 84.2267 110.398 84.24 110.278 84.24C109.784 84.24 109.344 84.1 108.958 83.82C108.571 83.5267 108.344 83.1267 108.278 82.62C107.984 83.1533 107.544 83.56 106.958 83.84C106.384 84.1067 105.771 84.24 105.118 84.24ZM105.758 83.16C106.211 83.16 106.624 83.0467 106.998 82.82C107.384 82.5933 107.691 82.2867 107.918 81.9C108.158 81.5 108.278 81.06 108.278 80.58V79.44C106.904 79.5333 105.924 79.7533 105.338 80.1C104.751 80.4467 104.458 81.0133 104.458 81.8C104.458 82.7067 104.891 83.16 105.758 83.16ZM112.46 88.16C112.366 88.16 112.286 88.1133 112.22 88.02C112.166 87.94 112.14 87.8533 112.14 87.76C112.153 87.56 112.2 87.4467 112.28 87.42C112.373 87.4067 112.48 87.4 112.6 87.4C112.96 87.4 113.206 87.3333 113.34 87.2C113.486 87.08 113.573 86.9133 113.6 86.7C113.626 86.4867 113.64 86.2667 113.64 86.04V77.36C113.64 77.12 113.626 76.9 113.6 76.7C113.586 76.4867 113.513 76.32 113.38 76.2C113.246 76.0667 112.993 76 112.62 76C112.5 76 112.386 75.9867 112.28 75.96C112.186 75.92 112.14 75.8 112.14 75.6C112.14 75.4 112.246 75.28 112.46 75.24C113.073 75.1467 113.54 75.0533 113.86 74.96C114.193 74.8667 114.44 74.7867 114.6 74.72C114.773 74.6533 114.926 74.6133 115.06 74.6C115.166 74.5867 115.253 74.6067 115.32 74.66C115.4 74.7133 115.44 74.82 115.44 74.98V75.94H115.5C115.873 75.5933 116.32 75.3 116.84 75.06C117.36 74.82 117.86 74.7 118.34 74.7C119.153 74.7 119.873 74.9 120.5 75.3C121.126 75.7 121.62 76.26 121.98 76.98C122.34 77.6867 122.52 78.5133 122.52 79.46C122.52 80.42 122.3 81.26 121.86 81.98C121.42 82.7 120.853 83.26 120.16 83.66C119.466 84.0467 118.726 84.24 117.94 84.24C117.34 84.24 116.853 84.1733 116.48 84.04C116.12 83.92 115.806 83.78 115.54 83.62H115.46V86.04C115.46 86.2667 115.473 86.4867 115.5 86.7C115.526 86.9133 115.613 87.08 115.76 87.2C115.906 87.3333 116.153 87.4 116.5 87.4C116.62 87.4 116.72 87.4067 116.8 87.42C116.893 87.4467 116.946 87.56 116.96 87.76C116.96 87.8533 116.933 87.94 116.88 88.02C116.826 88.1133 116.746 88.16 116.64 88.16C116.253 88.1333 115.893 88.1133 115.56 88.1C115.24 88.1 114.9 88.1 114.54 88.1C114.18 88.1 113.84 88.1 113.52 88.1C113.2 88.1133 112.846 88.1333 112.46 88.16ZM117.78 83.56C118.3 83.56 118.733 83.4333 119.08 83.18C119.426 82.9133 119.7 82.58 119.9 82.18C120.113 81.7667 120.26 81.3267 120.34 80.86C120.433 80.38 120.48 79.9333 120.48 79.52C120.48 78.8933 120.38 78.2933 120.18 77.72C119.993 77.1333 119.686 76.6533 119.26 76.28C118.846 75.8933 118.3 75.7 117.62 75.7C117.113 75.7 116.693 75.8067 116.36 76.02C116.026 76.22 115.726 76.46 115.46 76.74V82.1C115.606 82.4467 115.873 82.78 116.26 83.1C116.66 83.4067 117.166 83.56 117.78 83.56Z" fill="#001324"/>
</svg>
