<svg width="150" height="125" viewBox="0 0 150 125" fill="none" xmlns="http://www.w3.org/2000/svg">
<g clip-path="url(#clip0_35_62)">
<path fill-rule="evenodd" clip-rule="evenodd" d="M103 100H125V75C138.807 75 150 63.8071 150 50C150 36.1929 138.807 25 125 25V0H25V25C38.8071 25 50 36.1929 50 50C50 63.8071 38.8071 75 25 75V100H53C53 86.1929 64.1929 75 78 75C91.8071 75 103 86.1929 103 100Z" fill="#CCFFCC"/>
<mask id="mask0_35_62" style="mask-type:luminance" maskUnits="userSpaceOnUse" x="25" y="0" width="125" height="100">
<path fill-rule="evenodd" clip-rule="evenodd" d="M103 100H125V75C138.807 75 150 63.8071 150 50C150 36.1929 138.807 25 125 25V0H25V25C38.8071 25 50 36.1929 50 50C50 63.8071 38.8071 75 25 75V100H53C53 86.1929 64.1929 75 78 75C91.8071 75 103 86.1929 103 100Z" fill="white"/>
</mask>
<g mask="url(#mask0_35_62)">
<path d="M125 100V102H127V100H125ZM103 100H101V102H103V100ZM125 75V73H123V75H125ZM125 25H123V27H125V25ZM125 0H127V-2H125V0ZM25 0V-2H23V0H25ZM25 25H23V27H25V25ZM25 75V73H23V75H25ZM25 100H23V102H25V100ZM53 100V102H55V100H53ZM125 98H103V102H125V98ZM123 75V100H127V75H123ZM148 50C148 62.7025 137.703 73 125 73V77C139.912 77 152 64.9117 152 50H148ZM125 27C137.703 27 148 37.2975 148 50H152C152 35.0883 139.912 23 125 23V27ZM123 0V25H127V0H123ZM25 2H125V-2H25V2ZM27 25V0H23V25H27ZM52 50C52 35.0883 39.9117 23 25 23V27C37.7026 27 48 37.2975 48 50H52ZM25 77C39.9117 77 52 64.9117 52 50H48C48 62.7025 37.7026 73 25 73V77ZM27 100V75H23V100H27ZM53 98H25V102H53V98ZM55 100C55 87.2974 65.2975 77 78 77V73C63.0883 73 51 85.0883 51 100H55ZM78 77C90.7026 77 101 87.2974 101 100H105C105 85.0883 92.9117 73 78 73V77Z" fill="white"/>
</g>
<path d="M76.592 59.48C75.248 59.48 74.016 59.16 72.896 58.52C71.776 57.88 70.872 56.968 70.184 55.784C69.512 54.6 69.176 53.184 69.176 51.536C69.176 49.904 69.496 48.48 70.136 47.264C70.776 46.032 71.68 45.08 72.848 44.408C74.032 43.72 75.424 43.376 77.024 43.376C77.6 43.376 78.192 43.432 78.8 43.544C79.424 43.656 80 43.848 80.528 44.12C81.056 44.376 81.48 44.72 81.8 45.152C82.136 45.584 82.304 46.12 82.304 46.76C82.32 47.448 82.112 48.056 81.68 48.584C81.248 49.096 80.64 49.352 79.856 49.352C79.376 49.352 79.032 49.24 78.824 49.016C78.632 48.776 78.544 48.6 78.56 48.488C78.56 48.44 78.656 48.36 78.848 48.248C79.056 48.12 79.256 47.936 79.448 47.696C79.656 47.44 79.76 47.104 79.76 46.688C79.76 45.968 79.52 45.4 79.04 44.984C78.56 44.552 77.88 44.336 77 44.336C76.04 44.336 75.176 44.608 74.408 45.152C73.656 45.696 73.064 46.496 72.632 47.552C72.2 48.592 71.984 49.872 71.984 51.392C71.984 52.672 72.208 53.84 72.656 54.896C73.12 55.936 73.76 56.768 74.576 57.392C75.408 58 76.368 58.304 77.456 58.304C78.32 58.304 79.056 58.128 79.664 57.776C80.288 57.408 80.848 56.824 81.344 56.024C81.488 55.752 81.744 55.728 82.112 55.952C82.256 56.048 82.368 56.168 82.448 56.312C82.528 56.44 82.512 56.576 82.4 56.72C81.792 57.488 81.216 58.072 80.672 58.472C80.128 58.856 79.536 59.12 78.896 59.264C78.256 59.408 77.488 59.48 76.592 59.48ZM89.6881 59.48C88.0241 59.48 86.7441 59.192 85.8481 58.616C84.9521 58.024 84.5041 57.16 84.5041 56.024C84.5041 55.448 84.6961 54.976 85.0801 54.608C85.4801 54.224 85.9921 54.032 86.6161 54.032C87.0321 54.048 87.3201 54.152 87.4801 54.344C87.6561 54.536 87.7441 54.68 87.7441 54.776C87.7441 54.808 87.6721 54.864 87.5281 54.944C87.3841 55.008 87.2401 55.136 87.0961 55.328C86.9521 55.504 86.8801 55.784 86.8801 56.168C86.8801 56.888 87.1041 57.464 87.5521 57.896C88.0001 58.312 88.7121 58.52 89.6881 58.52C90.3761 58.52 90.9601 58.392 91.4401 58.136C91.9361 57.864 92.3121 57.52 92.5681 57.104C92.8241 56.672 92.9521 56.232 92.9521 55.784C92.9521 55.112 92.7601 54.56 92.3761 54.128C91.9921 53.696 91.4881 53.328 90.8641 53.024C90.2561 52.704 89.6081 52.4 88.9201 52.112C88.2321 51.824 87.5761 51.496 86.9521 51.128C86.3441 50.76 85.8401 50.304 85.4401 49.76C85.0401 49.2 84.8321 48.504 84.8161 47.672C84.8001 46.664 85.0161 45.848 85.4641 45.224C85.9121 44.584 86.5361 44.12 87.3361 43.832C88.1361 43.528 89.0241 43.376 90.0001 43.376C90.7201 43.376 91.4241 43.48 92.1121 43.688C92.8161 43.896 93.3921 44.224 93.8401 44.672C94.3041 45.104 94.5361 45.68 94.5361 46.4C94.5361 46.976 94.3361 47.456 93.9361 47.84C93.5521 48.208 93.0481 48.392 92.4241 48.392C92.0081 48.36 91.7121 48.256 91.5361 48.08C91.3761 47.888 91.2961 47.744 91.2961 47.648C91.2961 47.6 91.3921 47.544 91.5841 47.48C91.7761 47.4 91.9681 47.272 92.1601 47.096C92.3521 46.904 92.4481 46.624 92.4481 46.256C92.4481 45.648 92.2161 45.184 91.7521 44.864C91.2881 44.528 90.7121 44.36 90.0241 44.36C88.9841 44.36 88.2241 44.608 87.7441 45.104C87.2801 45.584 87.0481 46.128 87.0481 46.736C87.0481 47.328 87.2081 47.808 87.5281 48.176C87.8481 48.544 88.3281 48.904 88.9681 49.256C89.6881 49.64 90.4161 50 91.1521 50.336C91.8881 50.656 92.5681 51.016 93.1921 51.416C93.8321 51.816 94.3441 52.32 94.7281 52.928C95.1121 53.52 95.3041 54.288 95.3041 55.232C95.3041 56.048 95.0481 56.776 94.5361 57.416C94.0401 58.056 93.3681 58.56 92.5201 58.928C91.6721 59.296 90.7281 59.48 89.6881 59.48ZM102.766 59.48C101.102 59.48 99.8223 59.192 98.9263 58.616C98.0303 58.024 97.5823 57.16 97.5823 56.024C97.5823 55.448 97.7743 54.976 98.1583 54.608C98.5583 54.224 99.0703 54.032 99.6943 54.032C100.11 54.048 100.398 54.152 100.558 54.344C100.734 54.536 100.822 54.68 100.822 54.776C100.822 54.808 100.75 54.864 100.606 54.944C100.462 55.008 100.318 55.136 100.174 55.328C100.03 55.504 99.9583 55.784 99.9583 56.168C99.9583 56.888 100.182 57.464 100.63 57.896C101.078 58.312 101.79 58.52 102.766 58.52C103.454 58.52 104.038 58.392 104.518 58.136C105.014 57.864 105.39 57.52 105.646 57.104C105.902 56.672 106.03 56.232 106.03 55.784C106.03 55.112 105.838 54.56 105.454 54.128C105.07 53.696 104.566 53.328 103.942 53.024C103.334 52.704 102.686 52.4 101.998 52.112C101.31 51.824 100.654 51.496 100.03 51.128C99.4223 50.76 98.9183 50.304 98.5183 49.76C98.1183 49.2 97.9103 48.504 97.8943 47.672C97.8783 46.664 98.0943 45.848 98.5423 45.224C98.9903 44.584 99.6143 44.12 100.414 43.832C101.214 43.528 102.102 43.376 103.078 43.376C103.798 43.376 104.502 43.48 105.19 43.688C105.894 43.896 106.47 44.224 106.918 44.672C107.382 45.104 107.614 45.68 107.614 46.4C107.614 46.976 107.414 47.456 107.014 47.84C106.63 48.208 106.126 48.392 105.502 48.392C105.086 48.36 104.79 48.256 104.614 48.08C104.454 47.888 104.374 47.744 104.374 47.648C104.374 47.6 104.47 47.544 104.662 47.48C104.854 47.4 105.046 47.272 105.238 47.096C105.43 46.904 105.526 46.624 105.526 46.256C105.526 45.648 105.294 45.184 104.83 44.864C104.366 44.528 103.79 44.36 103.102 44.36C102.062 44.36 101.302 44.608 100.822 45.104C100.358 45.584 100.126 46.128 100.126 46.736C100.126 47.328 100.286 47.808 100.606 48.176C100.926 48.544 101.406 48.904 102.046 49.256C102.766 49.64 103.494 50 104.23 50.336C104.966 50.656 105.646 51.016 106.27 51.416C106.91 51.816 107.422 52.32 107.806 52.928C108.19 53.52 108.382 54.288 108.382 55.232C108.382 56.048 108.126 56.776 107.614 57.416C107.118 58.056 106.446 58.56 105.598 58.928C104.75 59.296 103.806 59.48 102.766 59.48Z" fill="#001324"/>
</g>
<defs>
<clipPath id="clip0_35_62">
<rect width="125" height="100" fill="white" transform="translate(25)"/>
</clipPath>
</defs>
</svg>
