<svg width="150" height="125" viewBox="0 0 150 125" fill="none" xmlns="http://www.w3.org/2000/svg">
<mask id="path-1-inside-1_35_65" fill="white">
<path fill-rule="evenodd" clip-rule="evenodd" d="M103 25H125V50C138.807 50 150 61.1929 150 75C150 88.8071 138.807 100 125 100V125H25V100C38.8071 100 50 88.8071 50 75C50 61.1929 38.8071 50 25 50V25H53C53 11.1929 64.1929 0 78 0C91.8071 0 103 11.1929 103 25Z"/>
</mask>
<path fill-rule="evenodd" clip-rule="evenodd" d="M103 25H125V50C138.807 50 150 61.1929 150 75C150 88.8071 138.807 100 125 100V125H25V100C38.8071 100 50 88.8071 50 75C50 61.1929 38.8071 50 25 50V25H53C53 11.1929 64.1929 0 78 0C91.8071 0 103 11.1929 103 25Z" fill="#9FD1FF"/>
<path d="M103 25H101V27H103V25ZM125 25H127V23H125V25ZM125 50H123V52H125V50ZM125 100V98H123V100H125ZM125 125V127H127V125H125ZM25 125H23V127H25V125ZM25 100V98H23V100H25ZM25 50H23V52H25V50ZM25 25V23H23V25H25ZM53 25V27H55V25H53ZM103 27H125V23H103V27ZM123 25V50H127V25H123ZM125 52C137.703 52 148 62.2975 148 75H152C152 60.0883 139.912 48 125 48V52ZM148 75C148 87.7025 137.703 98 125 98V102C139.912 102 152 89.9117 152 75H148ZM123 100V125H127V100H123ZM125 123H25V127H125V123ZM27 125V100H23V125H27ZM25 102C39.9117 102 52 89.9117 52 75H48C48 87.7025 37.7026 98 25 98V102ZM52 75C52 60.0883 39.9117 48 25 48V52C37.7026 52 48 62.2975 48 75H52ZM27 50V25H23V50H27ZM25 27H53V23H25V27ZM55 25C55 12.2975 65.2975 2 78 2V-2C63.0883 -2 51 10.0883 51 25H55ZM78 2C90.7026 2 101 12.2975 101 25H105C105 10.0883 92.9117 -2 78 -2V2Z" fill="white" mask="url(#path-1-inside-1_35_65)"/>
<path d="M60.464 83.072C60.304 83.072 60.192 83.016 60.128 82.904C60.064 82.792 60.032 82.672 60.032 82.544C60.048 82.272 60.112 82.12 60.224 82.088C60.336 82.056 60.472 82.04 60.632 82.04C61.144 82.04 61.504 81.952 61.712 81.776C61.92 81.584 62.048 81.352 62.096 81.08C62.16 80.792 62.192 80.496 62.192 80.192V70.688C62.192 70.384 62.16 70.088 62.096 69.8C62.048 69.512 61.92 69.28 61.712 69.104C61.504 68.912 61.144 68.816 60.632 68.816C60.472 68.816 60.336 68.8 60.224 68.768C60.112 68.736 60.048 68.584 60.032 68.312C60.032 68.184 60.064 68.064 60.128 67.952C60.192 67.84 60.304 67.784 60.464 67.784C60.976 67.8 61.456 67.816 61.904 67.832C62.368 67.848 62.84 67.856 63.32 67.856H67.448C68.744 67.872 69.792 68.072 70.592 68.456C71.408 68.84 72 69.328 72.368 69.92C72.736 70.512 72.92 71.128 72.92 71.768C72.92 72.616 72.576 73.416 71.888 74.168C71.216 74.92 70.264 75.456 69.032 75.776C69.64 76.736 70.256 77.704 70.88 78.68C71.504 79.64 72.224 80.544 73.04 81.392C73.264 81.568 73.48 81.712 73.688 81.824C73.912 81.936 74.176 82.008 74.48 82.04C74.608 82.056 74.736 82.08 74.864 82.112C74.992 82.128 75.064 82.272 75.08 82.544C75.08 82.672 75.048 82.792 74.984 82.904C74.92 83.016 74.808 83.072 74.648 83.072C74.312 83.056 74.04 83.04 73.832 83.024C73.64 83.024 73.448 83.016 73.256 83C73.064 83 72.808 83 72.488 83C71.832 82.872 71.272 82.64 70.808 82.304C70.36 81.968 69.92 81.504 69.488 80.912C69.04 80.304 68.624 79.688 68.24 79.064C67.856 78.44 67.48 77.832 67.112 77.24C66.904 76.904 66.688 76.664 66.464 76.52C66.256 76.36 65.856 76.28 65.264 76.28H64.568V80.192C64.584 80.496 64.616 80.792 64.664 81.08C64.712 81.352 64.84 81.584 65.048 81.776C65.272 81.952 65.632 82.04 66.128 82.04C66.288 82.04 66.424 82.056 66.536 82.088C66.648 82.12 66.712 82.272 66.728 82.544C66.728 82.672 66.696 82.792 66.632 82.904C66.568 83.016 66.456 83.072 66.296 83.072C65.272 83.024 64.272 83 63.296 83C62.816 83 62.352 83 61.904 83C61.456 83.016 60.976 83.04 60.464 83.072ZM64.568 75.344H66.68C67.496 75.344 68.136 75.232 68.6 75.008C69.08 74.784 69.44 74.496 69.68 74.144C69.92 73.792 70.072 73.424 70.136 73.04C70.216 72.656 70.256 72.304 70.256 71.984C70.256 71.456 70.136 70.944 69.896 70.448C69.672 69.952 69.264 69.544 68.672 69.224C68.096 68.904 67.288 68.744 66.248 68.744C65.56 68.744 65.104 68.88 64.88 69.152C64.672 69.408 64.568 69.936 64.568 70.736V75.344ZM81.1391 83.288C79.9071 83.288 78.8671 83.024 78.0191 82.496C77.1871 81.968 76.5631 81.264 76.1471 80.384C75.7311 79.504 75.5231 78.544 75.5231 77.504C75.5231 76.8 75.6431 76.12 75.8831 75.464C76.1391 74.792 76.4991 74.184 76.9631 73.64C77.4271 73.08 77.9871 72.64 78.6431 72.32C79.2991 72 80.0431 71.84 80.8751 71.84C82.3471 71.84 83.4511 72.224 84.1871 72.992C84.9391 73.744 85.3711 74.704 85.4831 75.872C85.4831 76.432 85.3231 76.8 85.0031 76.976C84.6991 77.152 84.2991 77.24 83.8031 77.24H77.9711C77.9711 78.168 78.0991 79 78.3551 79.736C78.6111 80.456 79.0111 81.032 79.5551 81.464C80.1151 81.88 80.8511 82.088 81.7631 82.088C82.4351 82.088 83.0111 81.944 83.4911 81.656C83.9711 81.368 84.4351 80.864 84.8831 80.144C85.0111 79.984 85.1871 79.976 85.4111 80.12C85.5391 80.184 85.6191 80.288 85.6511 80.432C85.6831 80.56 85.6671 80.672 85.6031 80.768C85.1071 81.552 84.4831 82.168 83.7311 82.616C82.9791 83.064 82.1151 83.288 81.1391 83.288ZM77.9711 76.328H81.8831C82.2671 76.328 82.5711 76.256 82.7951 76.112C83.0351 75.952 83.1631 75.688 83.1791 75.32C83.1791 74.632 82.9871 74.024 82.6031 73.496C82.2351 72.952 81.6591 72.68 80.8751 72.68C80.0751 72.68 79.4031 73 78.8591 73.64C78.3311 74.28 78.0351 75.176 77.9711 76.328ZM90.6179 83.288C89.6419 83.288 88.8579 83.008 88.2659 82.448C87.6899 81.888 87.4019 81.216 87.4019 80.432C87.4019 79.616 87.6099 78.976 88.0259 78.512C88.4579 78.048 89.0179 77.704 89.7059 77.48C90.4099 77.256 91.1699 77.104 91.9859 77.024C92.8179 76.944 93.6259 76.88 94.4099 76.832V74.936C94.4099 74.184 94.2179 73.6 93.8339 73.184C93.4659 72.752 92.8339 72.536 91.9379 72.536C91.4899 72.536 91.0659 72.68 90.6659 72.968C90.2819 73.256 90.0899 73.672 90.0899 74.216C90.0899 74.472 90.1539 74.688 90.2819 74.864C90.4099 75.04 90.5379 75.176 90.6659 75.272C90.7939 75.368 90.8579 75.432 90.8579 75.464C90.8579 75.528 90.7619 75.648 90.5699 75.824C90.3939 75.984 90.1459 76.064 89.8259 76.064C89.3299 76.064 88.9459 75.88 88.6739 75.512C88.4019 75.144 88.2659 74.736 88.2659 74.288C88.2659 73.68 88.4499 73.2 88.8179 72.848C89.2019 72.496 89.6899 72.24 90.2819 72.08C90.8739 71.92 91.4739 71.84 92.0819 71.84C92.8019 71.84 93.4979 71.928 94.1699 72.104C94.8579 72.28 95.4179 72.616 95.8499 73.112C96.2979 73.608 96.5219 74.352 96.5219 75.344V80.936C96.5379 81.096 96.5779 81.288 96.6419 81.512C96.7059 81.736 96.8259 81.936 97.0019 82.112C97.1939 82.272 97.4499 82.352 97.7699 82.352C97.8819 82.352 97.9699 82.376 98.0339 82.424C98.0979 82.456 98.1299 82.56 98.1299 82.736C98.1299 82.88 98.0499 82.992 97.8899 83.072C97.7299 83.152 97.5459 83.208 97.3379 83.24C97.1299 83.272 96.9539 83.288 96.8099 83.288C96.2179 83.288 95.6899 83.12 95.2259 82.784C94.7619 82.432 94.4899 81.952 94.4099 81.344C94.0579 81.984 93.5299 82.472 92.8259 82.808C92.1379 83.128 91.4019 83.288 90.6179 83.288ZM91.3859 81.992C91.9299 81.992 92.4259 81.856 92.8739 81.584C93.3379 81.312 93.7059 80.944 93.9779 80.48C94.2659 80 94.4099 79.472 94.4099 78.896V77.528C92.7619 77.64 91.5859 77.904 90.8819 78.32C90.1779 78.736 89.8259 79.416 89.8259 80.36C89.8259 81.448 90.3459 81.992 91.3859 81.992ZM104.732 83.288C103.084 83.288 101.796 82.768 100.868 81.728C99.9556 80.672 99.4996 79.28 99.4996 77.552C99.5476 76.448 99.8196 75.472 100.316 74.624C100.828 73.776 101.5 73.112 102.332 72.632C103.18 72.136 104.116 71.872 105.14 71.84C105.7 71.84 106.268 71.912 106.844 72.056C107.436 72.184 107.924 72.432 108.308 72.8C108.708 73.152 108.908 73.664 108.908 74.336C108.908 74.8 108.764 75.232 108.476 75.632C108.188 76.016 107.788 76.208 107.276 76.208C106.924 76.208 106.652 76.12 106.46 75.944C106.268 75.768 106.172 75.64 106.172 75.56C106.172 75.528 106.236 75.464 106.364 75.368C106.508 75.256 106.644 75.112 106.772 74.936C106.9 74.744 106.964 74.512 106.964 74.24C106.964 73.728 106.78 73.352 106.412 73.112C106.044 72.872 105.628 72.744 105.164 72.728C104.46 72.728 103.892 72.872 103.46 73.16C103.044 73.448 102.724 73.832 102.5 74.312C102.276 74.776 102.124 75.288 102.044 75.848C101.98 76.408 101.948 76.952 101.948 77.48C101.948 78.36 102.084 79.152 102.356 79.856C102.628 80.544 103.012 81.088 103.508 81.488C104.004 81.888 104.596 82.088 105.284 82.088C105.988 82.088 106.58 81.936 107.06 81.632C107.54 81.328 107.98 80.88 108.38 80.288C108.492 80.128 108.66 80.112 108.884 80.24C108.996 80.304 109.076 80.392 109.124 80.504C109.172 80.616 109.156 80.728 109.076 80.84C108.548 81.592 107.892 82.192 107.108 82.64C106.324 83.072 105.532 83.288 104.732 83.288ZM115.09 83.408C114.61 83.408 114.154 83.288 113.722 83.048C113.29 82.808 112.93 82.44 112.642 81.944C112.37 81.448 112.234 80.824 112.234 80.072V73.016L110.842 73.064C110.73 73.064 110.642 73.024 110.578 72.944C110.53 72.848 110.506 72.744 110.506 72.632C110.506 72.312 110.618 72.128 110.842 72.08C111.434 71.968 111.882 71.784 112.186 71.528C112.49 71.256 112.722 70.936 112.882 70.568C113.058 70.2 113.218 69.8 113.362 69.368C113.41 69.24 113.482 69.16 113.578 69.128C113.674 69.08 113.778 69.056 113.89 69.056C113.986 69.056 114.09 69.08 114.202 69.128C114.33 69.176 114.394 69.264 114.394 69.392L114.226 72.128L117.034 71.96C117.178 71.944 117.274 71.984 117.322 72.08C117.37 72.176 117.394 72.288 117.394 72.416C117.394 72.576 117.362 72.736 117.298 72.896C117.25 73.056 117.186 73.136 117.106 73.136L114.418 73.064V80.36C114.418 80.824 114.514 81.248 114.706 81.632C114.914 82.016 115.282 82.208 115.81 82.208C115.986 82.208 116.186 82.192 116.41 82.16C116.634 82.128 116.874 82.056 117.13 81.944C117.194 81.912 117.258 81.888 117.322 81.872C117.386 81.84 117.45 81.824 117.514 81.824C117.642 81.824 117.738 81.88 117.802 81.992C117.866 82.088 117.922 82.192 117.97 82.304C118.018 82.448 117.978 82.56 117.85 82.64C117.354 82.96 116.898 83.168 116.482 83.264C116.066 83.36 115.602 83.408 115.09 83.408Z" fill="#001324"/>
</svg>
