<svg width="150" height="125" viewBox="0 0 150 125" fill="none" xmlns="http://www.w3.org/2000/svg">
<g clip-path="url(#clip0_35_61)">
<path fill-rule="evenodd" clip-rule="evenodd" d="M50 100H25V5C25 2.23858 27.2386 0 30 0H125V25C138.807 25 150 36.1929 150 50C150 63.8071 138.807 75 125 75V100H100C100 113.807 88.8071 125 75 125C61.1929 125 50 113.807 50 100Z" fill="#FFAFAF"/>
<mask id="mask0_35_61" style="mask-type:luminance" maskUnits="userSpaceOnUse" x="25" y="0" width="125" height="125">
<path fill-rule="evenodd" clip-rule="evenodd" d="M50 100H25V5C25 2.23858 27.2386 0 30 0H125V25C138.807 25 150 36.1929 150 50C150 63.8071 138.807 75 125 75V100H100C100 113.807 88.8071 125 75 125C61.1929 125 50 113.807 50 100Z" fill="white"/>
</mask>
<g mask="url(#mask0_35_61)">
<path d="M25 100H23V102H25V100ZM50 100H52V98H50V100ZM125 0H127V-2H125V0ZM125 25H123V27H125V25ZM125 75V73H123V75H125ZM125 100V102H127V100H125ZM100 100V98H98V100H100ZM25 102H50V98H25V102ZM23 5V100H27V5H23ZM30 -2C26.134 -2 23 1.13401 23 5H27C27 3.34315 28.3432 2 30 2V-2ZM125 -2H30V2H125V-2ZM127 25V0H123V25H127ZM152 50C152 35.0883 139.912 23 125 23V27C137.703 27 148 37.2975 148 50H152ZM125 77C139.912 77 152 64.9117 152 50H148C148 62.7025 137.703 73 125 73V77ZM127 100V75H123V100H127ZM100 102H125V98H100V102ZM98 100C98 112.703 87.7025 123 75 123V127C89.9117 127 102 114.912 102 100H98ZM75 123C62.2974 123 52 112.703 52 100H48C48 114.912 60.0883 127 75 127V123Z" fill="white"/>
</g>
<path d="M46.464 59.072C46.304 59.072 46.192 59.016 46.128 58.904C46.064 58.792 46.032 58.672 46.032 58.544C46.048 58.272 46.112 58.12 46.224 58.088C46.336 58.056 46.472 58.04 46.632 58.04C47.144 58.04 47.504 57.952 47.712 57.776C47.92 57.584 48.048 57.352 48.096 57.08C48.16 56.792 48.192 56.496 48.192 56.192V46.664C48.192 46.36 48.16 46.072 48.096 45.8C48.048 45.512 47.92 45.28 47.712 45.104C47.504 44.912 47.144 44.816 46.632 44.816C46.472 44.816 46.336 44.8 46.224 44.768C46.112 44.736 46.048 44.584 46.032 44.312C46.032 44.184 46.064 44.064 46.128 43.952C46.192 43.84 46.304 43.784 46.464 43.784C46.976 43.8 47.456 43.816 47.904 43.832C48.352 43.848 48.816 43.856 49.296 43.856C50.272 43.856 51.272 43.832 52.296 43.784C52.456 43.784 52.568 43.84 52.632 43.952C52.696 44.064 52.728 44.184 52.728 44.312C52.712 44.584 52.648 44.736 52.536 44.768C52.44 44.8 52.304 44.816 52.128 44.816C51.632 44.816 51.272 44.912 51.048 45.104C50.84 45.28 50.712 45.512 50.664 45.8C50.616 46.072 50.584 46.36 50.568 46.664V50.912H58.104V46.664C58.104 46.36 58.072 46.072 58.008 45.8C57.96 45.512 57.832 45.28 57.624 45.104C57.416 44.912 57.056 44.816 56.544 44.816C56.384 44.816 56.24 44.8 56.112 44.768C56 44.736 55.936 44.584 55.92 44.312C55.92 44.184 55.952 44.064 56.016 43.952C56.096 43.84 56.208 43.784 56.352 43.784C57.392 43.832 58.392 43.856 59.352 43.856C59.832 43.856 60.296 43.848 60.744 43.832C61.208 43.816 61.696 43.8 62.208 43.784C62.352 43.784 62.456 43.84 62.52 43.952C62.6 44.064 62.64 44.184 62.64 44.312C62.624 44.584 62.56 44.736 62.448 44.768C62.336 44.8 62.2 44.816 62.04 44.816C61.544 44.816 61.184 44.912 60.96 45.104C60.736 45.28 60.6 45.512 60.552 45.8C60.504 46.072 60.472 46.36 60.456 46.664V56.192C60.472 56.496 60.504 56.792 60.552 57.08C60.6 57.352 60.736 57.584 60.96 57.776C61.184 57.952 61.544 58.04 62.04 58.04C62.2 58.04 62.336 58.056 62.448 58.088C62.56 58.12 62.624 58.272 62.64 58.544C62.64 58.672 62.6 58.792 62.52 58.904C62.456 59.016 62.352 59.072 62.208 59.072C61.696 59.04 61.208 59.016 60.744 59C60.28 59 59.808 59 59.328 59C58.384 59 57.392 59.024 56.352 59.072C56.208 59.072 56.096 59.016 56.016 58.904C55.952 58.792 55.92 58.672 55.92 58.544C55.936 58.272 56 58.12 56.112 58.088C56.24 58.056 56.384 58.04 56.544 58.04C57.056 58.04 57.416 57.952 57.624 57.776C57.832 57.584 57.96 57.352 58.008 57.08C58.072 56.792 58.104 56.496 58.104 56.192V51.944H50.568V56.192C50.584 56.496 50.616 56.792 50.664 57.08C50.712 57.352 50.84 57.584 51.048 57.776C51.272 57.952 51.632 58.04 52.128 58.04C52.304 58.04 52.44 58.056 52.536 58.088C52.648 58.12 52.712 58.272 52.728 58.544C52.728 58.672 52.696 58.792 52.632 58.904C52.568 59.016 52.456 59.072 52.296 59.072C51.272 59.024 50.28 59 49.32 59C48.84 59 48.368 59 47.904 59C47.456 59.016 46.976 59.04 46.464 59.072ZM67.671 59.072C67.511 59.072 67.399 59.016 67.335 58.904C67.271 58.792 67.239 58.672 67.239 58.544C67.255 58.272 67.319 58.12 67.431 58.088C67.543 58.056 67.679 58.04 67.839 58.04C68.351 58.04 68.711 57.952 68.919 57.776C69.127 57.584 69.255 57.352 69.303 57.08C69.367 56.792 69.399 56.496 69.399 56.192V44.744H67.743C67.199 44.76 66.775 44.88 66.471 45.104C66.167 45.312 65.943 45.648 65.799 46.112C65.655 46.56 65.527 47.144 65.415 47.864C65.399 48.008 65.295 48.12 65.103 48.2C64.927 48.264 64.751 48.296 64.575 48.296C64.463 48.296 64.335 48.256 64.191 48.176C64.063 48.096 63.999 47.976 63.999 47.816L64.071 44.432C64.071 44.208 64.135 44.056 64.263 43.976C64.391 43.896 64.543 43.856 64.719 43.856H76.455C76.631 43.856 76.775 43.896 76.887 43.976C77.015 44.056 77.079 44.208 77.079 44.432L77.175 47.816C77.175 47.976 77.103 48.096 76.959 48.176C76.831 48.256 76.703 48.296 76.575 48.296C76.415 48.296 76.247 48.264 76.071 48.2C75.895 48.12 75.791 48.008 75.759 47.864C75.647 47.144 75.511 46.56 75.351 46.112C75.207 45.648 74.983 45.312 74.679 45.104C74.391 44.88 73.967 44.76 73.407 44.744H71.775V56.192C71.791 56.496 71.823 56.792 71.871 57.08C71.919 57.352 72.047 57.584 72.255 57.776C72.479 57.952 72.839 58.04 73.335 58.04C73.495 58.04 73.631 58.056 73.743 58.088C73.855 58.12 73.919 58.272 73.935 58.544C73.935 58.672 73.903 58.792 73.839 58.904C73.775 59.016 73.663 59.072 73.503 59.072C72.991 59.04 72.503 59.016 72.039 59C71.591 59 71.135 59 70.671 59C69.711 59 68.711 59.024 67.671 59.072ZM87.7564 59.12C87.6604 59.12 87.5644 59.096 87.4684 59.048C87.3724 59.016 87.3004 58.96 87.2524 58.88L81.8524 46.664H81.7804L81.8284 56.192C81.8444 56.496 81.8684 56.792 81.9004 57.08C81.9484 57.352 82.0764 57.584 82.2844 57.776C82.4924 57.952 82.8444 58.04 83.3404 58.04C83.5164 58.04 83.6604 58.056 83.7724 58.088C83.8844 58.12 83.9484 58.272 83.9644 58.544C83.9644 58.672 83.9244 58.792 83.8444 58.904C83.7804 59.016 83.6764 59.072 83.5324 59.072C83.1964 59.056 82.9244 59.04 82.7164 59.024C82.5084 59.024 82.3084 59.016 82.1164 59C81.9244 59 81.6684 59 81.3484 59C80.8684 59 80.4764 59 80.1724 59C79.8844 59.016 79.4844 59.04 78.9724 59.072C78.8124 59.072 78.7004 59.016 78.6364 58.904C78.5724 58.792 78.5404 58.672 78.5404 58.544C78.5564 58.272 78.6204 58.12 78.7324 58.088C78.8444 58.056 78.9804 58.04 79.1404 58.04C79.6524 58.04 80.0044 57.952 80.1964 57.776C80.4044 57.584 80.5324 57.352 80.5804 57.08C80.6284 56.792 80.6524 56.496 80.6524 56.192L80.7004 46.664C80.7004 46.152 80.6444 45.776 80.5324 45.536C80.4204 45.28 80.2444 45.104 80.0044 45.008C79.7644 44.896 79.4604 44.808 79.0924 44.744C78.8684 44.696 78.7084 44.656 78.6124 44.624C78.5324 44.592 78.4924 44.448 78.4924 44.192C78.4924 43.92 78.5884 43.776 78.7804 43.76C78.9724 43.728 79.1964 43.712 79.4524 43.712C80.2364 43.712 80.9244 43.776 81.5164 43.904C82.1244 44.032 82.6524 44.28 83.1004 44.648C83.5484 45 83.9164 45.536 84.2044 46.256L88.3324 55.52H88.4044L93.1324 43.856H94.5004C94.9804 43.856 95.4444 43.848 95.8924 43.832C96.3564 43.816 96.8444 43.8 97.3564 43.784C97.5164 43.784 97.6284 43.84 97.6924 43.952C97.7564 44.064 97.7884 44.184 97.7884 44.312C97.7724 44.584 97.7084 44.736 97.5964 44.768C97.4844 44.8 97.3484 44.816 97.1884 44.816C96.6924 44.816 96.3324 44.912 96.1084 45.104C95.9004 45.28 95.7724 45.512 95.7244 45.8C95.6764 46.072 95.6444 46.36 95.6284 46.664V56.192C95.6444 56.496 95.6764 56.792 95.7244 57.08C95.7724 57.352 95.9004 57.584 96.1084 57.776C96.3324 57.952 96.6924 58.04 97.1884 58.04C97.3484 58.04 97.4844 58.056 97.5964 58.088C97.7084 58.12 97.7724 58.272 97.7884 58.544C97.7884 58.672 97.7564 58.792 97.6924 58.904C97.6284 59.016 97.5164 59.072 97.3564 59.072C96.8444 59.04 96.3564 59.016 95.8924 59C95.4284 59 94.9564 59 94.4764 59C93.5484 59 92.5644 59.024 91.5244 59.072C91.3644 59.072 91.2524 59.016 91.1884 58.904C91.1244 58.792 91.0924 58.672 91.0924 58.544C91.1084 58.272 91.1724 58.12 91.2844 58.088C91.3964 58.056 91.5324 58.04 91.6924 58.04C92.2044 58.04 92.5644 57.952 92.7724 57.776C92.9804 57.584 93.1084 57.352 93.1564 57.08C93.2204 56.792 93.2524 56.496 93.2524 56.192V46.664H93.1804L88.2364 58.88C88.2044 58.96 88.1404 59.016 88.0444 59.048C87.9484 59.096 87.8524 59.12 87.7564 59.12ZM100.253 59.072C100.109 59.072 100.004 59.016 99.9405 58.904C99.8765 58.792 99.8445 58.672 99.8445 58.544C99.8605 58.272 99.9245 58.12 100.036 58.088C100.148 58.056 100.285 58.04 100.445 58.04C100.957 58.04 101.316 57.952 101.524 57.776C101.732 57.584 101.861 57.352 101.909 57.08C101.973 56.792 102.005 56.496 102.005 56.192V46.664C102.005 46.36 101.973 46.072 101.909 45.8C101.861 45.512 101.732 45.28 101.524 45.104C101.316 44.912 100.957 44.816 100.445 44.816C100.285 44.816 100.148 44.8 100.036 44.768C99.9245 44.736 99.8605 44.584 99.8445 44.312C99.8445 44.184 99.8765 44.064 99.9405 43.952C100.004 43.84 100.109 43.784 100.253 43.784C100.781 43.8 101.268 43.816 101.716 43.832C102.164 43.848 102.628 43.856 103.108 43.856C104.084 43.856 105.084 43.832 106.108 43.784C106.268 43.784 106.381 43.84 106.445 43.952C106.509 44.064 106.54 44.184 106.54 44.312C106.524 44.584 106.461 44.736 106.349 44.768C106.237 44.8 106.1 44.816 105.94 44.816C105.444 44.816 105.084 44.912 104.86 45.104C104.652 45.28 104.525 45.512 104.477 45.8C104.429 46.072 104.397 46.36 104.381 46.664V56.552C104.397 56.76 104.429 56.984 104.477 57.224C104.525 57.464 104.66 57.664 104.884 57.824C105.124 57.984 105.517 58.056 106.061 58.04H108.22C108.78 58.024 109.205 57.936 109.493 57.776C109.797 57.6 110.037 57.312 110.213 56.912C110.389 56.512 110.58 55.96 110.788 55.256C110.852 55.096 110.957 54.992 111.101 54.944C111.261 54.896 111.428 54.888 111.604 54.92C111.732 54.936 111.861 54.992 111.989 55.088C112.133 55.184 112.196 55.312 112.18 55.472L111.701 58.496C111.653 58.72 111.573 58.864 111.461 58.928C111.365 58.976 111.213 59 111.005 59H103.132C102.652 59 102.18 59 101.716 59C101.268 59.016 100.781 59.04 100.253 59.072Z" fill="#001324"/>
</g>
<defs>
<clipPath id="clip0_35_61">
<rect width="125" height="125" fill="white" transform="translate(25)"/>
</clipPath>
</defs>
</svg>
