<svg width="150" height="125" viewBox="0 0 150 125" fill="none" xmlns="http://www.w3.org/2000/svg">
<mask id="path-1-inside-1_35_66" fill="white">
<path fill-rule="evenodd" clip-rule="evenodd" d="M125 120C125 122.761 122.761 125 120 125L25 125V100C38.8071 100 50 88.8071 50 75C50 61.1929 38.8071 50 25 50L25 25H51C51 38.8071 62.1929 50 76 50C89.8071 50 101 38.8071 101 25H125L125 120Z"/>
</mask>
<path fill-rule="evenodd" clip-rule="evenodd" d="M125 120C125 122.761 122.761 125 120 125L25 125V100C38.8071 100 50 88.8071 50 75C50 61.1929 38.8071 50 25 50L25 25H51C51 38.8071 62.1929 50 76 50C89.8071 50 101 38.8071 101 25H125L125 120Z" fill="#FFAFAF"/>
<path d="M125 120H127H125ZM25 125H23V127H25V125ZM25 100V98H23V100H25ZM25 50H23V52H25V50ZM25 25V23H23V25H25ZM51 25H53V23H51V25ZM101 25V23H99V25H101ZM125 25H127V23H125V25ZM120 127C123.866 127 127 123.866 127 120H123C123 121.657 121.657 123 120 123V127ZM25 127L120 127V123L25 123V127ZM23 100V125H27V100H23ZM48 75C48 87.7025 37.7026 98 25 98V102C39.9117 102 52 89.9117 52 75H48ZM25 52C37.7026 52 48 62.2975 48 75H52C52 60.0883 39.9117 48 25 48V52ZM23 25L23 50H27L27 25H23ZM51 23H25V27H51V23ZM76 48C63.2975 48 53 37.7026 53 25H49C49 39.9117 61.0883 52 76 52V48ZM99 25C99 37.7026 88.7025 48 76 48V52C90.9117 52 103 39.9117 103 25H99ZM125 23H101V27H125V23ZM127 120L127 25H123L123 120H127Z" fill="white" mask="url(#path-1-inside-1_35_66)"/>
<path d="M64.18 83.4C63.06 83.4 62.0267 83.1667 61.08 82.7C60.1467 82.22 59.3933 81.4933 58.82 80.52C58.26 79.5333 57.98 78.2867 57.98 76.78C57.98 75.42 58.2733 74.2333 58.86 73.22C59.46 72.1933 60.2867 71.4 61.34 70.84C62.3933 70.2667 63.6 69.98 64.96 69.98C65.4267 69.98 65.9067 70.0333 66.4 70.14C66.8933 70.2467 67.3533 70.4133 67.78 70.64C68.2067 70.8533 68.5467 71.14 68.8 71.5C69.0667 71.86 69.2 72.2933 69.2 72.8C69.2 73.3467 69.0333 73.8467 68.7 74.3C68.3667 74.74 67.9 74.96 67.3 74.96C67.0467 74.96 66.78 74.9 66.5 74.78C66.2333 74.6467 66.0933 74.4667 66.08 74.24C66.08 74.2 66.16 74.1267 66.32 74.02C66.4933 73.9133 66.66 73.7533 66.82 73.54C66.9933 73.3133 67.08 73.02 67.08 72.66C67.08 72.0867 66.86 71.6333 66.42 71.3C65.98 70.9533 65.4133 70.78 64.72 70.78C63.9067 70.78 63.1667 71.0067 62.5 71.46C61.8333 71.9133 61.3 72.58 60.9 73.46C60.5133 74.3267 60.32 75.3933 60.32 76.66C60.32 77.86 60.5067 78.8933 60.88 79.76C61.2667 80.6133 61.8 81.2733 62.48 81.74C63.1733 82.1933 63.9733 82.42 64.88 82.42C65.32 82.42 65.7 82.3933 66.02 82.34C66.34 82.2867 66.68 82.2067 67.04 82.1V80.06C67.04 79.6867 67.0267 79.3933 67 79.18C66.9733 78.9533 66.88 78.7867 66.72 78.68C66.56 78.5733 66.28 78.52 65.88 78.52C65.7467 78.52 65.62 78.5067 65.5 78.48C65.3933 78.4533 65.3333 78.3267 65.32 78.1C65.32 77.9933 65.3533 77.8933 65.42 77.8C65.5 77.7067 65.6067 77.66 65.74 77.66C66.1667 77.6733 66.5267 77.6867 66.82 77.7C67.1133 77.7133 67.4867 77.72 67.94 77.72C68.3933 77.72 68.76 77.7133 69.04 77.7C69.3333 77.6867 69.6867 77.6733 70.1 77.66C70.2333 77.66 70.3267 77.7067 70.38 77.8C70.4467 77.8933 70.48 77.9933 70.48 78.1C70.4667 78.3267 70.4067 78.4533 70.3 78.48C70.1933 78.5067 70.0667 78.52 69.92 78.52C69.5467 78.52 69.28 78.58 69.12 78.7C68.9733 78.8067 68.88 78.9733 68.84 79.2C68.8133 79.4267 68.8 79.7133 68.8 80.06V82.42C68.28 82.66 67.7933 82.8533 67.34 83C66.9 83.1467 66.4267 83.2467 65.92 83.3C65.4267 83.3667 64.8467 83.4 64.18 83.4ZM71.73 83.06C71.6367 83.06 71.5567 83.02 71.49 82.94C71.4367 82.8467 71.41 82.7533 71.41 82.66C71.4367 82.46 71.49 82.3533 71.57 82.34C71.65 82.3133 71.7567 82.3 71.89 82.3C72.2633 82.3 72.5167 82.24 72.65 82.12C72.7833 81.9867 72.8567 81.8133 72.87 81.6C72.8967 81.3867 72.91 81.1667 72.91 80.94V76.36C72.91 76.12 72.8967 75.9 72.87 75.7C72.8567 75.4867 72.7833 75.32 72.65 75.2C72.5167 75.0667 72.2633 75 71.89 75C71.77 75 71.6567 74.9867 71.55 74.96C71.4567 74.92 71.41 74.8 71.41 74.6C71.41 74.4 71.5167 74.28 71.73 74.24C72.3433 74.1467 72.81 74.0533 73.13 73.96C73.4633 73.8667 73.7167 73.7867 73.89 73.72C74.0633 73.6533 74.2167 73.6133 74.35 73.6C74.4567 73.5867 74.5433 73.6067 74.61 73.66C74.69 73.7133 74.73 73.82 74.73 73.98V80.94C74.73 81.1667 74.7367 81.3867 74.75 81.6C74.7767 81.8133 74.8567 81.9867 74.99 82.12C75.1367 82.24 75.3967 82.3 75.77 82.3C75.89 82.3 75.99 82.3133 76.07 82.34C76.1633 82.3533 76.2167 82.46 76.23 82.66C76.23 82.7533 76.2033 82.8467 76.15 82.94C76.0967 83.02 76.0167 83.06 75.91 83.06C75.5233 83.0333 75.1633 83.0133 74.83 83C74.51 83 74.17 83 73.81 83C73.45 83 73.11 83 72.79 83C72.47 83.0133 72.1167 83.0333 71.73 83.06ZM73.71 71.38C73.3367 71.38 73.0233 71.2667 72.77 71.04C72.5167 70.8 72.39 70.5067 72.39 70.16C72.39 69.8533 72.5433 69.58 72.85 69.34C73.1567 69.1 73.5033 68.98 73.89 68.98C74.2233 68.98 74.4967 69.1 74.71 69.34C74.9233 69.5667 75.03 69.86 75.03 70.22C75.03 70.54 74.9033 70.8133 74.65 71.04C74.3967 71.2667 74.0833 71.38 73.71 71.38ZM80.9098 83.34C80.5098 83.34 80.1298 83.24 79.7698 83.04C79.4098 82.84 79.1098 82.5333 78.8698 82.12C78.6432 81.7067 78.5298 81.1867 78.5298 80.56V74.68L77.3698 74.72C77.2765 74.72 77.2032 74.6867 77.1498 74.62C77.1098 74.54 77.0898 74.4533 77.0898 74.36C77.0898 74.0933 77.1832 73.94 77.3698 73.9C77.8632 73.8067 78.2365 73.6533 78.4898 73.44C78.7432 73.2133 78.9365 72.9467 79.0698 72.64C79.2165 72.3333 79.3498 72 79.4698 71.64C79.5098 71.5333 79.5698 71.4667 79.6498 71.44C79.7298 71.4 79.8165 71.38 79.9098 71.38C79.9898 71.38 80.0765 71.4 80.1698 71.44C80.2765 71.48 80.3298 71.5533 80.3298 71.66L80.1898 73.94L82.5298 73.8C82.6498 73.7867 82.7298 73.82 82.7698 73.9C82.8098 73.98 82.8298 74.0733 82.8298 74.18C82.8298 74.3133 82.8032 74.4467 82.7498 74.58C82.7098 74.7133 82.6565 74.78 82.5898 74.78L80.3498 74.72V80.8C80.3498 81.1867 80.4298 81.54 80.5898 81.86C80.7632 82.18 81.0698 82.34 81.5098 82.34C81.6565 82.34 81.8232 82.3267 82.0098 82.3C82.1965 82.2733 82.3965 82.2133 82.6098 82.12C82.6632 82.0933 82.7165 82.0733 82.7698 82.06C82.8232 82.0333 82.8765 82.02 82.9298 82.02C83.0365 82.02 83.1165 82.0667 83.1698 82.16C83.2232 82.24 83.2698 82.3267 83.3098 82.42C83.3498 82.54 83.3165 82.6333 83.2098 82.7C82.7965 82.9667 82.4165 83.14 82.0698 83.22C81.7232 83.3 81.3365 83.34 80.9098 83.34ZM84.948 83.06C84.8413 83.06 84.7613 83.02 84.708 82.94C84.6546 82.8467 84.628 82.7533 84.628 82.66C84.6413 82.46 84.688 82.3533 84.768 82.34C84.8613 82.3133 84.968 82.3 85.088 82.3C85.4613 82.3 85.7146 82.24 85.848 82.12C85.9946 81.9867 86.0746 81.8133 86.088 81.6C86.1146 81.3867 86.128 81.1667 86.128 80.94V71.18C86.128 70.94 86.1146 70.72 86.088 70.52C86.0746 70.3067 86.0013 70.14 85.868 70.02C85.7346 69.8867 85.4813 69.82 85.108 69.82C84.988 69.82 84.8746 69.8067 84.768 69.78C84.6746 69.74 84.628 69.62 84.628 69.42C84.628 69.22 84.7346 69.1 84.948 69.06C85.5613 68.9667 86.028 68.8733 86.348 68.78C86.6813 68.6867 86.9346 68.6067 87.108 68.54C87.2813 68.46 87.4346 68.42 87.568 68.42C87.6746 68.42 87.7613 68.4467 87.828 68.5C87.908 68.54 87.948 68.64 87.948 68.8V75.24H87.988C88.2546 74.9867 88.528 74.7467 88.808 74.52C89.088 74.28 89.4146 74.0867 89.788 73.94C90.1746 73.78 90.648 73.7 91.208 73.7C92.1146 73.7 92.8346 73.9733 93.368 74.52C93.9013 75.0667 94.168 75.7867 94.168 76.68V80.94C94.168 81.1667 94.1746 81.3867 94.188 81.6C94.2146 81.8133 94.2946 81.9867 94.428 82.12C94.5746 82.24 94.828 82.3 95.188 82.3C95.3213 82.3 95.428 82.3133 95.508 82.34C95.588 82.3533 95.6346 82.46 95.648 82.66C95.648 82.7533 95.6213 82.8467 95.568 82.94C95.528 83.02 95.4546 83.06 95.348 83.06C94.9613 83.0333 94.6013 83.0133 94.268 83C93.9346 83 93.5946 83 93.248 83C92.888 83 92.548 83 92.228 83C91.908 83.0133 91.5546 83.0333 91.168 83.06C91.0613 83.06 90.9813 83.02 90.928 82.94C90.8746 82.8467 90.848 82.7533 90.848 82.66C90.8613 82.46 90.908 82.3533 90.988 82.34C91.068 82.3133 91.1746 82.3 91.308 82.3C91.6813 82.3 91.9346 82.24 92.068 82.12C92.2146 81.9867 92.2946 81.8133 92.308 81.6C92.3213 81.3867 92.328 81.1667 92.328 80.94V76.7C92.328 76.0333 92.128 75.5533 91.728 75.26C91.328 74.9533 90.8946 74.8 90.428 74.8C89.9746 74.8 89.5746 74.8867 89.228 75.06C88.8813 75.22 88.6013 75.4067 88.388 75.62C88.1746 75.8333 88.028 76.02 87.948 76.18V80.94C87.948 81.1667 87.9546 81.3867 87.968 81.6C87.9946 81.8133 88.0746 81.9867 88.208 82.12C88.3546 82.24 88.608 82.3 88.968 82.3C89.1013 82.3 89.208 82.3133 89.288 82.34C89.368 82.3533 89.4146 82.46 89.428 82.66C89.428 82.7533 89.4013 82.8467 89.348 82.94C89.308 83.02 89.2346 83.06 89.128 83.06C88.7413 83.0333 88.3813 83.0133 88.048 83C87.7146 83 87.3746 83 87.028 83C86.668 83 86.328 83 86.008 83C85.688 83.0133 85.3346 83.0333 84.948 83.06ZM100.628 83.24C99.7215 83.24 99.0015 82.9667 98.4681 82.42C97.9348 81.8733 97.6681 81.1533 97.6681 80.26V76.56C97.6681 76.32 97.6548 76.1 97.6281 75.9C97.6148 75.6867 97.5415 75.52 97.4081 75.4C97.2748 75.2667 97.0215 75.2 96.6481 75.2C96.5281 75.2 96.4148 75.1867 96.3081 75.16C96.2148 75.12 96.1681 75 96.1681 74.8C96.1681 74.6 96.2748 74.48 96.4881 74.44C97.1015 74.3467 97.5681 74.2533 97.8881 74.16C98.2215 74.0667 98.4748 73.9867 98.6481 73.92C98.8215 73.8533 98.9748 73.8133 99.1081 73.8C99.2148 73.7867 99.3015 73.8067 99.3681 73.86C99.4481 73.9133 99.4881 74.02 99.4881 74.18V80.24C99.4881 80.68 99.5815 81.04 99.7681 81.32C99.9681 81.6 100.215 81.8067 100.508 81.94C100.801 82.0733 101.101 82.14 101.408 82.14C101.875 82.14 102.281 82.06 102.628 81.9C102.975 81.7267 103.255 81.5333 103.468 81.32C103.681 81.0933 103.821 80.9067 103.888 80.76V76.56C103.888 76.32 103.875 76.1 103.848 75.9C103.835 75.6867 103.761 75.52 103.628 75.4C103.495 75.2667 103.241 75.2 102.868 75.2C102.748 75.2 102.635 75.1867 102.528 75.16C102.435 75.12 102.388 75 102.388 74.8C102.388 74.6 102.495 74.48 102.708 74.44C103.321 74.3467 103.788 74.2533 104.108 74.16C104.441 74.0667 104.695 73.9867 104.868 73.92C105.041 73.8533 105.195 73.8133 105.328 73.8C105.435 73.7867 105.521 73.8067 105.588 73.86C105.668 73.9133 105.708 74.02 105.708 74.18V81.1C105.708 81.8867 106.235 82.28 107.288 82.28C107.435 82.28 107.528 82.32 107.568 82.4C107.608 82.48 107.628 82.5667 107.628 82.66C107.628 82.8467 107.515 82.96 107.288 83L104.068 83.22C103.975 83.22 103.921 83.18 103.908 83.1C103.895 83.02 103.888 82.9267 103.888 82.82V81.7H103.848C103.595 81.94 103.321 82.18 103.028 82.42C102.748 82.66 102.415 82.8533 102.028 83C101.655 83.16 101.188 83.24 100.628 83.24ZM109.682 83.28C109.562 83.28 109.469 83.24 109.402 83.16C109.336 83.08 109.302 82.9867 109.302 82.88V71.2C109.302 70.96 109.289 70.74 109.262 70.54C109.249 70.3267 109.176 70.16 109.042 70.04C108.909 69.9067 108.656 69.84 108.282 69.84C108.162 69.84 108.049 69.8267 107.942 69.8C107.849 69.76 107.802 69.64 107.802 69.44C107.802 69.24 107.909 69.12 108.122 69.08C108.736 68.9867 109.202 68.8933 109.522 68.8C109.856 68.7067 110.109 68.6267 110.282 68.56C110.456 68.4933 110.609 68.4533 110.742 68.44C110.849 68.4267 110.936 68.4467 111.002 68.5C111.082 68.5533 111.122 68.66 111.122 68.82V74.86H111.182C111.582 74.46 112.029 74.1667 112.522 73.98C113.016 73.7933 113.489 73.7 113.942 73.7C114.729 73.7 115.436 73.9 116.062 74.3C116.702 74.7 117.209 75.2533 117.582 75.96C117.956 76.6533 118.142 77.4667 118.142 78.4C118.142 79.3067 117.929 80.1267 117.502 80.86C117.076 81.5933 116.516 82.1733 115.822 82.6C115.129 83.0267 114.376 83.24 113.562 83.24C112.376 83.24 111.349 82.9133 110.482 82.26H110.382C110.289 82.46 110.196 82.68 110.102 82.92C110.022 83.16 109.882 83.28 109.682 83.28ZM113.382 82.56C114.182 82.56 114.836 82.1933 115.342 81.46C115.849 80.7267 116.102 79.7333 116.102 78.48C116.102 77.8533 116.002 77.2533 115.802 76.68C115.616 76.1067 115.309 75.6333 114.882 75.26C114.469 74.8867 113.922 74.7 113.242 74.7C112.789 74.7 112.389 74.78 112.042 74.94C111.696 75.1 111.389 75.3267 111.122 75.62V80.9C111.162 81.0867 111.269 81.3133 111.442 81.58C111.629 81.8333 111.882 82.06 112.202 82.26C112.522 82.46 112.916 82.56 113.382 82.56Z" fill="#001324"/>
</svg>
