<?xml version="1.0" encoding="UTF-8"?>
<svg version="1.1" xmlns="http://www.w3.org/2000/svg" width="300" height="300">
<path d="M0 0 C9.03404827 7.17773698 14.57382846 17.8681541 17 29 C17 32.3 17 35.6 17 39 C33.5 39 50 39 67 39 C67 105 67 171 67 239 C50.5 239 34 239 17 239 C16.34 235.7 15.68 232.4 15 229 C11.09665575 215.06783869 4.04321701 204.05976647 -8.55078125 196.4609375 C-21.84481681 189.56175668 -35.33433841 188.57396135 -49.66015625 192.78125 C-61.38629519 196.98598607 -71.1608181 206.11433956 -76.875 217.125 C-80.165836 224.2789913 -81.44331851 231.21659254 -83 239 C-99.5 239 -116 239 -133 239 C-133 222.5 -133 206 -133 189 C-136.3 189 -139.6 189 -143 189 C-155.71393105 186.51282758 -167.59401514 178.95130274 -174.875 168.2421875 C-183.15886006 154.74639882 -185.2102699 141.03807715 -182.34375 125.42578125 C-177.99520206 111.0868193 -168.96716035 100.66961252 -156.05078125 93.51171875 C-148.09679341 89.5703701 -142.17017213 89 -133 89 C-133 72.5 -133 56 -133 39 C-116.5 39 -100 39 -83 39 C-83 35.7 -83 32.4 -83 29 C-80.51282758 16.28606895 -72.95130274 4.40598486 -62.2421875 -2.875 C-42.02813983 -15.28259959 -19.10015538 -14.22674014 0 0 Z " fill="#CBFECB" transform="translate(183,11)"/>
<path d="M0 0 C9.03404827 7.17773698 14.57382846 17.8681541 17 29 C17 32.3 17 35.6 17 39 C33.5 39 50 39 67 39 C67 105 67 171 67 239 C50.5 239 34 239 17 239 C16.34 235.7 15.68 232.4 15 229 C11.09665575 215.06783869 4.04321701 204.05976647 -8.55078125 196.4609375 C-21.84481681 189.56175668 -35.33433841 188.57396135 -49.66015625 192.78125 C-61.38629519 196.98598607 -71.1608181 206.11433956 -76.875 217.125 C-80.165836 224.2789913 -81.44331851 231.21659254 -83 239 C-99.5 239 -116 239 -133 239 C-133 222.5 -133 206 -133 189 C-136.3 189 -139.6 189 -143 189 C-155.71393105 186.51282758 -167.59401514 178.95130274 -174.875 168.2421875 C-183.15886006 154.74639882 -185.2102699 141.03807715 -182.34375 125.42578125 C-177.99520206 111.0868193 -168.96716035 100.66961252 -156.05078125 93.51171875 C-148.09679341 89.5703701 -142.17017213 89 -133 89 C-133 72.5 -133 56 -133 39 C-116.5 39 -100 39 -83 39 C-83 35.7 -83 32.4 -83 29 C-80.51282758 16.28606895 -72.95130274 4.40598486 -62.2421875 -2.875 C-42.02813983 -15.28259959 -19.10015538 -14.22674014 0 0 Z M-67.4765625 9.171875 C-76.30162014 19.76194417 -78 30.30043691 -78 44 C-94.5 44 -111 44 -128 44 C-128 60.5 -128 77 -128 94 C-132.29 94 -136.58 94 -141 94 C-154.1335418 97.75244052 -165.86086782 104.59238831 -172.8671875 116.65625 C-178.14230508 127.57028637 -180.00354644 139.34773144 -176.875 151.1875 C-172.76991249 162.81539905 -166.14822765 172.64913961 -155.31640625 178.90234375 C-145.81686699 183.40381176 -138.78885154 184 -128 184 C-128 200.5 -128 217 -128 234 C-114.8 234 -101.6 234 -88 234 C-86.68 229.38 -85.36 224.76 -84 220 C-77.58476778 205.0808553 -67.43622959 193.93655372 -52.18359375 187.77734375 C-38.88147428 183.0418844 -23.95943207 183.4057624 -11 189 C2.63044818 195.51964436 11.99393693 205.13589724 18 219 C19.98 226.425 19.98 226.425 22 234 C35.2 234 48.4 234 62 234 C62 171.3 62 108.6 62 44 C45.5 44 29 44 12 44 C12 39.71 12 35.42 12 31 C8.15620762 17.54672666 1.27767678 6.25660298 -10.95703125 -0.9375 C-30.05002503 -10.86731703 -52.88330409 -6.58610356 -67.4765625 9.171875 Z " fill="#FEFFFE" transform="translate(183,11)"/>
<path d="M0 0 C4.53568415 -0.36775817 4.53568415 -0.36775817 6.5402832 1.2199707 C8.23221996 3.28317707 9.07708194 5.18199778 10.04296875 7.66796875 C10.39423828 8.56064453 10.74550781 9.45332031 11.10742188 10.37304688 C11.64206055 11.76620117 11.64206055 11.76620117 12.1875 13.1875 C12.55552734 14.12787109 12.92355469 15.06824219 13.30273438 16.03710938 C14.2088805 18.35543127 15.10765118 20.67634016 16 23 C17.65 23 19.3 23 21 23 C21 16.4 21 9.8 21 3 C20.01 2.67 19.02 2.34 18 2 C18 1.34 18 0.68 18 0 C20.39614126 -0.05425226 22.79103853 -0.09379027 25.1875 -0.125 C25.86103516 -0.14175781 26.53457031 -0.15851563 27.22851562 -0.17578125 C31.27049078 -0.21521515 34.43475461 0.03161955 38 2 C40 5 40 5 40 8.4375 C39 12 39 12 36.375 14.4375 C32.61151901 16.17985231 30.09839745 16.3278718 26 16 C26.25561323 18.3431213 26.59270772 20.67843403 27 23 C27.66 23.33 28.32 23.66 29 24 C29 24.66 29 25.32 29 26 C22.07 26 15.14 26 8 26 C8 25.34 8 24.68 8 24 C8.99 24 9.98 24 11 24 C10.34 22.35 9.68 20.7 9 19 C5.7 19 2.4 19 -1 19 C-1.33 20.65 -1.66 22.3 -2 24 C-1.01 24 -0.02 24 1 24 C1 24.66 1 25.32 1 26 C-1.97 26 -4.94 26 -8 26 C-8 25.34 -8 24.68 -8 24 C-7.54713623 23.55551514 -7.09427246 23.11103027 -6.62768555 22.65307617 C-4.73589452 20.73177468 -3.97598021 19.03968936 -2.95703125 16.55078125 C-2.60576172 15.70322266 -2.25449219 14.85566406 -1.89257812 13.98242188 C-1.53615234 13.10134766 -1.17972656 12.22027344 -0.8125 11.3125 C-0.44447266 10.41982422 -0.07644531 9.52714844 0.30273438 8.60742188 C1.20854275 6.40760154 2.10733011 4.20517706 3 2 C2.01 2 1.02 2 0 2 C0 1.34 0 0.68 0 0 Z " fill="#1E261E" transform="translate(165,127)"/>
<path d="M0 0 C2.37570543 -0.0816082 4.74855841 -0.14077222 7.125 -0.1875 C7.79015625 -0.21263672 8.4553125 -0.23777344 9.140625 -0.26367188 C13.85612271 -0.33301743 17.03921471 0.43149075 21 3 C22.125 5.9375 22.125 5.9375 22 9 C20.1875 11.375 20.1875 11.375 18 13 C17.34 13 16.68 13 16 13 C18.52305019 17.85920778 20.5622482 20.67168615 25 24 C25 24.66 25 25.32 25 26 C22.08552772 26.11895805 20.62327395 26.1511843 18 25 C15.91244767 22.54255551 14.25225951 20.00371657 12.578125 17.25 C11.1318961 14.71335506 11.1318961 14.71335506 8 14 C8.11362262 15.4800841 8.24122908 16.95910074 8.375 18.4375 C8.44460937 19.26121094 8.51421875 20.08492187 8.5859375 20.93359375 C8.72257812 21.61550781 8.85921875 22.29742187 9 23 C9.66 23.33 10.32 23.66 11 24 C11 24.66 11 25.32 11 26 C7.37 26 3.74 26 0 26 C0 25.34 0 24.68 0 24 C0.99 23.67 1.98 23.34 3 23 C3 16.4 3 9.8 3 3 C2.01 2.67 1.02 2.34 0 2 C0 1.34 0 0.68 0 0 Z " fill="#111611" transform="translate(54,127)"/>
<path d="M0 0 C6.27 0 12.54 0 19 0 C19 2.31 19 4.62 19 7 C18.34 7 17.68 7 17 7 C16.814375 6.360625 16.62875 5.72125 16.4375 5.0625 C15.05753944 2.57873787 15.05753944 2.57873787 11.375 2.25 C10.26125 2.1675 9.1475 2.085 8 2 C8 5.3 8 8.6 8 12 C10.31 12 12.62 12 15 12 C15 12.66 15 13.32 15 14 C12.69 14 10.38 14 8 14 C8 17.3 8 20.6 8 24 C12.05085679 23.75368443 12.05085679 23.75368443 16 23 C17.5899433 21.07935207 17.5899433 21.07935207 18 19 C18.99 19 19.98 19 21 19 C20.67 21.31 20.34 23.62 20 26 C13.4 26 6.8 26 0 26 C0 25.34 0 24.68 0 24 C0.99 23.67 1.98 23.34 3 23 C3 16.4 3 9.8 3 3 C2.01 2.67 1.02 2.34 0 2 C0 1.34 0 0.68 0 0 Z " fill="#1A201A" transform="translate(81,127)"/>
<path d="M0 0 C0.86625 -0.00773437 1.7325 -0.01546875 2.625 -0.0234375 C5.41613197 0.44481161 6.35432192 1.10187275 8 3.375 C7.6875 5.5625 7.6875 5.5625 7 7.375 C5.68 7.705 4.36 8.035 3 8.375 C3.33 6.395 3.66 4.415 4 2.375 C1.69 2.375 -0.62 2.375 -3 2.375 C-3.33 4.025 -3.66 5.675 -4 7.375 C-3.22914062 7.77332031 -2.45828125 8.17164063 -1.6640625 8.58203125 C-0.66117188 9.11183594 0.34171875 9.64164063 1.375 10.1875 C2.87160156 10.97060547 2.87160156 10.97060547 4.3984375 11.76953125 C7 13.375 7 13.375 9 16.375 C9.4375 19.3125 9.4375 19.3125 9 22.375 C6.8397408 25.02305967 5.20893876 26.18354884 1.8046875 26.72265625 C-1.9248269 26.86420548 -4.30062781 26.7843886 -7.5625 24.875 C-8.036875 24.38 -8.51125 23.885 -9 23.375 C-8.67 21.725 -8.34 20.075 -8 18.375 C-6.68 18.045 -5.36 17.715 -4 17.375 C-4.020625 18.344375 -4.04125 19.31375 -4.0625 20.3125 C-4.35618499 23.24965895 -4.35618499 23.24965895 -3 24.375 C-0.54190002 24.6250773 -0.54190002 24.6250773 2 24.375 C2.66 23.715 3.32 23.055 4 22.375 C4.02153416 19.85483783 4.02153416 19.85483783 3 17.375 C1.01986462 15.77169202 1.01986462 15.77169202 -1.4375 14.6875 C-4.09680535 13.37705579 -5.89048445 12.48451555 -8 10.375 C-8.56416275 4.1692097 -8.56416275 4.1692097 -6.79296875 1.67578125 C-4.42781256 -0.04011638 -2.90050638 -0.02589738 0 0 Z " fill="#0B0E0B" transform="translate(114,126.625)"/>
<path d="M0 0 C2.39614126 -0.05425226 4.79103853 -0.09379027 7.1875 -0.125 C8.19780273 -0.15013672 8.19780273 -0.15013672 9.22851562 -0.17578125 C13.27049078 -0.21521515 16.43475461 0.03161955 20 2 C22 5 22 5 22 8.4375 C21 12 21 12 18.375 14.4375 C14.61151901 16.17985231 12.09839745 16.3278718 8 16 C8 17.98 8 19.96 8 22 C7.67 22 7.34 22 7 22 C6.95758277 19.66705225 6.95907063 17.33297433 7 15 C7.33 14.67 7.66 14.34 8 14 C8.07244053 11.98035801 8.08377188 9.95832876 8.0625 7.9375 C8.05347656 6.83277344 8.04445312 5.72804687 8.03515625 4.58984375 C8.02355469 3.73519531 8.01195312 2.88054687 8 2 C5.36 2 2.72 2 0 2 C0 1.34 0 0.68 0 0 Z " fill="#202820" transform="translate(183,127)"/>
<path d="M0 0 C7.26 0 14.52 0 22 0 C22 2.64 22 5.28 22 8 C21.01 7.67 20.02 7.34 19 7 C18.3125 4.9375 18.3125 4.9375 18 3 C15.525 2.505 15.525 2.505 13 2 C13.33 8.93 13.66 15.86 14 23 C14.99 23.33 15.98 23.66 17 24 C17 24.66 17 25.32 17 26 C13.37 26 9.74 26 6 26 C6 25.34 6 24.68 6 24 C6.66 23.67 7.32 23.34 8 23 C8.33 16.07 8.66 9.14 9 2 C7.35 2.33 5.7 2.66 4 3 C2.62533375 5.47636012 2.62533375 5.47636012 2 8 C1.34 8 0.68 8 0 8 C0 5.36 0 2.72 0 0 Z " fill="#0F130F" transform="translate(125,127)"/>
<path d="M0 0 C3.63 0 7.26 0 11 0 C11 0.66 11 1.32 11 2 C10.01 2 9.02 2 8 2 C8 9.26 8 16.52 8 24 C8.99 24 9.98 24 11 24 C11 24.66 11 25.32 11 26 C7.37 26 3.74 26 0 26 C0 25.34 0 24.68 0 24 C0.99 24 1.98 24 3 24 C3 17.07 3 10.14 3 3 C2.01 2.67 1.02 2.34 0 2 C0 1.34 0 0.68 0 0 Z " fill="#181E18" transform="translate(207,127)"/>
<path d="M0 0 C0.99 0.66 1.98 1.32 3 2 C2.67 3.32 2.34 4.64 2 6 C1.01 5.67 0.02 5.34 -1 5 C-0.67 4.01 -0.34 3.02 0 2 C-2.31 2 -4.62 2 -7 2 C-6.84896172 3.94399784 -6.84896172 3.94399784 -6 6 C-3.9279446 7.35102993 -3.9279446 7.35102993 -1.4375 8.25 C-0.61121094 8.58515625 0.21507812 8.9203125 1.06640625 9.265625 C2.02353516 9.62914062 2.02353516 9.62914062 3 10 C3.48192771 15.42168675 3.48192771 15.42168675 1.4375 17.875 C-1.87409887 19.40343025 -4.39376565 19.32783949 -8 19 C-8.99 18.34 -9.98 17.68 -11 17 C-10.67 15.35 -10.34 13.7 -10 12 C-9.01 12 -8.02 12 -7 12 C-7 13.32 -7 14.64 -7 16 C-4.69 16.33 -2.38 16.66 0 17 C-0.49547543 14.54368999 -0.49547543 14.54368999 -2 12 C-5.48797488 10.20728609 -5.48797488 10.20728609 -9 9 C-10 8 -10 8 -10.25 5.625 C-10 3 -10 3 -8.9375 1.1875 C-5.93702602 -0.65150018 -3.43518387 -0.30671285 0 0 Z " fill="#0F120F" transform="translate(232,134)"/>
<path d="M0 0 C2.31 0 4.62 0 7 0 C6.67 4.29 6.34 8.58 6 13 C7.65 13 9.3 13 11 13 C11 13.33 11 13.66 11 14 C9.02 14 7.04 14 5 14 C5.46803767 19.64358182 5.46803767 19.64358182 9 24 C4.71 24 0.42 24 -4 24 C-4 23.67 -4 23.34 -4 23 C-2.35 22.67 -0.7 22.34 1 22 C1.02895225 18.70835171 1.0467823 15.41673601 1.0625 12.125 C1.07087891 11.18785156 1.07925781 10.25070313 1.08789062 9.28515625 C1.09111328 8.38925781 1.09433594 7.49335938 1.09765625 6.5703125 C1.10289307 5.74289551 1.10812988 4.91547852 1.11352539 4.06298828 C1.13352138 1.93588243 1.13352138 1.93588243 0 0 Z " fill="#060706" transform="translate(185,128)"/>
<path d="M0 0 C6 0 6 0 9 2 C9.4375 5.4375 9.4375 5.4375 9 9 C7.3125 10.9375 7.3125 10.9375 5 12 C3.35 12 1.7 12 0 12 C0 8.04 0 4.08 0 0 Z " fill="#C5F6C5" transform="translate(191,129)"/>
<path d="M0 0 C5.625 -0.25 5.625 -0.25 9 2 C9.39964378 5.1305429 9.52149743 7.13083761 7.875 9.875 C5.21965017 11.4682099 3.03210482 11.20214032 0 11 C0 7.37 0 3.74 0 0 Z " fill="#C5F6C5" transform="translate(62,129)"/>
<path d="M0 0 C2.37570543 -0.0816082 4.74855841 -0.14077222 7.125 -0.1875 C7.79015625 -0.21263672 8.4553125 -0.23777344 9.140625 -0.26367188 C13.85612271 -0.33301743 17.03921471 0.43149075 21 3 C22.125 5.9375 22.125 5.9375 22 9 C20.1875 11.375 20.1875 11.375 18 13 C17.34 13 16.68 13 16 13 C15.67 13.66 15.34 14.32 15 15 C14.67 14.01 14.34 13.02 14 12 C14.66 11.34 15.32 10.68 16 10 C16.16681109 6.91652174 16.16681109 6.91652174 16 4 C10.51324804 2.13216954 5.77807024 1.7641604 0 2 C0 1.34 0 0.68 0 0 Z " fill="#1D251D" transform="translate(54,127)"/>
<path d="M0 0 C7.26 0 14.52 0 22 0 C22 2.64 22 5.28 22 8 C21.01 7.67 20.02 7.34 19 7 C18.3125 4.9375 18.3125 4.9375 18 3 C10.89609892 1.74245521 10.89609892 1.74245521 4 3 C2.62533375 5.47636012 2.62533375 5.47636012 2 8 C1.34 8 0.68 8 0 8 C0 5.36 0 2.72 0 0 Z " fill="#293429" transform="translate(125,127)"/>
<path d="M0 0 C0.99 0.33 1.98 0.66 3 1 C3.73046875 2.84765625 3.73046875 2.84765625 4.1875 5.0625 C4.34605469 5.79597656 4.50460938 6.52945313 4.66796875 7.28515625 C4.83232422 8.13400391 4.83232422 8.13400391 5 9 C2.36 9 -0.28 9 -3 9 C-2.01 6.03 -1.02 3.06 0 0 Z " fill="#B6E3B6" transform="translate(168,134)"/>
<path d="M0 0 C0 0.99 0 1.98 0 3 C0.66 3.66 1.32 4.32 2 5 C-0.91482778 5.80967438 -2.46113217 6.21845993 -5.3125 5.0625 C-5.869375 4.711875 -6.42625 4.36125 -7 4 C-7 2.68 -7 1.36 -7 0 C-4.3333581 -1.33332095 -2.83319697 -0.67102033 0 0 Z " fill="#B9E8B9" transform="translate(232,136)"/>
<path d="M0 0 C0.99 0 1.98 0 3 0 C3 1.32 3 2.64 3 4 C5.64 4.33 8.28 4.66 11 5 C9 7 9 7 5.5625 7.25 C2 7 2 7 -1 5 C-0.67 3.35 -0.34 1.7 0 0 Z " fill="#202920" transform="translate(222,146)"/>
<path d="M0 0 C6.625 -0.25 6.625 -0.25 10 2 C9.67 3.32 9.34 4.64 9 6 C8.01 5.67 7.02 5.34 6 5 C6.33 4.01 6.66 3.02 7 2 C4.69 2 2.38 2 0 2 C-0.33 2.99 -0.66 3.98 -1 5 C-0.67 3.35 -0.34 1.7 0 0 Z " fill="#1F271F" transform="translate(225,134)"/>
<path d="M0 0 C2.0625 0.4375 2.0625 0.4375 4 1 C4.625 3.375 4.625 3.375 5 6 C4.34 6.66 3.68 7.32 3 8 C2.01 8 1.02 8 0 8 C0.33 6.02 0.66 4.04 1 2 C0.34 1.67 -0.32 1.34 -1 1 C-0.67 0.67 -0.34 0.34 0 0 Z " fill="#191F19" transform="translate(117,127)"/>
<path d="M0 0 C1.65 0 3.3 0 5 0 C5 2.31 5 4.62 5 7 C4.01 6.67 3.02 6.34 2 6 C0.8125 2.9375 0.8125 2.9375 0 0 Z " fill="#151B15" transform="translate(142,128)"/>
</svg>
