<?xml version="1.0" encoding="UTF-8"?>
<svg version="1.1" xmlns="http://www.w3.org/2000/svg" width="300" height="300">
<path d="M0 0 C9.03404827 7.17773698 14.57382846 17.8681541 17 29 C17 32.3 17 35.6 17 39 C33.5 39 50 39 67 39 C67.11284041 64.19084 67.20495707 89.38147557 67.25906086 114.57250404 C67.28484919 126.26896839 67.32001197 137.96526464 67.37719727 149.66162109 C67.4270127 159.85544044 67.45928643 170.04913805 67.47044247 180.24307573 C67.47696433 185.64140731 67.49230597 191.03939061 67.52865028 196.43761063 C67.56258015 201.51836148 67.57305894 206.59862049 67.56553841 211.67947388 C67.56691429 213.54432218 67.57686465 215.40918687 67.59602737 217.27393723 C67.62091905 219.82105629 67.61492028 222.36632037 67.60127258 224.91348267 C67.62311889 226.01953305 67.62311889 226.01953305 67.64540654 227.14792788 C67.59248352 230.80393994 67.05197839 233.49610859 64.96268463 236.46031189 C61.28495343 239.61295598 58.63185094 239.83040663 53.99577332 239.7215271 C53.19520848 239.72665365 52.39464365 239.7317802 51.56981927 239.7370621 C48.88971816 239.74693824 46.21187549 239.71396095 43.53198242 239.68115234 C41.61008762 239.67945976 39.68818893 239.68041017 37.76629639 239.68380737 C32.54947714 239.68553004 27.33348434 239.65023572 22.11685729 239.60836363 C16.66496827 239.57087507 11.21306064 239.56733274 5.76106262 239.56021118 C-4.56270822 239.54155687 -14.88609818 239.4923117 -25.20970124 239.43211424 C-36.96286501 239.36506751 -48.7160469 239.33206468 -60.46935427 239.30194163 C-84.64649604 239.23921323 -108.82311563 239.12917302 -133 239 C-133 222.5 -133 206 -133 189 C-128.05 188.01 -128.05 188.01 -123 187 C-109.06783869 183.09665575 -98.05976647 176.04321701 -90.4609375 163.44921875 C-83.56175668 150.15518319 -82.57396135 136.66566159 -86.78125 122.33984375 C-90.98598607 110.61370481 -100.11433956 100.8391819 -111.125 95.125 C-118.2789913 91.834164 -125.21659254 90.55668149 -133 89 C-133 72.5 -133 56 -133 39 C-116.5 39 -100 39 -83 39 C-83 35.7 -83 32.4 -83 29 C-80.51282758 16.28606895 -72.95130274 4.40598486 -62.2421875 -2.875 C-42.02813983 -15.28259959 -19.10015538 -14.22674014 0 0 Z " fill="#CBCBFE" transform="translate(183,11)"/>
<path d="M0 0 C9.03404827 7.17773698 14.57382846 17.8681541 17 29 C17 32.3 17 35.6 17 39 C33.5 39 50 39 67 39 C67.11284041 64.19084 67.20495707 89.38147557 67.25906086 114.57250404 C67.28484919 126.26896839 67.32001197 137.96526464 67.37719727 149.66162109 C67.4270127 159.85544044 67.45928643 170.04913805 67.47044247 180.24307573 C67.47696433 185.64140731 67.49230597 191.03939061 67.52865028 196.43761063 C67.56258015 201.51836148 67.57305894 206.59862049 67.56553841 211.67947388 C67.56691429 213.54432218 67.57686465 215.40918687 67.59602737 217.27393723 C67.62091905 219.82105629 67.61492028 222.36632037 67.60127258 224.91348267 C67.62311889 226.01953305 67.62311889 226.01953305 67.64540654 227.14792788 C67.59248352 230.80393994 67.05197839 233.49610859 64.96268463 236.46031189 C61.28495343 239.61295598 58.63185094 239.83040663 53.99577332 239.7215271 C53.19520848 239.72665365 52.39464365 239.7317802 51.56981927 239.7370621 C48.88971816 239.74693824 46.21187549 239.71396095 43.53198242 239.68115234 C41.61008762 239.67945976 39.68818893 239.68041017 37.76629639 239.68380737 C32.54947714 239.68553004 27.33348434 239.65023572 22.11685729 239.60836363 C16.66496827 239.57087507 11.21306064 239.56733274 5.76106262 239.56021118 C-4.56270822 239.54155687 -14.88609818 239.4923117 -25.20970124 239.43211424 C-36.96286501 239.36506751 -48.7160469 239.33206468 -60.46935427 239.30194163 C-84.64649604 239.23921323 -108.82311563 239.12917302 -133 239 C-133 222.5 -133 206 -133 189 C-128.05 188.01 -128.05 188.01 -123 187 C-109.06783869 183.09665575 -98.05976647 176.04321701 -90.4609375 163.44921875 C-83.56175668 150.15518319 -82.57396135 136.66566159 -86.78125 122.33984375 C-90.98598607 110.61370481 -100.11433956 100.8391819 -111.125 95.125 C-118.2789913 91.834164 -125.21659254 90.55668149 -133 89 C-133 72.5 -133 56 -133 39 C-116.5 39 -100 39 -83 39 C-83 35.7 -83 32.4 -83 29 C-80.51282758 16.28606895 -72.95130274 4.40598486 -62.2421875 -2.875 C-42.02813983 -15.28259959 -19.10015538 -14.22674014 0 0 Z M-67.4765625 9.171875 C-76.30162014 19.76194417 -78 30.30043691 -78 44 C-94.5 44 -111 44 -128 44 C-128 57.2 -128 70.4 -128 84 C-122.39 85.65 -116.78 87.3 -111 89 C-96.26821069 96.36589466 -86.83889501 106.65919394 -80.8359375 121.96875 C-76.26583244 137.51564946 -78.5383555 153.14355445 -86.1875 167.25 C-96.08001371 183.15766505 -110.38108575 189.59527144 -128 194 C-128 207.2 -128 220.4 -128 234 C-103.67003788 234.06766323 -79.34015167 234.12295042 -55.01011944 234.15543652 C-43.71382471 234.17091981 -32.4175925 234.19203723 -21.12133789 234.22631836 C-11.27803422 234.25617598 -1.4347758 234.27556435 8.4085719 234.28226548 C13.62282899 234.28618392 18.83695658 234.29542306 24.05117226 234.31719017 C28.9553656 234.3374979 33.85937563 234.34384541 38.76360703 234.33932304 C40.56680865 234.34015081 42.37001618 234.34615038 44.17318153 234.35761642 C46.62901325 234.37247135 49.0841465 234.36897957 51.53999329 234.36076355 C52.25886209 234.36950207 52.9777309 234.3782406 53.71838361 234.38724393 C56.42733643 234.36262915 58.53871795 234.25068185 60.9437027 232.9437027 C62.58789699 229.91820517 62.40154996 226.89525951 62.36076355 223.53999329 C62.36332682 222.77380572 62.3658901 222.00761815 62.36853105 221.21821278 C62.37348442 218.64306588 62.35695078 216.06850136 62.34057617 213.4934082 C62.33973023 211.65062473 62.34020439 209.80784025 62.34190369 207.96505737 C62.34276636 202.95497612 62.32509654 197.94510923 62.30418181 192.93507791 C62.28546037 187.70202479 62.28366816 182.46896706 62.28010559 177.23588562 C62.27077178 167.32300875 62.24613993 157.41023084 62.21605712 147.4973976 C62.18255465 136.21339704 62.16603756 124.92939181 62.15097082 113.64535391 C62.11959153 90.4301684 62.06456278 67.21511858 62 44 C45.5 44 29 44 12 44 C12 39.71 12 35.42 12 31 C8.15620762 17.54672666 1.27767678 6.25660298 -10.95703125 -0.9375 C-30.05002503 -10.86731703 -52.88330409 -6.58610356 -67.4765625 9.171875 Z " fill="#FEFEFF" transform="translate(183,11)"/>
<path d="M0 0 C2.60478883 -0.0809313 5.20706653 -0.14045434 7.8125 -0.1875 C8.55048828 -0.21263672 9.28847656 -0.23777344 10.04882812 -0.26367188 C15.46901216 -0.33724903 15.46901216 -0.33724903 18.0234375 1.28515625 C19.70886006 4.24475826 18.76354259 6.82836153 18 10 C17.01 10.495 17.01 10.495 16 11 C16.845625 11.515625 17.69125 12.03125 18.5625 12.5625 C21 15 21 15 21.125 18.5625 C20 22 20 22 17.91796875 23.703125 C14.27617135 25.32170162 11.08742087 25.33304729 7.1875 25.1875 C6.14819336 25.16719727 6.14819336 25.16719727 5.08789062 25.14648438 C3.39158735 25.11138845 1.69568864 25.05758943 0 25 C0 24.34 0 23.68 0 23 C0.99 23 1.98 23 3 23 C3 15.74 3 8.48 3 1 C2.01 0.67 1.02 0.34 0 0 Z " fill="#101015" transform="translate(126,117)"/>
<path d="M0 0 C0 0.66 0 1.32 0 2 C0.53625 1.649375 1.0725 1.29875 1.625 0.9375 C4.88487691 -0.34929352 6.67111425 -0.0402768 10 1 C13.14824425 3.81685011 13.93060536 5.34075092 14.375 9.5625 C14.03391919 12.68907406 13.78579555 14.46229054 12 17 C8.79619983 19.13586678 7.98060033 19.23132175 4.3125 19.125 C3.50425781 19.10695312 2.69601563 19.08890625 1.86328125 19.0703125 C1.24839844 19.04710937 0.63351563 19.02390625 0 19 C0 21.31 0 23.62 0 26 C0.99 26.33 1.98 26.66 3 27 C-0.3 27 -3.6 27 -7 27 C-6.34 26.34 -5.68 25.68 -5 25 C-4.62948007 22.6754661 -4.62948007 22.6754661 -4.5859375 19.9921875 C-4.54726562 19.00605469 -4.50859375 18.01992187 -4.46875 17.00390625 C-4.4378125 15.97136719 -4.406875 14.93882812 -4.375 13.875 C-4.33632812 12.83472656 -4.29765625 11.79445312 -4.2578125 10.72265625 C-4.16335234 8.14861689 -4.07778786 5.57458845 -4 3 C-4.99 3 -5.98 3 -7 3 C-7 2.34 -7 1.68 -7 1 C-4.50935112 0.31292445 -2.62113708 0 0 0 Z " fill="#0E0E12" transform="translate(197,169)"/>
<path d="M0 0 C3.96287721 0.38104589 5.4323945 1.57539752 8.25 4.3125 C9.86588379 7.54426757 9.82451407 10.81865283 9.25 14.3125 C7.26078114 17.2963283 5.86497432 18.91526841 2.3125 19.7890625 C-1.61063492 20.07140933 -3.42112371 19.53175086 -6.75 17.3125 C-8.97302614 13.97796079 -9.48397271 12.17206663 -9.25390625 8.24609375 C-8.40742469 4.99796682 -6.28910265 3.35616799 -3.75 1.3125 C-2.75 0.3125 -2.75 0.3125 0 0 Z " fill="#111115" transform="translate(159.75,122.6875)"/>
<path d="M0 0 C4.19189408 0.1612267 6.51099943 0.64625491 9.9375 3.125 C12.53004358 6.73884863 12.55529406 8.63697523 12 13 C10.81232145 16.38031589 10.10174775 16.93216817 7 19 C2.13418066 19.5493667 0.1023556 19.73490373 -4 17 C-6.22302614 13.66546079 -6.73397271 11.85956663 -6.50390625 7.93359375 C-5.65742469 4.68546682 -3.53910265 3.04366799 -1 1 C-0.67 0.67 -0.34 0.34 0 0 Z " fill="#16161B" transform="translate(179,123)"/>
<path d="M0 0 C0.69222656 0.08765625 1.38445312 0.1753125 2.09765625 0.265625 C3.9375 0.75 3.9375 0.75 5.9375 2.75 C6.32622293 6.35452172 6.44531525 9.94069211 6.59375 13.5625 C6.61021607 16.84085835 6.61021607 16.84085835 8.9375 18.75 C6.9575 18.75 4.9775 18.75 2.9375 18.75 C2.9375 18.09 2.9375 17.43 2.9375 16.75 C1.9475 17.41 0.9575 18.07 -0.0625 18.75 C-3.625 19 -3.625 19 -7.0625 18.75 C-9.0625 16.75 -9.0625 16.75 -9.5 14.3125 C-9.0625 11.75 -9.0625 11.75 -6.9375 9.9375 C-3.7517698 8.62165492 -1.47585136 8.51185921 1.9375 8.75 C1.6075 6.77 1.2775 4.79 0.9375 2.75 C-0.7125 2.75 -2.3625 2.75 -4.0625 2.75 C-4.0625 4.07 -4.0625 5.39 -4.0625 6.75 C-5.3825 6.42 -6.7025 6.09 -8.0625 5.75 C-7.75 3.875 -7.75 3.875 -7.0625 1.75 C-3.88217735 -0.3702151 -3.51682601 -0.4995865 0 0 Z " fill="#1B1B22" transform="translate(180.0625,169.25)"/>
<path d="M0 0 C2.4375 -0.375 2.4375 -0.375 5 0 C7.10679017 1.60397629 7.90485633 2.49349986 8.3984375 5.12109375 C8.33462033 11.42835693 8.33462033 11.42835693 6.5 14.5625 C6.005 15.036875 5.51 15.51125 5 16 C0.25 15.25 0.25 15.25 -2 13 C-2.265625 10.72265625 -2.265625 10.72265625 -2.25 8.0625 C-2.25515625 7.18722656 -2.2603125 6.31195313 -2.265625 5.41015625 C-2 3 -2 3 0 0 Z " fill="#C6C6F8" transform="translate(179,125)"/>
<path d="M0 0 C1.423125 0.4021875 1.423125 0.4021875 2.875 0.8125 C4.59035658 4.24321316 4.2756478 8.05308819 3.875 11.8125 C2.375 14.375 2.375 14.375 0.875 15.8125 C-1.5 15.5 -1.5 15.5 -4.125 14.8125 C-6.19020632 11.71469052 -6.41977024 10.8584519 -6.4375 7.3125 C-6.45425781 6.5390625 -6.47101563 5.765625 -6.48828125 4.96875 C-5.79383128 0.84685338 -4.05372819 -0.24322369 0 0 Z " fill="#C8C8FA" transform="translate(161.125,125.1875)"/>
<path d="M0 0 C3.125 0.375 3.125 0.375 5.0625 2.375 C6.54098134 6.54953556 6.04752395 9.04623378 5.125 13.375 C3.125 15.375 3.125 15.375 0.625 15.625 C-1.875 15.375 -1.875 15.375 -3.875 13.375 C-4.10546875 10.58984375 -4.10546875 10.58984375 -4.0625 7.3125 C-4.05605469 6.22839844 -4.04960937 5.14429688 -4.04296875 4.02734375 C-3.809204 0.33603521 -3.69422318 0.4818552 0 0 Z " fill="#C6C6F8" transform="translate(200.875,171.625)"/>
<path d="M0 0 C0.66 0.66 1.32 1.32 2 2 C1.625 4.125 1.625 4.125 1 6 C0.01 6 -0.98 6 -2 6 C-2 4.68 -2 3.36 -2 2 C-3.65 2 -5.3 2 -7 2 C-7.33 3.32 -7.66 4.64 -8 6 C-7.36191406 6.20496094 -6.72382812 6.40992188 -6.06640625 6.62109375 C-5.24011719 6.89050781 -4.41382813 7.15992188 -3.5625 7.4375 C-2.73878906 7.70433594 -1.91507813 7.97117188 -1.06640625 8.24609375 C1 9 1 9 2 10 C2.1875 12.9375 2.1875 12.9375 2 16 C0 18 0 18 -2.3125 18.265625 C-3.199375 18.26046875 -4.08625 18.2553125 -5 18.25 C-6.3303125 18.25773437 -6.3303125 18.25773437 -7.6875 18.265625 C-10 18 -10 18 -12 16 C-12 14.68 -12 13.36 -12 12 C-10.68 12.33 -9.36 12.66 -8 13 C-8.33 13.99 -8.66 14.98 -9 16 C-6.69 16 -4.38 16 -2 16 C-2 14.68 -2 13.36 -2 12 C-4.64 11.01 -7.28 10.02 -10 9 C-10.33 6.69 -10.66 4.38 -11 2 C-6.99613851 -0.9440158 -4.7914976 -1.38421042 0 0 Z " fill="#0E0E12" transform="translate(133,170)"/>
<path d="M0 0 C0.99 0 1.98 0 3 0 C3 0.66 3 1.32 3 2 C3.53625 1.649375 4.0725 1.29875 4.625 0.9375 C7.88487691 -0.34929352 9.67111425 -0.0402768 13 1 C16.14824425 3.81685011 16.93060536 5.34075092 17.375 9.5625 C17.03391919 12.68907406 16.78579555 14.46229054 15 17 C11.79619983 19.13586678 10.98060033 19.23132175 7.3125 19.125 C6.50425781 19.10695312 5.69601563 19.08890625 4.86328125 19.0703125 C4.24839844 19.04710937 3.63351563 19.02390625 3 19 C3 20.65 3 22.3 3 24 C2.67 24 2.34 24 2 24 C2 22.02 2 20.04 2 18 C4.92824652 17.02391783 6.95613276 16.91773332 10 17 C12.00519881 14.16913109 12.08216415 12.14322623 11.6875 8.8125 C11.41472529 5.22459335 11.41472529 5.22459335 10 4 C7.66702567 3.95907063 5.33294775 3.95758277 3 4 C2.67 3.01 2.34 2.02 2 1 C1.34 0.67 0.68 0.34 0 0 Z " fill="#1D1D24" transform="translate(194,169)"/>
<path d="M0 0 C0 1.65 0 3.3 0 5 C1.65 5 3.3 5 5 5 C3.68 5.33 2.36 5.66 1 6 C1.33 10.95 1.66 15.9 2 21 C3.32 21 4.64 21 6 21 C5.67 21.99 5.34 22.98 5 24 C0.57608696 24.35869565 0.57608696 24.35869565 -1.65625 22.96875 C-3.72035873 19.9445907 -3.3157224 16.83368446 -3.1875 13.3125 C-3.16719727 12.2596582 -3.16719727 12.2596582 -3.14648438 11.18554688 C-3.11120182 9.45670171 -3.05739583 7.72825235 -3 6 C-3.99 5.67 -4.98 5.34 -6 5 C-1.125 0 -1.125 0 0 0 Z " fill="#141419" transform="translate(144,165)"/>
<path d="M0 0 C6.36 0.6 6.36 0.6 9 2.25 C10 4 10 4 9.8125 6.5625 C9 9 9 9 7 11 C3.9375 11.1875 3.9375 11.1875 1 11 C0 10 0 10 -0.09765625 7.71484375 C-0.08605469 6.79832031 -0.07445312 5.88179687 -0.0625 4.9375 C-0.05347656 4.01839844 -0.04445312 3.09929687 -0.03515625 2.15234375 C-0.02355469 1.44207031 -0.01195312 0.73179687 0 0 Z " fill="#BBBBEA" transform="translate(133,129)"/>
<path d="M0 0 C0.66 0 1.32 0 2 0 C2 1.65 2 3.3 2 5 C3.65 5 5.3 5 7 5 C7 5.33 7 5.66 7 6 C5.35 6 3.7 6 2 6 C2 10.95 2 15.9 2 21 C3.98 21 5.96 21 8 21 C8 21.66 8 22.32 8 23 C4.625 23.625 4.625 23.625 1 24 C-1 22 -1 22 -1.1953125 18.3046875 C-1.182009 16.82799892 -1.15814835 15.35137642 -1.125 13.875 C-1.11597656 13.12089844 -1.10695312 12.36679688 -1.09765625 11.58984375 C-1.0740687 9.72642746 -1.03819719 7.86317407 -1 6 C-1.99 5.67 -2.98 5.34 -4 5 C-3.01 4.34 -2.02 3.68 -1 3 C-0.67 2.01 -0.34 1.02 0 0 Z " fill="#0E0E12" transform="translate(198,119)"/>
<path d="M0 0 C0 0.99 0 1.98 0 3 C0.66 3.33 1.32 3.66 2 4 C1.67 4.33 1.34 4.66 1 5 C0.87485072 6.97619447 0.8242724 8.95738173 0.8125 10.9375 C0.79832031 12.01902344 0.78414062 13.10054687 0.76953125 14.21484375 C0.70951969 17.14044315 0.70951969 17.14044315 3 19 C0.03 19 -2.94 19 -6 19 C-5.34 18.34 -4.68 17.68 -4 17 C-3.75639927 13.87185486 -3.75639927 13.87185486 -3.875 10.375 C-3.89304688 9.18648437 -3.91109375 7.99796875 -3.9296875 6.7734375 C-3.95289063 5.85820312 -3.97609375 4.94296875 -4 4 C-4.66 3.67 -5.32 3.34 -6 3 C-6 2.34 -6 1.68 -6 1 C-3.92446352 0.4465236 -2.15634036 0 0 0 Z " fill="#060607" transform="translate(160,169)"/>
<path d="M0 0 C2.875 -0.125 2.875 -0.125 6 0 C6.66 0.66 7.32 1.32 8 2 C7.625 5.625 7.625 5.625 7 9 C4.69 9.33 2.38 9.66 0 10 C0 6.7 0 3.4 0 0 Z " fill="#B3B3E0" transform="translate(133,118)"/>
<path d="M0 0 C-0.33 0.99 -0.66 1.98 -1 3 C-1.11659598 4.49676706 -1.17498959 5.99875061 -1.1875 7.5 C-1.20167969 8.2734375 -1.21585938 9.046875 -1.23046875 9.84375 C-1.13661528 12.29680056 -1.13661528 12.29680056 1 15 C3.56282742 15.72965366 3.56282742 15.72965366 6 16 C6 16.33 6 16.66 6 17 C1.74981621 17.41668469 -0.35342568 17.44022082 -3.9375 15 C-6.77903011 10.86686529 -6.62869315 8.95095859 -6 4 C-3.9 0 -3.9 0 0 0 Z " fill="#0F0F13" transform="translate(157,125)"/>
<path d="M0 0 C1.875 0.3125 1.875 0.3125 4 1 C6.46751239 4.70126859 6.30721156 6.62223532 6 11 C4.81232145 14.38031589 4.10174775 14.93216817 1 17 C-1.33199388 17.07905064 -3.66832622 17.08798769 -6 17 C-6 16.67 -6 16.34 -6 16 C-5.030625 15.71125 -4.06125 15.4225 -3.0625 15.125 C0.10664203 14.35785318 0.10664203 14.35785318 1 12 C1.0952699 10.52331663 1.12985959 9.04224543 1.125 7.5625 C1.12757813 6.78003906 1.13015625 5.99757812 1.1328125 5.19140625 C1.08382548 2.82104653 1.08382548 2.82104653 0 0 Z " fill="#0C0C0F" transform="translate(185,125)"/>
<path d="M0 0 C2.5 0.125 2.5 0.125 3.5 1.125 C3.54080783 3.12458364 3.54254356 5.12545254 3.5 7.125 C0.86 7.455 -1.78 7.785 -4.5 8.125 C-3.48810613 0.17440531 -3.48810613 0.17440531 0 0 Z " fill="#BDBDED" transform="translate(178.5,170.875)"/>
<path d="M0 0 C0.38218767 1.65614657 0.71395102 3.32457024 1 5 C0.67 5.33 0.34 5.66 0 6 C-2.33944736 5.71269945 -4.6739143 5.38063221 -7 5 C-7 4.01 -7 3.02 -7 2 C-7.66 1.34 -8.32 0.68 -9 0 C-5.52176885 -1.15941038 -3.54104422 -0.70820884 0 0 Z " fill="#BEBEED" transform="translate(131,181)"/>
<path d="M0 0 C0.125 2.375 0.125 2.375 0 5 C-2 7 -2 7 -4.625 7.125 C-5.40875 7.08375 -6.1925 7.0425 -7 7 C-7.1875 4.625 -7.1875 4.625 -7 2 C-4 0 -4 0 0 0 Z " fill="#C2C2F3" transform="translate(182,179)"/>
<path d="M0 0 C1.65 0 3.3 0 5 0 C6 3 6 3 6 7 C3.69 6.34 1.38 5.68 -1 5 C-0.67 3.35 -0.34 1.7 0 0 Z " fill="#BFBFEF" transform="translate(126,171)"/>
<path d="M0 0 C0.66 0.66 1.32 1.32 2 2 C1.625 4.125 1.625 4.125 1 6 C0.01 6 -0.98 6 -2 6 C-2 4.68 -2 3.36 -2 2 C-4.41619823 1.74969023 -4.41619823 1.74969023 -7 2 C-7.66 2.99 -8.32 3.98 -9 5 C-9.33 3.68 -9.66 2.36 -10 1 C-6.42894485 -1.33492068 -4.06144397 -1.05950712 0 0 Z " fill="#292934" transform="translate(133,170)"/>
<path d="M0 0 C0.33 0 0.66 0 1 0 C1.103125 0.94875 1.20625 1.8975 1.3125 2.875 C1.68539295 6.29107501 1.68539295 6.29107501 5 8 C2.125 8.125 2.125 8.125 -1 8 C-1.66 7.34 -2.32 6.68 -3 6 C-2.63318342 3.06546739 -2.13562754 2.13562754 0 0 Z " fill="#050506" transform="translate(174,180)"/>
<path d="M0 0 C1.2065625 0.0309375 1.2065625 0.0309375 2.4375 0.0625 C2.7675 1.3825 3.0975 2.7025 3.4375 4.0625 C1.4575 5.0525 1.4575 5.0525 -0.5625 6.0625 C-0.5625 4.7425 -0.5625 3.4225 -0.5625 2.0625 C-1.5525 1.7325 -2.5425 1.4025 -3.5625 1.0625 C-2.5625 0.0625 -2.5625 0.0625 0 0 Z " fill="#1E1E26" transform="translate(165.5625,169.9375)"/>
<path d="M0 0 C0.99 0.33 1.98 0.66 3 1 C2.67 2.65 2.34 4.3 2 6 C0.68 5.67 -0.64 5.34 -2 5 C-1.125 1.125 -1.125 1.125 0 0 Z " fill="#0C0C0F" transform="translate(174,170)"/>
<path d="M0 0 C3.0625 0.1875 3.0625 0.1875 5.0625 2.1875 C1.6875 2.8125 1.6875 2.8125 -1.9375 3.1875 C-2.5975 2.5275 -3.2575 1.8675 -3.9375 1.1875 C-2.9375 0.1875 -2.9375 0.1875 0 0 Z " fill="#3E3E4D" transform="translate(159.9375,122.8125)"/>
</svg>
