<?xml version="1.0" encoding="UTF-8"?>
<svg version="1.1" xmlns="http://www.w3.org/2000/svg" width="300" height="300">
<path d="M0 0 C25.19084 -0.11284041 50.38147557 -0.20495707 75.57250404 -0.25906086 C87.26896839 -0.28484919 98.96526464 -0.32001197 110.66162109 -0.37719727 C120.85544044 -0.4270127 131.04913805 -0.45928643 141.24307573 -0.47044247 C146.64140731 -0.47696433 152.03939061 -0.49230597 157.43761063 -0.52865028 C162.51836148 -0.56258015 167.59862049 -0.57305894 172.67947388 -0.56553841 C174.54432218 -0.56691429 176.40918687 -0.57686465 178.27393723 -0.59602737 C180.82105629 -0.62091905 183.36632037 -0.61492028 185.91348267 -0.60127258 C187.01953305 -0.62311889 187.01953305 -0.62311889 188.14792788 -0.64540654 C191.80393994 -0.59248352 194.49610859 -0.05197839 197.46031189 2.03731537 C200.61295598 5.71504657 200.83040663 8.36814906 200.7215271 13.00422668 C200.72665365 13.80479152 200.7317802 14.60535635 200.7370621 15.43018073 C200.74693824 18.11028184 200.71396095 20.78812451 200.68115234 23.46801758 C200.67945976 25.38991238 200.68041017 27.31181107 200.68380737 29.23370361 C200.68553004 34.45052286 200.65023572 39.66651566 200.60836363 44.88314271 C200.57087507 50.33503173 200.56733274 55.78693936 200.56021118 61.23893738 C200.54155687 71.56270822 200.4923117 81.88609818 200.43211424 92.20970124 C200.36506751 103.96286501 200.33206468 115.7160469 200.30194163 127.46935427 C200.23921323 151.64649604 200.12917302 175.82311563 200 200 C183.5 200 167 200 150 200 C149.34 196.7 148.68 193.4 148 190 C144.09665575 176.06783869 137.04321701 165.05976647 124.44921875 157.4609375 C111.15518319 150.56175668 97.66566159 149.57396135 83.33984375 153.78125 C71.61370481 157.98598607 61.8391819 167.11433956 56.125 178.125 C52.834164 185.2789913 51.55668149 192.21659254 50 200 C33.5 200 17 200 0 200 C0 183.5 0 167 0 150 C-3.3 150 -6.6 150 -10 150 C-22.71393105 147.51282758 -34.59401514 139.95130274 -41.875 129.2421875 C-50.15886006 115.74639882 -52.2102699 102.03807715 -49.34375 86.42578125 C-44.99520206 72.0868193 -35.96716035 61.66961252 -23.05078125 54.51171875 C-15.09679341 50.5703701 -9.17017213 50 0 50 C0 33.5 0 17 0 0 Z " fill="#FEAEAE" transform="translate(50,50)"/>
<path d="M0 0 C25.19084 -0.11284041 50.38147557 -0.20495707 75.57250404 -0.25906086 C87.26896839 -0.28484919 98.96526464 -0.32001197 110.66162109 -0.37719727 C120.85544044 -0.4270127 131.04913805 -0.45928643 141.24307573 -0.47044247 C146.64140731 -0.47696433 152.03939061 -0.49230597 157.43761063 -0.52865028 C162.51836148 -0.56258015 167.59862049 -0.57305894 172.67947388 -0.56553841 C174.54432218 -0.56691429 176.40918687 -0.57686465 178.27393723 -0.59602737 C180.82105629 -0.62091905 183.36632037 -0.61492028 185.91348267 -0.60127258 C187.01953305 -0.62311889 187.01953305 -0.62311889 188.14792788 -0.64540654 C191.80393994 -0.59248352 194.49610859 -0.05197839 197.46031189 2.03731537 C200.61295598 5.71504657 200.83040663 8.36814906 200.7215271 13.00422668 C200.72665365 13.80479152 200.7317802 14.60535635 200.7370621 15.43018073 C200.74693824 18.11028184 200.71396095 20.78812451 200.68115234 23.46801758 C200.67945976 25.38991238 200.68041017 27.31181107 200.68380737 29.23370361 C200.68553004 34.45052286 200.65023572 39.66651566 200.60836363 44.88314271 C200.57087507 50.33503173 200.56733274 55.78693936 200.56021118 61.23893738 C200.54155687 71.56270822 200.4923117 81.88609818 200.43211424 92.20970124 C200.36506751 103.96286501 200.33206468 115.7160469 200.30194163 127.46935427 C200.23921323 151.64649604 200.12917302 175.82311563 200 200 C183.5 200 167 200 150 200 C149.34 196.7 148.68 193.4 148 190 C144.09665575 176.06783869 137.04321701 165.05976647 124.44921875 157.4609375 C111.15518319 150.56175668 97.66566159 149.57396135 83.33984375 153.78125 C71.61370481 157.98598607 61.8391819 167.11433956 56.125 178.125 C52.834164 185.2789913 51.55668149 192.21659254 50 200 C33.5 200 17 200 0 200 C0 183.5 0 167 0 150 C-3.3 150 -6.6 150 -10 150 C-22.71393105 147.51282758 -34.59401514 139.95130274 -41.875 129.2421875 C-50.15886006 115.74639882 -52.2102699 102.03807715 -49.34375 86.42578125 C-44.99520206 72.0868193 -35.96716035 61.66961252 -23.05078125 54.51171875 C-15.09679341 50.5703701 -9.17017213 50 0 50 C0 33.5 0 17 0 0 Z M5 5 C5 21.5 5 38 5 55 C0.71 55 -3.58 55 -8 55 C-21.46721905 58.40081289 -32.20811917 65.50897899 -39.53515625 77.515625 C-45.22434838 88.33006602 -47.10400243 100.2077099 -43.875 112.1875 C-39.76991249 123.81539905 -33.14822765 133.64913961 -22.31640625 139.90234375 C-12.81686699 144.40381176 -5.78885154 145 5 145 C5 161.5 5 178 5 195 C18.2 195 31.4 195 45 195 C46.32 190.38 47.64 185.76 49 181 C55.41673464 166.0773613 65.562611 154.94613565 80.8125 148.77734375 C95.52695264 143.5484579 111.1726276 144.93410213 125.22265625 151.5078125 C137.30108069 158.07383337 145.55014566 167.41982231 151 180 C152.98 187.425 152.98 187.425 155 195 C168.2 195 181.4 195 195 195 C195.06766323 170.67003788 195.12295042 146.34015167 195.15543652 122.01011944 C195.17091981 110.71382471 195.19203723 99.4175925 195.22631836 88.12133789 C195.25617598 78.27803422 195.27556435 68.4347758 195.28226548 58.5914281 C195.28618392 53.37717101 195.29542306 48.16304342 195.31719017 42.94882774 C195.3374979 38.0446344 195.34384541 33.14062437 195.33932304 28.23639297 C195.34015081 26.43319135 195.34615038 24.62998382 195.35761642 22.82681847 C195.37247135 20.37098675 195.36897957 17.9158535 195.36076355 15.46000671 C195.36950207 14.74113791 195.3782406 14.0222691 195.38724393 13.28161639 C195.36262915 10.57266357 195.25068185 8.46128205 193.9437027 6.0562973 C190.91820517 4.41210301 187.89525951 4.59845004 184.53999329 4.63923645 C183.77380572 4.63667318 183.00761815 4.6341099 182.21821278 4.63146895 C179.64306588 4.62651558 177.06850136 4.64304922 174.4934082 4.65942383 C172.65062473 4.66026977 170.80784025 4.65979561 168.96505737 4.65809631 C163.95497612 4.65723364 158.94510923 4.67490346 153.93507791 4.69581819 C148.70202479 4.71453963 143.46896706 4.71633184 138.23588562 4.71989441 C128.32300875 4.72922822 118.41023084 4.75386007 108.4973976 4.78394288 C97.21339704 4.81744535 85.92939181 4.83396244 74.64535391 4.84902918 C51.4301684 4.88040847 28.21511858 4.93543722 5 5 Z " fill="#FFFEFE" transform="translate(50,50)"/>
<path d="M0 0 C0.33 3.63 0.66 7.26 1 11 C2.051875 10.7525 3.10375 10.505 4.1875 10.25 C8 10 8 10 10.875 11.8125 C13.57080427 14.58759263 13.94562194 15.42359261 14.3125 19.3125 C13.95124058 23.57536111 12.98007946 25.01992054 10 28 C5.81537205 30.09231398 0.67855628 29 -4 29 C-4 20.42 -4 11.84 -4 3 C-4.99 3 -5.98 3 -7 3 C-7 2.34 -7 1.68 -7 1 C-4 0 -4 0 0 0 Z " fill="#140E0E" transform="translate(197,132)"/>
<path d="M0 0 C3.63 0 7.26 0 11 0 C10.34 0.66 9.68 1.32 9 2 C8.53993654 4.20250992 8.53993654 4.20250992 8.375 6.625 C8.25125 8.06875 8.1275 9.5125 8 11 C11.96 11 15.92 11 20 11 C19.87625 9.55625 19.7525 8.1125 19.625 6.625 C19.55539063 5.81289062 19.48578125 5.00078125 19.4140625 4.1640625 C19.17107412 1.79665809 19.17107412 1.79665809 17 0 C20.63 0 24.26 0 28 0 C27.01 0.66 26.02 1.32 25 2 C24.49223956 4.21932277 24.49223956 4.21932277 24.48828125 6.7890625 C24.45283203 7.73007813 24.41738281 8.67109375 24.38085938 9.640625 C24.35830078 10.62546875 24.33574219 11.6103125 24.3125 12.625 C24.27833984 13.61757812 24.24417969 14.61015625 24.20898438 15.6328125 C24.12634343 18.08842906 24.05724873 20.54368141 24 23 C25.32 23.33 26.64 23.66 28 24 C28 24.33 28 24.66 28 25 C24.37 25 20.74 25 17 25 C17 24.34 17 23.68 17 23 C17.99 23 18.98 23 20 23 C20 19.7 20 16.4 20 13 C16.04 13 12.08 13 8 13 C8 16.3 8 19.6 8 23 C8.99 23 9.98 23 11 23 C11 23.66 11 24.32 11 25 C7.37 25 3.74 25 0 25 C0 24.34 0 23.68 0 23 C0.99 22.67 1.98 22.34 3 22 C3.08685287 18.70849875 3.14033895 15.4172904 3.1875 12.125 C3.21263672 11.18785156 3.23777344 10.25070313 3.26367188 9.28515625 C3.27333984 8.38925781 3.28300781 7.49335938 3.29296875 6.5703125 C3.3086792 5.74289551 3.32438965 4.91547852 3.34057617 4.06298828 C3.22818604 3.38220215 3.1157959 2.70141602 3 2 C2.01 1.34 1.02 0.68 0 0 Z " fill="#1C1313" transform="translate(137,136)"/>
<path d="M0 0 C2.5625 1.125 2.5625 1.125 4 3 C4.25 6.1875 4.25 6.1875 4 9 C2.35 9.33 0.7 9.66 -1 10 C-1 7.66666667 -1 5.33333333 -1 3 C-6.32170494 2.70437633 -6.32170494 2.70437633 -11 5 C-12.7461469 10.2384407 -12.70837957 15.73318539 -11.0625 21 C-7.90718887 24.05969564 -4.25395925 24.40248371 0 25 C-0.25561323 22.6568787 -0.59270772 20.32156597 -1 18 C-1.66 17.67 -2.32 17.34 -3 17 C-3 16.34 -3 15.68 -3 15 C0.3 15 3.6 15 7 15 C7 15.66 7 16.32 7 17 C6.01 17 5.02 17 4 17 C4 19.64 4 22.28 4 25 C-0.35326281 27.47210173 -4.09245574 27.5452827 -9 27 C-12.49384502 25.77068416 -14.39579206 24.66462873 -16.875 21.9375 C-18.54213392 17.5844281 -18.66348931 13.60019256 -18 9 C-14.06533636 0.98494444 -8.52189513 -1.14473218 0 0 Z " fill="#120C0C" transform="translate(101,135)"/>
<path d="M0 0 C0.33 4.95 0.66 9.9 1 15 C2.65 15 4.3 15 6 15 C7.73956658 13.26043342 7.37190386 10.8063378 7.5625 8.4375 C7.64628906 7.42558594 7.73007813 6.41367188 7.81640625 5.37109375 C7.87699219 4.58863281 7.93757812 3.80617187 8 3 C7.01 2.67 6.02 2.34 5 2 C7.64738916 0.5393715 8.89448334 0 12 0 C12 5.28 12 10.56 12 16 C13.32 16 14.64 16 16 16 C16 16.66 16 17.32 16 18 C12.66666667 18 9.33333333 18 6 18 C5.071875 18.05220703 5.071875 18.05220703 4.125 18.10546875 C3.42375 18.13253906 2.7225 18.15960938 2 18.1875 C1.29875 18.22230469 0.5975 18.25710937 -0.125 18.29296875 C-0.74375 18.19628906 -1.3625 18.09960938 -2 18 C-4.7053346 13.9419981 -4.42431991 10.49840187 -4.65625 5.71484375 C-4.73671388 2.85483144 -4.73671388 2.85483144 -7 1 C-4 0 -4 0 0 0 Z " fill="#1B1212" transform="translate(174,143)"/>
<path d="M0 0 C3.63 0 7.26 0 11 0 C10.01 0.66 9.02 1.32 8 2 C7.49223956 4.21932277 7.49223956 4.21932277 7.48828125 6.7890625 C7.45283203 7.73007813 7.41738281 8.67109375 7.38085938 9.640625 C7.35830078 10.62546875 7.33574219 11.6103125 7.3125 12.625 C7.27833984 13.61757812 7.24417969 14.61015625 7.20898438 15.6328125 C7.12634343 18.08842906 7.05724873 20.54368141 7 23 C8.32 23.33 9.64 23.66 11 24 C11 24.33 11 24.66 11 25 C7.37 25 3.74 25 0 25 C0 24.34 0 23.68 0 23 C0.99 23 1.98 23 3 23 C3 19.7 3 16.4 3 13 C-0.96 13 -4.92 13 -9 13 C-9 12.67 -9 12.34 -9 12 C-5.04 12 -1.08 12 3 12 C2.814375 9.586875 2.814375 9.586875 2.625 7.125 C2.55539063 6.22007812 2.48578125 5.31515625 2.4140625 4.3828125 C2.20431868 1.82058097 2.20431868 1.82058097 0 0 Z " fill="#080505" transform="translate(154,136)"/>
<path d="M0 0 C3.125 0.375 3.125 0.375 5.0625 2.4375 C6.42758643 6.21156247 6.12596139 8.51414892 5.125 12.375 C3.875 14.375 3.875 14.375 2.125 15.375 C-2.29605263 14.95394737 -2.29605263 14.95394737 -3.875 13.375 C-3.97373816 11.37700428 -4.00471799 9.37542842 -4 7.375 C-4.00257813 6.281875 -4.00515625 5.18875 -4.0078125 4.0625 C-3.82383866 0.33973524 -3.71532718 0.48460789 0 0 Z " fill="#F9ABAB" transform="translate(200.875,144.625)"/>
<path d="M0 0 C0.33 0 0.66 0 1 0 C1.33 3.63 1.66 7.26 2 11 C3.051875 10.7525 4.10375 10.505 5.1875 10.25 C9 10 9 10 11.875 11.8125 C14.57080427 14.58759263 14.94562194 15.42359261 15.3125 19.3125 C14.95409018 23.54173592 13.90381772 25.00543798 11 28 C9.68 27.67 8.36 27.34 7 27 C7.66 27 8.32 27 9 27 C9.2236337 25.58566794 9.42826476 24.16832382 9.625 22.75 C9.74101562 21.96109375 9.85703125 21.1721875 9.9765625 20.359375 C10.00319395 17.67847541 9.36592084 16.27305911 8 14 C6.2984375 14.0309375 6.2984375 14.0309375 4.5625 14.0625 C1 14 1 14 0 13 C-0.07258946 10.81360547 -0.08373783 8.62499611 -0.0625 6.4375 C-0.05347656 5.23996094 -0.04445312 4.04242188 -0.03515625 2.80859375 C-0.02355469 1.88175781 -0.01195312 0.95492187 0 0 Z " fill="#281B1B" transform="translate(196,132)"/>
<path d="M0 0 C0 1.65 0 3.3 0 5 C1.65 5 3.3 5 5 5 C3.68 5.33 2.36 5.66 1 6 C1.33 10.95 1.66 15.9 2 21 C3.32 21 4.64 21 6 21 C6 21.66 6 22.32 6 23 C0.55752212 24.33038348 0.55752212 24.33038348 -1.6875 23 C-3.693425 19.94335238 -3.31578606 16.83543259 -3.1875 13.3125 C-3.16719727 12.2596582 -3.16719727 12.2596582 -3.14648438 11.18554688 C-3.11120182 9.45670171 -3.05739583 7.72825235 -3 6 C-3.99 5.67 -4.98 5.34 -6 5 C-1.125 0 -1.125 0 0 0 Z " fill="#140E0E" transform="translate(127,138)"/>
<path d="M0 0 C0 5.94 0 11.88 0 18 C0.66 18.33 1.32 18.66 2 19 C-0.97 19 -3.94 19 -7 19 C-6.34 18.34 -5.68 17.68 -5 17 C-4.69940057 14.63490639 -4.50484988 12.25558119 -4.375 9.875 C-4.30023438 8.59367188 -4.22546875 7.31234375 -4.1484375 5.9921875 C-4.09945312 5.00476563 -4.05046875 4.01734375 -4 3 C-4.99 3 -5.98 3 -7 3 C-7 2.34 -7 1.68 -7 1 C-4.50935112 0.31292445 -2.62113708 0 0 0 Z " fill="#1F1515" transform="translate(117,142)"/>
<path d="M0 0 C3.3 0 6.6 0 10 0 C10 0.66 10 1.32 10 2 C9.01 2 8.02 2 7 2 C7 4.64 7 7.28 7 10 C3.93753253 11.78409802 1.77920727 12.22880021 -1.75 12.125 C-2.54921875 12.10695312 -3.3484375 12.08890625 -4.171875 12.0703125 C-4.77515625 12.04710937 -5.3784375 12.02390625 -6 12 C-4 10 -4 10 -0.375 9.875 C1.295625 9.936875 1.295625 9.936875 3 10 C2.74438677 7.6568787 2.40729228 5.32156597 2 3 C1.34 2.67 0.68 2.34 0 2 C0 1.34 0 0.68 0 0 Z " fill="#281B1B" transform="translate(98,150)"/>
<path d="M0 0 C2.5625 1.125 2.5625 1.125 4 3 C4.25 6.1875 4.25 6.1875 4 9 C2.35 9.33 0.7 9.66 -1 10 C-1 7.66666667 -1 5.33333333 -1 3 C-7.22297833 2.75596163 -10.84599161 3.56399441 -16 7 C-15.0195412 4.41515408 -14.06077857 3.05156969 -11.9375 1.25 C-7.8860425 -0.47402447 -4.34175918 -0.58322138 0 0 Z " fill="#140E0E" transform="translate(101,135)"/>
<path d="M0 0 C0 0.33 0 0.66 0 1 C-0.60328125 1.10957031 -1.2065625 1.21914062 -1.828125 1.33203125 C-7.93684987 2.50797128 -7.93684987 2.50797128 -13 6 C-11.97431136 3.29591177 -11.02736589 2.02204475 -8.75 0.1875 C-5.38129749 -1.26716699 -3.50164762 -0.89577032 0 0 Z " fill="#2D1E1E" transform="translate(98,136)"/>
<path d="M0 0 C1.98 0.495 1.98 0.495 4 1 C3.67 2.32 3.34 3.64 3 5 C1.68 4.67 0.36 4.34 -1 4 C-0.67 2.68 -0.34 1.36 0 0 Z " fill="#191111" transform="translate(113,133)"/>
</svg>
