<?xml version="1.0" encoding="UTF-8"?>
<svg version="1.1" xmlns="http://www.w3.org/2000/svg" width="300" height="300">
<path d="M0 0 C9.03404827 7.17773698 14.57382846 17.8681541 17 29 C17 32.3 17 35.6 17 39 C33.5 39 50 39 67 39 C67 105 67 171 67 239 C50.5 239 34 239 17 239 C16.34 235.7 15.68 232.4 15 229 C11.09665575 215.06783869 4.04321701 204.05976647 -8.55078125 196.4609375 C-21.84481681 189.56175668 -35.33433841 188.57396135 -49.66015625 192.78125 C-61.38629519 196.98598607 -71.1608181 206.11433956 -76.875 217.125 C-80.165836 224.2789913 -81.44331851 231.21659254 -83 239 C-99.5 239 -116 239 -133 239 C-133 222.5 -133 206 -133 189 C-128.05 188.01 -128.05 188.01 -123 187 C-109.06783869 183.09665575 -98.05976647 176.04321701 -90.4609375 163.44921875 C-83.56175668 150.15518319 -82.57396135 136.66566159 -86.78125 122.33984375 C-90.98598607 110.61370481 -100.11433956 100.8391819 -111.125 95.125 C-118.2789913 91.834164 -125.21659254 90.55668149 -133 89 C-133 72.5 -133 56 -133 39 C-116.5 39 -100 39 -83 39 C-83 35.7 -83 32.4 -83 29 C-80.51282758 16.28606895 -72.95130274 4.40598486 -62.2421875 -2.875 C-42.02813983 -15.28259959 -19.10015538 -14.22674014 0 0 Z " fill="#9ED0FD" transform="translate(183,11)"/>
<path d="M0 0 C9.03404827 7.17773698 14.57382846 17.8681541 17 29 C17 32.3 17 35.6 17 39 C33.5 39 50 39 67 39 C67 105 67 171 67 239 C50.5 239 34 239 17 239 C16.34 235.7 15.68 232.4 15 229 C11.09665575 215.06783869 4.04321701 204.05976647 -8.55078125 196.4609375 C-21.84481681 189.56175668 -35.33433841 188.57396135 -49.66015625 192.78125 C-61.38629519 196.98598607 -71.1608181 206.11433956 -76.875 217.125 C-80.165836 224.2789913 -81.44331851 231.21659254 -83 239 C-99.5 239 -116 239 -133 239 C-133 222.5 -133 206 -133 189 C-128.05 188.01 -128.05 188.01 -123 187 C-109.06783869 183.09665575 -98.05976647 176.04321701 -90.4609375 163.44921875 C-83.56175668 150.15518319 -82.57396135 136.66566159 -86.78125 122.33984375 C-90.98598607 110.61370481 -100.11433956 100.8391819 -111.125 95.125 C-118.2789913 91.834164 -125.21659254 90.55668149 -133 89 C-133 72.5 -133 56 -133 39 C-116.5 39 -100 39 -83 39 C-83 35.7 -83 32.4 -83 29 C-80.51282758 16.28606895 -72.95130274 4.40598486 -62.2421875 -2.875 C-42.02813983 -15.28259959 -19.10015538 -14.22674014 0 0 Z M-69.24609375 11.609375 C-76.94940333 22.109209 -78 30.94976355 -78 44 C-94.5 44 -111 44 -128 44 C-128 57.2 -128 70.4 -128 84 C-122.39 85.65 -116.78 87.3 -111 89 C-96.28356566 96.35821717 -86.77760827 106.67120551 -80.8359375 122.00390625 C-76.34120477 137.44142286 -78.56347317 153.28783669 -86.1875 167.3125 C-96.44080602 183.64827568 -109.5049409 188.56027674 -128 194 C-128 207.2 -128 220.4 -128 234 C-114.8 234 -101.6 234 -88 234 C-86.68 229.38 -85.36 224.76 -84 220 C-77.58326536 205.0773613 -67.437389 193.94613565 -52.1875 187.77734375 C-37.47304736 182.5484579 -21.8273724 183.93410213 -7.77734375 190.5078125 C4.30108069 197.07383337 12.55014566 206.41982231 18 219 C19.98 226.425 19.98 226.425 22 234 C35.2 234 48.4 234 62 234 C62 171.3 62 108.6 62 44 C45.5 44 29 44 12 44 C12 39.71 12 35.42 12 31 C8.59199049 17.50428235 1.48700838 6.87148708 -10.48046875 -0.53515625 C-31.31722479 -11.61578776 -54.24476615 -6.21038385 -69.24609375 11.609375 Z " fill="#FDFEFF" transform="translate(183,11)"/>
<path d="M0 0 C0.01981934 0.71655762 0.03963867 1.43311523 0.06005859 2.17138672 C0.15509519 5.4063063 0.26486019 8.64056094 0.375 11.875 C0.4059375 13.00292969 0.436875 14.13085938 0.46875 15.29296875 C0.50742188 16.36933594 0.54609375 17.44570312 0.5859375 18.5546875 C0.63306885 20.04718018 0.63306885 20.04718018 0.68115234 21.56982422 C0.77247083 24.17854517 0.77247083 24.17854517 3 26 C0.58145554 26.13536629 -1.82949783 26.23420279 -4.25 26.3125 C-4.93191406 26.35439453 -5.61382812 26.39628906 -6.31640625 26.43945312 C-10.12282954 26.53184204 -11.6513359 26.33145298 -14.453125 23.66796875 C-16.35111655 20.39441261 -16.62125796 18.72754774 -16 15 C-14.4375 12.1875 -14.4375 12.1875 -12 10 C-5.93023256 8.53488372 -5.93023256 8.53488372 -3 10 C-3.32960216 4.98464948 -3.32960216 4.98464948 -6 1 C-4 0 -4 0 0 0 Z " fill="#040507" transform="translate(238,105)"/>
<path d="M0 0 C0.7734375 0.00386719 1.546875 0.00773438 2.34375 0.01171875 C4.5 0.3125 4.5 0.3125 7.5 2.3125 C7.5 3.6325 7.5 4.9525 7.5 6.3125 C5.85 6.6425 4.2 6.9725 2.5 7.3125 C2.5 5.6625 2.5 4.0125 2.5 2.3125 C0.85 2.3125 -0.8 2.3125 -2.5 2.3125 C-2.5 3.9625 -2.5 5.6125 -2.5 7.3125 C-1.56027344 7.80169922 -1.56027344 7.80169922 -0.6015625 8.30078125 C0.21570313 8.73777344 1.03296875 9.17476562 1.875 9.625 C2.68710938 10.05425781 3.49921875 10.48351562 4.3359375 10.92578125 C6.5 12.3125 6.5 12.3125 8.5 15.3125 C8.4375 18.3125 8.4375 18.3125 7.5 21.3125 C4.78597396 23.63880803 2.97993368 24.25373261 -0.5625 24.6875 C-3.78721541 24.2758342 -5.14125519 23.4898029 -7.5 21.3125 C-7.17 19.6625 -6.84 18.0125 -6.5 16.3125 C-5.51 16.6425 -4.52 16.9725 -3.5 17.3125 C-3.5 18.6325 -3.5 19.9525 -3.5 21.3125 C-1.52 21.3125 0.46 21.3125 2.5 21.3125 C2.83 19.6625 3.16 18.0125 3.5 16.3125 C2.78972656 15.96058594 2.07945312 15.60867187 1.34765625 15.24609375 C-6.18398777 11.20034387 -6.18398777 11.20034387 -7.8125 6.625 C-7.5 3.3125 -7.5 3.3125 -6.26171875 1.625 C-4.02962729 -0.03793288 -2.75887589 -0.05977564 0 0 Z " fill="#11171C" transform="translate(173.5,148.6875)"/>
<path d="M0 0 C0.78503906 0.00386719 1.57007813 0.00773438 2.37890625 0.01171875 C4.4375 0.3125 4.4375 0.3125 6.4375 2.3125 C6.0625 4.9375 6.0625 4.9375 5.4375 7.3125 C4.4475 7.3125 3.4575 7.3125 2.4375 7.3125 C2.4375 5.6625 2.4375 4.0125 2.4375 2.3125 C0.7875 2.3125 -0.8625 2.3125 -2.5625 2.3125 C-2.8925 3.9625 -3.2225 5.6125 -3.5625 7.3125 C-2.85222656 7.65023437 -2.14195312 7.98796875 -1.41015625 8.3359375 C-0.49105469 8.78195313 0.42804688 9.22796875 1.375 9.6875 C2.29152344 10.12835938 3.20804688 10.56921875 4.15234375 11.0234375 C6.4375 12.3125 6.4375 12.3125 7.4375 14.3125 C7.81830215 17.81587981 7.83995078 19.67528626 5.9375 22.6875 C2.44466211 24.95784463 -0.50188356 25.03642137 -4.5625 24.3125 C-7.0625 22.8125 -7.0625 22.8125 -8.5625 21.3125 C-8.2325 19.6625 -7.9025 18.0125 -7.5625 16.3125 C-6.2425 16.6425 -4.9225 16.9725 -3.5625 17.3125 C-3.5625 18.6325 -3.5625 19.9525 -3.5625 21.3125 C-1.5825 21.3125 0.3975 21.3125 2.4375 21.3125 C2.7675 19.6625 3.0975 18.0125 3.4375 16.3125 C2.81101563 15.97476563 2.18453125 15.63703125 1.5390625 15.2890625 C0.72179687 14.84304687 -0.09546875 14.39703125 -0.9375 13.9375 C-2.15566406 13.27621094 -2.15566406 13.27621094 -3.3984375 12.6015625 C-5.5625 11.3125 -5.5625 11.3125 -7.5625 9.3125 C-8.1204096 4.06814972 -8.1204096 4.06814972 -6.328125 1.640625 C-4.08059011 -0.04999859 -2.78633091 -0.0596743 0 0 Z " fill="#080A0D" transform="translate(193.5625,148.6875)"/>
<path d="M0 0 C3.625 0.1875 3.625 0.1875 6.625 2.1875 C7.06640625 5.15625 7.06640625 5.15625 7.1875 8.6875 C7.09376778 13.48156955 7.09376778 13.48156955 9.625 17.1875 C7.14576199 17.21435095 4.6668116 17.23426547 2.1875 17.25 C1.48044922 17.25837891 0.77339844 17.26675781 0.04492188 17.27539062 C-1.76193559 17.28403588 -3.56887603 17.23970011 -5.375 17.1875 C-6.375 16.1875 -6.375 16.1875 -6.625 13.8125 C-6.375 11.1875 -6.375 11.1875 -5.3125 9.375 C-2.38231249 7.57907863 0.2722953 7.99772426 3.625 8.1875 C3.295 6.5375 2.965 4.8875 2.625 3.1875 C0.975 2.8575 -0.675 2.5275 -2.375 2.1875 C-2.375 3.5075 -2.375 4.8275 -2.375 6.1875 C-3.365 6.1875 -4.355 6.1875 -5.375 6.1875 C-4.3073741 0.23929856 -4.3073741 0.23929856 0 0 Z " fill="#1A2229" transform="translate(129.375,113.8125)"/>
<path d="M0 0 C6.6 0 13.2 0 20 0 C20 2.31 20 4.62 20 7 C19.34 7 18.68 7 18 7 C17.67 5.35 17.34 3.7 17 2 C15.35 2 13.7 2 12 2 C12.10962816 5.1257396 12.24031241 8.25024781 12.375 11.375 C12.4059375 12.26445313 12.436875 13.15390625 12.46875 14.0703125 C12.50742188 14.92109375 12.54609375 15.771875 12.5859375 16.6484375 C12.6173584 17.43395996 12.6487793 18.21948242 12.68115234 19.02880859 C12.8399465 21.23002939 12.8399465 21.23002939 15 23 C11.7 23 8.4 23 5 23 C5.66 22.34 6.32 21.68 7 21 C7.36894582 18.96939341 7.36894582 18.96939341 7.4140625 16.6484375 C7.47207031 15.37226562 7.47207031 15.37226562 7.53125 14.0703125 C7.5621875 13.18085937 7.593125 12.29140625 7.625 11.375 C7.66367188 10.4778125 7.70234375 9.580625 7.7421875 8.65625 C7.83659357 6.4377073 7.92216748 4.21917597 8 2 C6.03506426 2.34520448 6.03506426 2.34520448 4 3 C2.71563266 4.9837767 2.71563266 4.9837767 2 7 C1.34 7 0.68 7 0 7 C0 4.69 0 2.38 0 0 Z " fill="#25313C" transform="translate(103,108)"/>
<path d="M0 0 C0.969375 -0.20625 1.93875 -0.4125 2.9375 -0.625 C6 -1 6 -1 8.17578125 0.05859375 C10 2 10 2 10.390625 5.13671875 C10.32101563 6.89435547 10.32101563 6.89435547 10.25 8.6875 C10.21390625 9.86699219 10.1778125 11.04648438 10.140625 12.26171875 C10.07101563 13.61716797 10.07101563 13.61716797 10 15 C10.66 15.33 11.32 15.66 12 16 C9.36 16 6.72 16 4 16 C4.66 15.67 5.32 15.34 6 15 C6 10.71 6 6.42 6 2 C4.02 2.33 2.04 2.66 0 3 C-0.33 6.96 -0.66 10.92 -1 15 C-0.34 15.33 0.32 15.66 1 16 C-1.64 16 -4.28 16 -7 16 C-6.34 15.67 -5.68 15.34 -5 15 C-5 10.71 -5 6.42 -5 2 C-5.66 2 -6.32 2 -7 2 C-7 1.34 -7 0.68 -7 0 C-3.98968256 -0.93423645 -3.13349732 -1.04449911 0 0 Z " fill="#1C252D" transform="translate(208,115)"/>
<path d="M0 0 C1.65 0 3.3 0 5 0 C6.32 2.97 7.64 5.94 9 9 C10.49403054 6.01193893 11.79310745 3.10343799 13 0 C16 1 16 1 17.16796875 3.06640625 C17.50441406 3.89011719 17.84085938 4.71382813 18.1875 5.5625 C18.53167969 6.38878906 18.87585938 7.21507813 19.23046875 8.06640625 C19.48441406 8.70449219 19.73835938 9.34257813 20 10 C20.66 7.03 21.32 4.06 22 1 C21.34 0.67 20.68 0.34 20 0 C22.64 0 25.28 0 28 0 C27.01 0.66 26.02 1.32 25 2 C23.79621248 4.79956115 23.79621248 4.79956115 22.875 8 C21.03797468 13.92405063 21.03797468 13.92405063 20 16 C17 15 17 15 16.05078125 13.15234375 C15.3671875 11.1015625 14.68359375 9.05078125 14 7 C12.68 9.97 11.36 12.94 10 16 C9.01 16 8.02 16 7 16 C6.66226563 15.01257813 6.32453125 14.02515625 5.9765625 13.0078125 C5.52634467 11.71343623 5.07580716 10.41917113 4.625 9.125 C4.29242188 8.14853516 4.29242188 8.14853516 3.953125 7.15234375 C2.93037374 4.23449455 2.21443349 2.21443349 0 0 Z " fill="#0D1115" transform="translate(161,115)"/>
<path d="M0 0 C0.86625 -0.00515625 1.7325 -0.0103125 2.625 -0.015625 C5 0.25 5 0.25 8 2.25 C8.1875 4.875 8.1875 4.875 8 7.25 C6.35 7.58 4.7 7.91 3 8.25 C3 6.27 3 4.29 3 2.25 C-0.43230448 2.51393501 -0.43230448 2.51393501 -4 3.25 C-6.68765626 7.28148439 -6.5648871 10.51491698 -6 15.25 C-4.8410416 17.66869578 -3.87677904 19.37322096 -2 21.25 C1.47256915 21.55867281 3.3872288 21.63701339 6.375 19.75 C6.91125 19.255 7.4475 18.76 8 18.25 C8 21.25 8 21.25 6.4375 22.9375 C3.03486876 24.76968605 0.82148299 24.71121346 -3 24.25 C-7.02264445 22.12482935 -9.31929919 20.46717129 -11 16.25 C-11.59269481 11.94718966 -11.46581833 8.29254578 -9.6875 4.3125 C-6.72641758 0.69339926 -4.50518487 -0.02681658 0 0 Z " fill="#0C1014" transform="translate(154,148.75)"/>
<path d="M0 0 C1 1 1 1 1.1328125 3.46875 C1.13023437 4.4690625 1.12765625 5.469375 1.125 6.5 C1.12757813 7.5003125 1.13015625 8.500625 1.1328125 9.53125 C1 12 1 12 0 13 C-1.99958364 13.04080783 -4.00045254 13.04254356 -6 13 C-8.09065618 9.60268371 -8.42098999 6.95730595 -8 3 C-5.88631201 -0.33740208 -3.77789253 -0.3976729 0 0 Z " fill="#99C9F6" transform="translate(234,116)"/>
<path d="M0 0 C0.01981934 0.71655762 0.03963867 1.43311523 0.06005859 2.17138672 C0.15509519 5.4063063 0.26486019 8.64056094 0.375 11.875 C0.4059375 13.00292969 0.436875 14.13085938 0.46875 15.29296875 C0.50742188 16.36933594 0.54609375 17.44570312 0.5859375 18.5546875 C0.6173584 19.54968262 0.6487793 20.54467773 0.68115234 21.56982422 C0.77247083 24.17854517 0.77247083 24.17854517 3 26 C0.03 26 -2.94 26 -6 26 C-5.34 25.34 -4.68 24.68 -4 24 C-3.68980304 21.80397205 -3.68980304 21.80397205 -3.734375 19.28125 C-3.73179687 18.34925781 -3.72921875 17.41726562 -3.7265625 16.45703125 C-3.73429688 15.48121094 -3.74203125 14.50539063 -3.75 13.5 C-3.74226562 12.52417969 -3.73453125 11.54835938 -3.7265625 10.54296875 C-3.73042969 9.14498047 -3.73042969 9.14498047 -3.734375 7.71875 C-3.73663086 6.86216797 -3.73888672 6.00558594 -3.74121094 5.12304688 C-3.80498428 2.78411453 -3.80498428 2.78411453 -6 1 C-3 0 -3 0 0 0 Z " fill="#020303" transform="translate(157,105)"/>
<path d="M0 0 C-1.37691962 2.75383923 -3.36720042 3.51483101 -6 5 C-5.67 7.97 -5.34 10.94 -5 14 C-3.35 14.33 -1.7 14.66 0 15 C0 15.66 0 16.32 0 17 C-3.25 17.3125 -3.25 17.3125 -7 17 C-9.93307135 14.44296344 -10.86097012 12.83417929 -11.5 9 C-10.88466097 5.30796584 -9.58383614 3.65983132 -7 1 C-4.53721199 -0.231394 -2.7204945 -0.07159196 0 0 Z " fill="#131A20" transform="translate(233,114)"/>
<path d="M0 0 C0.99 0 1.98 0 3 0 C3.01981934 0.59538574 3.03963867 1.19077148 3.06005859 1.80419922 C3.15516126 4.49492153 3.26489842 7.18485148 3.375 9.875 C3.4059375 10.81214844 3.436875 11.74929687 3.46875 12.71484375 C3.50742188 13.61074219 3.54609375 14.50664063 3.5859375 15.4296875 C3.6173584 16.25710449 3.6487793 17.08452148 3.68115234 17.93701172 C3.82599137 20.21986085 3.82599137 20.21986085 6 22 C2.7 22 -0.6 22 -4 22 C-3.01 21.01 -2.02 20.02 -1 19 C-0.49945249 16.88384156 -0.49945249 16.88384156 -0.48828125 14.55078125 C-0.45283203 13.70322266 -0.41738281 12.85566406 -0.38085938 11.98242188 C-0.35830078 11.10134766 -0.33574219 10.22027344 -0.3125 9.3125 C-0.27833984 8.41982422 -0.24417969 7.52714844 -0.20898438 6.60742188 C-0.12654352 4.40507329 -0.05738449 2.20312062 0 0 Z " fill="#050709" transform="translate(112,109)"/>
<path d="M0 0 C0 5.28 0 10.56 0 16 C0.66 16.33 1.32 16.66 2 17 C-0.64 17 -3.28 17 -6 17 C-5.34 16.67 -4.68 16.34 -4 16 C-4 11.71 -4 7.42 -4 3 C-4.66 3 -5.32 3 -6 3 C-6 2.34 -6 1.68 -6 1 C-3 0 -3 0 0 0 Z " fill="#171E25" transform="translate(147,114)"/>
<path d="M0 0 C2.42130331 3.63195496 2.21022785 5.38349348 2.125 9.6875 C2.10695312 10.86699219 2.08890625 12.04648438 2.0703125 13.26171875 C2.03550781 14.61716797 2.03550781 14.61716797 2 16 C2.66 16.33 3.32 16.66 4 17 C1.36 17 -1.28 17 -4 17 C-3.34 16.67 -2.68 16.34 -2 16 C-2 11.71 -2 7.42 -2 3 C-2.66 3 -3.32 3 -4 3 C-4 2.34 -4 1.68 -4 1 C-2.68 0.67 -1.36 0.34 0 0 Z " fill="#12171C" transform="translate(205,114)"/>
<path d="M0 0 C0.04898438 1.05960937 0.09796875 2.11921875 0.1484375 3.2109375 C0.22346709 4.59898497 0.29901485 5.98700451 0.375 7.375 C0.4059375 8.07367188 0.436875 8.77234375 0.46875 9.4921875 C0.59499498 13.70185827 0.59499498 13.70185827 3 17 C0.03 17 -2.94 17 -6 17 C-5.34 16.34 -4.68 15.68 -4 15 C-3.53603307 12.10776497 -3.53603307 12.10776497 -3.375 8.875 C-3.30023438 7.77929688 -3.22546875 6.68359375 -3.1484375 5.5546875 C-3.09945312 4.71164063 -3.05046875 3.86859375 -3 3 C-3.99 3 -4.98 3 -6 3 C-6 2.34 -6 1.68 -6 1 C-3 0 -3 0 0 0 Z " fill="#080B0E" transform="translate(196,114)"/>
<path d="M0 0 C1.98 0.495 1.98 0.495 4 1 C4 2.32 4 3.64 4 5 C6.31 5.66 8.62 6.32 11 7 C11 7.33 11 7.66 11 8 C3.61538462 8.36923077 3.61538462 8.36923077 0.5 6.5 C0.005 6.005 -0.49 5.51 -1 5 C-0.67 3.35 -0.34 1.7 0 0 Z " fill="#1D262E" transform="translate(186,165)"/>
<path d="M0 0 C1.66611905 -0.042721 3.33382885 -0.04063832 5 0 C6 1 6 1 6.0625 3.5625 C6.041875 4.366875 6.02125 5.17125 6 6 C3.69 6 1.38 6 -1 6 C-1.33 5.34 -1.66 4.68 -2 4 C-1.34 4 -0.68 4 0 4 C0 2.68 0 1.36 0 0 Z " fill="#95C4EF" transform="translate(127,116)"/>
<path d="M0 0 C-0.33 1.65 -0.66 3.3 -1 5 C-2.65 5.33 -4.3 5.66 -6 6 C-6.33 4.68 -6.66 3.36 -7 2 C-4 0 -4 0 0 0 Z " fill="#93C1EC" transform="translate(133,123)"/>
<path d="M0 0 C0.99 0.33 1.98 0.66 3 1 C2.773125 1.598125 2.54625 2.19625 2.3125 2.8125 C2.209375 3.534375 2.10625 4.25625 2 5 C3.35444301 6.77190909 3.35444301 6.77190909 5 8 C3.00045254 8.04254356 0.99958364 8.04080783 -1 8 C-2 7 -2 7 -2.1875 4.5625 C-2 2 -2 2 0 0 Z " fill="#080B0D" transform="translate(125,123)"/>
<path d="M0 0 C2.64 0 5.28 0 8 0 C7.01 0.66 6.02 1.32 5 2 C3.98675674 4.40972598 3.98675674 4.40972598 3.3125 7.125 C3.06113281 8.03507812 2.80976563 8.94515625 2.55078125 9.8828125 C2.36902344 10.58148438 2.18726563 11.28015625 2 12 C1.01 11.67 0.02 11.34 -1 11 C-0.690625 10.46375 -0.38125 9.9275 -0.0625 9.375 C1.17827439 6.6015043 1.5909675 3.99957163 2 1 C1.34 0.67 0.68 0.34 0 0 Z " fill="#192028" transform="translate(181,115)"/>
<path d="M0 0 C1.98 0.495 1.98 0.495 4 1 C4 2.32 4 3.64 4 5 C2.35 5.33 0.7 5.66 -1 6 C-0.67 4.02 -0.34 2.04 0 0 Z " fill="#1D262F" transform="translate(177,150)"/>
<path d="M0 0 C-1.51639033 3.03278067 -3.98942599 3.61513595 -7 5 C-7.99 5.33 -8.98 5.66 -10 6 C-7.82304683 0.97626191 -5.41372848 -0.29263397 0 0 Z " fill="#222D37" transform="translate(233,114)"/>
<path d="M0 0 C0.99 0.33 1.98 0.66 3 1 C3 2.32 3 3.64 3 5 C3.66 5.66 4.32 6.32 5 7 C3.35 6.67 1.7 6.34 0 6 C-0.38218767 4.34385343 -0.71395102 2.67542976 -1 1 C-0.67 0.67 -0.34 0.34 0 0 Z " fill="#010202" transform="translate(167,165)"/>
<path d="M0 0 C0.66 0.66 1.32 1.32 2 2 C-0.71182212 4.60334924 -1.89133813 4.99456691 -5.75 5.1875 C-6.8225 5.125625 -7.895 5.06375 -9 5 C-9 4.67 -9 4.34 -9 4 C-7.88625 3.71125 -6.7725 3.4225 -5.625 3.125 C-1.99708908 2.30758671 -1.99708908 2.30758671 0 0 Z " fill="#151C22" transform="translate(161,167)"/>
<path d="M0 0 C2.97 0 5.94 0 9 0 C8.34 0.66 7.68 1.32 7 2 C5.33333333 2 3.66666667 2 2 2 C-0.25132517 2.91568906 -0.25132517 2.91568906 -2 4 C-1.34 2.68 -0.68 1.36 0 0 Z " fill="#090D0F" transform="translate(169,149)"/>
</svg>
