<svg width="125" height="100" viewBox="0 0 125 100" fill="none" xmlns="http://www.w3.org/2000/svg">
<mask id="path-1-inside-1_2_17" fill="white">
<path fill-rule="evenodd" clip-rule="evenodd" d="M100 100H0V75C13.8071 75 25 63.8071 25 50C25 36.1929 13.8071 25 0 25V0H100V25C113.807 25 125 36.1929 125 50C125 63.8071 113.807 75 100 75V100Z"/>
</mask>
<path fill-rule="evenodd" clip-rule="evenodd" d="M100 100H0V75C13.8071 75 25 63.8071 25 50C25 36.1929 13.8071 25 0 25V0H100V25C113.807 25 125 36.1929 125 50C125 63.8071 113.807 75 100 75V100Z" fill="#CCFFCC"/>
<path d="M0 100H-2V102H0V100ZM100 100V102H102V100H100ZM0 75V73H-2V75H0ZM0 25H-2V27H0V25ZM0 0V-2H-2V0H0ZM100 0H102V-2H100V0ZM100 25H98V27H100V25ZM100 75V73H98V75H100ZM0 102H100V98H0V102ZM-2 75V100H2V75H-2ZM23 50C23 62.7025 12.7026 73 0 73V77C14.9117 77 27 64.9117 27 50H23ZM0 27C12.7026 27 23 37.2975 23 50H27C27 35.0883 14.9117 23 0 23V27ZM-2 0V25H2V0H-2ZM100 -2H0V2H100V-2ZM102 25V0H98V25H102ZM100 27C112.703 27 123 37.2975 123 50H127C127 35.0883 114.912 23 100 23V27ZM123 50C123 62.7025 112.703 73 100 73V77C114.912 77 127 64.9117 127 50H123ZM102 100V75H98V100H102Z" fill="white" mask="url(#path-1-inside-1_2_17)"/>
<path d="M51.592 59.48C50.248 59.48 49.016 59.16 47.896 58.52C46.776 57.88 45.872 56.968 45.184 55.784C44.512 54.6 44.176 53.184 44.176 51.536C44.176 49.904 44.496 48.48 45.136 47.264C45.776 46.032 46.68 45.08 47.848 44.408C49.032 43.72 50.424 43.376 52.024 43.376C52.6 43.376 53.192 43.432 53.8 43.544C54.424 43.656 55 43.848 55.528 44.12C56.056 44.376 56.48 44.72 56.8 45.152C57.136 45.584 57.304 46.12 57.304 46.76C57.32 47.448 57.112 48.056 56.68 48.584C56.248 49.096 55.64 49.352 54.856 49.352C54.376 49.352 54.032 49.24 53.824 49.016C53.632 48.776 53.544 48.6 53.56 48.488C53.56 48.44 53.656 48.36 53.848 48.248C54.056 48.12 54.256 47.936 54.448 47.696C54.656 47.44 54.76 47.104 54.76 46.688C54.76 45.968 54.52 45.4 54.04 44.984C53.56 44.552 52.88 44.336 52 44.336C51.04 44.336 50.176 44.608 49.408 45.152C48.656 45.696 48.064 46.496 47.632 47.552C47.2 48.592 46.984 49.872 46.984 51.392C46.984 52.672 47.208 53.84 47.656 54.896C48.12 55.936 48.76 56.768 49.576 57.392C50.408 58 51.368 58.304 52.456 58.304C53.32 58.304 54.056 58.128 54.664 57.776C55.288 57.408 55.848 56.824 56.344 56.024C56.488 55.752 56.744 55.728 57.112 55.952C57.256 56.048 57.368 56.168 57.448 56.312C57.528 56.44 57.512 56.576 57.4 56.72C56.792 57.488 56.216 58.072 55.672 58.472C55.128 58.856 54.536 59.12 53.896 59.264C53.256 59.408 52.488 59.48 51.592 59.48ZM64.6881 59.48C63.0241 59.48 61.7441 59.192 60.8481 58.616C59.9521 58.024 59.5041 57.16 59.5041 56.024C59.5041 55.448 59.6961 54.976 60.0801 54.608C60.4801 54.224 60.9921 54.032 61.6161 54.032C62.0321 54.048 62.3201 54.152 62.4801 54.344C62.6561 54.536 62.7441 54.68 62.7441 54.776C62.7441 54.808 62.6721 54.864 62.5281 54.944C62.3841 55.008 62.2401 55.136 62.0961 55.328C61.9521 55.504 61.8801 55.784 61.8801 56.168C61.8801 56.888 62.1041 57.464 62.5521 57.896C63.0001 58.312 63.7121 58.52 64.6881 58.52C65.3761 58.52 65.9601 58.392 66.4401 58.136C66.9361 57.864 67.3121 57.52 67.5681 57.104C67.8241 56.672 67.9521 56.232 67.9521 55.784C67.9521 55.112 67.7601 54.56 67.3761 54.128C66.9921 53.696 66.4881 53.328 65.8641 53.024C65.2561 52.704 64.6081 52.4 63.9201 52.112C63.2321 51.824 62.5761 51.496 61.9521 51.128C61.3441 50.76 60.8401 50.304 60.4401 49.76C60.0401 49.2 59.8321 48.504 59.8161 47.672C59.8001 46.664 60.0161 45.848 60.4641 45.224C60.9121 44.584 61.5361 44.12 62.3361 43.832C63.1361 43.528 64.0241 43.376 65.0001 43.376C65.7201 43.376 66.4241 43.48 67.1121 43.688C67.8161 43.896 68.3921 44.224 68.8401 44.672C69.3041 45.104 69.5361 45.68 69.5361 46.4C69.5361 46.976 69.3361 47.456 68.9361 47.84C68.5521 48.208 68.0481 48.392 67.4241 48.392C67.0081 48.36 66.7121 48.256 66.5361 48.08C66.3761 47.888 66.2961 47.744 66.2961 47.648C66.2961 47.6 66.3921 47.544 66.5841 47.48C66.7761 47.4 66.9681 47.272 67.1601 47.096C67.3521 46.904 67.4481 46.624 67.4481 46.256C67.4481 45.648 67.2161 45.184 66.7521 44.864C66.2881 44.528 65.7121 44.36 65.0241 44.36C63.9841 44.36 63.2241 44.608 62.7441 45.104C62.2801 45.584 62.0481 46.128 62.0481 46.736C62.0481 47.328 62.2081 47.808 62.5281 48.176C62.8481 48.544 63.3281 48.904 63.9681 49.256C64.6881 49.64 65.4161 50 66.1521 50.336C66.8881 50.656 67.5681 51.016 68.1921 51.416C68.8321 51.816 69.3441 52.32 69.7281 52.928C70.1121 53.52 70.3041 54.288 70.3041 55.232C70.3041 56.048 70.0481 56.776 69.5361 57.416C69.0401 58.056 68.3681 58.56 67.5201 58.928C66.6721 59.296 65.7281 59.48 64.6881 59.48ZM77.7663 59.48C76.1023 59.48 74.8223 59.192 73.9263 58.616C73.0303 58.024 72.5823 57.16 72.5823 56.024C72.5823 55.448 72.7743 54.976 73.1583 54.608C73.5583 54.224 74.0703 54.032 74.6943 54.032C75.1103 54.048 75.3983 54.152 75.5583 54.344C75.7343 54.536 75.8223 54.68 75.8223 54.776C75.8223 54.808 75.7503 54.864 75.6063 54.944C75.4623 55.008 75.3183 55.136 75.1743 55.328C75.0303 55.504 74.9583 55.784 74.9583 56.168C74.9583 56.888 75.1823 57.464 75.6303 57.896C76.0783 58.312 76.7903 58.52 77.7663 58.52C78.4543 58.52 79.0383 58.392 79.5183 58.136C80.0143 57.864 80.3903 57.52 80.6463 57.104C80.9023 56.672 81.0303 56.232 81.0303 55.784C81.0303 55.112 80.8383 54.56 80.4543 54.128C80.0703 53.696 79.5663 53.328 78.9423 53.024C78.3343 52.704 77.6863 52.4 76.9983 52.112C76.3103 51.824 75.6543 51.496 75.0303 51.128C74.4223 50.76 73.9183 50.304 73.5183 49.76C73.1183 49.2 72.9103 48.504 72.8943 47.672C72.8783 46.664 73.0943 45.848 73.5423 45.224C73.9903 44.584 74.6143 44.12 75.4143 43.832C76.2143 43.528 77.1023 43.376 78.0783 43.376C78.7983 43.376 79.5023 43.48 80.1903 43.688C80.8943 43.896 81.4703 44.224 81.9183 44.672C82.3823 45.104 82.6143 45.68 82.6143 46.4C82.6143 46.976 82.4143 47.456 82.0143 47.84C81.6303 48.208 81.1263 48.392 80.5023 48.392C80.0863 48.36 79.7903 48.256 79.6143 48.08C79.4543 47.888 79.3743 47.744 79.3743 47.648C79.3743 47.6 79.4703 47.544 79.6623 47.48C79.8543 47.4 80.0463 47.272 80.2383 47.096C80.4303 46.904 80.5263 46.624 80.5263 46.256C80.5263 45.648 80.2943 45.184 79.8303 44.864C79.3663 44.528 78.7903 44.36 78.1023 44.36C77.0623 44.36 76.3023 44.608 75.8223 45.104C75.3583 45.584 75.1263 46.128 75.1263 46.736C75.1263 47.328 75.2863 47.808 75.6063 48.176C75.9263 48.544 76.4063 48.904 77.0463 49.256C77.7663 49.64 78.4943 50 79.2303 50.336C79.9663 50.656 80.6463 51.016 81.2703 51.416C81.9103 51.816 82.4223 52.32 82.8063 52.928C83.1903 53.52 83.3823 54.288 83.3823 55.232C83.3823 56.048 83.1263 56.776 82.6143 57.416C82.1183 58.056 81.4463 58.56 80.5983 58.928C79.7503 59.296 78.8063 59.48 77.7663 59.48Z" fill="#001324"/>
</svg>
