<svg id="svg" version="1.1" xmlns="http://www.w3.org/2000/svg" xmlns:xlink="http://www.w3.org/1999/xlink" width="400" height="378.9473684210526" viewBox="0, 0, 400,378.9473684210526"><g id="svgg"><path id="path0" d="M0.000 24.645 C 0.000 47.330,0.234 53.054,0.916 47.026 C 1.057 45.781,1.313 44.676,1.484 44.570 C 1.656 44.464,1.911 43.657,2.052 42.776 C 2.193 41.895,2.448 40.996,2.618 40.777 C 2.789 40.558,3.038 39.921,3.172 39.360 C 3.305 38.800,3.926 37.237,4.551 35.887 C 5.176 34.536,5.687 33.346,5.687 33.240 C 5.687 32.565,10.754 24.700,12.610 22.495 C 15.156 19.470,18.611 15.636,19.405 14.953 C 24.037 10.973,28.006 8.327,32.986 5.899 C 34.550 5.137,36.312 4.265,36.903 3.963 C 37.493 3.660,38.261 3.411,38.609 3.410 C 38.957 3.409,39.697 3.170,40.253 2.880 C 40.810 2.590,41.961 2.234,42.811 2.091 C 43.661 1.947,44.448 1.682,44.559 1.501 C 44.671 1.320,45.781 1.057,47.026 0.916 C 53.054 0.234,47.330 0.000,24.645 0.000 L 0.000 0.000 0.000 24.645 M326.825 57.978 C 326.825 89.867,326.721 116.227,326.595 116.557 C 326.407 117.045,325.697 117.156,322.762 117.156 C 320.781 117.156,318.027 117.400,316.642 117.697 C 315.257 117.994,313.270 118.408,312.227 118.616 C 307.972 119.465,303.299 120.745,301.554 121.541 C 300.897 121.840,300.186 122.085,299.973 122.085 C 299.761 122.085,299.104 122.333,298.514 122.636 C 297.924 122.938,296.161 123.805,294.597 124.562 C 293.033 125.318,291.242 126.262,290.616 126.660 C 289.991 127.057,289.137 127.555,288.720 127.766 C 282.293 131.020,265.782 147.130,265.782 150.148 C 265.782 150.324,265.569 150.700,265.308 150.985 C 264.150 152.252,259.353 161.929,258.772 164.171 C 258.637 164.692,258.294 165.630,258.011 166.256 C 257.728 166.882,257.251 168.332,256.950 169.479 C 256.649 170.626,256.203 172.332,255.958 173.270 C 255.713 174.209,255.353 176.256,255.159 177.820 C 254.964 179.384,254.634 181.346,254.426 182.180 C 253.850 184.484,253.964 194.655,254.597 197.536 C 254.895 198.891,255.145 200.667,255.153 201.483 C 255.165 202.883,255.640 204.923,256.895 208.961 C 257.195 209.927,257.442 210.951,257.443 211.236 C 257.444 211.521,257.684 212.211,257.976 212.771 C 258.268 213.330,258.630 214.348,258.780 215.033 C 258.931 215.718,259.195 216.540,259.368 216.860 C 260.283 218.552,262.370 223.267,262.370 223.642 C 262.370 223.880,262.501 224.076,262.662 224.076 C 262.823 224.076,263.377 224.886,263.894 225.877 C 264.411 226.867,264.928 227.763,265.042 227.867 C 265.156 227.972,265.696 228.825,266.242 229.763 C 266.788 230.701,267.552 231.810,267.940 232.227 C 268.329 232.645,269.060 233.583,269.566 234.313 C 273.028 239.309,284.249 249.273,288.910 251.491 C 289.223 251.640,289.991 252.088,290.616 252.486 C 291.642 253.138,295.611 255.135,298.578 256.490 C 304.334 259.120,317.242 261.996,323.277 261.992 C 325.744 261.991,326.411 262.111,326.595 262.590 C 326.721 262.920,326.825 289.280,326.825 321.168 L 326.825 379.147 363.412 379.147 L 400.000 379.147 400.000 189.573 L 400.000 0.000 363.412 0.000 L 326.825 0.000 326.825 57.978 M0.000 354.502 L 0.000 379.147 24.834 379.147 C 47.692 379.147,53.442 378.913,47.405 378.231 C 46.160 378.090,45.053 377.831,44.945 377.657 C 44.837 377.482,43.978 377.223,43.036 377.082 C 42.094 376.941,40.855 376.581,40.282 376.282 C 39.710 375.984,39.042 375.738,38.798 375.737 C 38.555 375.736,37.872 375.487,37.282 375.184 C 36.692 374.881,34.929 374.017,33.365 373.264 C 31.801 372.511,30.223 371.735,29.858 371.540 C 29.493 371.345,28.952 371.057,28.657 370.900 C 27.787 370.441,23.970 367.800,23.433 367.287 C 23.161 367.027,21.829 365.940,20.474 364.870 C 16.733 361.919,10.205 354.527,8.974 351.848 C 8.830 351.536,8.385 350.768,7.986 350.142 C 7.586 349.517,6.556 347.555,5.696 345.782 C 4.836 344.009,3.992 342.298,3.821 341.978 C 3.649 341.658,3.382 340.805,3.227 340.082 C 3.072 339.359,2.814 338.597,2.653 338.389 C 2.492 338.180,2.241 337.285,2.095 336.400 C 1.949 335.515,1.682 334.699,1.501 334.588 C 1.320 334.476,1.057 333.366,0.916 332.121 C 0.234 326.093,0.000 331.817,0.000 354.502 " stroke="none" fill="#fbfbfb" fill-rule="evenodd"></path><path id="path1" d="M52.576 0.539 C 52.446 0.877,51.550 1.162,50.166 1.307 C 48.954 1.433,47.194 1.789,46.256 2.097 C 45.318 2.405,44.123 2.662,43.602 2.668 C 43.081 2.674,42.323 2.929,41.918 3.235 C 41.513 3.541,40.802 3.791,40.337 3.791 C 39.873 3.791,39.010 4.030,38.419 4.321 C 37.829 4.612,35.640 5.672,33.555 6.678 C 25.725 10.452,16.558 18.107,11.943 24.723 C 9.745 27.875,8.051 30.738,6.608 33.744 C 5.657 35.725,4.634 37.829,4.335 38.419 C 4.036 39.010,3.791 39.873,3.791 40.337 C 3.791 40.802,3.541 41.513,3.235 41.918 C 2.929 42.323,2.673 43.120,2.666 43.689 C 2.659 44.258,2.419 45.367,2.131 46.153 C 1.844 46.940,1.432 48.943,1.216 50.605 C 1.001 52.267,0.639 53.689,0.412 53.765 C -0.179 53.962,-0.173 324.808,0.418 325.005 C 0.648 325.082,1.052 326.759,1.316 328.733 C 1.580 330.707,1.989 332.803,2.225 333.390 C 2.461 333.977,2.659 334.915,2.666 335.475 C 2.673 336.035,2.929 336.824,3.235 337.229 C 3.541 337.634,3.791 338.345,3.791 338.810 C 3.791 339.274,4.030 340.137,4.321 340.728 C 4.612 341.318,5.666 343.507,6.663 345.592 C 12.016 356.787,22.294 367.078,33.365 372.330 C 34.303 372.775,35.524 373.382,36.077 373.679 C 36.631 373.975,37.335 374.218,37.642 374.218 C 37.950 374.218,38.413 374.474,38.673 374.787 C 38.933 375.100,39.593 375.361,40.141 375.369 C 40.689 375.376,41.564 375.626,42.085 375.924 C 42.607 376.222,43.545 376.473,44.171 376.482 C 44.796 376.490,45.797 376.752,46.394 377.064 C 46.991 377.375,48.122 377.630,48.906 377.630 C 51.101 377.630,52.701 378.050,52.701 378.626 C 52.701 379.067,73.664 379.147,189.384 379.147 L 326.066 379.147 326.066 321.160 C 326.066 288.820,325.921 263.083,325.737 262.969 C 325.557 262.858,323.211 262.662,320.524 262.535 C 317.838 262.408,314.760 262.063,313.686 261.768 C 312.611 261.473,311.246 261.226,310.653 261.219 C 310.059 261.211,309.147 260.962,308.626 260.664 C 308.104 260.365,307.166 260.115,306.540 260.106 C 305.915 260.097,304.914 259.835,304.317 259.524 C 303.720 259.212,302.942 258.957,302.588 258.957 C 302.235 258.957,301.615 258.707,301.210 258.401 C 300.805 258.095,300.159 257.839,299.774 257.832 C 299.389 257.825,298.621 257.577,298.068 257.279 C 297.514 256.982,295.697 256.086,294.028 255.289 C 292.360 254.492,290.910 253.750,290.806 253.642 C 290.701 253.533,290.190 253.233,289.668 252.974 C 288.064 252.178,282.930 248.690,281.164 247.196 C 272.013 239.453,267.544 234.142,262.093 224.529 C 261.420 223.341,260.767 222.114,260.642 221.801 C 260.517 221.488,260.172 220.779,259.875 220.226 C 259.579 219.672,259.336 218.968,259.336 218.661 C 259.336 218.354,259.099 217.905,258.809 217.665 C 258.519 217.424,258.197 216.763,258.094 216.196 C 257.895 215.101,257.294 213.306,256.443 211.267 C 256.158 210.582,255.918 209.558,255.911 208.992 C 255.903 208.425,255.653 207.536,255.355 207.014 C 255.057 206.493,254.808 205.458,254.800 204.713 C 254.793 203.969,254.511 202.434,254.174 201.301 C 253.281 198.300,253.281 180.847,254.174 177.846 C 254.511 176.713,254.793 175.178,254.800 174.434 C 254.808 173.689,255.057 172.654,255.355 172.133 C 255.653 171.611,255.903 170.614,255.911 169.916 C 255.918 169.219,256.156 168.195,256.440 167.641 C 257.131 166.296,257.864 164.215,258.094 162.951 C 258.197 162.384,258.519 161.723,258.809 161.482 C 259.099 161.242,259.336 160.812,259.336 160.528 C 259.336 159.127,264.556 150.130,268.219 145.218 C 271.533 140.773,280.229 131.943,281.293 131.943 C 281.520 131.943,281.706 131.780,281.706 131.580 C 281.706 131.380,282.474 130.767,283.412 130.217 C 284.351 129.667,285.118 129.083,285.118 128.918 C 285.118 128.754,285.417 128.516,285.782 128.390 C 286.147 128.264,286.957 127.819,287.583 127.402 C 288.209 126.985,289.147 126.432,289.668 126.173 C 290.190 125.914,290.701 125.614,290.806 125.505 C 290.910 125.396,292.360 124.655,294.028 123.858 C 295.697 123.061,297.514 122.165,298.068 121.868 C 298.621 121.570,299.389 121.322,299.774 121.315 C 300.159 121.308,300.805 121.052,301.210 120.746 C 301.615 120.440,302.297 120.184,302.726 120.178 C 303.156 120.171,303.838 119.915,304.243 119.609 C 304.648 119.303,305.586 119.046,306.328 119.039 C 307.071 119.031,308.104 118.781,308.626 118.483 C 309.147 118.185,310.117 117.936,310.781 117.928 C 311.445 117.921,312.469 117.717,313.056 117.476 C 313.643 117.235,316.768 116.851,320.000 116.623 L 325.877 116.209 325.973 58.104 L 326.069 0.000 189.426 0.000 C 71.723 0.000,52.754 0.075,52.576 0.539 " stroke="none" fill="#949494" fill-rule="evenodd"></path><path id="path2" d="M49.289 0.327 C 49.289 0.507,48.319 0.768,47.134 0.907 C 45.949 1.046,44.797 1.308,44.575 1.487 C 44.352 1.667,43.829 1.912,43.412 2.031 C 42.353 2.334,44.155 2.027,46.256 1.546 C 47.194 1.332,48.602 1.059,49.384 0.940 C 50.865 0.715,51.370 0.000,50.047 0.000 C 49.630 0.000,49.289 0.147,49.289 0.327 M326.533 57.820 C 326.479 89.725,326.303 116.035,326.143 116.287 C 325.966 116.566,324.604 116.794,322.642 116.873 L 319.431 117.002 322.931 117.079 C 326.277 117.153,326.440 117.119,326.637 116.303 C 326.750 115.834,326.795 89.431,326.738 57.630 L 326.633 -0.190 326.533 57.820 M40.190 2.875 C 38.934 3.572,39.762 3.560,41.378 2.858 C 42.215 2.495,42.393 2.312,41.896 2.327 C 41.479 2.339,40.711 2.586,40.190 2.875 M36.777 3.996 C 36.256 4.279,34.550 5.135,32.986 5.898 C 28.001 8.331,24.034 10.976,19.405 14.953 C 18.611 15.636,15.156 19.470,12.610 22.495 C 10.754 24.700,5.687 32.565,5.687 33.240 C 5.687 33.346,5.176 34.536,4.551 35.887 C 3.926 37.237,3.305 38.800,3.172 39.360 C 3.038 39.921,2.789 40.558,2.618 40.777 C 2.448 40.996,2.193 41.895,2.052 42.776 C 1.911 43.657,1.656 44.464,1.484 44.570 C 1.313 44.676,1.057 45.781,0.916 47.026 C 0.776 48.271,0.512 49.289,0.330 49.289 C 0.149 49.289,0.000 49.716,0.000 50.237 C 0.000 51.895,0.703 51.256,0.939 49.384 C 3.318 30.528,17.200 13.514,37.915 4.066 C 38.807 3.659,38.993 3.464,38.483 3.471 C 38.066 3.477,37.299 3.713,36.777 3.996 M315.755 117.357 C 315.645 117.467,314.806 117.704,313.891 117.884 C 312.282 118.200,312.271 118.212,313.555 118.236 C 314.284 118.249,315.735 118.023,316.777 117.734 C 318.622 117.222,318.636 117.207,317.314 117.182 C 316.567 117.168,315.866 117.247,315.755 117.357 M309.005 118.886 C 308.275 119.163,307.336 119.402,306.919 119.418 C 306.502 119.434,304.967 119.882,303.507 120.413 C 302.047 120.944,300.387 121.525,299.817 121.704 C 296.925 122.611,286.317 128.337,284.514 129.964 C 284.117 130.323,283.027 131.128,282.093 131.754 C 279.886 133.231,270.449 142.629,268.957 144.834 C 266.442 148.553,264.432 151.549,263.983 152.250 C 262.351 154.798,258.251 163.741,257.562 166.256 L 257.354 167.014 257.918 166.256 C 258.228 165.839,258.610 164.906,258.768 164.183 C 258.925 163.460,259.190 162.607,259.356 162.287 C 259.522 161.968,260.501 160.000,261.530 157.915 C 263.864 153.187,264.705 151.645,265.308 150.985 C 265.569 150.700,265.782 150.324,265.782 150.148 C 265.782 147.130,282.293 131.020,288.720 127.766 C 289.137 127.555,289.991 127.057,290.616 126.660 C 291.242 126.262,293.033 125.318,294.597 124.562 C 296.161 123.805,297.924 122.938,298.514 122.636 C 299.104 122.333,299.761 122.085,299.973 122.085 C 300.186 122.085,300.897 121.847,301.554 121.557 C 303.108 120.869,306.170 119.937,307.946 119.611 C 310.085 119.218,312.471 118.320,311.280 118.356 C 310.758 118.371,309.735 118.610,309.005 118.886 M256.758 168.574 C 255.571 172.382,254.808 176.611,255.705 174.408 C 256.002 173.678,256.259 172.703,256.274 172.241 C 256.290 171.779,256.570 170.616,256.895 169.657 C 257.221 168.698,257.427 167.730,257.352 167.507 C 257.278 167.284,257.010 167.764,256.758 168.574 M254.706 177.630 C 254.558 178.673,254.345 180.379,254.234 181.422 L 254.031 183.318 254.613 181.043 C 254.934 179.791,255.146 178.085,255.086 177.251 L 254.976 175.735 254.706 177.630 M253.795 189.573 C 253.795 192.180,253.856 193.246,253.930 191.943 C 254.004 190.640,254.004 188.507,253.930 187.204 C 253.856 185.900,253.795 186.967,253.795 189.573 M254.240 197.536 C 254.348 198.682,254.578 200.474,254.751 201.517 L 255.065 203.412 255.099 201.706 C 255.117 200.768,254.888 198.976,254.588 197.725 L 254.043 195.450 254.240 197.536 M255.200 204.171 C 255.188 204.588,255.423 205.611,255.724 206.445 C 256.147 207.621,256.267 207.749,256.258 207.014 C 256.242 205.806,255.233 203.093,255.200 204.171 M256.331 208.720 C 256.328 209.421,257.080 211.755,258.140 214.337 C 258.381 214.925,258.578 215.564,258.578 215.758 C 258.578 216.257,261.859 223.353,262.862 225.024 C 263.113 225.441,263.787 226.516,264.360 227.412 C 264.934 228.309,265.403 229.128,265.403 229.232 C 265.403 230.790,278.437 244.952,282.101 247.373 C 283.031 247.988,284.218 248.858,284.739 249.307 C 286.956 251.216,296.169 256.144,300.284 257.622 C 304.763 259.230,308.350 260.250,311.090 260.694 C 312.069 260.853,312.027 260.803,310.790 260.337 C 309.999 260.038,308.719 259.682,307.946 259.544 C 306.395 259.268,300.367 257.302,298.578 256.488 C 295.692 255.175,291.648 253.142,290.616 252.486 C 289.991 252.088,289.223 251.640,288.910 251.491 C 284.249 249.273,273.028 239.309,269.566 234.313 C 269.060 233.583,268.329 232.645,267.940 232.227 C 267.552 231.810,266.788 230.701,266.242 229.763 C 265.696 228.825,265.156 227.972,265.042 227.867 C 264.928 227.763,264.411 226.867,263.894 225.877 C 263.377 224.886,262.823 224.076,262.662 224.076 C 262.501 224.076,262.370 223.880,262.370 223.642 C 262.370 223.267,260.283 218.552,259.368 216.860 C 259.195 216.540,258.931 215.718,258.780 215.033 C 258.630 214.348,258.268 213.330,257.976 212.771 C 257.684 212.211,257.444 211.475,257.443 211.134 C 257.442 210.793,257.192 209.940,256.887 209.238 C 256.504 208.355,256.332 208.196,256.331 208.720 M313.934 261.266 C 314.872 261.441,316.493 261.675,317.536 261.787 L 319.431 261.991 317.346 261.438 C 316.199 261.134,314.578 260.899,313.744 260.917 L 312.227 260.948 313.934 261.266 M323.791 262.340 L 326.256 262.559 326.447 320.948 L 326.639 379.336 326.732 321.263 C 326.783 289.323,326.721 262.920,326.595 262.590 C 326.413 262.117,325.834 262.004,323.846 262.056 L 321.327 262.121 323.791 262.340 M0.000 328.910 C 0.000 329.431,0.149 329.858,0.330 329.858 C 0.512 329.858,0.776 330.876,0.916 332.121 C 1.057 333.366,1.335 334.485,1.534 334.608 C 1.733 334.731,1.896 335.191,1.896 335.631 C 1.896 336.070,2.008 336.317,2.146 336.179 C 2.284 336.042,2.120 334.947,1.781 333.747 C 1.443 332.546,1.064 330.754,0.939 329.763 C 0.703 327.891,0.000 327.252,0.000 328.910 M2.290 337.324 C 2.282 337.780,2.426 338.248,2.611 338.362 C 2.796 338.476,3.064 339.190,3.206 339.948 C 3.348 340.706,3.615 341.603,3.798 341.942 C 3.982 342.282,4.836 344.009,5.696 345.782 C 6.556 347.555,7.586 349.517,7.986 350.142 C 8.385 350.768,8.830 351.536,8.974 351.848 C 10.205 354.527,16.733 361.919,20.474 364.870 C 21.829 365.940,23.161 367.027,23.433 367.287 C 23.704 367.546,24.856 368.376,25.993 369.130 C 27.129 369.884,28.153 370.655,28.270 370.843 C 28.386 371.031,28.765 371.185,29.113 371.185 C 29.461 371.185,28.852 370.597,27.761 369.877 C 21.692 365.881,13.582 358.158,10.480 353.423 C 8.092 349.777,3.412 340.504,3.412 339.418 C 3.412 338.541,2.305 336.476,2.290 337.324 M30.096 371.489 C 30.217 371.685,31.642 372.475,33.262 373.244 C 34.883 374.014,36.764 374.917,37.443 375.250 C 38.122 375.584,38.762 375.772,38.864 375.670 C 39.068 375.466,38.353 375.078,35.450 373.812 C 34.408 373.358,32.727 372.569,31.715 372.060 C 30.704 371.550,29.975 371.293,30.096 371.489 M40.328 376.306 C 40.925 376.617,41.693 376.865,42.034 376.857 C 42.375 376.849,42.080 376.593,41.378 376.288 C 39.710 375.564,38.930 375.577,40.328 376.306 M43.602 377.150 C 44.123 377.245,44.732 377.473,44.954 377.655 C 45.176 377.837,46.328 378.100,47.513 378.240 C 48.698 378.379,49.668 378.640,49.668 378.820 C 49.668 379.000,50.095 379.147,50.616 379.147 C 52.276 379.147,51.634 378.444,49.763 378.212 C 48.773 378.089,47.094 377.737,46.033 377.430 C 44.972 377.123,43.778 376.895,43.379 376.924 C 42.882 376.959,42.952 377.030,43.602 377.150 " stroke="none" fill="#cccccc" fill-rule="evenodd"></path><path id="path3" d="M51.501 0.370 C 51.431 0.573,50.436 0.894,49.289 1.084 C 47.432 1.390,47.370 1.428,48.720 1.427 C 50.826 1.427,52.420 1.036,52.607 0.474 C 52.694 0.213,52.509 -0.000,52.196 -0.000 C 51.883 -0.000,51.570 0.166,51.501 0.370 M326.251 57.820 C 326.251 89.725,326.296 102.721,326.351 86.700 C 326.405 70.679,326.405 44.575,326.351 28.691 C 326.296 12.806,326.251 25.915,326.251 57.820 M44.360 2.109 C 43.208 2.545,43.158 2.612,43.981 2.616 C 44.502 2.618,45.441 2.385,46.066 2.099 C 47.587 1.403,46.206 1.411,44.360 2.109 M40.569 3.247 C 39.372 3.699,39.337 3.751,40.212 3.770 C 40.745 3.782,41.513 3.541,41.918 3.235 C 42.803 2.565,42.359 2.569,40.569 3.247 M37.536 4.392 C 36.945 4.719,36.810 4.920,37.179 4.923 C 37.504 4.926,38.101 4.678,38.506 4.372 C 39.426 3.676,38.803 3.689,37.536 4.392 M33.231 6.242 C 30.961 7.349,29.426 8.341,29.982 8.341 C 30.203 8.341,36.133 5.321,36.362 5.092 C 36.807 4.646,35.570 5.101,33.231 6.242 M26.651 10.143 C 21.235 13.711,13.906 20.845,11.169 25.213 L 10.456 26.351 11.295 25.628 C 11.756 25.231,12.133 24.780,12.133 24.625 C 12.133 23.372,22.014 13.686,25.986 11.045 C 29.074 8.992,29.919 8.338,29.479 8.342 C 29.427 8.343,28.154 9.153,26.651 10.143 M9.220 28.152 C 7.647 30.622,4.864 36.081,5.072 36.289 C 5.174 36.391,5.789 35.338,6.438 33.949 C 7.088 32.560,8.292 30.325,9.114 28.982 C 10.764 26.286,10.853 25.588,9.220 28.152 M4.269 37.805 C 4.011 38.356,3.869 38.877,3.954 38.962 C 4.182 39.190,4.999 37.553,4.859 37.148 C 4.793 36.958,4.528 37.253,4.269 37.805 M3.156 40.818 C 2.911 41.615,2.769 42.327,2.841 42.399 C 3.124 42.682,3.832 40.863,3.720 40.138 C 3.635 39.581,3.479 39.769,3.156 40.818 M1.993 44.749 C 1.734 45.859,1.589 46.834,1.671 46.916 C 1.946 47.191,2.710 44.383,2.586 43.552 C 2.511 43.045,2.285 43.501,1.993 44.749 M1.008 49.382 C 0.878 50.475,0.598 51.428,0.386 51.498 C -0.088 51.657,-0.133 53.839,0.338 53.839 C 0.524 53.839,0.782 53.417,0.912 52.901 C 1.264 51.498,1.653 47.393,1.434 47.393 C 1.329 47.393,1.137 48.288,1.008 49.382 M322.844 116.398 L 319.810 116.638 322.938 116.708 C 324.817 116.749,326.066 116.626,326.066 116.398 C 326.066 116.190,326.024 116.050,325.972 116.088 C 325.919 116.127,324.512 116.266,322.844 116.398 M313.555 117.379 L 312.227 117.924 313.744 117.693 C 314.578 117.566,315.943 117.329,316.777 117.167 L 318.294 116.872 316.588 116.854 C 315.649 116.843,314.284 117.080,313.555 117.379 M308.626 118.521 L 307.678 119.100 308.626 118.853 C 309.147 118.718,310.171 118.471,310.900 118.304 L 312.227 118.002 310.900 117.972 C 310.171 117.955,309.147 118.202,308.626 118.521 M304.243 119.652 C 303.518 120.243,303.518 120.248,304.265 119.980 C 304.682 119.830,305.621 119.580,306.351 119.424 L 307.678 119.139 306.328 119.096 C 305.586 119.072,304.648 119.322,304.243 119.652 M301.210 120.746 C 300.805 121.052,300.653 121.308,300.872 121.315 C 301.091 121.322,301.432 121.173,301.630 120.985 C 301.828 120.796,302.332 120.560,302.749 120.460 C 303.489 120.282,303.488 120.276,302.726 120.234 C 302.297 120.209,301.615 120.440,301.210 120.746 M298.009 121.887 C 297.488 122.184,296.416 122.714,295.626 123.064 C 294.837 123.414,294.263 123.773,294.351 123.861 C 294.439 123.949,295.596 123.519,296.924 122.905 C 298.251 122.291,299.592 121.698,299.905 121.588 C 300.303 121.447,300.246 121.381,299.716 121.367 C 299.299 121.356,298.531 121.590,298.009 121.887 M292.534 124.562 C 292.129 124.868,291.969 125.118,292.177 125.118 C 292.386 125.118,292.888 124.868,293.292 124.562 C 293.697 124.256,293.858 124.005,293.649 124.005 C 293.441 124.005,292.939 124.256,292.534 124.562 M290.806 125.498 C 290.806 125.706,290.569 125.877,290.279 125.877 C 289.645 125.877,287.778 127.363,288.390 127.381 C 288.625 127.388,289.030 127.137,289.289 126.825 C 289.549 126.512,289.975 126.256,290.237 126.256 C 290.499 126.256,290.925 126.000,291.185 125.687 C 291.511 125.294,291.525 125.118,291.231 125.118 C 290.997 125.118,290.806 125.289,290.806 125.498 M286.635 127.962 C 286.372 128.279,286.331 128.531,286.542 128.531 C 286.751 128.531,287.134 128.275,287.393 127.962 C 287.657 127.645,287.698 127.393,287.486 127.393 C 287.278 127.393,286.895 127.649,286.635 127.962 M282.938 130.470 C 282.261 130.904,281.706 131.422,281.706 131.621 C 281.706 131.819,282.303 131.526,283.033 130.970 C 284.186 130.090,284.603 129.652,284.265 129.675 C 284.213 129.678,283.616 130.036,282.938 130.470 M280.178 132.494 C 279.871 132.797,277.658 134.972,275.258 137.328 C 268.732 143.736,259.325 157.415,259.339 160.479 C 259.340 160.737,260.258 159.156,261.380 156.967 C 263.551 152.729,265.559 149.299,266.871 147.588 C 267.314 147.012,268.307 145.687,269.080 144.645 C 270.359 142.918,272.809 140.142,275.261 137.643 C 275.782 137.112,277.400 135.612,278.857 134.310 C 280.314 133.008,281.332 131.943,281.120 131.943 C 280.908 131.943,280.484 132.191,280.178 132.494 M258.654 161.592 C 258.404 161.843,258.193 162.397,258.186 162.825 C 258.178 163.252,257.928 164.028,257.630 164.550 C 257.332 165.071,257.096 165.839,257.105 166.256 C 257.116 166.769,257.182 166.830,257.309 166.445 C 257.412 166.133,257.650 165.536,257.837 165.118 C 258.239 164.227,259.279 161.137,259.178 161.137 C 259.140 161.137,258.904 161.342,258.654 161.592 M256.317 167.937 C 256.101 168.341,255.942 169.151,255.963 169.738 L 256.002 170.806 256.295 169.668 C 256.457 169.043,256.713 168.232,256.866 167.867 C 257.242 166.967,256.806 167.023,256.317 167.937 M255.227 172.339 C 254.985 172.871,254.807 173.767,254.831 174.331 C 254.863 175.092,254.918 175.160,255.042 174.597 C 255.133 174.180,255.392 173.364,255.617 172.784 C 256.141 171.434,255.811 171.057,255.227 172.339 M254.104 178.027 C 253.854 178.962,253.669 180.364,253.693 181.143 C 253.717 181.922,253.806 182.218,253.890 181.801 C 254.955 176.521,255.075 174.395,254.104 178.027 M253.391 189.573 C 253.391 190.929,253.460 191.483,253.544 190.806 C 253.629 190.128,253.629 189.019,253.544 188.341 C 253.460 187.664,253.391 188.218,253.391 189.573 M253.691 197.915 C 253.675 198.853,253.903 200.389,254.198 201.327 C 254.871 203.462,254.883 202.341,254.224 198.863 C 253.755 196.382,253.720 196.320,253.691 197.915 M254.839 204.929 C 254.825 205.555,255.074 206.493,255.393 207.014 L 255.972 207.962 255.730 207.014 C 255.596 206.493,255.347 205.555,255.176 204.929 L 254.864 203.791 254.839 204.929 M255.989 209.289 C 255.968 209.810,256.195 210.664,256.493 211.185 C 256.837 211.786,257.040 211.918,257.048 211.545 C 257.056 211.222,256.905 210.795,256.715 210.597 C 256.524 210.399,256.291 209.810,256.197 209.289 L 256.027 208.341 255.989 209.289 M257.100 212.891 C 257.094 213.308,257.332 214.076,257.630 214.597 C 257.928 215.118,258.178 215.908,258.186 216.352 C 258.193 216.795,258.455 217.371,258.768 217.630 C 259.415 218.167,259.496 217.923,258.990 216.962 C 258.800 216.600,258.299 215.365,257.878 214.218 C 257.456 213.071,257.106 212.474,257.100 212.891 M259.339 218.790 C 259.338 219.115,259.587 219.712,259.893 220.117 C 260.199 220.522,260.455 221.131,260.462 221.470 C 260.469 221.810,260.730 222.300,261.043 222.559 C 261.547 222.978,261.550 222.886,261.073 221.753 C 260.147 219.551,259.341 218.175,259.339 218.790 M261.628 223.515 C 261.637 223.719,262.021 224.510,262.481 225.273 C 262.941 226.035,263.813 227.485,264.418 228.495 C 267.300 233.305,272.974 240.089,277.181 243.756 C 282.182 248.115,287.308 251.965,287.653 251.621 C 287.755 251.519,287.354 251.132,286.763 250.761 C 281.013 247.156,274.576 241.298,269.941 235.450 C 266.520 231.135,265.884 230.234,263.663 226.549 C 262.535 224.676,261.619 223.311,261.628 223.515 M288.857 252.524 C 289.349 252.935,289.989 253.270,290.279 253.270 C 290.569 253.270,290.806 253.441,290.806 253.649 C 290.806 253.858,290.997 254.028,291.231 254.028 C 291.525 254.028,291.511 253.853,291.185 253.460 C 290.925 253.147,290.499 252.891,290.237 252.891 C 289.975 252.891,289.549 252.635,289.289 252.322 C 289.030 252.009,288.625 251.759,288.390 251.766 C 288.154 251.773,288.365 252.114,288.857 252.524 M292.534 254.585 C 292.939 254.891,293.441 255.142,293.649 255.142 C 293.858 255.142,293.697 254.891,293.292 254.585 C 292.888 254.279,292.386 254.028,292.177 254.028 C 291.969 254.028,292.129 254.279,292.534 254.585 M294.809 255.723 C 295.214 256.029,295.718 256.285,295.930 256.291 C 296.141 256.298,296.951 256.645,297.729 257.062 C 298.508 257.479,299.443 257.806,299.809 257.790 C 300.331 257.766,300.351 257.717,299.905 257.559 C 299.592 257.448,298.270 256.865,296.966 256.262 C 294.333 255.045,293.705 254.888,294.809 255.723 M301.210 258.401 C 301.615 258.707,302.235 258.957,302.588 258.957 C 302.942 258.957,303.720 259.212,304.317 259.524 C 304.914 259.835,305.915 260.072,306.540 260.049 C 307.669 260.008,307.668 260.005,306.351 259.713 C 304.900 259.391,302.747 258.665,301.711 258.148 C 300.687 257.637,300.395 257.784,301.210 258.401 M308.626 260.626 C 309.147 260.945,310.171 261.192,310.900 261.175 L 312.227 261.145 310.900 260.843 C 310.171 260.676,309.147 260.429,308.626 260.294 L 307.678 260.047 308.626 260.626 M313.744 261.779 C 314.578 262.072,316.199 262.300,317.346 262.287 L 319.431 262.263 317.536 261.994 C 316.493 261.846,314.872 261.617,313.934 261.486 L 312.227 261.248 313.744 261.779 M322.275 262.583 C 323.628 262.882,326.066 262.934,326.066 262.664 C 326.066 262.502,325.085 262.389,323.886 262.414 C 322.687 262.438,321.962 262.514,322.275 262.583 M326.251 321.327 C 326.251 353.232,326.296 366.228,326.351 350.207 C 326.405 334.186,326.405 308.082,326.351 292.198 C 326.296 276.314,326.251 289.422,326.251 321.327 M0.000 326.035 C 0.000 326.643,0.171 327.198,0.381 327.268 C 0.591 327.337,0.925 328.418,1.124 329.669 L 1.486 331.943 1.293 329.289 C 1.007 325.351,-0.000 322.816,0.000 326.035 M1.564 332.322 C 1.556 332.531,1.787 333.555,2.076 334.597 C 2.498 336.117,2.605 336.267,2.611 335.355 C 2.619 334.342,1.599 331.387,1.564 332.322 M2.672 336.682 C 2.668 336.787,2.911 337.555,3.212 338.389 C 3.664 339.645,3.761 339.739,3.775 338.935 C 3.784 338.401,3.541 337.634,3.235 337.229 C 2.929 336.824,2.675 336.578,2.672 336.682 M3.804 340.158 C 3.772 340.825,7.497 348.717,7.986 349.019 C 8.523 349.351,8.472 349.224,6.635 345.654 C 5.697 343.831,4.929 342.122,4.929 341.858 C 4.929 341.366,3.825 339.700,3.804 340.158 M8.341 349.718 C 8.341 351.979,18.839 363.458,24.550 367.443 C 27.009 369.159,26.469 368.427,23.791 366.416 C 20.204 363.721,12.932 356.189,10.827 352.986 C 8.739 349.811,8.341 349.288,8.341 349.718 M26.715 368.885 C 26.957 369.277,31.326 371.943,31.726 371.943 C 31.844 371.943,31.729 371.687,31.469 371.374 C 31.210 371.062,30.824 370.806,30.612 370.806 C 30.400 370.806,29.382 370.286,28.351 369.652 C 27.319 369.017,26.583 368.672,26.715 368.885 M32.819 372.500 C 33.223 372.806,33.725 373.056,33.934 373.056 C 34.142 373.056,33.982 372.806,33.577 372.500 C 33.172 372.194,32.670 371.943,32.462 371.943 C 32.253 371.943,32.414 372.194,32.819 372.500 M34.553 373.257 C 35.129 373.834,39.128 375.335,38.694 374.812 C 38.423 374.485,37.913 374.218,37.562 374.218 C 37.210 374.218,36.591 373.968,36.186 373.661 C 35.531 373.166,34.110 372.814,34.553 373.257 M40.758 375.935 C 42.685 376.629,43.310 376.624,42.085 375.924 C 41.564 375.626,40.711 375.384,40.190 375.386 C 39.438 375.388,39.556 375.502,40.758 375.935 M44.171 376.851 C 47.075 377.726,47.219 377.750,46.776 377.273 C 46.540 377.019,45.602 376.744,44.690 376.660 C 43.234 376.526,43.171 376.549,44.171 376.851 M49.465 378.018 C 50.708 378.176,51.789 378.495,51.866 378.726 C 52.066 379.325,52.701 379.248,52.701 378.626 C 52.701 378.019,50.998 377.609,48.768 377.680 C 47.409 377.723,47.501 377.768,49.465 378.018 " stroke="none" fill="#bcbcbc" fill-rule="evenodd"></path><path id="path4" d="M253.745 183.697 C 253.749 184.531,253.827 184.827,253.917 184.356 C 254.008 183.884,254.005 183.202,253.910 182.839 C 253.815 182.477,253.741 182.863,253.745 183.697 M253.737 195.261 C 253.737 195.991,253.815 196.289,253.911 195.924 C 254.006 195.559,254.006 194.962,253.911 194.597 C 253.815 194.232,253.737 194.531,253.737 195.261 M319.716 262.252 C 320.081 262.347,320.678 262.347,321.043 262.252 C 321.408 262.157,321.109 262.078,320.379 262.078 C 319.649 262.078,319.351 262.157,319.716 262.252 " stroke="none" fill="#c4c4c4" fill-rule="evenodd"></path></g></svg>