<svg id="svg" version="1.1" xmlns="http://www.w3.org/2000/svg" xmlns:xlink="http://www.w3.org/1999/xlink" width="400" height="288.641425389755" viewBox="0, 0, 400,288.641425389755"><g id="svgg"><path id="path0" d="M0.000 68.014 C 0.000 113.165,0.097 136.029,0.289 136.029 C 0.448 136.029,0.583 135.412,0.590 134.657 C 0.597 133.903,0.790 132.765,1.019 132.130 C 1.248 131.495,1.437 130.748,1.440 130.470 C 1.444 129.983,2.379 126.959,2.891 125.776 C 3.028 125.458,3.224 124.874,3.326 124.477 C 3.498 123.803,4.963 120.538,5.528 119.567 C 5.666 119.329,5.853 118.939,5.943 118.700 C 6.033 118.462,6.228 118.072,6.375 117.834 C 6.523 117.596,6.776 117.141,6.936 116.823 C 7.097 116.505,7.485 115.856,7.798 115.379 C 8.111 114.903,8.484 114.253,8.628 113.935 C 8.772 113.617,9.228 112.993,9.643 112.548 C 10.058 112.103,10.397 111.671,10.397 111.588 C 10.397 110.472,20.129 100.531,22.166 99.565 C 22.523 99.396,22.816 99.148,22.816 99.015 C 22.816 98.882,23.015 98.773,23.258 98.773 C 23.501 98.773,23.770 98.590,23.856 98.368 C 23.941 98.145,24.230 97.887,24.497 97.794 C 24.764 97.700,25.372 97.364,25.848 97.046 C 26.325 96.728,27.040 96.307,27.437 96.110 C 27.834 95.913,28.224 95.670,28.303 95.570 C 28.383 95.471,29.487 94.904,30.758 94.312 C 35.089 92.294,36.886 91.554,37.483 91.543 C 37.755 91.538,38.231 91.343,38.539 91.110 C 38.847 90.877,39.515 90.686,40.022 90.686 C 40.530 90.686,41.317 90.492,41.772 90.254 C 42.227 90.017,43.005 89.822,43.502 89.821 C 43.998 89.820,44.924 89.636,45.561 89.411 C 46.197 89.187,48.520 88.909,50.723 88.794 C 53.119 88.669,54.815 88.456,54.941 88.264 C 55.058 88.087,55.156 68.155,55.158 43.971 L 55.162 0.000 27.581 0.000 L 0.000 0.000 0.000 68.014 M344.549 43.880 C 344.549 69.817,344.440 88.045,344.284 88.457 C 344.030 89.126,343.877 89.162,340.601 89.325 C 338.722 89.419,336.794 89.626,336.318 89.784 C 335.841 89.942,334.671 90.199,333.718 90.354 C 330.870 90.819,326.364 92.042,325.290 92.643 C 324.943 92.838,324.466 92.996,324.230 92.996 C 323.994 92.996,323.433 93.185,322.984 93.416 C 322.534 93.646,321.191 94.306,320.000 94.883 C 318.809 95.459,317.444 96.178,316.968 96.481 C 316.491 96.784,315.841 97.163,315.523 97.324 C 314.678 97.751,314.018 98.189,312.029 99.639 C 311.048 100.354,309.947 101.134,309.582 101.372 C 306.886 103.131,300.074 110.848,297.601 114.946 C 296.977 115.978,296.401 116.888,296.320 116.968 C 296.029 117.253,294.007 121.504,294.007 121.831 C 294.007 122.015,293.877 122.166,293.718 122.166 C 293.560 122.166,293.429 122.394,293.428 122.671 C 293.427 122.949,293.232 123.549,292.995 124.004 C 292.757 124.459,292.563 124.959,292.563 125.116 C 292.563 125.272,292.373 125.810,292.140 126.310 C 291.907 126.811,291.589 127.740,291.431 128.375 C 290.733 131.202,290.471 132.195,290.177 133.141 C 290.003 133.697,289.768 135.126,289.653 136.318 C 289.538 137.509,289.298 139.828,289.119 141.471 C 288.881 143.656,288.878 145.206,289.109 147.247 C 289.283 148.781,289.532 151.154,289.662 152.521 C 289.792 153.887,290.043 155.276,290.220 155.607 C 290.397 155.937,290.541 156.508,290.540 156.876 C 290.539 157.244,290.751 158.195,291.011 158.989 C 292.301 162.934,292.661 163.971,293.029 164.809 C 293.249 165.310,293.430 165.927,293.430 166.181 C 293.430 166.435,293.560 166.643,293.718 166.643 C 293.877 166.643,294.007 166.793,294.007 166.977 C 294.007 167.304,296.029 171.555,296.320 171.841 C 296.401 171.921,296.975 172.830,297.596 173.863 C 301.435 180.247,309.760 188.424,315.523 191.472 C 315.841 191.640,316.491 192.025,316.968 192.328 C 317.444 192.630,318.809 193.350,320.000 193.926 C 321.191 194.502,322.534 195.162,322.984 195.393 C 323.433 195.624,323.994 195.812,324.230 195.812 C 324.466 195.812,324.943 195.971,325.290 196.165 C 326.370 196.770,330.894 197.996,333.718 198.450 C 334.671 198.604,336.036 198.861,336.751 199.023 C 337.466 199.184,339.394 199.393,341.035 199.487 C 343.851 199.647,344.035 199.696,344.284 200.352 C 344.440 200.763,344.549 219.051,344.549 244.929 L 344.549 288.809 372.274 288.809 L 400.000 288.809 400.000 144.404 L 400.000 0.000 372.274 0.000 L 344.549 0.000 344.549 43.880 M0.000 220.794 L 0.000 288.809 27.581 288.809 L 55.162 288.809 55.158 244.838 C 55.156 220.653,55.053 200.707,54.929 200.513 C 54.782 200.281,53.425 200.099,50.962 199.983 C 48.904 199.885,46.550 199.622,45.732 199.397 C 44.913 199.173,43.873 198.988,43.421 198.987 C 42.969 198.986,42.227 198.791,41.772 198.554 C 41.317 198.317,40.602 198.122,40.184 198.121 C 39.765 198.120,39.050 197.925,38.595 197.688 C 38.140 197.450,37.592 197.256,37.378 197.256 C 36.997 197.256,36.028 196.875,33.615 195.775 C 32.962 195.478,32.279 195.235,32.098 195.235 C 31.917 195.235,31.769 195.105,31.769 194.946 C 31.769 194.787,31.578 194.657,31.345 194.657 C 30.931 194.657,28.591 193.554,28.303 193.223 C 28.224 193.131,27.834 192.896,27.437 192.699 C 27.040 192.502,26.325 192.080,25.848 191.763 C 25.372 191.445,24.755 191.106,24.477 191.010 C 24.199 190.914,23.971 190.734,23.971 190.610 C 23.971 190.486,23.289 189.950,22.455 189.418 C 21.621 188.886,20.512 188.028,19.990 187.511 C 19.469 186.993,18.971 186.570,18.884 186.570 C 18.312 186.570,10.397 177.859,10.397 177.230 C 10.397 177.142,10.058 176.705,9.643 176.260 C 9.228 175.815,8.772 175.191,8.628 174.874 C 8.484 174.556,8.111 173.906,7.798 173.430 C 7.485 172.953,7.097 172.303,6.936 171.986 C 6.663 171.446,6.527 171.201,5.774 169.892 C 5.614 169.614,5.403 169.191,5.304 168.953 C 5.206 168.715,4.752 167.707,4.295 166.714 C 3.839 165.721,3.465 164.746,3.464 164.548 C 3.463 164.350,3.273 163.825,3.042 163.381 C 2.810 162.938,2.536 162.124,2.433 161.573 C 2.330 161.022,2.141 160.507,2.014 160.429 C 1.887 160.350,1.695 159.734,1.588 159.060 C 1.480 158.386,1.209 157.277,0.985 156.596 C 0.761 155.916,0.578 154.779,0.578 154.069 C 0.578 153.360,0.448 152.780,0.289 152.780 C 0.097 152.780,0.000 175.644,0.000 220.794 " stroke="none" fill="#fbfbfb" fill-rule="evenodd"></path><path id="path1" d="M56.029 44.446 C 56.029 84.708,55.986 88.908,55.572 89.067 C 55.321 89.163,54.054 89.248,52.756 89.254 C 51.459 89.261,49.812 89.394,49.097 89.549 C 48.383 89.704,46.828 89.966,45.642 90.130 C 44.457 90.294,43.352 90.539,43.188 90.675 C 43.023 90.810,42.238 91.014,41.444 91.129 C 40.650 91.243,39.870 91.435,39.711 91.555 C 39.552 91.676,38.991 91.867,38.464 91.979 C 37.937 92.092,37.158 92.366,36.731 92.589 C 36.305 92.811,35.762 92.994,35.523 92.994 C 35.159 92.996,32.411 94.215,30.903 95.045 C 30.664 95.176,29.819 95.616,29.025 96.022 C 27.369 96.870,27.132 97.016,24.564 98.754 C 19.903 101.911,14.402 107.069,12.130 110.413 C 11.733 110.998,11.310 111.477,11.191 111.478 C 11.072 111.479,10.975 111.669,10.975 111.899 C 10.975 112.129,10.812 112.422,10.614 112.549 C 10.415 112.676,10.098 113.040,9.908 113.357 C 9.718 113.675,8.841 115.127,7.958 116.584 C 7.076 118.041,6.354 119.423,6.354 119.654 C 6.354 119.885,6.159 120.235,5.921 120.433 C 5.682 120.631,5.487 121.021,5.487 121.300 C 5.487 121.578,5.292 121.968,5.054 122.166 C 4.816 122.364,4.621 122.759,4.621 123.044 C 4.621 123.330,4.440 123.931,4.220 124.381 C 3.509 125.829,2.421 129.341,2.026 131.461 C 1.887 132.205,1.635 133.074,1.464 133.391 C 1.294 133.709,1.155 134.505,1.155 135.160 C 1.155 136.844,0.541 140.361,0.246 140.361 C -0.094 140.361,-0.068 148.375,0.273 148.496 C 0.595 148.610,1.150 151.820,1.153 153.593 C 1.154 154.279,1.294 155.099,1.464 155.417 C 1.635 155.735,1.887 156.604,2.026 157.348 C 2.421 159.467,3.509 162.980,4.220 164.428 C 4.440 164.877,4.621 165.479,4.621 165.764 C 4.621 166.050,4.816 166.445,5.054 166.643 C 5.292 166.840,5.487 167.230,5.487 167.509 C 5.487 167.788,5.682 168.178,5.921 168.375 C 6.159 168.573,6.354 168.924,6.354 169.155 C 6.354 169.386,7.076 170.767,7.958 172.224 C 8.841 173.681,9.718 175.131,9.908 175.445 C 10.098 175.759,10.393 176.149,10.564 176.311 C 11.031 176.755,12.708 178.978,12.708 179.153 C 12.708 179.683,20.858 187.720,21.399 187.724 C 21.494 187.725,21.948 188.055,22.410 188.458 C 23.215 189.161,25.795 190.967,27.004 191.674 C 28.687 192.658,35.196 195.813,35.548 195.814 C 35.773 195.815,36.305 195.998,36.731 196.220 C 37.158 196.442,37.937 196.716,38.464 196.829 C 38.991 196.942,39.552 197.133,39.711 197.253 C 39.870 197.374,40.650 197.566,41.444 197.680 C 42.238 197.794,43.034 198.008,43.211 198.154 C 43.389 198.300,44.559 198.543,45.811 198.693 C 47.062 198.844,48.801 199.092,49.675 199.246 C 50.549 199.399,52.130 199.534,53.189 199.546 C 54.249 199.557,55.321 199.646,55.572 199.742 C 55.986 199.901,56.029 204.101,56.029 244.363 L 56.029 288.809 199.856 288.809 L 343.682 288.809 343.682 244.638 C 343.682 220.207,343.571 200.399,343.433 200.313 C 343.296 200.229,341.704 200.087,339.895 199.998 C 336.622 199.837,333.294 199.324,330.542 198.554 C 329.747 198.332,328.773 198.092,328.375 198.021 C 327.458 197.858,325.868 197.308,324.814 196.791 C 324.364 196.570,323.820 196.390,323.604 196.390 C 323.388 196.390,322.327 195.936,321.245 195.380 C 320.163 194.825,319.193 194.370,319.088 194.370 C 318.637 194.366,312.737 190.677,310.620 189.074 C 306.502 185.955,301.745 181.209,299.555 178.031 C 299.125 177.406,298.675 176.852,298.556 176.799 C 298.437 176.746,298.339 176.548,298.339 176.358 C 298.339 176.168,298.079 175.790,297.762 175.518 C 297.444 175.246,297.184 174.827,297.184 174.588 C 297.184 174.348,297.054 174.152,296.895 174.152 C 296.736 174.152,296.606 173.977,296.606 173.763 C 296.606 173.549,296.347 173.074,296.029 172.708 C 295.711 172.341,295.451 171.922,295.451 171.776 C 295.451 171.630,295.256 171.316,295.018 171.078 C 294.780 170.840,294.585 170.410,294.585 170.123 C 294.585 169.836,294.390 169.440,294.152 169.242 C 293.913 169.044,293.718 168.714,293.718 168.508 C 293.718 168.302,293.501 167.701,293.235 167.171 C 292.969 166.642,292.579 165.864,292.369 165.443 C 292.158 165.021,291.986 164.479,291.986 164.239 C 291.986 163.998,291.805 163.433,291.584 162.984 C 290.970 161.731,290.506 160.282,290.243 158.792 C 290.112 158.048,289.866 157.179,289.696 156.861 C 289.525 156.543,289.386 155.776,289.386 155.155 C 289.386 154.535,289.193 153.389,288.956 152.609 C 288.628 151.526,288.526 149.588,288.526 144.404 C 288.526 139.221,288.628 137.282,288.956 136.200 C 289.193 135.420,289.386 134.274,289.386 133.654 C 289.386 133.033,289.525 132.265,289.696 131.947 C 289.866 131.630,290.112 130.761,290.243 130.017 C 290.506 128.527,290.970 127.078,291.584 125.825 C 291.805 125.375,291.986 124.810,291.986 124.570 C 291.986 124.329,292.162 123.787,292.379 123.366 C 292.775 122.593,294.364 119.216,294.710 118.412 C 294.916 117.934,295.239 117.393,296.354 115.668 C 296.764 115.032,297.189 114.232,297.297 113.889 C 297.406 113.547,297.685 113.193,297.917 113.104 C 298.149 113.015,298.339 112.754,298.339 112.524 C 298.339 112.294,298.437 112.063,298.556 112.010 C 298.675 111.957,299.120 111.409,299.545 110.792 C 301.774 107.556,306.432 102.906,310.620 99.735 C 312.737 98.132,318.637 94.442,319.088 94.439 C 319.193 94.438,320.163 93.983,321.245 93.428 C 322.327 92.873,323.432 92.415,323.700 92.410 C 323.968 92.405,324.440 92.210,324.748 91.976 C 325.057 91.743,325.529 91.552,325.798 91.552 C 326.068 91.552,326.660 91.358,327.115 91.121 C 327.570 90.884,328.250 90.689,328.625 90.688 C 329.001 90.687,329.911 90.500,330.647 90.273 C 333.463 89.404,335.010 89.144,339.206 88.837 L 343.538 88.520 343.611 44.260 L 343.684 0.000 199.857 0.000 L 56.029 0.000 56.029 44.446 " stroke="none" fill="#949494" fill-rule="evenodd"></path><path id="path2" d="M55.523 43.947 C 55.483 68.198,55.376 88.277,55.285 88.568 C 55.136 89.042,55.151 89.047,55.430 88.616 C 55.651 88.276,55.720 75.196,55.668 43.995 L 55.594 -0.144 55.523 43.947 M50.477 89.165 C 51.156 89.226,52.196 89.225,52.787 89.163 C 53.379 89.101,52.823 89.051,51.552 89.052 C 50.282 89.053,49.798 89.104,50.477 89.165 M338.556 89.160 C 338.993 89.226,339.708 89.226,340.144 89.160 C 340.581 89.094,340.224 89.040,339.350 89.040 C 338.477 89.040,338.119 89.094,338.556 89.160 M18.899 102.599 L 18.051 103.538 18.989 102.690 C 19.505 102.223,19.928 101.801,19.928 101.751 C 19.928 101.528,19.689 101.724,18.899 102.599 M303.522 106.498 L 302.527 107.581 303.610 106.586 C 304.206 106.039,304.693 105.551,304.693 105.503 C 304.693 105.282,304.449 105.490,303.522 106.498 M14.136 107.365 L 13.141 108.448 14.224 107.452 C 15.232 106.526,15.440 106.282,15.219 106.282 C 15.171 106.282,14.683 106.769,14.136 107.365 M0.000 137.906 C 0.000 138.144,0.130 138.339,0.289 138.339 C 0.448 138.339,0.578 138.144,0.578 137.906 C 0.578 137.668,0.448 137.473,0.289 137.473 C 0.130 137.473,0.000 137.668,0.000 137.906 M288.633 144.404 C 288.633 146.549,288.678 147.426,288.734 146.354 C 288.790 145.282,288.790 143.527,288.734 142.455 C 288.678 141.383,288.633 142.260,288.633 144.404 M0.000 150.903 C 0.000 151.141,0.130 151.336,0.289 151.336 C 0.448 151.336,0.578 151.141,0.578 150.903 C 0.578 150.664,0.448 150.469,0.289 150.469 C 0.130 150.469,0.000 150.664,0.000 150.903 M305.848 184.693 C 306.387 185.249,306.893 185.704,306.973 185.704 C 307.052 185.704,306.676 185.249,306.137 184.693 C 305.598 184.137,305.092 183.682,305.013 183.682 C 304.934 183.682,305.310 184.137,305.848 184.693 M17.329 184.639 C 17.329 184.689,17.751 185.111,18.267 185.578 L 19.206 186.426 18.358 185.487 C 17.567 184.612,17.329 184.416,17.329 184.639 M51.191 199.777 C 51.787 199.839,52.762 199.839,53.357 199.777 C 53.953 199.715,53.466 199.664,52.274 199.664 C 51.083 199.664,50.596 199.715,51.191 199.777 M339.278 199.776 C 339.794 199.840,340.639 199.840,341.155 199.776 C 341.671 199.712,341.249 199.659,340.217 199.659 C 339.184 199.659,338.762 199.712,339.278 199.776 M55.379 231.869 C 55.419 249.446,55.486 269.480,55.527 276.390 C 55.568 283.300,55.631 269.069,55.667 244.765 C 55.702 220.462,55.636 200.428,55.519 200.244 C 55.402 200.061,55.340 214.292,55.379 231.869 " stroke="none" fill="#c4c4c4" fill-rule="evenodd"></path><path id="path3" d="M55.229 43.899 C 55.188 68.123,55.054 88.099,54.933 88.290 C 54.800 88.498,53.788 88.678,52.410 88.737 L 50.108 88.837 52.630 88.895 C 55.028 88.950,55.159 88.921,55.308 88.303 C 55.394 87.946,55.429 67.899,55.385 43.755 L 55.305 -0.144 55.229 43.899 M343.900 44.404 L 343.827 88.809 342.238 88.978 L 340.650 89.148 342.318 89.195 C 343.862 89.238,344.006 89.187,344.267 88.501 C 344.659 87.471,344.652 0.000,344.261 -0.000 C 344.071 -0.000,343.948 15.137,343.900 44.404 M45.632 89.412 L 44.621 89.826 45.776 89.648 C 46.412 89.550,47.516 89.371,48.231 89.250 L 49.531 89.030 48.087 89.014 C 47.292 89.004,46.188 89.184,45.632 89.412 M335.162 89.699 L 333.718 90.088 335.018 89.970 C 335.733 89.906,336.903 89.732,337.617 89.584 L 338.917 89.314 337.762 89.312 C 337.126 89.311,335.957 89.485,335.162 89.699 M41.949 90.117 C 41.592 90.261,41.300 90.463,41.300 90.566 C 41.300 90.669,41.592 90.662,41.949 90.550 C 42.307 90.438,43.054 90.243,43.610 90.116 L 44.621 89.886 43.610 89.871 C 43.054 89.863,42.307 89.974,41.949 90.117 M330.975 90.560 C 330.419 90.770,329.704 90.952,329.386 90.965 C 329.069 90.977,327.899 91.318,326.787 91.722 C 325.675 92.127,324.437 92.562,324.036 92.688 C 316.627 95.030,305.019 103.781,300.170 110.680 C 299.592 111.502,298.997 112.310,298.847 112.477 C 297.523 113.950,292.731 123.078,292.170 125.199 C 292.086 125.516,291.685 126.746,291.279 127.932 C 290.873 129.118,290.547 130.288,290.553 130.531 C 290.569 131.174,291.283 129.429,291.518 128.171 C 291.628 127.582,291.908 126.737,292.139 126.294 C 292.370 125.850,292.560 125.340,292.561 125.159 C 292.562 124.979,292.757 124.459,292.995 124.004 C 293.232 123.549,293.427 122.949,293.428 122.671 C 293.429 122.394,293.560 122.166,293.718 122.166 C 293.877 122.166,294.007 122.015,294.007 121.831 C 294.007 121.504,296.029 117.253,296.320 116.968 C 296.401 116.888,296.977 115.978,297.601 114.946 C 300.074 110.848,306.886 103.131,309.582 101.372 C 309.947 101.134,311.048 100.354,312.029 99.639 C 314.018 98.189,314.678 97.751,315.523 97.324 C 315.841 97.163,316.491 96.784,316.968 96.481 C 317.444 96.178,318.809 95.459,320.000 94.883 C 321.191 94.306,322.534 93.646,322.984 93.416 C 323.433 93.185,323.994 92.996,324.230 92.996 C 324.466 92.996,324.943 92.838,325.290 92.643 C 325.970 92.263,327.510 91.781,330.253 91.091 C 331.206 90.851,332.375 90.546,332.852 90.411 L 333.718 90.167 332.852 90.172 C 332.375 90.175,331.531 90.349,330.975 90.560 M38.539 91.110 C 38.231 91.343,37.755 91.538,37.483 91.543 C 36.886 91.554,35.089 92.294,30.758 94.312 C 29.487 94.904,28.383 95.471,28.303 95.570 C 28.224 95.670,27.834 95.913,27.437 96.110 C 27.040 96.307,26.325 96.728,25.848 97.046 C 25.372 97.364,24.764 97.700,24.497 97.794 C 24.230 97.887,23.941 98.145,23.856 98.368 C 23.770 98.590,23.501 98.773,23.258 98.773 C 23.015 98.773,22.816 98.882,22.816 99.015 C 22.816 99.148,22.523 99.396,22.166 99.565 C 20.129 100.531,10.397 110.472,10.397 111.588 C 10.397 111.671,10.058 112.103,9.643 112.548 C 9.228 112.993,8.772 113.617,8.628 113.935 C 8.484 114.253,8.111 114.903,7.798 115.379 C 7.485 115.856,7.097 116.505,6.936 116.823 C 6.663 117.363,6.527 117.607,5.774 118.917 C 5.614 119.195,5.410 119.617,5.321 119.856 C 5.231 120.094,4.788 121.069,4.334 122.022 C 3.881 122.975,3.427 124.079,3.326 124.477 C 3.224 124.874,3.028 125.458,2.891 125.776 C 2.379 126.959,1.444 129.983,1.440 130.470 C 1.437 130.748,1.248 131.495,1.019 132.130 C 0.790 132.765,0.597 133.903,0.590 134.657 C 0.583 135.412,0.448 136.029,0.289 136.029 C 0.130 136.029,0.000 136.354,0.000 136.751 C 0.000 137.148,0.113 137.473,0.251 137.473 C 0.522 137.473,0.858 135.824,0.863 134.466 C 0.867 133.556,1.272 132.002,2.677 127.509 C 6.733 114.542,15.569 103.526,27.657 96.367 C 29.446 95.307,30.993 94.440,31.095 94.440 C 31.197 94.440,32.007 94.091,32.896 93.664 C 34.746 92.775,38.652 91.332,40.144 90.986 L 41.155 90.752 40.127 90.719 C 39.562 90.701,38.847 90.877,38.539 91.110 M290.036 132.361 C 289.538 134.246,289.607 135.001,290.140 133.482 C 290.380 132.796,290.536 131.956,290.487 131.615 C 290.427 131.200,290.277 131.448,290.036 132.361 M289.271 136.679 C 289.175 137.354,289.043 139.076,288.978 140.505 C 288.853 143.283,288.988 142.542,289.543 137.401 C 289.773 135.274,289.555 134.695,289.271 136.679 M288.969 148.303 C 289.031 149.733,289.209 151.487,289.366 152.202 C 289.694 153.699,289.517 150.658,289.089 147.437 C 288.889 145.936,288.873 146.052,288.969 148.303 M0.000 152.058 C 0.000 152.455,0.130 152.780,0.289 152.780 C 0.448 152.780,0.578 153.360,0.578 154.069 C 0.578 154.779,0.761 155.916,0.985 156.596 C 1.209 157.277,1.480 158.386,1.588 159.060 C 1.695 159.734,1.887 160.350,2.014 160.429 C 2.141 160.507,2.330 161.022,2.433 161.573 C 2.536 162.124,2.819 162.938,3.061 163.381 C 3.608 164.385,3.523 163.965,2.551 160.866 C 1.268 156.776,0.867 155.224,0.863 154.343 C 0.858 152.985,0.522 151.336,0.251 151.336 C 0.113 151.336,0.000 151.661,0.000 152.058 M289.692 154.657 C 289.688 154.975,289.868 155.819,290.093 156.534 C 290.389 157.471,290.507 157.633,290.518 157.112 C 290.526 156.715,290.346 155.870,290.117 155.235 C 289.883 154.586,289.697 154.333,289.692 154.657 M290.560 158.267 C 290.554 158.505,290.800 159.480,291.107 160.433 C 296.126 176.013,306.232 187.728,320.578 194.597 C 324.692 196.567,329.736 198.216,332.708 198.563 C 333.933 198.706,333.252 198.472,330.253 197.717 C 327.510 197.028,325.970 196.546,325.290 196.165 C 324.943 195.971,324.466 195.812,324.230 195.812 C 323.994 195.812,323.433 195.624,322.984 195.393 C 322.534 195.162,321.191 194.502,320.000 193.926 C 318.809 193.350,317.444 192.630,316.968 192.328 C 316.491 192.025,315.841 191.640,315.523 191.472 C 309.760 188.424,301.435 180.247,297.596 173.863 C 296.975 172.830,296.401 171.921,296.320 171.841 C 296.029 171.555,294.007 167.304,294.007 166.977 C 294.007 166.793,293.877 166.643,293.718 166.643 C 293.560 166.643,293.430 166.435,293.430 166.181 C 293.430 165.927,293.247 165.310,293.024 164.809 C 292.801 164.308,292.325 162.989,291.966 161.877 C 290.993 158.863,290.573 157.784,290.560 158.267 M3.484 164.548 C 3.474 164.746,3.856 165.733,4.332 166.742 C 4.809 167.751,5.199 168.710,5.199 168.873 C 5.199 169.037,5.394 169.333,5.632 169.531 C 6.299 170.085,6.364 170.255,3.979 165.199 C 3.717 164.643,3.494 164.350,3.484 164.548 M6.065 170.460 C 6.065 170.724,6.203 171.026,6.372 171.130 C 6.540 171.234,6.802 171.599,6.954 171.941 C 7.105 172.283,7.485 172.953,7.798 173.430 C 8.111 173.906,8.484 174.556,8.628 174.874 C 8.772 175.191,9.228 175.815,9.643 176.260 C 10.058 176.705,10.397 177.142,10.397 177.230 C 10.397 177.859,18.312 186.570,18.884 186.570 C 18.971 186.570,19.469 186.993,19.990 187.511 C 20.512 188.028,21.621 188.886,22.455 189.418 C 23.289 189.950,23.971 190.486,23.971 190.610 C 23.971 190.734,24.199 190.914,24.477 191.010 C 24.755 191.106,25.372 191.445,25.848 191.763 C 26.325 192.080,27.040 192.502,27.437 192.699 C 27.834 192.896,28.224 193.131,28.303 193.223 C 28.591 193.554,30.931 194.657,31.345 194.657 C 31.578 194.657,31.769 194.787,31.769 194.946 C 31.769 195.105,31.917 195.235,32.098 195.235 C 32.279 195.235,32.962 195.478,33.615 195.775 C 36.028 196.875,36.997 197.256,37.378 197.256 C 37.592 197.256,38.140 197.450,38.595 197.688 C 39.050 197.925,39.812 198.105,40.289 198.087 C 40.865 198.066,40.962 198.013,40.578 197.928 C 39.217 197.626,34.664 195.976,33.064 195.205 C 32.108 194.745,31.233 194.368,31.118 194.368 C 30.663 194.368,24.267 190.415,22.094 188.790 C 17.182 185.117,11.741 179.098,8.343 173.574 C 6.128 169.973,6.065 169.887,6.065 170.460 M41.491 198.405 C 41.676 198.603,42.456 198.811,43.224 198.867 C 44.511 198.960,44.541 198.948,43.610 198.715 C 43.054 198.576,42.274 198.368,41.877 198.253 C 41.308 198.088,41.226 198.120,41.491 198.405 M335.596 199.123 C 336.628 199.348,337.993 199.522,338.628 199.510 C 340.067 199.485,338.051 199.084,335.307 198.850 L 333.718 198.715 335.596 199.123 M45.776 199.405 C 46.412 199.629,47.711 199.803,48.664 199.793 L 50.397 199.774 48.953 199.564 C 48.159 199.448,46.859 199.274,46.065 199.177 L 44.621 199.000 45.776 199.405 M342.816 199.821 L 343.827 200.000 343.900 244.404 C 343.948 273.672,344.071 288.809,344.261 288.809 C 344.652 288.809,344.659 201.338,344.267 200.308 C 344.029 199.681,343.817 199.573,342.895 199.605 L 341.805 199.643 342.816 199.821 M53.357 200.069 C 54.191 200.127,54.905 200.200,54.944 200.232 C 54.982 200.263,55.080 220.238,55.162 244.621 L 55.311 288.953 55.381 244.861 C 55.420 220.611,55.372 200.564,55.276 200.312 C 55.141 199.961,54.725 199.868,53.471 199.909 L 51.841 199.962 53.357 200.069 " stroke="none" fill="#d4d4d4" fill-rule="evenodd"></path><path id="path4" d="M55.807 44.043 C 55.765 68.347,55.635 88.382,55.518 88.566 C 55.401 88.750,54.916 88.958,54.439 89.028 L 53.574 89.155 54.440 89.194 C 54.917 89.216,55.470 89.130,55.669 89.003 C 55.957 88.820,56.016 79.692,55.957 44.315 L 55.883 -0.144 55.807 44.043 M343.682 44.188 L 343.538 88.520 341.227 88.684 L 338.917 88.847 341.294 88.900 C 343.541 88.950,343.680 88.917,343.828 88.303 C 343.914 87.946,343.949 67.899,343.905 43.755 L 343.826 -0.144 343.682 44.188 M334.296 89.403 L 333.141 89.809 334.296 89.639 C 334.931 89.546,336.036 89.371,336.751 89.250 L 338.051 89.030 336.751 89.014 C 336.036 89.005,334.931 89.180,334.296 89.403 M46.643 89.705 L 45.199 90.099 46.498 89.964 C 47.213 89.890,48.318 89.713,48.953 89.569 L 50.108 89.308 49.097 89.309 C 48.542 89.310,47.437 89.488,46.643 89.705 M330.542 90.269 C 329.809 90.627,329.786 90.666,330.397 90.519 C 330.794 90.424,331.574 90.243,332.130 90.116 C 333.128 89.889,333.130 89.886,332.274 89.866 C 331.798 89.855,331.018 90.036,330.542 90.269 M42.599 90.552 C 41.908 90.869,41.852 90.951,42.325 90.962 C 42.651 90.969,43.040 90.856,43.191 90.710 C 43.342 90.565,43.791 90.388,44.188 90.316 L 44.910 90.187 44.188 90.171 C 43.791 90.162,43.076 90.334,42.599 90.552 M327.115 91.121 C 326.660 91.358,326.068 91.552,325.798 91.552 C 325.371 91.552,323.949 92.386,324.336 92.410 C 324.418 92.415,325.198 92.145,326.069 91.810 C 326.940 91.476,328.108 91.101,328.664 90.977 C 329.668 90.754,329.669 90.752,328.809 90.721 C 328.332 90.704,327.570 90.884,327.115 91.121 M38.123 91.750 C 37.090 92.139,35.921 92.567,35.523 92.702 C 34.923 92.905,34.899 92.951,35.379 92.970 C 35.697 92.982,36.305 92.811,36.731 92.589 C 37.158 92.366,37.937 92.092,38.464 91.979 C 38.991 91.867,39.552 91.671,39.711 91.545 C 39.870 91.418,40.390 91.258,40.866 91.188 L 41.733 91.061 40.866 91.052 C 40.390 91.047,39.155 91.361,38.123 91.750 M321.508 93.284 C 320.669 93.743,319.721 94.201,319.401 94.303 C 317.067 95.044,307.028 102.010,307.009 102.902 C 307.006 103.029,307.465 102.685,308.028 102.138 C 308.591 101.591,309.599 100.772,310.266 100.319 C 310.934 99.865,311.728 99.271,312.031 98.998 C 313.326 97.830,321.359 93.457,323.755 92.616 C 324.054 92.511,324.009 92.462,323.610 92.457 C 323.292 92.453,322.346 92.825,321.508 93.284 M32.780 93.863 C 31.827 94.326,31.199 94.711,31.384 94.717 C 31.766 94.731,34.657 93.325,34.657 93.126 C 34.657 92.945,34.703 92.927,32.780 93.863 M29.387 95.507 C 28.632 95.927,28.056 96.311,28.107 96.362 C 28.228 96.483,30.351 95.396,30.726 95.021 C 31.179 94.568,30.873 94.679,29.387 95.507 M24.838 98.233 C 24.123 98.720,23.343 99.316,23.105 99.557 C 22.866 99.799,23.484 99.449,24.477 98.781 C 25.469 98.113,26.282 97.513,26.282 97.448 C 26.282 97.258,26.208 97.298,24.838 98.233 M21.227 100.864 C 19.527 102.214,17.881 103.682,18.068 103.682 C 18.215 103.682,18.900 103.131,21.805 100.678 C 23.045 99.631,22.601 99.774,21.227 100.864 M304.929 104.638 C 302.872 106.692,301.139 108.645,299.926 110.278 C 299.376 111.018,298.781 111.796,298.603 112.005 C 298.426 112.214,298.344 112.447,298.420 112.523 C 298.496 112.600,298.962 112.104,299.455 111.421 C 301.323 108.835,301.833 108.242,304.802 105.199 C 305.925 104.047,306.759 103.105,306.654 103.105 C 306.550 103.105,305.773 103.795,304.929 104.638 M16.393 105.126 C 15.745 105.762,15.316 106.282,15.439 106.282 C 15.563 106.282,16.183 105.762,16.819 105.126 C 17.454 104.491,17.884 103.971,17.773 103.971 C 17.662 103.971,17.042 104.491,16.393 105.126 M13.834 107.942 C 12.292 109.561,10.849 111.481,11.177 111.478 C 11.304 111.477,11.733 110.991,12.130 110.398 C 12.527 109.805,13.177 108.987,13.574 108.580 C 14.646 107.481,15.413 106.570,15.269 106.570 C 15.198 106.570,14.553 107.188,13.834 107.942 M10.337 112.273 C 9.721 112.981,6.303 118.746,6.426 118.869 C 6.482 118.925,7.210 117.837,8.043 116.453 C 8.877 115.068,9.715 113.678,9.906 113.364 C 10.097 113.050,10.447 112.638,10.685 112.449 C 10.923 112.260,11.042 112.029,10.948 111.935 C 10.855 111.842,10.580 111.994,10.337 112.273 M297.884 113.145 C 297.515 113.396,296.535 115.313,296.886 115.096 C 297.107 114.959,298.398 112.919,298.257 112.929 C 298.223 112.931,298.055 113.029,297.884 113.145 M296.206 115.872 C 296.105 116.077,295.765 116.635,295.451 117.112 C 295.137 117.588,294.801 118.173,294.705 118.412 C 294.608 118.650,294.152 119.594,293.691 120.510 C 293.229 121.425,292.855 122.335,292.858 122.531 C 292.861 122.728,293.543 121.510,294.374 119.825 C 295.205 118.140,296.065 116.545,296.287 116.280 C 296.508 116.015,296.621 115.731,296.539 115.648 C 296.456 115.566,296.307 115.667,296.206 115.872 M5.827 119.881 C 5.618 120.216,5.503 120.545,5.571 120.613 C 5.771 120.813,6.417 119.902,6.308 119.574 C 6.253 119.408,6.036 119.546,5.827 119.881 M4.950 121.772 C 4.604 122.546,4.611 122.569,5.067 122.122 C 5.335 121.860,5.502 121.488,5.438 121.295 C 5.374 121.103,5.154 121.317,4.950 121.772 M4.281 123.177 C 4.186 123.495,4.013 124.014,3.896 124.332 C 3.714 124.827,3.753 124.816,4.172 124.255 C 4.441 123.894,4.614 123.374,4.557 123.099 C 4.467 122.666,4.430 122.676,4.281 123.177 M292.266 123.625 C 292.092 123.951,291.990 124.414,292.039 124.654 C 292.089 124.894,292.273 124.628,292.448 124.062 C 292.805 122.905,292.738 122.744,292.266 123.625 M3.489 125.382 C 3.476 125.642,3.272 126.227,3.034 126.682 C 2.797 127.137,2.602 127.745,2.601 128.033 C 2.600 128.322,2.461 128.816,2.292 129.132 C 2.123 129.449,2.039 129.862,2.107 130.052 C 2.174 130.242,2.391 129.812,2.589 129.097 C 2.786 128.383,3.144 127.322,3.384 126.740 C 3.623 126.158,3.750 125.508,3.665 125.296 C 3.556 125.021,3.505 125.045,3.489 125.382 M291.431 125.877 C 291.260 126.198,291.124 126.696,291.130 126.985 C 291.137 127.299,291.313 127.115,291.568 126.527 C 292.036 125.448,291.930 124.945,291.431 125.877 M290.588 128.388 C 290.404 128.793,290.259 129.411,290.266 129.761 C 290.275 130.167,290.439 129.943,290.720 129.142 C 291.207 127.752,291.116 127.231,290.588 128.388 M1.682 131.408 C 1.584 131.964,1.424 132.744,1.327 133.141 C 1.208 133.625,1.298 133.542,1.601 132.888 C 1.850 132.352,2.010 131.572,1.956 131.155 C 1.870 130.476,1.841 130.502,1.682 131.408 M289.730 131.797 C 289.541 132.320,289.397 133.064,289.409 133.450 C 289.422 133.836,289.471 134.022,289.518 133.863 C 289.566 133.704,289.772 133.021,289.976 132.345 C 290.418 130.878,290.222 130.438,289.730 131.797 M0.812 136.164 C 0.714 137.271,0.491 138.224,0.317 138.282 C -0.061 138.408,-0.115 140.361,0.259 140.361 C 0.574 140.361,1.266 135.881,1.106 134.874 C 1.043 134.477,0.911 135.057,0.812 136.164 M288.866 136.476 C 288.676 137.187,288.541 138.450,288.566 139.282 C 288.598 140.337,288.642 140.488,288.711 139.783 C 288.765 139.227,288.957 138.022,289.139 137.105 C 289.536 135.094,289.350 134.665,288.866 136.476 M288.567 149.603 C 288.546 150.477,288.724 151.776,288.963 152.491 L 289.397 153.791 289.202 152.491 C 289.095 151.776,288.917 150.477,288.806 149.603 L 288.605 148.014 288.567 149.603 M0.000 149.434 C 0.000 149.977,0.138 150.467,0.306 150.523 C 0.475 150.579,0.728 151.532,0.870 152.641 L 1.128 154.657 1.006 152.491 C 0.811 149.035,-0.000 146.570,0.000 149.434 M289.416 155.418 C 289.400 155.837,289.587 156.616,289.833 157.151 C 290.311 158.190,290.274 157.696,289.721 155.668 C 289.476 154.771,289.442 154.743,289.416 155.418 M1.322 155.668 C 1.417 156.065,1.598 156.845,1.725 157.401 C 1.952 158.399,1.955 158.401,1.975 157.545 C 1.987 157.069,1.805 156.289,1.572 155.812 C 1.214 155.079,1.176 155.057,1.322 155.668 M2.049 158.700 C 2.039 158.859,2.218 159.509,2.447 160.144 C 2.675 160.780,2.863 161.040,2.862 160.722 C 2.862 160.124,2.083 158.188,2.049 158.700 M290.276 159.134 C 290.274 159.531,290.459 160.181,290.686 160.578 C 291.219 161.510,291.223 161.035,290.694 159.567 C 290.364 158.651,290.278 158.561,290.276 159.134 M2.900 161.788 C 2.893 162.057,3.018 162.357,3.177 162.455 C 3.336 162.553,3.481 162.918,3.499 163.266 C 3.524 163.729,3.567 163.767,3.662 163.410 C 3.732 163.141,3.593 162.557,3.351 162.111 C 3.057 161.568,2.907 161.462,2.900 161.788 M291.130 161.894 C 291.124 162.221,291.310 162.741,291.543 163.049 C 292.088 163.770,292.095 163.496,291.564 162.271 C 291.253 161.555,291.139 161.456,291.130 161.894 M292.010 164.205 C 291.997 164.532,292.190 165.052,292.440 165.360 C 292.690 165.668,292.806 165.748,292.698 165.537 C 292.590 165.326,292.396 164.806,292.268 164.382 C 292.081 163.763,292.030 163.728,292.010 164.205 M3.755 164.099 C 3.755 164.191,3.944 164.703,4.176 165.238 C 4.469 165.910,4.599 166.032,4.600 165.632 C 4.602 165.314,4.412 164.802,4.179 164.494 C 3.945 164.185,3.755 164.008,3.755 164.099 M292.854 166.371 C 292.853 166.618,293.043 167.073,293.276 167.382 C 293.509 167.690,293.704 168.154,293.709 168.412 C 293.714 168.671,293.913 169.044,294.152 169.242 C 294.536 169.561,294.538 169.491,294.175 168.627 C 293.470 166.951,292.856 165.902,292.854 166.371 M4.950 167.036 C 5.154 167.491,5.374 167.706,5.438 167.513 C 5.502 167.321,5.335 166.949,5.067 166.686 C 4.611 166.240,4.604 166.262,4.950 167.036 M5.497 168.268 C 5.515 168.780,6.354 169.680,6.354 169.188 C 6.354 168.939,6.159 168.573,5.921 168.375 C 5.682 168.178,5.491 168.129,5.497 168.268 M6.354 169.872 C 6.354 170.712,12.304 179.561,12.642 179.224 C 12.769 179.096,11.242 176.956,10.564 176.311 C 10.393 176.149,10.097 175.759,9.907 175.445 C 9.716 175.131,9.014 173.964,8.345 172.852 C 6.886 170.425,6.354 169.629,6.354 169.872 M294.589 170.160 C 294.587 170.427,294.780 170.840,295.018 171.078 C 295.256 171.316,295.451 171.630,295.451 171.776 C 295.451 171.922,295.711 172.341,296.029 172.708 C 296.347 173.074,296.606 173.231,296.606 173.058 C 296.606 172.884,296.469 172.656,296.300 172.552 C 296.131 172.448,295.866 172.083,295.710 171.741 C 295.073 170.344,294.593 169.667,294.589 170.160 M296.606 173.827 C 296.606 174.006,296.722 174.152,296.864 174.152 C 297.006 174.152,297.199 174.462,297.295 174.842 C 297.390 175.221,297.689 175.617,297.960 175.721 C 298.422 175.898,298.422 175.877,297.962 175.369 C 297.693 175.071,297.473 174.692,297.473 174.525 C 297.473 174.359,297.278 174.061,297.040 173.863 C 296.740 173.614,296.606 173.603,296.606 173.827 M298.339 176.438 C 298.339 176.584,298.437 176.746,298.556 176.799 C 298.675 176.852,299.131 177.424,299.569 178.069 C 300.007 178.715,300.917 179.835,301.591 180.559 C 302.265 181.283,303.271 182.416,303.827 183.078 C 304.383 183.740,305.292 184.621,305.848 185.036 C 306.596 185.594,306.440 185.347,305.245 184.086 C 302.251 180.927,301.761 180.367,300.158 178.267 C 298.550 176.162,298.339 175.951,298.339 176.438 M13.894 180.939 C 15.118 182.245,15.874 182.781,14.846 181.614 C 13.451 180.030,13.061 179.639,12.875 179.639 C 12.766 179.639,13.224 180.224,13.894 180.939 M17.185 184.424 C 19.820 186.897,26.282 191.823,26.282 191.358 C 26.282 191.283,25.599 190.765,24.765 190.206 C 23.931 189.648,22.871 188.861,22.410 188.458 C 21.948 188.055,21.494 187.725,21.399 187.724 C 21.207 187.723,19.725 186.416,17.276 184.087 C 16.373 183.229,15.529 182.527,15.399 182.527 C 15.270 182.527,16.074 183.381,17.185 184.424 M307.009 185.909 C 307.027 186.732,317.918 194.361,319.088 194.370 C 319.193 194.370,320.163 194.825,321.245 195.380 C 322.327 195.936,323.432 196.380,323.700 196.367 C 324.094 196.349,324.104 196.315,323.755 196.192 C 321.366 195.354,313.343 190.989,312.026 189.811 C 311.720 189.538,310.991 188.983,310.404 188.577 C 309.818 188.172,308.813 187.354,308.171 186.761 C 307.529 186.167,307.006 185.783,307.009 185.909 M28.303 192.628 C 29.036 193.177,34.464 195.813,34.594 195.683 C 34.662 195.615,33.306 194.871,31.582 194.029 C 28.149 192.352,27.653 192.140,28.303 192.628 M35.957 196.272 C 37.095 196.699,39.626 197.536,39.800 197.542 C 40.340 197.561,39.328 196.987,38.571 196.845 C 38.020 196.742,37.207 196.468,36.763 196.236 C 36.320 196.005,35.697 195.821,35.379 195.827 C 35.041 195.833,35.280 196.018,35.957 196.272 M324.748 196.800 C 325.057 197.051,325.577 197.261,325.904 197.267 C 326.231 197.272,326.823 197.463,327.220 197.690 C 327.617 197.917,328.332 198.092,328.809 198.079 C 329.380 198.064,329.478 198.011,329.097 197.925 C 328.780 197.854,327.805 197.554,326.931 197.259 C 323.884 196.230,324.108 196.277,324.748 196.800 M42.733 198.290 C 43.283 198.529,43.998 198.672,44.322 198.607 C 44.763 198.519,44.716 198.480,44.133 198.451 C 43.705 198.429,43.275 198.282,43.177 198.123 C 43.079 197.964,42.714 197.839,42.366 197.845 C 41.868 197.854,41.947 197.949,42.733 198.290 M330.542 198.540 C 331.018 198.773,331.798 198.954,332.274 198.943 C 333.130 198.923,333.128 198.920,332.130 198.692 C 331.574 198.566,330.794 198.384,330.397 198.289 C 329.786 198.143,329.809 198.182,330.542 198.540 M47.220 199.133 C 48.173 199.358,49.408 199.530,49.964 199.516 C 51.148 199.485,49.141 199.061,46.787 198.844 C 45.613 198.736,45.654 198.764,47.220 199.133 M334.585 199.418 C 335.379 199.653,336.614 199.829,337.329 199.809 L 338.628 199.774 337.184 199.569 C 336.390 199.457,335.155 199.281,334.440 199.178 L 333.141 198.992 334.585 199.418 M54.801 199.771 C 55.159 199.839,55.483 199.919,55.521 199.948 C 55.560 199.977,55.658 220.014,55.740 244.477 L 55.888 288.953 55.959 244.435 C 56.035 196.253,56.130 199.484,54.633 199.606 C 54.350 199.629,54.420 199.697,54.801 199.771 M342.094 200.118 L 343.538 200.289 343.684 244.621 L 343.829 288.953 343.900 244.861 C 343.939 220.611,343.892 200.564,343.796 200.312 C 343.664 199.969,343.252 199.867,342.135 199.901 L 340.650 199.946 342.094 200.118 " stroke="none" fill="#bcbcbc" fill-rule="evenodd"></path></g></svg>