<svg id="svg" version="1.1" xmlns="http://www.w3.org/2000/svg" xmlns:xlink="http://www.w3.org/1999/xlink" width="400" height="378.9473684210526" viewBox="0, 0, 400,378.9473684210526"><g id="svgg"><path id="path0" d="M0.000 89.479 C 0.000 138.876,0.145 178.957,0.325 178.957 C 0.503 178.957,0.763 177.733,0.902 176.237 C 1.041 174.740,1.306 173.333,1.490 173.109 C 1.674 172.885,1.948 171.848,2.098 170.806 C 2.248 169.763,2.500 168.739,2.658 168.531 C 2.816 168.322,3.067 167.586,3.215 166.894 C 3.363 166.202,3.723 165.178,4.014 164.619 C 4.306 164.060,4.546 163.402,4.547 163.159 C 4.550 162.763,5.247 161.207,6.133 159.621 C 6.307 159.308,6.555 158.796,6.683 158.483 C 7.933 155.431,10.490 150.831,11.075 150.585 C 11.240 150.515,11.374 150.243,11.374 149.979 C 11.374 149.557,11.729 149.038,13.263 147.220 C 13.476 146.968,13.649 146.655,13.649 146.525 C 13.649 145.644,21.293 137.290,25.082 134.028 C 28.730 130.889,33.511 127.530,36.981 125.668 C 37.823 125.216,38.847 124.659,39.256 124.430 C 41.170 123.360,45.830 121.327,46.368 121.327 C 46.699 121.327,47.067 121.170,47.186 120.977 C 47.305 120.785,47.923 120.513,48.561 120.373 C 49.198 120.233,50.177 119.879,50.736 119.587 C 51.296 119.296,52.202 119.056,52.750 119.054 C 53.298 119.053,54.359 118.796,55.107 118.483 C 55.856 118.171,56.997 117.915,57.643 117.915 C 58.289 117.915,59.170 117.726,59.600 117.496 C 60.030 117.266,62.962 116.901,66.115 116.686 C 69.477 116.456,71.964 116.120,72.127 115.872 C 72.280 115.640,72.408 89.474,72.411 57.725 L 72.417 0.000 36.209 0.000 L 0.000 0.000 0.000 89.479 M349.953 0.330 C 349.953 0.512,350.996 0.778,352.271 0.923 C 353.545 1.067,354.868 1.330,355.209 1.508 C 355.550 1.686,357.024 2.198,358.483 2.645 C 359.943 3.093,361.479 3.606,361.896 3.786 C 364.631 4.965,368.954 7.112,370.237 7.929 C 371.071 8.460,372.041 9.069,372.393 9.281 C 377.534 12.393,388.626 23.112,388.626 24.968 C 388.626 25.207,388.800 25.403,389.014 25.403 C 389.228 25.403,389.576 25.787,389.789 26.256 C 390.185 27.132,390.419 27.532,392.058 30.142 C 393.228 32.005,395.450 36.611,395.450 37.173 C 395.450 37.400,395.659 37.958,395.914 38.414 C 396.413 39.306,397.044 41.322,397.952 44.929 C 399.000 49.090,399.209 50.224,399.225 51.848 C 399.234 52.735,399.412 53.460,399.621 53.460 C 399.870 53.460,400.000 44.297,400.000 26.730 L 400.000 0.000 374.976 0.000 C 361.021 0.000,349.953 0.146,349.953 0.330 M0.000 289.668 L 0.000 379.147 36.209 379.147 L 72.417 379.147 72.411 321.422 C 72.408 289.673,72.269 263.481,72.101 263.218 C 71.899 262.900,70.344 262.670,67.463 262.533 C 63.451 262.342,59.665 261.778,55.924 260.815 C 55.090 260.600,53.725 260.280,52.891 260.103 C 51.160 259.737,48.278 258.753,47.304 258.196 C 46.942 257.989,46.401 257.820,46.102 257.820 C 45.638 257.820,41.686 256.021,39.256 254.704 C 38.847 254.482,37.823 253.931,36.981 253.479 C 28.493 248.924,18.758 240.124,13.270 232.046 C 12.957 231.586,12.403 230.857,12.038 230.428 C 11.673 229.998,11.374 229.431,11.374 229.168 C 11.374 228.904,11.240 228.632,11.075 228.562 C 10.594 228.359,8.588 224.891,7.056 221.611 C 4.719 216.612,4.633 216.405,3.754 213.649 C 3.288 212.190,2.787 210.825,2.639 210.616 C 2.491 210.408,2.248 209.384,2.098 208.341 C 1.948 207.299,1.674 206.262,1.490 206.038 C 1.306 205.814,1.041 204.407,0.902 202.910 C 0.763 201.414,0.503 200.190,0.325 200.190 C 0.145 200.190,0.000 240.271,0.000 289.668 M398.977 329.194 C 398.515 332.708,397.851 335.825,397.379 336.695 C 397.205 337.015,396.935 337.862,396.777 338.578 C 396.620 339.294,396.348 340.142,396.174 340.461 C 395.999 340.781,395.494 341.896,395.052 342.938 C 393.970 345.488,392.899 347.629,392.017 349.005 C 391.616 349.630,391.170 350.398,391.025 350.711 C 390.621 351.584,389.229 353.539,388.910 353.681 C 388.754 353.750,388.626 353.989,388.626 354.211 C 388.626 356.923,374.583 369.218,367.583 372.635 C 362.411 375.159,361.165 375.643,354.625 377.666 C 353.962 377.871,352.554 378.141,351.497 378.266 C 345.973 378.921,351.957 379.147,374.787 379.147 L 400.000 379.147 400.000 352.607 C 400.000 338.009,399.862 326.066,399.694 326.066 C 399.525 326.066,399.202 327.474,398.977 329.194 " stroke="none" fill="#fbfbfb" fill-rule="evenodd"></path><path id="path1" d="M73.555 58.123 C 73.555 102.825,73.449 116.352,73.100 116.701 C 72.820 116.981,71.398 117.163,69.403 117.173 C 67.620 117.182,65.393 117.356,64.455 117.560 C 63.517 117.764,61.475 118.107,59.919 118.322 C 58.363 118.538,56.913 118.860,56.696 119.037 C 56.480 119.215,55.450 119.483,54.408 119.633 C 53.365 119.783,52.341 120.035,52.133 120.194 C 51.924 120.352,51.188 120.602,50.496 120.750 C 49.804 120.898,48.780 121.258,48.221 121.550 C 47.661 121.842,46.948 122.082,46.635 122.083 C 46.156 122.085,42.550 123.685,40.569 124.774 C 40.256 124.946,39.147 125.524,38.104 126.058 C 35.929 127.171,35.618 127.362,32.247 129.644 C 26.129 133.788,18.907 140.560,15.924 144.950 C 15.403 145.718,14.848 146.347,14.692 146.348 C 14.536 146.350,14.408 146.598,14.408 146.901 C 14.408 147.203,14.194 147.587,13.934 147.754 C 13.673 147.920,13.256 148.398,13.007 148.815 C 12.758 149.232,11.607 151.139,10.448 153.051 C 9.289 154.964,8.341 156.777,8.341 157.081 C 8.341 157.384,8.085 157.845,7.773 158.104 C 7.460 158.364,7.204 158.876,7.204 159.242 C 7.204 159.608,6.948 160.120,6.635 160.379 C 6.322 160.639,6.066 161.158,6.066 161.532 C 6.066 161.907,5.829 162.696,5.540 163.287 C 4.607 165.188,3.178 169.799,2.659 172.581 C 2.477 173.558,2.146 174.699,1.923 175.116 C 1.699 175.533,1.517 176.578,1.517 177.438 C 1.517 179.648,0.710 184.265,0.324 184.265 C -0.123 184.265,-0.089 194.787,0.358 194.945 C 0.782 195.094,1.510 199.309,1.514 201.636 C 1.515 202.536,1.699 203.614,1.923 204.031 C 2.146 204.448,2.477 205.589,2.659 206.565 C 3.178 209.348,4.607 213.959,5.540 215.860 C 5.829 216.450,6.066 217.240,6.066 217.615 C 6.066 217.989,6.322 218.508,6.635 218.768 C 6.948 219.027,7.204 219.539,7.204 219.905 C 7.204 220.271,7.460 220.783,7.773 221.043 C 8.085 221.302,8.341 221.763,8.341 222.066 C 8.341 222.369,9.289 224.183,10.448 226.096 C 11.607 228.008,12.758 229.911,13.007 230.323 C 13.256 230.735,13.643 231.247,13.868 231.460 C 14.482 232.044,16.682 234.961,16.682 235.192 C 16.682 235.887,27.382 246.438,28.093 246.444 C 28.217 246.445,28.814 246.878,29.420 247.407 C 30.477 248.330,33.864 250.700,35.450 251.628 C 37.661 252.921,46.205 257.062,46.667 257.064 C 46.962 257.065,47.661 257.305,48.221 257.597 C 48.780 257.889,49.804 258.249,50.496 258.397 C 51.188 258.545,51.924 258.795,52.133 258.953 C 52.341 259.111,53.365 259.364,54.408 259.514 C 55.450 259.664,56.494 259.944,56.728 260.136 C 56.961 260.328,58.497 260.646,60.140 260.844 C 61.783 261.041,64.066 261.367,65.213 261.569 C 66.360 261.770,68.501 261.948,69.972 261.963 C 71.509 261.979,72.838 262.184,73.100 262.445 C 73.449 262.795,73.555 276.322,73.555 321.024 L 73.555 379.147 209.911 379.147 C 332.586 379.147,346.310 379.088,346.696 378.560 C 346.965 378.193,347.976 377.896,349.392 377.769 C 350.639 377.658,352.302 377.325,353.088 377.030 C 353.874 376.734,354.921 376.493,355.415 376.493 C 355.908 376.493,356.800 376.238,357.397 375.927 C 357.995 375.615,358.768 375.359,359.116 375.358 C 359.464 375.357,360.232 375.114,360.822 374.820 C 361.413 374.525,362.578 373.988,363.412 373.627 C 364.246 373.265,365.185 372.831,365.498 372.662 C 365.810 372.492,367.005 371.896,368.152 371.336 C 370.172 370.351,374.645 367.400,375.666 366.379 C 375.942 366.103,376.336 365.877,376.541 365.877 C 377.010 365.877,386.730 356.186,386.730 355.719 C 386.730 355.531,387.068 354.967,387.481 354.466 C 388.684 353.006,388.796 352.846,389.296 351.848 C 389.557 351.327,390.102 350.389,390.506 349.763 C 391.745 347.848,395.071 341.053,395.071 340.439 C 395.071 340.121,395.322 339.529,395.628 339.125 C 395.934 338.720,396.191 337.962,396.199 337.441 C 396.207 336.919,396.468 336.004,396.780 335.407 C 397.091 334.810,397.346 333.835,397.346 333.240 C 397.346 332.646,397.645 331.343,398.009 330.345 C 398.637 328.630,398.673 320.970,398.673 189.573 C 398.673 58.177,398.637 50.517,398.009 48.802 C 397.645 47.804,397.346 46.431,397.346 45.750 C 397.346 45.069,397.185 44.350,396.989 44.152 C 396.792 43.954,396.466 43.109,396.264 42.275 C 395.503 39.133,390.421 28.057,389.740 28.057 C 389.572 28.057,389.317 27.686,389.173 27.233 C 389.030 26.780,388.760 26.225,388.575 26.001 C 388.390 25.776,387.731 24.995,387.111 24.265 C 386.491 23.536,385.981 22.806,385.978 22.643 C 385.944 21.017,375.081 11.836,368.720 8.059 C 366.878 6.965,362.562 4.928,362.064 4.917 C 361.763 4.910,361.185 4.654,360.781 4.348 C 360.376 4.042,359.693 3.790,359.264 3.789 C 358.835 3.788,357.995 3.532,357.397 3.220 C 356.800 2.909,356.032 2.655,355.691 2.656 C 355.350 2.657,354.303 2.405,353.365 2.097 C 352.427 1.789,350.678 1.434,349.478 1.310 C 348.279 1.185,347.054 0.839,346.757 0.541 C 346.290 0.074,327.506 0.000,209.885 0.000 L 73.555 0.000 73.555 58.123 " stroke="none" fill="#949494" fill-rule="evenodd"></path><path id="path2" d="M72.977 85.118 C 72.977 102.009,73.024 108.975,73.080 100.597 C 73.137 92.219,73.137 78.399,73.080 69.886 C 73.024 61.373,72.977 68.227,72.977 85.118 M399.242 190.142 C 399.242 278.231,399.369 322.654,399.621 322.654 C 399.873 322.654,400.000 278.231,400.000 190.142 C 400.000 102.054,399.873 57.630,399.621 57.630 C 399.369 57.630,399.242 102.054,399.242 190.142 M67.014 117.052 C 67.692 117.136,68.801 117.136,69.479 117.052 C 70.156 116.967,69.602 116.899,68.246 116.899 C 66.891 116.899,66.336 116.967,67.014 117.052 M22.749 242.394 C 22.749 242.459,23.303 243.013,23.981 243.626 L 25.213 244.739 24.100 243.507 C 23.062 242.359,22.749 242.101,22.749 242.394 M68.341 262.262 C 68.915 262.349,69.853 262.349,70.427 262.262 C 71.000 262.175,70.531 262.104,69.384 262.104 C 68.237 262.104,67.768 262.175,68.341 262.262 M72.977 293.460 C 72.977 310.038,73.023 316.820,73.080 308.531 C 73.137 300.242,73.137 286.678,73.080 278.389 C 73.023 270.100,72.977 276.882,72.977 293.460 " stroke="none" fill="#c4c4c4" fill-rule="evenodd"></path><path id="path3" d="M73.269 57.653 C 73.169 119.581,73.271 116.542,71.280 116.888 C 70.461 117.031,70.494 117.060,71.518 117.105 C 73.672 117.199,73.564 120.481,73.460 57.969 L 73.362 -0.190 73.269 57.653 M346.540 0.339 C 346.540 0.841,347.490 1.118,349.890 1.314 L 352.038 1.490 350.148 1.143 C 349.109 0.952,348.199 0.617,348.126 0.398 C 347.965 -0.085,346.540 -0.138,346.540 0.339 M353.555 2.064 C 354.180 2.370,355.118 2.610,355.640 2.598 C 356.512 2.578,356.497 2.552,355.450 2.265 C 352.698 1.511,352.346 1.474,353.555 2.064 M356.998 3.026 C 357.202 3.231,357.961 3.494,358.685 3.612 L 360.000 3.826 358.483 3.246 C 356.691 2.560,356.504 2.532,356.998 3.026 M360.781 4.348 C 361.185 4.654,361.858 4.904,362.275 4.902 C 362.800 4.900,362.641 4.729,361.757 4.345 C 360.139 3.643,359.849 3.643,360.781 4.348 M363.223 5.104 C 363.223 5.330,367.137 7.207,367.290 7.054 C 367.401 6.943,363.693 4.929,363.377 4.929 C 363.292 4.929,363.223 5.008,363.223 5.104 M368.005 7.587 C 368.451 8.034,371.185 9.466,371.185 9.253 C 371.185 9.048,368.223 7.204,367.894 7.204 C 367.744 7.204,367.793 7.376,368.005 7.587 M371.696 9.765 C 371.831 9.983,372.570 10.532,373.339 10.986 C 374.108 11.440,374.548 11.585,374.317 11.308 C 373.773 10.657,371.375 9.245,371.696 9.765 M376.298 12.973 C 377.129 13.658,379.497 15.887,381.561 17.928 C 383.625 19.968,385.372 21.579,385.443 21.508 C 385.676 21.275,376.668 12.631,375.715 12.174 C 375.149 11.902,375.376 12.214,376.298 12.973 M385.937 22.654 C 386.142 23.019,386.741 23.829,387.270 24.455 C 387.799 25.081,388.385 25.776,388.572 26.001 C 388.759 26.225,389.030 26.780,389.173 27.233 C 389.317 27.686,389.575 28.057,389.746 28.057 C 389.918 28.057,391.123 30.196,392.424 32.810 C 393.726 35.425,394.865 37.489,394.957 37.397 C 395.049 37.305,394.954 36.915,394.748 36.530 C 394.541 36.145,393.752 34.561,392.995 33.012 C 392.239 31.462,391.116 29.448,390.502 28.538 C 389.887 27.627,389.384 26.792,389.384 26.682 C 389.384 26.400,385.965 21.991,385.746 21.991 C 385.647 21.991,385.733 22.289,385.937 22.654 M395.129 38.483 C 395.112 38.900,395.342 39.668,395.640 40.190 C 395.984 40.791,396.187 40.923,396.195 40.550 C 396.202 40.227,396.054 39.800,395.866 39.602 C 395.678 39.404,395.442 38.900,395.341 38.483 L 395.159 37.725 395.129 38.483 M396.225 41.776 C 396.205 42.558,396.926 44.528,397.150 44.303 C 397.239 44.214,397.071 43.466,396.777 42.640 C 396.483 41.813,396.234 41.425,396.225 41.776 M397.544 46.757 C 397.640 47.763,397.901 48.872,398.125 49.222 C 398.442 49.718,398.472 49.607,398.264 48.720 C 397.336 44.767,397.360 44.830,397.544 46.757 M398.673 189.763 C 398.673 266.502,398.780 328.095,398.910 326.635 C 399.219 323.185,399.216 56.816,398.908 53.081 C 398.779 51.517,398.673 113.024,398.673 189.763 M61.232 117.764 L 59.336 118.282 61.043 118.105 C 61.981 118.008,63.431 117.774,64.265 117.586 L 65.782 117.244 64.455 117.245 C 63.725 117.246,62.275 117.479,61.232 117.764 M55.924 118.876 C 55.016 119.292,54.944 119.401,55.564 119.414 C 55.991 119.424,56.503 119.275,56.701 119.084 C 56.900 118.893,57.488 118.661,58.009 118.567 L 58.957 118.397 58.009 118.376 C 57.488 118.365,56.550 118.590,55.924 118.876 M50.047 120.449 C 48.692 120.959,47.156 121.522,46.635 121.699 C 45.847 121.966,45.815 122.025,46.445 122.050 C 46.863 122.067,47.661 121.842,48.221 121.550 C 48.780 121.258,49.804 120.898,50.496 120.750 C 51.188 120.602,51.924 120.345,52.133 120.179 C 52.341 120.013,53.024 119.803,53.649 119.711 L 54.787 119.545 53.649 119.533 C 53.024 119.526,51.403 119.938,50.047 120.449 M43.033 123.223 C 41.782 123.831,40.958 124.336,41.201 124.345 C 41.702 124.362,45.498 122.516,45.498 122.255 C 45.498 122.018,45.559 121.994,43.033 123.223 M38.579 125.381 C 37.588 125.932,36.832 126.437,36.898 126.503 C 37.057 126.662,39.845 125.235,40.337 124.744 C 40.931 124.149,40.531 124.294,38.579 125.381 M32.607 128.960 C 31.668 129.599,30.645 130.382,30.332 130.699 C 30.019 131.015,30.829 130.557,32.133 129.680 C 33.436 128.803,34.502 128.015,34.502 127.929 C 34.502 127.680,34.406 127.733,32.607 128.960 M27.867 132.414 C 25.635 134.186,23.474 136.114,23.720 136.114 C 23.913 136.114,24.812 135.391,28.626 132.170 C 30.253 130.795,29.671 130.982,27.867 132.414 M21.521 138.009 C 20.670 138.844,20.107 139.526,20.269 139.526 C 20.431 139.526,21.246 138.844,22.080 138.009 C 22.914 137.175,23.478 136.493,23.332 136.493 C 23.187 136.493,22.372 137.175,21.521 138.009 M18.161 141.706 C 16.136 143.831,14.242 146.352,14.673 146.348 C 14.840 146.347,15.403 145.709,15.924 144.930 C 16.445 144.152,17.299 143.078,17.820 142.543 C 19.227 141.101,20.235 139.905,20.045 139.905 C 19.952 139.905,19.105 140.716,18.161 141.706 M13.571 147.391 C 12.761 148.321,8.274 155.889,8.436 156.051 C 8.509 156.124,9.465 154.696,10.559 152.879 C 11.654 151.061,12.754 149.236,13.005 148.824 C 13.255 148.412,13.715 147.871,14.028 147.623 C 14.340 147.374,14.496 147.071,14.373 146.948 C 14.250 146.826,13.889 147.025,13.571 147.391 M7.650 157.379 C 7.376 157.819,7.224 158.251,7.313 158.340 C 7.576 158.603,8.425 157.407,8.281 156.976 C 8.209 156.758,7.925 156.940,7.650 157.379 M6.499 159.862 C 6.044 160.879,6.053 160.908,6.652 160.322 C 7.004 159.977,7.223 159.489,7.139 159.236 C 7.054 158.983,6.767 159.265,6.499 159.862 M5.620 161.706 C 5.496 162.123,5.268 162.806,5.115 163.223 C 4.876 163.873,4.927 163.858,5.477 163.121 C 5.830 162.648,6.058 161.965,5.983 161.604 C 5.864 161.035,5.816 161.048,5.620 161.706 M4.580 164.601 C 4.563 164.942,4.295 165.710,3.983 166.307 C 3.672 166.905,3.416 167.703,3.415 168.082 C 3.413 168.460,3.231 169.110,3.009 169.525 C 2.787 169.940,2.677 170.483,2.766 170.732 C 2.854 170.981,3.139 170.417,3.398 169.479 C 3.658 168.540,4.128 167.148,4.442 166.384 C 4.757 165.620,4.923 164.767,4.812 164.488 C 4.668 164.127,4.601 164.159,4.580 164.601 M2.208 172.512 C 2.080 173.242,1.870 174.265,1.742 174.787 C 1.585 175.422,1.704 175.313,2.102 174.455 C 2.428 173.751,2.638 172.727,2.568 172.180 C 2.455 171.288,2.418 171.322,2.208 172.512 M1.067 178.755 C 0.938 180.208,0.645 181.460,0.416 181.536 C -0.079 181.701,-0.151 184.265,0.340 184.265 C 0.754 184.265,1.662 178.384,1.452 177.062 C 1.369 176.540,1.195 177.303,1.067 178.755 M0.000 196.177 C 0.000 196.889,0.181 197.533,0.402 197.606 C 0.623 197.680,0.956 198.931,1.142 200.387 L 1.480 203.033 1.320 200.190 C 1.064 195.652,-0.000 192.417,0.000 196.177 M1.735 204.360 C 1.860 204.882,2.098 205.905,2.264 206.635 C 2.563 207.946,2.567 207.948,2.593 206.825 C 2.608 206.199,2.370 205.175,2.064 204.550 C 1.594 203.588,1.543 203.558,1.735 204.360 M2.691 208.341 C 2.677 208.550,2.911 209.403,3.212 210.237 C 3.512 211.071,3.758 211.412,3.758 210.995 C 3.757 210.211,2.735 207.668,2.691 208.341 M3.807 212.395 C 3.798 212.747,3.962 213.141,4.171 213.270 C 4.379 213.399,4.570 213.878,4.594 214.335 C 4.626 214.942,4.683 214.993,4.807 214.524 C 4.900 214.171,4.716 213.404,4.399 212.818 C 4.013 212.106,3.817 211.966,3.807 212.395 M4.929 215.429 C 4.929 215.549,5.178 216.222,5.483 216.923 C 5.866 217.807,6.038 217.966,6.039 217.441 C 6.041 217.024,5.792 216.351,5.486 215.946 C 5.179 215.542,4.929 215.309,4.929 215.429 M6.499 219.285 C 6.767 219.882,7.054 220.164,7.139 219.911 C 7.223 219.658,7.004 219.170,6.652 218.825 C 6.053 218.239,6.044 218.268,6.499 219.285 M7.216 220.901 C 7.240 221.574,8.341 222.755,8.341 222.109 C 8.341 221.782,8.085 221.302,7.773 221.043 C 7.460 220.783,7.209 220.720,7.216 220.901 M8.341 223.008 C 8.341 224.110,16.153 235.727,16.596 235.284 C 16.763 235.117,14.759 232.307,13.868 231.460 C 13.643 231.247,13.255 230.735,13.005 230.323 C 12.756 229.911,11.833 228.379,10.955 226.919 C 9.039 223.734,8.341 222.689,8.341 223.008 M18.240 237.536 C 19.847 239.250,20.840 239.954,19.490 238.422 C 17.659 236.343,17.146 235.829,16.902 235.829 C 16.759 235.829,17.360 236.597,18.240 237.536 M22.560 242.111 C 26.020 245.358,34.502 251.824,34.502 251.214 C 34.502 251.116,33.607 250.436,32.512 249.702 C 31.417 248.969,30.026 247.936,29.420 247.407 C 28.814 246.878,28.217 246.445,28.093 246.444 C 27.840 246.442,25.895 244.726,22.679 241.669 C 21.494 240.543,20.386 239.621,20.216 239.621 C 20.047 239.621,21.101 240.741,22.560 242.111 M37.156 252.881 C 38.119 253.603,45.244 257.063,45.415 256.891 C 45.504 256.803,43.724 255.826,41.461 254.720 C 36.954 252.519,36.303 252.241,37.156 252.881 M47.204 257.665 C 48.698 258.226,52.021 259.324,52.250 259.332 C 52.958 259.357,51.629 258.604,50.636 258.417 C 49.913 258.282,48.845 257.922,48.262 257.618 C 47.680 257.315,46.863 257.073,46.445 257.081 C 46.001 257.089,46.316 257.331,47.204 257.665 M56.100 260.315 C 56.822 260.628,57.761 260.815,58.185 260.731 C 58.765 260.616,58.703 260.564,57.937 260.526 C 57.376 260.497,56.811 260.303,56.682 260.095 C 56.554 259.886,56.074 259.722,55.617 259.730 C 54.965 259.742,55.068 259.867,56.100 260.315 M61.991 261.421 C 63.242 261.716,64.863 261.942,65.592 261.923 C 67.147 261.883,64.513 261.327,61.422 261.042 C 59.880 260.900,59.935 260.936,61.991 261.421 M71.943 262.258 C 72.412 262.348,72.837 262.453,72.887 262.491 C 72.937 262.528,73.066 288.834,73.174 320.948 L 73.371 379.336 73.463 321.118 C 73.560 259.687,73.620 261.926,71.867 262.042 C 71.165 262.089,71.172 262.110,71.943 262.258 M397.755 330.865 C 397.532 331.666,397.369 332.834,397.392 333.460 C 397.419 334.189,397.491 334.325,397.592 333.839 C 397.679 333.422,397.938 332.351,398.169 331.458 C 398.693 329.429,398.307 328.876,397.755 330.865 M396.598 335.707 C 396.384 336.271,396.220 337.105,396.234 337.560 C 396.249 338.047,396.477 337.691,396.786 336.698 C 397.365 334.838,397.220 334.071,396.598 335.707 M395.481 339.279 C 395.256 339.700,395.078 340.355,395.086 340.733 C 395.095 341.145,395.325 340.904,395.660 340.132 C 396.275 338.716,396.136 338.055,395.481 339.279 M393.305 344.512 C 391.397 348.460,391.447 348.319,392.166 347.726 C 392.513 347.440,392.796 347.059,392.796 346.879 C 392.796 346.699,393.307 345.497,393.932 344.207 C 394.557 342.917,394.995 341.788,394.906 341.699 C 394.817 341.610,394.096 342.876,393.305 344.512 M390.900 349.005 C 390.633 349.328,390.499 349.677,390.603 349.781 C 390.707 349.886,391.012 349.707,391.280 349.384 C 391.548 349.061,391.682 348.712,391.577 348.607 C 391.473 348.503,391.168 348.682,390.900 349.005 M389.612 351.150 C 388.715 352.431,388.874 352.875,389.806 351.690 C 390.247 351.130,390.520 350.584,390.414 350.477 C 390.307 350.370,389.946 350.673,389.612 351.150 M388.057 353.744 C 387.925 354.161,387.669 354.502,387.488 354.502 C 387.308 354.502,387.042 354.875,386.898 355.330 C 386.619 356.207,377.154 365.877,376.573 365.877 C 376.385 365.877,375.747 366.293,375.155 366.802 C 374.564 367.310,373.097 368.372,371.896 369.162 C 370.695 369.951,369.773 370.658,369.847 370.732 C 370.380 371.264,379.075 364.353,382.938 360.326 C 386.607 356.502,389.355 352.986,388.675 352.986 C 388.467 352.986,388.189 353.327,388.057 353.744 M367.433 371.589 C 365.283 372.744,365.169 373.232,367.299 372.167 C 368.393 371.620,369.289 371.090,369.289 370.989 C 369.289 370.696,368.809 370.851,367.433 371.589 M363.390 373.637 C 362.432 374.361,362.847 374.369,364.222 373.652 C 364.819 373.340,365.042 373.084,364.717 373.083 C 364.392 373.082,363.795 373.331,363.390 373.637 M360.736 374.775 C 359.778 375.499,360.193 375.506,361.568 374.789 C 362.165 374.478,362.388 374.222,362.063 374.220 C 361.738 374.219,361.141 374.469,360.736 374.775 M357.575 375.767 C 356.078 376.366,356.876 376.501,358.498 375.924 C 359.324 375.629,359.659 375.392,359.242 375.396 C 358.825 375.400,358.075 375.567,357.575 375.767 M353.175 377.083 C 352.213 377.553,352.184 377.604,352.986 377.412 C 353.507 377.287,354.531 377.049,355.261 376.883 C 356.571 376.584,356.574 376.580,355.450 376.554 C 354.825 376.539,353.801 376.777,353.175 377.083 M347.706 377.963 C 346.794 378.218,346.127 379.147,346.856 379.147 C 347.065 379.147,347.298 378.958,347.376 378.726 C 347.453 378.495,348.533 378.176,349.777 378.018 C 351.849 377.754,351.895 377.729,350.332 377.718 C 349.393 377.711,348.212 377.822,347.706 377.963 " stroke="none" fill="#bcbcbc" fill-rule="evenodd"></path><path id="path4" d="M72.411 57.725 C 72.408 89.474,72.276 115.654,72.118 115.903 C 71.960 116.152,70.811 116.418,69.564 116.495 L 67.299 116.634 69.835 116.706 C 71.231 116.745,72.447 116.649,72.539 116.493 C 72.949 115.791,73.246 0.000,72.837 0.000 C 72.532 0.000,72.415 15.753,72.411 57.725 M348.436 0.379 C 348.436 0.588,348.564 0.760,348.720 0.761 C 351.122 0.785,361.152 3.655,364.022 5.140 C 364.664 5.472,365.265 5.668,365.357 5.575 C 365.505 5.428,364.674 4.999,361.896 3.789 C 361.479 3.607,359.943 3.093,358.483 2.645 C 357.024 2.198,355.550 1.686,355.209 1.508 C 354.868 1.330,353.545 1.067,352.271 0.923 C 350.996 0.778,349.953 0.512,349.953 0.330 C 349.953 0.149,349.611 0.000,349.194 0.000 C 348.777 0.000,348.436 0.171,348.436 0.379 M366.256 6.087 C 366.569 6.301,367.610 6.886,368.569 7.386 C 378.443 12.539,387.891 22.525,393.477 33.714 C 394.562 35.887,395.450 37.461,395.450 37.213 C 395.450 36.618,393.266 32.066,392.058 30.142 C 390.419 27.532,390.185 27.132,389.789 26.256 C 389.576 25.787,389.228 25.403,389.014 25.403 C 388.800 25.403,388.626 25.207,388.626 24.968 C 388.626 23.092,377.080 11.968,372.338 9.274 C 371.957 9.058,371.413 8.696,371.130 8.471 C 370.360 7.859,366.342 5.686,365.992 5.693 C 365.824 5.696,365.943 5.874,366.256 6.087 M395.450 38.178 C 395.450 38.403,395.705 39.075,396.017 39.672 C 396.470 40.541,396.581 40.606,396.573 40.000 C 396.568 39.583,396.313 38.911,396.007 38.506 C 395.701 38.101,395.450 37.953,395.450 38.178 M396.603 41.378 C 396.594 41.719,396.837 42.572,397.142 43.274 C 397.446 43.976,397.702 44.271,397.710 43.930 C 397.718 43.589,397.476 42.736,397.171 42.034 C 396.867 41.332,396.611 41.037,396.603 41.378 M397.764 45.195 C 397.743 45.550,397.966 46.764,398.260 47.893 C 398.554 49.022,398.917 51.675,399.067 53.788 C 399.355 57.855,400.000 59.069,400.000 55.545 C 400.000 54.398,399.829 53.460,399.621 53.460 C 399.412 53.460,399.234 52.735,399.225 51.848 C 399.216 50.962,399.055 49.555,398.866 48.720 C 398.235 45.925,397.803 44.544,397.764 45.195 M60.739 117.151 C 58.913 117.584,58.691 118.073,60.474 117.734 C 61.308 117.575,62.929 117.320,64.076 117.167 L 66.161 116.889 64.076 116.872 C 62.929 116.862,61.427 116.988,60.739 117.151 M55.028 118.498 C 54.326 118.803,53.302 119.053,52.753 119.054 C 52.203 119.056,51.296 119.296,50.736 119.587 C 50.177 119.879,49.198 120.233,48.561 120.373 C 47.923 120.513,47.305 120.785,47.186 120.977 C 47.067 121.170,46.699 121.327,46.368 121.327 C 45.830 121.327,41.170 123.360,39.256 124.430 C 38.847 124.659,37.823 125.216,36.981 125.668 C 33.511 127.530,28.730 130.889,25.082 134.028 C 21.293 137.290,13.649 145.644,13.649 146.525 C 13.649 146.655,13.476 146.968,13.263 147.220 C 11.722 149.048,11.374 149.561,11.374 150.011 C 11.374 150.292,11.246 150.522,11.090 150.524 C 10.627 150.528,6.809 157.475,6.843 158.253 C 6.853 158.484,7.449 157.504,8.168 156.076 C 8.888 154.648,9.988 152.720,10.615 151.792 C 11.241 150.863,11.754 150.020,11.754 149.917 C 11.754 149.814,12.607 148.585,13.650 147.187 C 14.693 145.789,15.923 144.133,16.384 143.507 C 21.326 136.795,32.363 128.154,41.706 123.681 C 46.897 121.195,49.893 120.187,57.630 118.322 L 58.957 118.002 57.630 117.973 C 56.900 117.957,55.729 118.194,55.028 118.498 M6.136 159.324 C 5.889 159.571,5.687 160.032,5.687 160.350 C 5.687 160.746,5.878 160.655,6.295 160.060 C 6.960 159.110,6.852 158.608,6.136 159.324 M5.009 161.908 C 4.757 162.313,4.549 162.859,4.547 163.123 C 4.546 163.386,4.297 164.078,3.993 164.661 C 3.689 165.243,3.330 166.311,3.194 167.034 C 3.058 167.758,2.796 168.443,2.611 168.557 C 2.426 168.672,2.292 169.224,2.313 169.785 C 2.340 170.516,2.557 170.160,3.076 168.531 C 3.475 167.280,3.910 166.000,4.044 165.687 C 5.256 162.844,5.832 160.590,5.009 161.908 M1.947 171.826 C 1.919 172.387,1.725 172.952,1.517 173.081 C 1.308 173.209,1.149 173.774,1.164 174.335 C 1.188 175.238,1.255 175.180,1.746 173.839 C 2.052 173.005,2.234 171.981,2.150 171.564 C 2.040 171.013,1.985 171.085,1.947 171.826 M0.802 177.156 C 0.778 178.147,0.588 178.957,0.379 178.957 C 0.171 178.957,0.000 179.384,0.000 179.905 C 0.000 180.427,0.158 180.853,0.352 180.853 C 0.765 180.853,1.296 177.107,1.029 176.069 C 0.929 175.677,0.826 176.166,0.802 177.156 M0.000 199.242 C 0.000 199.763,0.171 200.190,0.379 200.190 C 0.588 200.190,0.778 201.000,0.802 201.991 C 0.826 202.981,0.929 203.470,1.029 203.078 C 1.296 202.040,0.765 198.294,0.352 198.294 C 0.158 198.294,0.000 198.720,0.000 199.242 M1.164 204.812 C 1.149 205.373,1.308 205.937,1.517 206.066 C 1.725 206.195,1.919 206.760,1.947 207.321 C 1.985 208.062,2.040 208.134,2.150 207.583 C 2.234 207.166,2.052 206.142,1.746 205.308 C 1.255 203.967,1.188 203.909,1.164 204.812 M2.304 209.151 C 2.288 209.596,2.530 210.449,2.841 211.047 C 3.538 212.383,3.540 211.476,2.844 209.668 C 2.464 208.683,2.325 208.550,2.304 209.151 M3.436 212.512 C 3.438 213.131,4.725 216.621,5.255 217.441 L 5.744 218.199 5.481 217.441 C 5.336 217.024,4.989 215.956,4.711 215.068 C 4.176 213.361,3.435 211.875,3.436 212.512 M5.687 218.623 C 5.687 219.493,10.614 228.619,11.086 228.623 C 11.240 228.625,10.725 227.559,9.941 226.256 C 9.157 224.953,8.099 222.948,7.590 221.801 C 6.550 219.458,5.687 218.017,5.687 218.623 M11.374 229.267 C 11.374 229.476,11.673 229.998,12.038 230.428 C 12.403 230.857,12.957 231.586,13.270 232.046 C 18.758 240.124,28.493 248.924,36.981 253.479 C 37.823 253.931,38.847 254.482,39.256 254.704 C 41.686 256.021,45.638 257.820,46.102 257.820 C 46.401 257.820,46.942 257.989,47.304 258.196 C 48.323 258.779,51.211 259.751,52.891 260.076 C 53.725 260.238,54.888 260.564,55.475 260.801 C 56.062 261.038,57.086 261.213,57.750 261.189 L 58.957 261.145 57.630 260.825 C 51.841 259.430,50.927 259.163,46.635 257.622 C 42.636 256.186,32.783 250.914,30.865 249.183 C 30.467 248.824,29.379 248.019,28.446 247.393 C 25.612 245.494,17.748 237.409,14.467 233.022 C 12.766 230.748,11.374 229.058,11.374 229.267 M59.905 261.641 C 60.427 261.876,62.389 262.124,64.265 262.192 C 67.671 262.316,67.673 262.316,65.024 262.013 C 63.564 261.846,61.602 261.598,60.664 261.461 C 59.207 261.250,59.096 261.277,59.905 261.641 M70.327 262.651 C 71.158 262.736,71.966 263.006,72.122 263.251 C 72.278 263.496,72.408 289.673,72.411 321.422 C 72.415 363.569,72.531 379.147,72.839 379.147 C 73.250 379.147,72.953 263.356,72.540 262.654 C 72.448 262.498,71.572 262.398,70.594 262.433 L 68.815 262.497 70.327 262.651 M399.040 325.894 C 398.891 327.676,398.876 329.240,399.006 329.369 C 399.136 329.499,399.242 328.809,399.242 327.836 C 399.242 326.863,399.412 326.066,399.621 326.066 C 399.829 326.066,400.000 325.299,400.000 324.360 C 400.000 321.419,399.322 322.501,399.040 325.894 M398.154 331.943 C 395.075 345.483,385.840 360.130,376.277 366.639 C 375.249 367.339,374.322 368.009,374.218 368.127 C 373.740 368.667,370.376 370.738,368.061 371.916 C 366.656 372.631,365.581 373.290,365.672 373.381 C 366.090 373.800,371.711 370.532,375.545 367.640 C 380.212 364.121,388.626 355.482,388.626 354.211 C 388.626 353.989,388.754 353.750,388.910 353.681 C 389.229 353.539,390.621 351.584,391.025 350.711 C 391.170 350.398,391.616 349.630,392.017 349.005 C 392.899 347.629,393.970 345.488,395.052 342.938 C 395.494 341.896,395.999 340.781,396.174 340.461 C 396.348 340.142,396.618 339.289,396.773 338.566 C 396.928 337.843,397.183 337.081,397.340 336.872 C 397.498 336.664,397.741 335.810,397.881 334.976 C 398.021 334.142,398.313 333.007,398.530 332.453 C 398.747 331.899,398.868 331.046,398.798 330.557 C 398.716 329.982,398.489 330.470,398.154 331.943 M363.981 373.848 C 363.021 374.429,360.108 375.572,357.915 376.230 C 352.594 377.825,351.692 378.319,356.019 377.268 C 358.192 376.741,364.705 374.200,364.966 373.779 C 365.219 373.370,364.713 373.406,363.981 373.848 M348.720 378.281 C 347.418 378.478,347.344 379.147,348.626 379.147 C 349.147 379.147,349.573 378.987,349.573 378.791 C 349.573 378.595,350.213 378.367,350.995 378.286 L 352.417 378.137 351.090 378.130 C 350.360 378.126,349.294 378.194,348.720 378.281 " stroke="none" fill="#cccccc" fill-rule="evenodd"></path></g></svg>