<svg width="150" height="125" viewBox="0 0 150 125" fill="none" xmlns="http://www.w3.org/2000/svg">
<g clip-path="url(#clip0_35_63)">
<path fill-rule="evenodd" clip-rule="evenodd" d="M51 100H25V75C38.8071 75 50 63.8071 50 50C50 36.1929 38.8071 25 25 25V0H120C122.761 0 125 2.23858 125 5V100H101C101 113.807 89.8071 125 76 125C62.1929 125 51 113.807 51 100Z" fill="#F2E589"/>
<mask id="mask0_35_63" style="mask-type:luminance" maskUnits="userSpaceOnUse" x="25" y="0" width="100" height="125">
<path fill-rule="evenodd" clip-rule="evenodd" d="M51 100H25V75C38.8071 75 50 63.8071 50 50C50 36.1929 38.8071 25 25 25V0H120C122.761 0 125 2.23858 125 5V100H101C101 113.807 89.8071 125 76 125C62.1929 125 51 113.807 51 100Z" fill="white"/>
</mask>
<g mask="url(#mask0_35_63)">
<path d="M25 100H23V102H25V100ZM51 100H53V98H51V100ZM25 75V73H23V75H25ZM25 25H23V27H25V25ZM25 0V-2H23V0H25ZM125 100V102H127V100H125ZM101 100V98H99V100H101ZM25 102H51V98H25V102ZM23 75V100H27V75H23ZM48 50C48 62.7025 37.7026 73 25 73V77C39.9117 77 52 64.9117 52 50H48ZM25 27C37.7026 27 48 37.2975 48 50H52C52 35.0883 39.9117 23 25 23V27ZM23 0V25H27V0H23ZM120 -2H25V2H120V-2ZM127 5C127 1.13401 123.866 -2 120 -2V2C121.657 2 123 3.34315 123 5H127ZM127 100V5H123V100H127ZM101 102H125V98H101V102ZM99 100C99 112.703 88.7025 123 76 123V127C90.9117 127 103 114.912 103 100H99ZM76 123C63.2975 123 53 112.703 53 100H49C49 114.912 61.0883 127 76 127V123Z" fill="white"/>
</g>
<path d="M63.78 48.84C63.5533 48.88 63.4 48.7667 63.32 48.5C63.2533 48.2467 63.32 48.08 63.52 48C64.2133 47.7067 64.7133 47.2933 65.02 46.76C65.34 46.2267 65.54 45.5467 65.62 44.72C65.7133 43.8933 65.76 42.9067 65.76 41.76V34.72C65.76 34.4667 65.7333 34.2267 65.68 34C65.64 33.76 65.5333 33.5667 65.36 33.42C65.1867 33.26 64.8867 33.18 64.46 33.18C64.3267 33.18 64.2067 33.1667 64.1 33.14C64.0067 33.1133 63.9533 32.9867 63.94 32.76C63.94 32.6533 63.9667 32.5533 64.02 32.46C64.0867 32.3667 64.18 32.32 64.3 32.32C64.7267 32.3333 65.1267 32.3467 65.5 32.36C65.8867 32.3733 66.28 32.38 66.68 32.38C67.4933 32.38 68.3267 32.36 69.18 32.32C69.3 32.32 69.3867 32.3667 69.44 32.46C69.5067 32.5533 69.54 32.6533 69.54 32.76C69.5267 32.9867 69.4733 33.1133 69.38 33.14C69.2867 33.1667 69.1667 33.18 69.02 33.18C68.6067 33.18 68.3067 33.26 68.12 33.42C67.9467 33.5667 67.84 33.76 67.8 34C67.76 34.2267 67.7333 34.4667 67.72 34.72V42.44C67.72 43.4933 67.6 44.46 67.36 45.34C67.12 46.22 66.7133 46.96 66.14 47.56C65.5667 48.1733 64.78 48.6 63.78 48.84ZM72.9225 45.24C72.1092 45.24 71.4558 45.0067 70.9625 44.54C70.4825 44.0733 70.2425 43.5133 70.2425 42.86C70.2425 42.18 70.4158 41.6467 70.7625 41.26C71.1225 40.8733 71.5892 40.5867 72.1625 40.4C72.7492 40.2133 73.3825 40.0867 74.0625 40.02C74.7558 39.9533 75.4292 39.9 76.0825 39.86V38.28C76.0825 37.6533 75.9225 37.1667 75.6025 36.82C75.2958 36.46 74.7692 36.28 74.0225 36.28C73.6492 36.28 73.2958 36.4 72.9625 36.64C72.6425 36.88 72.4825 37.2267 72.4825 37.68C72.4825 37.8933 72.5358 38.0733 72.6425 38.22C72.7492 38.3667 72.8558 38.48 72.9625 38.56C73.0692 38.64 73.1225 38.6933 73.1225 38.72C73.1225 38.7733 73.0425 38.8733 72.8825 39.02C72.7358 39.1533 72.5292 39.22 72.2625 39.22C71.8492 39.22 71.5292 39.0667 71.3025 38.76C71.0758 38.4533 70.9625 38.1133 70.9625 37.74C70.9625 37.2333 71.1158 36.8333 71.4225 36.54C71.7425 36.2467 72.1492 36.0333 72.6425 35.9C73.1358 35.7667 73.6358 35.7 74.1425 35.7C74.7425 35.7 75.3225 35.7733 75.8825 35.92C76.4558 36.0667 76.9225 36.3467 77.2825 36.76C77.6558 37.1733 77.8425 37.7933 77.8425 38.62V43.28C77.8558 43.4133 77.8892 43.5733 77.9425 43.76C77.9958 43.9467 78.0958 44.1133 78.2425 44.26C78.4025 44.3933 78.6158 44.46 78.8825 44.46C78.9758 44.46 79.0492 44.48 79.1025 44.52C79.1558 44.5467 79.1825 44.6333 79.1825 44.78C79.1825 44.9 79.1158 44.9933 78.9825 45.06C78.8492 45.1267 78.6958 45.1733 78.5225 45.2C78.3492 45.2267 78.2025 45.24 78.0825 45.24C77.5892 45.24 77.1492 45.1 76.7625 44.82C76.3758 44.5267 76.1492 44.1267 76.0825 43.62C75.7892 44.1533 75.3492 44.56 74.7625 44.84C74.1892 45.1067 73.5758 45.24 72.9225 45.24ZM73.5625 44.16C74.0158 44.16 74.4292 44.0467 74.8025 43.82C75.1892 43.5933 75.4958 43.2867 75.7225 42.9C75.9625 42.5 76.0825 42.06 76.0825 41.58V40.44C74.7092 40.5333 73.7292 40.7533 73.1425 41.1C72.5558 41.4467 72.2625 42.0133 72.2625 42.8C72.2625 43.7067 72.6958 44.16 73.5625 44.16ZM84.2505 45.2C83.9171 44.4667 83.5838 43.6667 83.2505 42.8C82.9171 41.9333 82.5905 41.0867 82.2705 40.26C81.9505 39.4333 81.6438 38.7133 81.3505 38.1C81.1371 37.6067 80.9305 37.26 80.7305 37.06C80.5305 36.8467 80.2305 36.7133 79.8305 36.66C79.6571 36.6333 79.5371 36.6067 79.4705 36.58C79.4171 36.5533 79.3838 36.4533 79.3705 36.28C79.3571 36.0533 79.4171 35.9333 79.5505 35.92C79.6971 35.8933 79.8705 35.8733 80.0705 35.86C80.8971 35.82 81.5438 35.94 82.0105 36.22C82.4771 36.5 82.8571 36.9733 83.1505 37.64C83.3371 38.0533 83.5438 38.5667 83.7705 39.18C84.0105 39.7933 84.2571 40.4133 84.5105 41.04C84.7638 41.6667 85.0105 42.2333 85.2505 42.74H85.3105L87.2905 37.5C87.4238 37.1133 87.4305 36.8733 87.3105 36.78C87.1905 36.6867 86.9305 36.64 86.5305 36.64C86.4105 36.64 86.3105 36.6333 86.2305 36.62C86.1505 36.5933 86.1038 36.48 86.0905 36.28C86.0905 36.2 86.1105 36.1133 86.1505 36.02C86.2038 35.9267 86.2771 35.88 86.3705 35.88C86.7571 35.8933 87.0905 35.9067 87.3705 35.92C87.6505 35.9333 87.9638 35.94 88.3105 35.94C88.5505 35.94 88.7438 35.94 88.8905 35.94C89.0371 35.9267 89.1905 35.92 89.3505 35.92C89.5105 35.9067 89.7171 35.8933 89.9705 35.88C90.0771 35.88 90.1505 35.9267 90.1905 36.02C90.2438 36.1133 90.2705 36.2 90.2705 36.28C90.2571 36.48 90.2038 36.5933 90.1105 36.62C90.0305 36.6333 89.9371 36.64 89.8305 36.64C89.3905 36.64 89.0371 36.72 88.7705 36.88C88.5171 37.04 88.2971 37.3533 88.1105 37.82C88.1105 37.82 88.0371 38 87.8905 38.36C87.7571 38.7067 87.5771 39.16 87.3505 39.72C87.1238 40.28 86.8838 40.8733 86.6305 41.5C86.3771 42.1267 86.1305 42.72 85.8905 43.28C85.6638 43.84 85.4771 44.3 85.3305 44.66C85.1838 45.02 85.1038 45.2 85.0905 45.2H84.2505ZM93.0983 45.24C92.2849 45.24 91.6316 45.0067 91.1383 44.54C90.6583 44.0733 90.4183 43.5133 90.4183 42.86C90.4183 42.18 90.5916 41.6467 90.9383 41.26C91.2983 40.8733 91.7649 40.5867 92.3383 40.4C92.9249 40.2133 93.5583 40.0867 94.2383 40.02C94.9316 39.9533 95.6049 39.9 96.2583 39.86V38.28C96.2583 37.6533 96.0983 37.1667 95.7783 36.82C95.4716 36.46 94.9449 36.28 94.1983 36.28C93.8249 36.28 93.4716 36.4 93.1383 36.64C92.8183 36.88 92.6583 37.2267 92.6583 37.68C92.6583 37.8933 92.7116 38.0733 92.8183 38.22C92.9249 38.3667 93.0316 38.48 93.1383 38.56C93.2449 38.64 93.2983 38.6933 93.2983 38.72C93.2983 38.7733 93.2183 38.8733 93.0583 39.02C92.9116 39.1533 92.7049 39.22 92.4383 39.22C92.0249 39.22 91.7049 39.0667 91.4783 38.76C91.2516 38.4533 91.1383 38.1133 91.1383 37.74C91.1383 37.2333 91.2916 36.8333 91.5983 36.54C91.9183 36.2467 92.3249 36.0333 92.8183 35.9C93.3116 35.7667 93.8116 35.7 94.3183 35.7C94.9183 35.7 95.4983 35.7733 96.0583 35.92C96.6316 36.0667 97.0983 36.3467 97.4583 36.76C97.8316 37.1733 98.0183 37.7933 98.0183 38.62V43.28C98.0316 43.4133 98.0649 43.5733 98.1183 43.76C98.1716 43.9467 98.2716 44.1133 98.4183 44.26C98.5783 44.3933 98.7916 44.46 99.0583 44.46C99.1516 44.46 99.2249 44.48 99.2783 44.52C99.3316 44.5467 99.3583 44.6333 99.3583 44.78C99.3583 44.9 99.2916 44.9933 99.1583 45.06C99.0249 45.1267 98.8716 45.1733 98.6983 45.2C98.5249 45.2267 98.3783 45.24 98.2583 45.24C97.7649 45.24 97.3249 45.1 96.9383 44.82C96.5516 44.5267 96.3249 44.1267 96.2583 43.62C95.9649 44.1533 95.5249 44.56 94.9383 44.84C94.3649 45.1067 93.7516 45.24 93.0983 45.24ZM93.7383 44.16C94.1916 44.16 94.6049 44.0467 94.9783 43.82C95.3649 43.5933 95.6716 43.2867 95.8983 42.9C96.1383 42.5 96.2583 42.06 96.2583 41.58V40.44C94.8849 40.5333 93.9049 40.7533 93.3183 41.1C92.7316 41.4467 92.4383 42.0133 92.4383 42.8C92.4383 43.7067 92.8716 44.16 93.7383 44.16ZM67.36 68.24C66.3333 68.24 65.4733 68.06 64.78 67.7C64.1 67.3267 63.76 66.7933 63.76 66.1C63.76 65.7133 63.8733 65.4 64.1 65.16C64.34 64.92 64.6467 64.8 65.02 64.8C65.26 64.8 65.4533 64.8667 65.6 65C65.76 65.12 65.84 65.2067 65.84 65.26C65.84 65.3 65.76 65.3933 65.6 65.54C65.4533 65.6733 65.38 65.8933 65.38 66.2C65.38 66.5733 65.5533 66.8867 65.9 67.14C66.26 67.38 66.8 67.5 67.52 67.5C68.1467 67.5 68.6333 67.3667 68.98 67.1C69.34 66.82 69.52 66.4333 69.52 65.94C69.52 65.54 69.3867 65.2333 69.12 65.02C68.8667 64.7933 68.5333 64.6133 68.12 64.48C67.72 64.3467 67.2867 64.2133 66.82 64.08C66.3667 63.9467 65.9333 63.78 65.52 63.58C65.1067 63.38 64.7667 63.1067 64.5 62.76C64.2467 62.4 64.12 61.9267 64.12 61.34C64.12 60.74 64.3 60.2467 64.66 59.86C65.02 59.4733 65.48 59.1867 66.04 59C66.6 58.8 67.1667 58.7 67.74 58.7C68.2333 58.7 68.7 58.7733 69.14 58.92C69.58 59.0533 69.94 59.26 70.22 59.54C70.5133 59.82 70.66 60.1733 70.66 60.6C70.66 60.9333 70.5533 61.2333 70.34 61.5C70.1267 61.7667 69.8333 61.9 69.46 61.9C69.22 61.9 69.02 61.84 68.86 61.72C68.7133 61.5867 68.64 61.4933 68.64 61.44C68.64 61.4133 68.6867 61.3667 68.78 61.3C68.8867 61.22 68.9867 61.12 69.08 61C69.1733 60.8667 69.22 60.7 69.22 60.5C69.1933 60.1133 69.0067 59.8267 68.66 59.64C68.3133 59.4533 67.9267 59.36 67.5 59.36C67.0333 59.36 66.6 59.4733 66.2 59.7C65.8 59.9267 65.6 60.2533 65.6 60.68C65.6 61.0667 65.68 61.3667 65.84 61.58C66.0133 61.7933 66.28 61.98 66.64 62.14C67.0133 62.2867 67.4933 62.4533 68.08 62.64C68.6667 62.8267 69.18 63.02 69.62 63.22C70.0733 63.42 70.42 63.6867 70.66 64.02C70.9133 64.34 71.04 64.78 71.04 65.34C71.04 65.9 70.88 66.4 70.56 66.84C70.24 67.28 69.8 67.6267 69.24 67.88C68.6933 68.12 68.0667 68.24 67.36 68.24ZM77.0472 68.24C75.6739 68.24 74.6005 67.8067 73.8272 66.94C73.0672 66.06 72.6872 64.9 72.6872 63.46C72.7272 62.54 72.9539 61.7267 73.3672 61.02C73.7939 60.3133 74.3539 59.76 75.0472 59.36C75.7539 58.9467 76.5339 58.7267 77.3872 58.7C77.8539 58.7 78.3272 58.76 78.8072 58.88C79.3005 58.9867 79.7072 59.1933 80.0272 59.5C80.3605 59.7933 80.5272 60.22 80.5272 60.78C80.5272 61.1667 80.4072 61.5267 80.1672 61.86C79.9272 62.18 79.5939 62.34 79.1672 62.34C78.8739 62.34 78.6472 62.2667 78.4872 62.12C78.3272 61.9733 78.2472 61.8667 78.2472 61.8C78.2472 61.7733 78.3005 61.72 78.4072 61.64C78.5272 61.5467 78.6405 61.4267 78.7472 61.28C78.8539 61.12 78.9072 60.9267 78.9072 60.7C78.9072 60.2733 78.7539 59.96 78.4472 59.76C78.1405 59.56 77.7939 59.4533 77.4072 59.44C76.8205 59.44 76.3472 59.56 75.9872 59.8C75.6405 60.04 75.3739 60.36 75.1872 60.76C75.0005 61.1467 74.8739 61.5733 74.8072 62.04C74.7539 62.5067 74.7272 62.96 74.7272 63.4C74.7272 64.1333 74.8405 64.7933 75.0672 65.38C75.2939 65.9533 75.6139 66.4067 76.0272 66.74C76.4405 67.0733 76.9339 67.24 77.5072 67.24C78.0939 67.24 78.5872 67.1133 78.9872 66.86C79.3872 66.6067 79.7539 66.2333 80.0872 65.74C80.1805 65.6067 80.3205 65.5933 80.5072 65.7C80.6005 65.7533 80.6672 65.8267 80.7072 65.92C80.7472 66.0133 80.7339 66.1067 80.6672 66.2C80.2272 66.8267 79.6805 67.3267 79.0272 67.7C78.3739 68.06 77.7139 68.24 77.0472 68.24ZM82.3394 68.06C82.246 68.06 82.166 68.02 82.0994 67.94C82.046 67.8467 82.0194 67.7533 82.0194 67.66C82.046 67.46 82.0994 67.3533 82.1794 67.34C82.2594 67.3133 82.366 67.3 82.4994 67.3C82.8727 67.3 83.126 67.24 83.2594 67.12C83.3927 66.9867 83.466 66.8133 83.4794 66.6C83.506 66.3867 83.5194 66.1667 83.5194 65.94V61.36C83.5194 61.12 83.506 60.9 83.4794 60.7C83.466 60.4867 83.3927 60.32 83.2594 60.2C83.126 60.0667 82.8727 60 82.4994 60C82.3794 60 82.266 59.9867 82.1594 59.96C82.066 59.92 82.0194 59.8 82.0194 59.6C82.0194 59.4 82.126 59.28 82.3394 59.24C82.9527 59.1467 83.4194 59.0533 83.7394 58.96C84.0727 58.8667 84.3194 58.7867 84.4794 58.72C84.6527 58.6533 84.806 58.6133 84.9394 58.6C85.046 58.5867 85.1327 58.6067 85.1994 58.66C85.2794 58.7133 85.3194 58.82 85.3194 58.98V60.22H85.3794C85.8327 59.78 86.2994 59.42 86.7794 59.14C87.2594 58.8467 87.6994 58.7 88.0994 58.7C88.566 58.7 88.9194 58.8733 89.1594 59.22C89.4127 59.5667 89.5394 59.9333 89.5394 60.32C89.5394 60.6533 89.4327 60.98 89.2194 61.3C89.006 61.6067 88.686 61.76 88.2594 61.76C88.046 61.76 87.8727 61.72 87.7394 61.64C87.6194 61.5467 87.5527 61.48 87.5394 61.44C87.5394 61.4133 87.5994 61.3333 87.7194 61.2C87.8527 61.0667 87.9194 60.9 87.9194 60.7C87.9194 60.46 87.8527 60.2667 87.7194 60.12C87.5994 59.9733 87.4327 59.9 87.2194 59.9C86.9927 59.9 86.6994 60.0133 86.3394 60.24C85.9927 60.4667 85.6594 60.74 85.3394 61.06V65.94C85.3394 66.1667 85.346 66.3867 85.3594 66.6C85.386 66.8133 85.466 66.9867 85.5994 67.12C85.746 67.24 86.006 67.3 86.3794 67.3C86.4994 67.3 86.5994 67.3133 86.6794 67.34C86.7727 67.3533 86.826 67.46 86.8394 67.66C86.8394 67.7533 86.8127 67.8467 86.7594 67.94C86.706 68.02 86.626 68.06 86.5194 68.06C86.1327 68.0333 85.7727 68.0133 85.4394 68C85.1194 68 84.7794 68 84.4194 68C84.0594 68 83.7194 68 83.3994 68C83.0794 68.0133 82.726 68.0333 82.3394 68.06ZM90.8355 68.06C90.7421 68.06 90.6621 68.02 90.5955 67.94C90.5421 67.8467 90.5155 67.7533 90.5155 67.66C90.5421 67.46 90.5955 67.3533 90.6755 67.34C90.7555 67.3133 90.8621 67.3 90.9955 67.3C91.3688 67.3 91.6221 67.24 91.7555 67.12C91.8888 66.9867 91.9621 66.8133 91.9755 66.6C92.0021 66.3867 92.0155 66.1667 92.0155 65.94V61.36C92.0155 61.12 92.0021 60.9 91.9755 60.7C91.9621 60.4867 91.8888 60.32 91.7555 60.2C91.6221 60.0667 91.3688 60 90.9955 60C90.8755 60 90.7621 59.9867 90.6555 59.96C90.5621 59.92 90.5155 59.8 90.5155 59.6C90.5155 59.4 90.6221 59.28 90.8355 59.24C91.4488 59.1467 91.9155 59.0533 92.2355 58.96C92.5688 58.8667 92.8221 58.7867 92.9955 58.72C93.1688 58.6533 93.3221 58.6133 93.4555 58.6C93.5621 58.5867 93.6488 58.6067 93.7155 58.66C93.7955 58.7133 93.8355 58.82 93.8355 58.98V65.94C93.8355 66.1667 93.8421 66.3867 93.8555 66.6C93.8821 66.8133 93.9621 66.9867 94.0955 67.12C94.2421 67.24 94.5021 67.3 94.8755 67.3C94.9955 67.3 95.0955 67.3133 95.1755 67.34C95.2688 67.3533 95.3221 67.46 95.3355 67.66C95.3355 67.7533 95.3088 67.8467 95.2555 67.94C95.2021 68.02 95.1221 68.06 95.0155 68.06C94.6288 68.0333 94.2688 68.0133 93.9355 68C93.6155 68 93.2755 68 92.9155 68C92.5555 68 92.2155 68 91.8955 68C91.5755 68.0133 91.2221 68.0333 90.8355 68.06ZM92.8155 56.38C92.4421 56.38 92.1288 56.2667 91.8755 56.04C91.6221 55.8 91.4955 55.5067 91.4955 55.16C91.4955 54.8533 91.6488 54.58 91.9555 54.34C92.2621 54.1 92.6088 53.98 92.9955 53.98C93.3288 53.98 93.6021 54.1 93.8155 54.34C94.0288 54.5667 94.1355 54.86 94.1355 55.22C94.1355 55.54 94.0088 55.8133 93.7555 56.04C93.5021 56.2667 93.1888 56.38 92.8155 56.38ZM96.4558 72.16C96.3624 72.16 96.2824 72.1133 96.2158 72.02C96.1624 71.94 96.1358 71.8533 96.1358 71.76C96.1491 71.56 96.1958 71.4467 96.2758 71.42C96.3691 71.4067 96.4758 71.4 96.5958 71.4C96.9558 71.4 97.2024 71.3333 97.3358 71.2C97.4824 71.08 97.5691 70.9133 97.5958 70.7C97.6224 70.4867 97.6358 70.2667 97.6358 70.04V61.36C97.6358 61.12 97.6224 60.9 97.5958 60.7C97.5824 60.4867 97.5091 60.32 97.3758 60.2C97.2424 60.0667 96.9891 60 96.6158 60C96.4958 60 96.3824 59.9867 96.2758 59.96C96.1824 59.92 96.1358 59.8 96.1358 59.6C96.1358 59.4 96.2424 59.28 96.4558 59.24C97.0691 59.1467 97.5358 59.0533 97.8558 58.96C98.1891 58.8667 98.4358 58.7867 98.5958 58.72C98.7691 58.6533 98.9224 58.6133 99.0558 58.6C99.1624 58.5867 99.2491 58.6067 99.3158 58.66C99.3958 58.7133 99.4358 58.82 99.4358 58.98V59.94H99.4958C99.8691 59.5933 100.316 59.3 100.836 59.06C101.356 58.82 101.856 58.7 102.336 58.7C103.149 58.7 103.869 58.9 104.496 59.3C105.122 59.7 105.616 60.26 105.976 60.98C106.336 61.6867 106.516 62.5133 106.516 63.46C106.516 64.42 106.296 65.26 105.856 65.98C105.416 66.7 104.849 67.26 104.156 67.66C103.462 68.0467 102.722 68.24 101.936 68.24C101.336 68.24 100.849 68.1733 100.476 68.04C100.116 67.92 99.8024 67.78 99.5358 67.62H99.4558V70.04C99.4558 70.2667 99.4691 70.4867 99.4958 70.7C99.5224 70.9133 99.6091 71.08 99.7558 71.2C99.9024 71.3333 100.149 71.4 100.496 71.4C100.616 71.4 100.716 71.4067 100.796 71.42C100.889 71.4467 100.942 71.56 100.956 71.76C100.956 71.8533 100.929 71.94 100.876 72.02C100.822 72.1133 100.742 72.16 100.636 72.16C100.249 72.1333 99.8891 72.1133 99.5558 72.1C99.2358 72.1 98.8958 72.1 98.5358 72.1C98.1758 72.1 97.8358 72.1 97.5158 72.1C97.1958 72.1133 96.8424 72.1333 96.4558 72.16ZM101.776 67.56C102.296 67.56 102.729 67.4333 103.076 67.18C103.422 66.9133 103.696 66.58 103.896 66.18C104.109 65.7667 104.256 65.3267 104.336 64.86C104.429 64.38 104.476 63.9333 104.476 63.52C104.476 62.8933 104.376 62.2933 104.176 61.72C103.989 61.1333 103.682 60.6533 103.256 60.28C102.842 59.8933 102.296 59.7 101.616 59.7C101.109 59.7 100.689 59.8067 100.356 60.02C100.022 60.22 99.7224 60.46 99.4558 60.74V66.1C99.6024 66.4467 99.8691 66.78 100.256 67.1C100.656 67.4067 101.162 67.56 101.776 67.56ZM111.578 68.34C111.178 68.34 110.798 68.24 110.438 68.04C110.078 67.84 109.778 67.5333 109.538 67.12C109.311 66.7067 109.198 66.1867 109.198 65.56V59.68L108.038 59.72C107.944 59.72 107.871 59.6867 107.818 59.62C107.778 59.54 107.758 59.4533 107.758 59.36C107.758 59.0933 107.851 58.94 108.038 58.9C108.531 58.8067 108.904 58.6533 109.158 58.44C109.411 58.2133 109.604 57.9467 109.738 57.64C109.884 57.3333 110.018 57 110.138 56.64C110.178 56.5333 110.238 56.4667 110.318 56.44C110.398 56.4 110.484 56.38 110.578 56.38C110.658 56.38 110.744 56.4 110.838 56.44C110.944 56.48 110.998 56.5533 110.998 56.66L110.858 58.94L113.198 58.8C113.318 58.7867 113.398 58.82 113.438 58.9C113.478 58.98 113.498 59.0733 113.498 59.18C113.498 59.3133 113.471 59.4467 113.418 59.58C113.378 59.7133 113.324 59.78 113.258 59.78L111.018 59.72V65.8C111.018 66.1867 111.098 66.54 111.258 66.86C111.431 67.18 111.738 67.34 112.178 67.34C112.324 67.34 112.491 67.3267 112.678 67.3C112.864 67.2733 113.064 67.2133 113.278 67.12C113.331 67.0933 113.384 67.0733 113.438 67.06C113.491 67.0333 113.544 67.02 113.598 67.02C113.704 67.02 113.784 67.0667 113.838 67.16C113.891 67.24 113.938 67.3267 113.978 67.42C114.018 67.54 113.984 67.6333 113.878 67.7C113.464 67.9667 113.084 68.14 112.738 68.22C112.391 68.3 112.004 68.34 111.578 68.34Z" fill="#001324"/>
</g>
<defs>
<clipPath id="clip0_35_63">
<rect width="100" height="125" fill="white" transform="translate(25)"/>
</clipPath>
</defs>
</svg>
