<svg width="125" height="100" viewBox="0 0 125 100" fill="none" xmlns="http://www.w3.org/2000/svg">
<mask id="path-1-inside-1_3_69" fill="white">
<path fill-rule="evenodd" clip-rule="evenodd" d="M100 75C113.807 75 125 63.8071 125 50C125 36.1929 113.807 25 100 25V0L75 0C75 13.8071 63.8071 25 50 25C36.1929 25 25 13.8071 25 0L0 0V95C0 97.7614 2.23858 100 5 100L100 100V75Z"/>
</mask>
<path fill-rule="evenodd" clip-rule="evenodd" d="M100 75C113.807 75 125 63.8071 125 50C125 36.1929 113.807 25 100 25V0L75 0C75 13.8071 63.8071 25 50 25C36.1929 25 25 13.8071 25 0L0 0V95C0 97.7614 2.23858 100 5 100L100 100V75Z" fill="#CCCCFF"/>
<path d="M100 75V73H98V75H100ZM100 25H98V27H100V25ZM100 0L102 0V-2L100 -2V0ZM75 0V-2H73V0L75 0ZM25 0L27 0V-2L25 -2V0ZM0 0V-2L-2 -2V0L0 0ZM100 100V102H102V100H100ZM123 50C123 62.7025 112.703 73 100 73V77C114.912 77 127 64.9117 127 50H123ZM100 27C112.703 27 123 37.2975 123 50H127C127 35.0883 114.912 23 100 23V27ZM102 25V0L98 0V25H102ZM100 -2L75 -2V2L100 2V-2ZM73 0C73 12.7026 62.7025 23 50 23V27C64.9117 27 77 14.9117 77 0L73 0ZM50 23C37.2975 23 27 12.7026 27 0L23 0C23 14.9117 35.0883 27 50 27V23ZM25 -2L0 -2V2L25 2V-2ZM-2 0V95H2V0L-2 0ZM-2 95C-2 98.866 1.13401 102 5 102V98C3.34315 98 2 96.6569 2 95H-2ZM5 102L100 102V98L5 98V102ZM102 100V75H98V100H102Z" fill="white" mask="url(#path-1-inside-1_3_69)"/>
<path d="M11.2 59.06C11.0667 59.06 10.9733 59.0133 10.92 58.92C10.8667 58.8267 10.84 58.7267 10.84 58.62C10.8533 58.3933 10.9067 58.2667 11 58.24C11.0933 58.2133 11.2067 58.2 11.34 58.2C11.7667 58.2 12.0667 58.1267 12.24 57.98C12.4133 57.82 12.52 57.6267 12.56 57.4C12.6133 57.16 12.64 56.9133 12.64 56.66V48.72C12.64 48.4667 12.6133 48.2267 12.56 48C12.52 47.76 12.4133 47.5667 12.24 47.42C12.0667 47.26 11.7667 47.18 11.34 47.18C11.2067 47.18 11.0933 47.1667 11 47.14C10.9067 47.1133 10.8533 46.9867 10.84 46.76C10.84 46.6533 10.8667 46.5533 10.92 46.46C10.9733 46.3667 11.0667 46.32 11.2 46.32C11.6267 46.3333 12.0267 46.3467 12.4 46.36C12.7733 46.3733 13.16 46.38 13.56 46.38H16.38C17.1533 46.38 17.76 46.44 18.2 46.56C18.6533 46.6667 19.0467 46.8267 19.38 47.04C19.7267 47.2667 20 47.58 20.2 47.98C20.4 48.3667 20.5 48.7933 20.5 49.26C20.5 49.86 20.36 50.3667 20.08 50.78C19.8 51.18 19.4467 51.5 19.02 51.74C18.6067 51.9667 18.2 52.1267 17.8 52.22V52.28C18.5067 52.2667 19.1333 52.3933 19.68 52.66C20.2267 52.9267 20.66 53.28 20.98 53.72C21.3 54.16 21.4667 54.64 21.48 55.16C21.5067 55.92 21.3467 56.5467 21 57.04C20.6533 57.5333 20.2 57.9267 19.64 58.22C19.0933 58.5133 18.4933 58.72 17.84 58.84C17.2 58.96 16.58 59.02 15.98 59.02L13.58 59C13.18 59 12.7867 59 12.4 59C12.0267 59.0133 11.6267 59.0333 11.2 59.06ZM14.62 51.88H15.46C15.7267 51.88 16.0267 51.8667 16.36 51.84C16.6933 51.8133 17.0133 51.7333 17.32 51.6C17.6267 51.4533 17.8733 51.22 18.06 50.9C18.26 50.5667 18.36 50.1 18.36 49.5C18.36 48.7933 18.1867 48.22 17.84 47.78C17.5067 47.34 16.9 47.12 16.02 47.12H14.62V51.88ZM16.06 58.22C16.66 58.2067 17.2067 58.1067 17.7 57.92C18.1933 57.7333 18.5867 57.42 18.88 56.98C19.1733 56.54 19.32 55.9333 19.32 55.16C19.28 54.7333 19.1333 54.3333 18.88 53.96C18.64 53.5867 18.24 53.28 17.68 53.04C17.1333 52.8 16.3867 52.68 15.44 52.68H14.62V56.66C14.62 57.3267 14.72 57.7533 14.92 57.94C15.12 58.1267 15.5 58.22 16.06 58.22ZM27.9019 59.24C26.9685 59.24 26.1485 59.02 25.4419 58.58C24.7485 58.14 24.2085 57.5667 23.8219 56.86C23.4352 56.1533 23.2419 55.4 23.2419 54.6C23.2419 53.8133 23.3819 53.1133 23.6619 52.5C23.9419 51.8867 24.3085 51.3733 24.7619 50.96C25.2285 50.5467 25.7352 50.2333 26.2819 50.02C26.8285 49.8067 27.3685 49.7 27.9019 49.7C28.8352 49.7 29.6485 49.92 30.3419 50.36C31.0485 50.8 31.5952 51.3733 31.9819 52.08C32.3685 52.7867 32.5619 53.54 32.5619 54.34C32.5619 55.1267 32.4152 55.8267 32.1219 56.44C31.8419 57.0533 31.4685 57.5667 31.0019 57.98C30.5485 58.3933 30.0485 58.7067 29.5019 58.92C28.9552 59.1333 28.4219 59.24 27.9019 59.24ZM27.9019 58.5C28.5552 58.5 29.0685 58.3067 29.4419 57.92C29.8285 57.5333 30.1019 57.0267 30.2619 56.4C30.4352 55.76 30.5219 55.0733 30.5219 54.34C30.5219 53.6333 30.4352 52.9867 30.2619 52.4C30.0885 51.8133 29.8085 51.34 29.4219 50.98C29.0352 50.62 28.5285 50.44 27.9019 50.44C27.2485 50.44 26.7285 50.6333 26.3419 51.02C25.9552 51.3933 25.6819 51.8933 25.5219 52.52C25.3619 53.1333 25.2819 53.8133 25.2819 54.56C25.2819 55.2533 25.3619 55.9 25.5219 56.5C25.6952 57.1 25.9752 57.5867 26.3619 57.96C26.7485 58.32 27.2619 58.5 27.9019 58.5ZM38.8589 59.24C37.9256 59.24 37.1056 59.02 36.3989 58.58C35.7056 58.14 35.1656 57.5667 34.7789 56.86C34.3922 56.1533 34.1989 55.4 34.1989 54.6C34.1989 53.8133 34.3389 53.1133 34.6189 52.5C34.8989 51.8867 35.2656 51.3733 35.7189 50.96C36.1856 50.5467 36.6922 50.2333 37.2389 50.02C37.7856 49.8067 38.3256 49.7 38.8589 49.7C39.7922 49.7 40.6056 49.92 41.2989 50.36C42.0056 50.8 42.5522 51.3733 42.9389 52.08C43.3256 52.7867 43.5189 53.54 43.5189 54.34C43.5189 55.1267 43.3722 55.8267 43.0789 56.44C42.7989 57.0533 42.4256 57.5667 41.9589 57.98C41.5056 58.3933 41.0056 58.7067 40.4589 58.92C39.9122 59.1333 39.3789 59.24 38.8589 59.24ZM38.8589 58.5C39.5122 58.5 40.0256 58.3067 40.3989 57.92C40.7856 57.5333 41.0589 57.0267 41.2189 56.4C41.3922 55.76 41.4789 55.0733 41.4789 54.34C41.4789 53.6333 41.3922 52.9867 41.2189 52.4C41.0456 51.8133 40.7656 51.34 40.3789 50.98C39.9922 50.62 39.4856 50.44 38.8589 50.44C38.2056 50.44 37.6856 50.6333 37.2989 51.02C36.9122 51.3933 36.6389 51.8933 36.4789 52.52C36.3189 53.1333 36.2389 53.8133 36.2389 54.56C36.2389 55.2533 36.3189 55.9 36.4789 56.5C36.6522 57.1 36.9322 57.5867 37.3189 57.96C37.7056 58.32 38.2189 58.5 38.8589 58.5ZM48.5583 59.34C48.1583 59.34 47.7783 59.24 47.4183 59.04C47.0583 58.84 46.7583 58.5333 46.5183 58.12C46.2916 57.7067 46.1783 57.1867 46.1783 56.56V50.68L45.0183 50.72C44.9249 50.72 44.8516 50.6867 44.7983 50.62C44.7583 50.54 44.7383 50.4533 44.7383 50.36C44.7383 50.0933 44.8316 49.94 45.0183 49.9C45.5116 49.8067 45.8849 49.6533 46.1383 49.44C46.3916 49.2133 46.5849 48.9467 46.7183 48.64C46.8649 48.3333 46.9983 48 47.1183 47.64C47.1583 47.5333 47.2183 47.4667 47.2983 47.44C47.3783 47.4 47.4649 47.38 47.5583 47.38C47.6383 47.38 47.7249 47.4 47.8183 47.44C47.9249 47.48 47.9783 47.5533 47.9783 47.66L47.8383 49.94L50.1783 49.8C50.2983 49.7867 50.3783 49.82 50.4183 49.9C50.4583 49.98 50.4783 50.0733 50.4783 50.18C50.4783 50.3133 50.4516 50.4467 50.3983 50.58C50.3583 50.7133 50.3049 50.78 50.2383 50.78L47.9983 50.72V56.8C47.9983 57.1867 48.0783 57.54 48.2383 57.86C48.4116 58.18 48.7183 58.34 49.1583 58.34C49.3049 58.34 49.4716 58.3267 49.6583 58.3C49.8449 58.2733 50.0449 58.2133 50.2583 58.12C50.3116 58.0933 50.3649 58.0733 50.4183 58.06C50.4716 58.0333 50.5249 58.02 50.5783 58.02C50.6849 58.02 50.7649 58.0667 50.8183 58.16C50.8716 58.24 50.9183 58.3267 50.9583 58.42C50.9983 58.54 50.9649 58.6333 50.8583 58.7C50.4449 58.9667 50.0649 59.14 49.7183 59.22C49.3716 59.3 48.9849 59.34 48.5583 59.34ZM56.1764 59.24C55.1497 59.24 54.2897 59.06 53.5964 58.7C52.9164 58.3267 52.5764 57.7933 52.5764 57.1C52.5764 56.7133 52.6897 56.4 52.9164 56.16C53.1564 55.92 53.4631 55.8 53.8364 55.8C54.0764 55.8 54.2697 55.8667 54.4164 56C54.5764 56.12 54.6564 56.2067 54.6564 56.26C54.6564 56.3 54.5764 56.3933 54.4164 56.54C54.2697 56.6733 54.1964 56.8933 54.1964 57.2C54.1964 57.5733 54.3697 57.8867 54.7164 58.14C55.0764 58.38 55.6164 58.5 56.3364 58.5C56.9631 58.5 57.4497 58.3667 57.7964 58.1C58.1564 57.82 58.3364 57.4333 58.3364 56.94C58.3364 56.54 58.2031 56.2333 57.9364 56.02C57.6831 55.7933 57.3497 55.6133 56.9364 55.48C56.5364 55.3467 56.1031 55.2133 55.6364 55.08C55.1831 54.9467 54.7497 54.78 54.3364 54.58C53.9231 54.38 53.5831 54.1067 53.3164 53.76C53.0631 53.4 52.9364 52.9267 52.9364 52.34C52.9364 51.74 53.1164 51.2467 53.4764 50.86C53.8364 50.4733 54.2964 50.1867 54.8564 50C55.4164 49.8 55.9831 49.7 56.5564 49.7C57.0497 49.7 57.5164 49.7733 57.9564 49.92C58.3964 50.0533 58.7564 50.26 59.0364 50.54C59.3297 50.82 59.4764 51.1733 59.4764 51.6C59.4764 51.9333 59.3697 52.2333 59.1564 52.5C58.9431 52.7667 58.6497 52.9 58.2764 52.9C58.0364 52.9 57.8364 52.84 57.6764 52.72C57.5297 52.5867 57.4564 52.4933 57.4564 52.44C57.4564 52.4133 57.5031 52.3667 57.5964 52.3C57.7031 52.22 57.8031 52.12 57.8964 52C57.9897 51.8667 58.0364 51.7 58.0364 51.5C58.0097 51.1133 57.8231 50.8267 57.4764 50.64C57.1297 50.4533 56.7431 50.36 56.3164 50.36C55.8497 50.36 55.4164 50.4733 55.0164 50.7C54.6164 50.9267 54.4164 51.2533 54.4164 51.68C54.4164 52.0667 54.4964 52.3667 54.6564 52.58C54.8297 52.7933 55.0964 52.98 55.4564 53.14C55.8297 53.2867 56.3097 53.4533 56.8964 53.64C57.4831 53.8267 57.9964 54.02 58.4364 54.22C58.8897 54.42 59.2364 54.6867 59.4764 55.02C59.7297 55.34 59.8564 55.78 59.8564 56.34C59.8564 56.9 59.6964 57.4 59.3764 57.84C59.0564 58.28 58.6164 58.6267 58.0564 58.88C57.5097 59.12 56.8831 59.24 56.1764 59.24ZM65.0036 59.34C64.6036 59.34 64.2236 59.24 63.8636 59.04C63.5036 58.84 63.2036 58.5333 62.9636 58.12C62.7369 57.7067 62.6236 57.1867 62.6236 56.56V50.68L61.4636 50.72C61.3703 50.72 61.2969 50.6867 61.2436 50.62C61.2036 50.54 61.1836 50.4533 61.1836 50.36C61.1836 50.0933 61.2769 49.94 61.4636 49.9C61.9569 49.8067 62.3303 49.6533 62.5836 49.44C62.8369 49.2133 63.0303 48.9467 63.1636 48.64C63.3103 48.3333 63.4436 48 63.5636 47.64C63.6036 47.5333 63.6636 47.4667 63.7436 47.44C63.8236 47.4 63.9103 47.38 64.0036 47.38C64.0836 47.38 64.1703 47.4 64.2636 47.44C64.3703 47.48 64.4236 47.5533 64.4236 47.66L64.2836 49.94L66.6236 49.8C66.7436 49.7867 66.8236 49.82 66.8636 49.9C66.9036 49.98 66.9236 50.0733 66.9236 50.18C66.9236 50.3133 66.8969 50.4467 66.8436 50.58C66.8036 50.7133 66.7503 50.78 66.6836 50.78L64.4436 50.72V56.8C64.4436 57.1867 64.5236 57.54 64.6836 57.86C64.8569 58.18 65.1636 58.34 65.6036 58.34C65.7503 58.34 65.9169 58.3267 66.1036 58.3C66.2903 58.2733 66.4903 58.2133 66.7036 58.12C66.7569 58.0933 66.8103 58.0733 66.8636 58.06C66.9169 58.0333 66.9703 58.02 67.0236 58.02C67.1303 58.02 67.2103 58.0667 67.2636 58.16C67.3169 58.24 67.3636 58.3267 67.4036 58.42C67.4436 58.54 67.4103 58.6333 67.3036 58.7C66.8903 58.9667 66.5103 59.14 66.1636 59.22C65.8169 59.3 65.4303 59.34 65.0036 59.34ZM69.2417 59.06C69.1484 59.06 69.0684 59.02 69.0017 58.94C68.9484 58.8467 68.9217 58.7533 68.9217 58.66C68.9484 58.46 69.0017 58.3533 69.0817 58.34C69.1617 58.3133 69.2684 58.3 69.4017 58.3C69.7751 58.3 70.0284 58.24 70.1617 58.12C70.2951 57.9867 70.3684 57.8133 70.3817 57.6C70.4084 57.3867 70.4217 57.1667 70.4217 56.94V52.36C70.4217 52.12 70.4084 51.9 70.3817 51.7C70.3684 51.4867 70.2951 51.32 70.1617 51.2C70.0284 51.0667 69.7751 51 69.4017 51C69.2817 51 69.1684 50.9867 69.0617 50.96C68.9684 50.92 68.9217 50.8 68.9217 50.6C68.9217 50.4 69.0284 50.28 69.2417 50.24C69.8551 50.1467 70.3217 50.0533 70.6417 49.96C70.9751 49.8667 71.2217 49.7867 71.3817 49.72C71.5551 49.6533 71.7084 49.6133 71.8417 49.6C71.9484 49.5867 72.0351 49.6067 72.1017 49.66C72.1817 49.7133 72.2217 49.82 72.2217 49.98V51.22H72.2817C72.7351 50.78 73.2017 50.42 73.6817 50.14C74.1617 49.8467 74.6017 49.7 75.0017 49.7C75.4684 49.7 75.8217 49.8733 76.0617 50.22C76.3151 50.5667 76.4417 50.9333 76.4417 51.32C76.4417 51.6533 76.3351 51.98 76.1217 52.3C75.9084 52.6067 75.5884 52.76 75.1617 52.76C74.9484 52.76 74.7751 52.72 74.6417 52.64C74.5217 52.5467 74.4551 52.48 74.4417 52.44C74.4417 52.4133 74.5017 52.3333 74.6217 52.2C74.7551 52.0667 74.8217 51.9 74.8217 51.7C74.8217 51.46 74.7551 51.2667 74.6217 51.12C74.5017 50.9733 74.3351 50.9 74.1217 50.9C73.8951 50.9 73.6017 51.0133 73.2417 51.24C72.8951 51.4667 72.5617 51.74 72.2417 52.06V56.94C72.2417 57.1667 72.2484 57.3867 72.2617 57.6C72.2884 57.8133 72.3684 57.9867 72.5017 58.12C72.6484 58.24 72.9084 58.3 73.2817 58.3C73.4017 58.3 73.5017 58.3133 73.5817 58.34C73.6751 58.3533 73.7284 58.46 73.7417 58.66C73.7417 58.7533 73.7151 58.8467 73.6617 58.94C73.6084 59.02 73.5284 59.06 73.4217 59.06C73.0351 59.0333 72.6751 59.0133 72.3417 59C72.0217 59 71.6817 59 71.3217 59C70.9617 59 70.6217 59 70.3017 59C69.9817 59.0133 69.6284 59.0333 69.2417 59.06ZM80.1178 59.24C79.3045 59.24 78.6511 59.0067 78.1578 58.54C77.6778 58.0733 77.4378 57.5133 77.4378 56.86C77.4378 56.18 77.6111 55.6467 77.9578 55.26C78.3178 54.8733 78.7845 54.5867 79.3578 54.4C79.9445 54.2133 80.5778 54.0867 81.2578 54.02C81.9511 53.9533 82.6245 53.9 83.2778 53.86V52.28C83.2778 51.6533 83.1178 51.1667 82.7978 50.82C82.4911 50.46 81.9645 50.28 81.2178 50.28C80.8445 50.28 80.4911 50.4 80.1578 50.64C79.8378 50.88 79.6778 51.2267 79.6778 51.68C79.6778 51.8933 79.7311 52.0733 79.8378 52.22C79.9445 52.3667 80.0511 52.48 80.1578 52.56C80.2645 52.64 80.3178 52.6933 80.3178 52.72C80.3178 52.7733 80.2378 52.8733 80.0778 53.02C79.9311 53.1533 79.7245 53.22 79.4578 53.22C79.0445 53.22 78.7245 53.0667 78.4978 52.76C78.2711 52.4533 78.1578 52.1133 78.1578 51.74C78.1578 51.2333 78.3111 50.8333 78.6178 50.54C78.9378 50.2467 79.3445 50.0333 79.8378 49.9C80.3311 49.7667 80.8311 49.7 81.3378 49.7C81.9378 49.7 82.5178 49.7733 83.0778 49.92C83.6511 50.0667 84.1178 50.3467 84.4778 50.76C84.8511 51.1733 85.0378 51.7933 85.0378 52.62V57.28C85.0511 57.4133 85.0845 57.5733 85.1378 57.76C85.1911 57.9467 85.2911 58.1133 85.4378 58.26C85.5978 58.3933 85.8111 58.46 86.0778 58.46C86.1711 58.46 86.2445 58.48 86.2978 58.52C86.3511 58.5467 86.3778 58.6333 86.3778 58.78C86.3778 58.9 86.3111 58.9933 86.1778 59.06C86.0445 59.1267 85.8911 59.1733 85.7178 59.2C85.5445 59.2267 85.3978 59.24 85.2778 59.24C84.7845 59.24 84.3445 59.1 83.9578 58.82C83.5711 58.5267 83.3445 58.1267 83.2778 57.62C82.9845 58.1533 82.5445 58.56 81.9578 58.84C81.3845 59.1067 80.7711 59.24 80.1178 59.24ZM80.7578 58.16C81.2111 58.16 81.6245 58.0467 81.9978 57.82C82.3845 57.5933 82.6911 57.2867 82.9178 56.9C83.1578 56.5 83.2778 56.06 83.2778 55.58V54.44C81.9045 54.5333 80.9245 54.7533 80.3378 55.1C79.7511 55.4467 79.4578 56.0133 79.4578 56.8C79.4578 57.7067 79.8911 58.16 80.7578 58.16ZM87.4597 63.16C87.3664 63.16 87.2864 63.1133 87.2197 63.02C87.1664 62.94 87.1397 62.8533 87.1397 62.76C87.153 62.56 87.1997 62.4467 87.2797 62.42C87.373 62.4067 87.4797 62.4 87.5997 62.4C87.9597 62.4 88.2064 62.3333 88.3397 62.2C88.4864 62.08 88.573 61.9133 88.5997 61.7C88.6264 61.4867 88.6397 61.2667 88.6397 61.04V52.36C88.6397 52.12 88.6264 51.9 88.5997 51.7C88.5864 51.4867 88.513 51.32 88.3797 51.2C88.2464 51.0667 87.993 51 87.6197 51C87.4997 51 87.3864 50.9867 87.2797 50.96C87.1864 50.92 87.1397 50.8 87.1397 50.6C87.1397 50.4 87.2464 50.28 87.4597 50.24C88.073 50.1467 88.5397 50.0533 88.8597 49.96C89.193 49.8667 89.4397 49.7867 89.5997 49.72C89.773 49.6533 89.9264 49.6133 90.0597 49.6C90.1664 49.5867 90.253 49.6067 90.3197 49.66C90.3997 49.7133 90.4397 49.82 90.4397 49.98V50.94H90.4997C90.873 50.5933 91.3197 50.3 91.8397 50.06C92.3597 49.82 92.8597 49.7 93.3397 49.7C94.153 49.7 94.873 49.9 95.4997 50.3C96.1264 50.7 96.6197 51.26 96.9797 51.98C97.3397 52.6867 97.5197 53.5133 97.5197 54.46C97.5197 55.42 97.2997 56.26 96.8597 56.98C96.4197 57.7 95.853 58.26 95.1597 58.66C94.4664 59.0467 93.7264 59.24 92.9397 59.24C92.3397 59.24 91.853 59.1733 91.4797 59.04C91.1197 58.92 90.8064 58.78 90.5397 58.62H90.4597V61.04C90.4597 61.2667 90.473 61.4867 90.4997 61.7C90.5264 61.9133 90.613 62.08 90.7597 62.2C90.9064 62.3333 91.153 62.4 91.4997 62.4C91.6197 62.4 91.7197 62.4067 91.7997 62.42C91.893 62.4467 91.9464 62.56 91.9597 62.76C91.9597 62.8533 91.933 62.94 91.8797 63.02C91.8264 63.1133 91.7464 63.16 91.6397 63.16C91.253 63.1333 90.893 63.1133 90.5597 63.1C90.2397 63.1 89.8997 63.1 89.5397 63.1C89.1797 63.1 88.8397 63.1 88.5197 63.1C88.1997 63.1133 87.8464 63.1333 87.4597 63.16ZM92.7797 58.56C93.2997 58.56 93.733 58.4333 94.0797 58.18C94.4264 57.9133 94.6997 57.58 94.8997 57.18C95.113 56.7667 95.2597 56.3267 95.3397 55.86C95.433 55.38 95.4797 54.9333 95.4797 54.52C95.4797 53.8933 95.3797 53.2933 95.1797 52.72C94.993 52.1333 94.6864 51.6533 94.2597 51.28C93.8464 50.8933 93.2997 50.7 92.6197 50.7C92.113 50.7 91.693 50.8067 91.3597 51.02C91.0264 51.22 90.7264 51.46 90.4597 51.74V57.1C90.6064 57.4467 90.873 57.78 91.2597 58.1C91.6597 58.4067 92.1664 58.56 92.7797 58.56Z" fill="#001324"/>
</svg>
