<svg width="100" height="125" viewBox="0 0 100 125" fill="none" xmlns="http://www.w3.org/2000/svg">
<mask id="path-1-inside-1_2_18" fill="white">
<path fill-rule="evenodd" clip-rule="evenodd" d="M26 100H0V75C13.8071 75 25 63.8071 25 50C25 36.1929 13.8071 25 0 25V0H95C97.7614 0 100 2.23858 100 5V100H76C76 113.807 64.8071 125 51 125C37.1929 125 26 113.807 26 100Z"/>
</mask>
<path fill-rule="evenodd" clip-rule="evenodd" d="M26 100H0V75C13.8071 75 25 63.8071 25 50C25 36.1929 13.8071 25 0 25V0H95C97.7614 0 100 2.23858 100 5V100H76C76 113.807 64.8071 125 51 125C37.1929 125 26 113.807 26 100Z" fill="#F2E589"/>
<path d="M0 100H-2V102H0V100ZM26 100H28V98H26V100ZM0 75V73H-2V75H0ZM0 25H-2V27H0V25ZM0 0V-2H-2V0H0ZM100 100V102H102V100H100ZM76 100V98H74V100H76ZM0 102H26V98H0V102ZM-2 75V100H2V75H-2ZM23 50C23 62.7025 12.7026 73 0 73V77C14.9117 77 27 64.9117 27 50H23ZM0 27C12.7026 27 23 37.2975 23 50H27C27 35.0883 14.9117 23 0 23V27ZM-2 0V25H2V0H-2ZM95 -2H0V2H95V-2ZM102 5C102 1.13401 98.866 -2 95 -2V2C96.6569 2 98 3.34315 98 5H102ZM102 100V5H98V100H102ZM76 102H100V98H76V102ZM74 100C74 112.703 63.7025 123 51 123V127C65.9117 127 78 114.912 78 100H74ZM51 123C38.2975 123 28 112.703 28 100H24C24 114.912 36.0883 127 51 127V123Z" fill="white" mask="url(#path-1-inside-1_2_18)"/>
<path d="M38.78 48.84C38.5533 48.88 38.4 48.7667 38.32 48.5C38.2533 48.2467 38.32 48.08 38.52 48C39.2133 47.7067 39.7133 47.2933 40.02 46.76C40.34 46.2267 40.54 45.5467 40.62 44.72C40.7133 43.8933 40.76 42.9067 40.76 41.76V34.72C40.76 34.4667 40.7333 34.2267 40.68 34C40.64 33.76 40.5333 33.5667 40.36 33.42C40.1867 33.26 39.8867 33.18 39.46 33.18C39.3267 33.18 39.2067 33.1667 39.1 33.14C39.0067 33.1133 38.9533 32.9867 38.94 32.76C38.94 32.6533 38.9667 32.5533 39.02 32.46C39.0867 32.3667 39.18 32.32 39.3 32.32C39.7267 32.3333 40.1267 32.3467 40.5 32.36C40.8867 32.3733 41.28 32.38 41.68 32.38C42.4933 32.38 43.3267 32.36 44.18 32.32C44.3 32.32 44.3867 32.3667 44.44 32.46C44.5067 32.5533 44.54 32.6533 44.54 32.76C44.5267 32.9867 44.4733 33.1133 44.38 33.14C44.2867 33.1667 44.1667 33.18 44.02 33.18C43.6067 33.18 43.3067 33.26 43.12 33.42C42.9467 33.5667 42.84 33.76 42.8 34C42.76 34.2267 42.7333 34.4667 42.72 34.72V42.44C42.72 43.4933 42.6 44.46 42.36 45.34C42.12 46.22 41.7133 46.96 41.14 47.56C40.5667 48.1733 39.78 48.6 38.78 48.84ZM47.9225 45.24C47.1092 45.24 46.4558 45.0067 45.9625 44.54C45.4825 44.0733 45.2425 43.5133 45.2425 42.86C45.2425 42.18 45.4158 41.6467 45.7625 41.26C46.1225 40.8733 46.5892 40.5867 47.1625 40.4C47.7492 40.2133 48.3825 40.0867 49.0625 40.02C49.7558 39.9533 50.4292 39.9 51.0825 39.86V38.28C51.0825 37.6533 50.9225 37.1667 50.6025 36.82C50.2958 36.46 49.7692 36.28 49.0225 36.28C48.6492 36.28 48.2958 36.4 47.9625 36.64C47.6425 36.88 47.4825 37.2267 47.4825 37.68C47.4825 37.8933 47.5358 38.0733 47.6425 38.22C47.7492 38.3667 47.8558 38.48 47.9625 38.56C48.0692 38.64 48.1225 38.6933 48.1225 38.72C48.1225 38.7733 48.0425 38.8733 47.8825 39.02C47.7358 39.1533 47.5292 39.22 47.2625 39.22C46.8492 39.22 46.5292 39.0667 46.3025 38.76C46.0758 38.4533 45.9625 38.1133 45.9625 37.74C45.9625 37.2333 46.1158 36.8333 46.4225 36.54C46.7425 36.2467 47.1492 36.0333 47.6425 35.9C48.1358 35.7667 48.6358 35.7 49.1425 35.7C49.7425 35.7 50.3225 35.7733 50.8825 35.92C51.4558 36.0667 51.9225 36.3467 52.2825 36.76C52.6558 37.1733 52.8425 37.7933 52.8425 38.62V43.28C52.8558 43.4133 52.8892 43.5733 52.9425 43.76C52.9958 43.9467 53.0958 44.1133 53.2425 44.26C53.4025 44.3933 53.6158 44.46 53.8825 44.46C53.9758 44.46 54.0492 44.48 54.1025 44.52C54.1558 44.5467 54.1825 44.6333 54.1825 44.78C54.1825 44.9 54.1158 44.9933 53.9825 45.06C53.8492 45.1267 53.6958 45.1733 53.5225 45.2C53.3492 45.2267 53.2025 45.24 53.0825 45.24C52.5892 45.24 52.1492 45.1 51.7625 44.82C51.3758 44.5267 51.1492 44.1267 51.0825 43.62C50.7892 44.1533 50.3492 44.56 49.7625 44.84C49.1892 45.1067 48.5758 45.24 47.9225 45.24ZM48.5625 44.16C49.0158 44.16 49.4292 44.0467 49.8025 43.82C50.1892 43.5933 50.4958 43.2867 50.7225 42.9C50.9625 42.5 51.0825 42.06 51.0825 41.58V40.44C49.7092 40.5333 48.7292 40.7533 48.1425 41.1C47.5558 41.4467 47.2625 42.0133 47.2625 42.8C47.2625 43.7067 47.6958 44.16 48.5625 44.16ZM59.2505 45.2C58.9171 44.4667 58.5838 43.6667 58.2505 42.8C57.9171 41.9333 57.5905 41.0867 57.2705 40.26C56.9505 39.4333 56.6438 38.7133 56.3505 38.1C56.1371 37.6067 55.9305 37.26 55.7305 37.06C55.5305 36.8467 55.2305 36.7133 54.8305 36.66C54.6571 36.6333 54.5371 36.6067 54.4705 36.58C54.4171 36.5533 54.3838 36.4533 54.3705 36.28C54.3571 36.0533 54.4171 35.9333 54.5505 35.92C54.6971 35.8933 54.8705 35.8733 55.0705 35.86C55.8971 35.82 56.5438 35.94 57.0105 36.22C57.4771 36.5 57.8571 36.9733 58.1505 37.64C58.3371 38.0533 58.5438 38.5667 58.7705 39.18C59.0105 39.7933 59.2571 40.4133 59.5105 41.04C59.7638 41.6667 60.0105 42.2333 60.2505 42.74H60.3105L62.2905 37.5C62.4238 37.1133 62.4305 36.8733 62.3105 36.78C62.1905 36.6867 61.9305 36.64 61.5305 36.64C61.4105 36.64 61.3105 36.6333 61.2305 36.62C61.1505 36.5933 61.1038 36.48 61.0905 36.28C61.0905 36.2 61.1105 36.1133 61.1505 36.02C61.2038 35.9267 61.2771 35.88 61.3705 35.88C61.7571 35.8933 62.0905 35.9067 62.3705 35.92C62.6505 35.9333 62.9638 35.94 63.3105 35.94C63.5505 35.94 63.7438 35.94 63.8905 35.94C64.0371 35.9267 64.1905 35.92 64.3505 35.92C64.5105 35.9067 64.7171 35.8933 64.9705 35.88C65.0771 35.88 65.1505 35.9267 65.1905 36.02C65.2438 36.1133 65.2705 36.2 65.2705 36.28C65.2571 36.48 65.2038 36.5933 65.1105 36.62C65.0305 36.6333 64.9371 36.64 64.8305 36.64C64.3905 36.64 64.0371 36.72 63.7705 36.88C63.5171 37.04 63.2971 37.3533 63.1105 37.82C63.1105 37.82 63.0371 38 62.8905 38.36C62.7571 38.7067 62.5771 39.16 62.3505 39.72C62.1238 40.28 61.8838 40.8733 61.6305 41.5C61.3771 42.1267 61.1305 42.72 60.8905 43.28C60.6638 43.84 60.4771 44.3 60.3305 44.66C60.1838 45.02 60.1038 45.2 60.0905 45.2H59.2505ZM68.0983 45.24C67.2849 45.24 66.6316 45.0067 66.1383 44.54C65.6583 44.0733 65.4183 43.5133 65.4183 42.86C65.4183 42.18 65.5916 41.6467 65.9383 41.26C66.2983 40.8733 66.7649 40.5867 67.3383 40.4C67.9249 40.2133 68.5583 40.0867 69.2383 40.02C69.9316 39.9533 70.6049 39.9 71.2583 39.86V38.28C71.2583 37.6533 71.0983 37.1667 70.7783 36.82C70.4716 36.46 69.9449 36.28 69.1983 36.28C68.8249 36.28 68.4716 36.4 68.1383 36.64C67.8183 36.88 67.6583 37.2267 67.6583 37.68C67.6583 37.8933 67.7116 38.0733 67.8183 38.22C67.9249 38.3667 68.0316 38.48 68.1383 38.56C68.2449 38.64 68.2983 38.6933 68.2983 38.72C68.2983 38.7733 68.2183 38.8733 68.0583 39.02C67.9116 39.1533 67.7049 39.22 67.4383 39.22C67.0249 39.22 66.7049 39.0667 66.4783 38.76C66.2516 38.4533 66.1383 38.1133 66.1383 37.74C66.1383 37.2333 66.2916 36.8333 66.5983 36.54C66.9183 36.2467 67.3249 36.0333 67.8183 35.9C68.3116 35.7667 68.8116 35.7 69.3183 35.7C69.9183 35.7 70.4983 35.7733 71.0583 35.92C71.6316 36.0667 72.0983 36.3467 72.4583 36.76C72.8316 37.1733 73.0183 37.7933 73.0183 38.62V43.28C73.0316 43.4133 73.0649 43.5733 73.1183 43.76C73.1716 43.9467 73.2716 44.1133 73.4183 44.26C73.5783 44.3933 73.7916 44.46 74.0583 44.46C74.1516 44.46 74.2249 44.48 74.2783 44.52C74.3316 44.5467 74.3583 44.6333 74.3583 44.78C74.3583 44.9 74.2916 44.9933 74.1583 45.06C74.0249 45.1267 73.8716 45.1733 73.6983 45.2C73.5249 45.2267 73.3783 45.24 73.2583 45.24C72.7649 45.24 72.3249 45.1 71.9383 44.82C71.5516 44.5267 71.3249 44.1267 71.2583 43.62C70.9649 44.1533 70.5249 44.56 69.9383 44.84C69.3649 45.1067 68.7516 45.24 68.0983 45.24ZM68.7383 44.16C69.1916 44.16 69.6049 44.0467 69.9783 43.82C70.3649 43.5933 70.6716 43.2867 70.8983 42.9C71.1383 42.5 71.2583 42.06 71.2583 41.58V40.44C69.8849 40.5333 68.9049 40.7533 68.3183 41.1C67.7316 41.4467 67.4383 42.0133 67.4383 42.8C67.4383 43.7067 67.8716 44.16 68.7383 44.16ZM42.36 68.24C41.3333 68.24 40.4733 68.06 39.78 67.7C39.1 67.3267 38.76 66.7933 38.76 66.1C38.76 65.7133 38.8733 65.4 39.1 65.16C39.34 64.92 39.6467 64.8 40.02 64.8C40.26 64.8 40.4533 64.8667 40.6 65C40.76 65.12 40.84 65.2067 40.84 65.26C40.84 65.3 40.76 65.3933 40.6 65.54C40.4533 65.6733 40.38 65.8933 40.38 66.2C40.38 66.5733 40.5533 66.8867 40.9 67.14C41.26 67.38 41.8 67.5 42.52 67.5C43.1467 67.5 43.6333 67.3667 43.98 67.1C44.34 66.82 44.52 66.4333 44.52 65.94C44.52 65.54 44.3867 65.2333 44.12 65.02C43.8667 64.7933 43.5333 64.6133 43.12 64.48C42.72 64.3467 42.2867 64.2133 41.82 64.08C41.3667 63.9467 40.9333 63.78 40.52 63.58C40.1067 63.38 39.7667 63.1067 39.5 62.76C39.2467 62.4 39.12 61.9267 39.12 61.34C39.12 60.74 39.3 60.2467 39.66 59.86C40.02 59.4733 40.48 59.1867 41.04 59C41.6 58.8 42.1667 58.7 42.74 58.7C43.2333 58.7 43.7 58.7733 44.14 58.92C44.58 59.0533 44.94 59.26 45.22 59.54C45.5133 59.82 45.66 60.1733 45.66 60.6C45.66 60.9333 45.5533 61.2333 45.34 61.5C45.1267 61.7667 44.8333 61.9 44.46 61.9C44.22 61.9 44.02 61.84 43.86 61.72C43.7133 61.5867 43.64 61.4933 43.64 61.44C43.64 61.4133 43.6867 61.3667 43.78 61.3C43.8867 61.22 43.9867 61.12 44.08 61C44.1733 60.8667 44.22 60.7 44.22 60.5C44.1933 60.1133 44.0067 59.8267 43.66 59.64C43.3133 59.4533 42.9267 59.36 42.5 59.36C42.0333 59.36 41.6 59.4733 41.2 59.7C40.8 59.9267 40.6 60.2533 40.6 60.68C40.6 61.0667 40.68 61.3667 40.84 61.58C41.0133 61.7933 41.28 61.98 41.64 62.14C42.0133 62.2867 42.4933 62.4533 43.08 62.64C43.6667 62.8267 44.18 63.02 44.62 63.22C45.0733 63.42 45.42 63.6867 45.66 64.02C45.9133 64.34 46.04 64.78 46.04 65.34C46.04 65.9 45.88 66.4 45.56 66.84C45.24 67.28 44.8 67.6267 44.24 67.88C43.6933 68.12 43.0667 68.24 42.36 68.24ZM52.0472 68.24C50.6739 68.24 49.6005 67.8067 48.8272 66.94C48.0672 66.06 47.6872 64.9 47.6872 63.46C47.7272 62.54 47.9539 61.7267 48.3672 61.02C48.7939 60.3133 49.3539 59.76 50.0472 59.36C50.7539 58.9467 51.5339 58.7267 52.3872 58.7C52.8539 58.7 53.3272 58.76 53.8072 58.88C54.3005 58.9867 54.7072 59.1933 55.0272 59.5C55.3605 59.7933 55.5272 60.22 55.5272 60.78C55.5272 61.1667 55.4072 61.5267 55.1672 61.86C54.9272 62.18 54.5939 62.34 54.1672 62.34C53.8739 62.34 53.6472 62.2667 53.4872 62.12C53.3272 61.9733 53.2472 61.8667 53.2472 61.8C53.2472 61.7733 53.3005 61.72 53.4072 61.64C53.5272 61.5467 53.6405 61.4267 53.7472 61.28C53.8539 61.12 53.9072 60.9267 53.9072 60.7C53.9072 60.2733 53.7539 59.96 53.4472 59.76C53.1405 59.56 52.7939 59.4533 52.4072 59.44C51.8205 59.44 51.3472 59.56 50.9872 59.8C50.6405 60.04 50.3739 60.36 50.1872 60.76C50.0005 61.1467 49.8739 61.5733 49.8072 62.04C49.7539 62.5067 49.7272 62.96 49.7272 63.4C49.7272 64.1333 49.8405 64.7933 50.0672 65.38C50.2939 65.9533 50.6139 66.4067 51.0272 66.74C51.4405 67.0733 51.9339 67.24 52.5072 67.24C53.0939 67.24 53.5872 67.1133 53.9872 66.86C54.3872 66.6067 54.7539 66.2333 55.0872 65.74C55.1805 65.6067 55.3205 65.5933 55.5072 65.7C55.6005 65.7533 55.6672 65.8267 55.7072 65.92C55.7472 66.0133 55.7339 66.1067 55.6672 66.2C55.2272 66.8267 54.6805 67.3267 54.0272 67.7C53.3739 68.06 52.7139 68.24 52.0472 68.24ZM57.3394 68.06C57.246 68.06 57.166 68.02 57.0994 67.94C57.046 67.8467 57.0194 67.7533 57.0194 67.66C57.046 67.46 57.0994 67.3533 57.1794 67.34C57.2594 67.3133 57.366 67.3 57.4994 67.3C57.8727 67.3 58.126 67.24 58.2594 67.12C58.3927 66.9867 58.466 66.8133 58.4794 66.6C58.506 66.3867 58.5194 66.1667 58.5194 65.94V61.36C58.5194 61.12 58.506 60.9 58.4794 60.7C58.466 60.4867 58.3927 60.32 58.2594 60.2C58.126 60.0667 57.8727 60 57.4994 60C57.3794 60 57.266 59.9867 57.1594 59.96C57.066 59.92 57.0194 59.8 57.0194 59.6C57.0194 59.4 57.126 59.28 57.3394 59.24C57.9527 59.1467 58.4194 59.0533 58.7394 58.96C59.0727 58.8667 59.3194 58.7867 59.4794 58.72C59.6527 58.6533 59.806 58.6133 59.9394 58.6C60.046 58.5867 60.1327 58.6067 60.1994 58.66C60.2794 58.7133 60.3194 58.82 60.3194 58.98V60.22H60.3794C60.8327 59.78 61.2994 59.42 61.7794 59.14C62.2594 58.8467 62.6994 58.7 63.0994 58.7C63.566 58.7 63.9194 58.8733 64.1594 59.22C64.4127 59.5667 64.5394 59.9333 64.5394 60.32C64.5394 60.6533 64.4327 60.98 64.2194 61.3C64.006 61.6067 63.686 61.76 63.2594 61.76C63.046 61.76 62.8727 61.72 62.7394 61.64C62.6194 61.5467 62.5527 61.48 62.5394 61.44C62.5394 61.4133 62.5994 61.3333 62.7194 61.2C62.8527 61.0667 62.9194 60.9 62.9194 60.7C62.9194 60.46 62.8527 60.2667 62.7194 60.12C62.5994 59.9733 62.4327 59.9 62.2194 59.9C61.9927 59.9 61.6994 60.0133 61.3394 60.24C60.9927 60.4667 60.6594 60.74 60.3394 61.06V65.94C60.3394 66.1667 60.346 66.3867 60.3594 66.6C60.386 66.8133 60.466 66.9867 60.5994 67.12C60.746 67.24 61.006 67.3 61.3794 67.3C61.4994 67.3 61.5994 67.3133 61.6794 67.34C61.7727 67.3533 61.826 67.46 61.8394 67.66C61.8394 67.7533 61.8127 67.8467 61.7594 67.94C61.706 68.02 61.626 68.06 61.5194 68.06C61.1327 68.0333 60.7727 68.0133 60.4394 68C60.1194 68 59.7794 68 59.4194 68C59.0594 68 58.7194 68 58.3994 68C58.0794 68.0133 57.726 68.0333 57.3394 68.06ZM65.8355 68.06C65.7421 68.06 65.6621 68.02 65.5955 67.94C65.5421 67.8467 65.5155 67.7533 65.5155 67.66C65.5421 67.46 65.5955 67.3533 65.6755 67.34C65.7555 67.3133 65.8621 67.3 65.9955 67.3C66.3688 67.3 66.6221 67.24 66.7555 67.12C66.8888 66.9867 66.9621 66.8133 66.9755 66.6C67.0021 66.3867 67.0155 66.1667 67.0155 65.94V61.36C67.0155 61.12 67.0021 60.9 66.9755 60.7C66.9621 60.4867 66.8888 60.32 66.7555 60.2C66.6221 60.0667 66.3688 60 65.9955 60C65.8755 60 65.7621 59.9867 65.6555 59.96C65.5621 59.92 65.5155 59.8 65.5155 59.6C65.5155 59.4 65.6221 59.28 65.8355 59.24C66.4488 59.1467 66.9155 59.0533 67.2355 58.96C67.5688 58.8667 67.8221 58.7867 67.9955 58.72C68.1688 58.6533 68.3221 58.6133 68.4555 58.6C68.5621 58.5867 68.6488 58.6067 68.7155 58.66C68.7955 58.7133 68.8355 58.82 68.8355 58.98V65.94C68.8355 66.1667 68.8421 66.3867 68.8555 66.6C68.8821 66.8133 68.9621 66.9867 69.0955 67.12C69.2421 67.24 69.5021 67.3 69.8755 67.3C69.9955 67.3 70.0955 67.3133 70.1755 67.34C70.2688 67.3533 70.3221 67.46 70.3355 67.66C70.3355 67.7533 70.3088 67.8467 70.2555 67.94C70.2021 68.02 70.1221 68.06 70.0155 68.06C69.6288 68.0333 69.2688 68.0133 68.9355 68C68.6155 68 68.2755 68 67.9155 68C67.5555 68 67.2155 68 66.8955 68C66.5755 68.0133 66.2221 68.0333 65.8355 68.06ZM67.8155 56.38C67.4421 56.38 67.1288 56.2667 66.8755 56.04C66.6221 55.8 66.4955 55.5067 66.4955 55.16C66.4955 54.8533 66.6488 54.58 66.9555 54.34C67.2621 54.1 67.6088 53.98 67.9955 53.98C68.3288 53.98 68.6021 54.1 68.8155 54.34C69.0288 54.5667 69.1355 54.86 69.1355 55.22C69.1355 55.54 69.0088 55.8133 68.7555 56.04C68.5021 56.2667 68.1888 56.38 67.8155 56.38ZM71.4558 72.16C71.3624 72.16 71.2824 72.1133 71.2158 72.02C71.1624 71.94 71.1358 71.8533 71.1358 71.76C71.1491 71.56 71.1958 71.4467 71.2758 71.42C71.3691 71.4067 71.4758 71.4 71.5958 71.4C71.9558 71.4 72.2024 71.3333 72.3358 71.2C72.4824 71.08 72.5691 70.9133 72.5958 70.7C72.6224 70.4867 72.6358 70.2667 72.6358 70.04V61.36C72.6358 61.12 72.6224 60.9 72.5958 60.7C72.5824 60.4867 72.5091 60.32 72.3758 60.2C72.2424 60.0667 71.9891 60 71.6158 60C71.4958 60 71.3824 59.9867 71.2758 59.96C71.1824 59.92 71.1358 59.8 71.1358 59.6C71.1358 59.4 71.2424 59.28 71.4558 59.24C72.0691 59.1467 72.5358 59.0533 72.8558 58.96C73.1891 58.8667 73.4358 58.7867 73.5958 58.72C73.7691 58.6533 73.9224 58.6133 74.0558 58.6C74.1624 58.5867 74.2491 58.6067 74.3158 58.66C74.3958 58.7133 74.4358 58.82 74.4358 58.98V59.94H74.4958C74.8691 59.5933 75.3158 59.3 75.8358 59.06C76.3558 58.82 76.8558 58.7 77.3358 58.7C78.1491 58.7 78.8691 58.9 79.4958 59.3C80.1224 59.7 80.6158 60.26 80.9758 60.98C81.3358 61.6867 81.5158 62.5133 81.5158 63.46C81.5158 64.42 81.2958 65.26 80.8558 65.98C80.4158 66.7 79.8491 67.26 79.1558 67.66C78.4624 68.0467 77.7224 68.24 76.9358 68.24C76.3358 68.24 75.8491 68.1733 75.4758 68.04C75.1158 67.92 74.8024 67.78 74.5358 67.62H74.4558V70.04C74.4558 70.2667 74.4691 70.4867 74.4958 70.7C74.5224 70.9133 74.6091 71.08 74.7558 71.2C74.9024 71.3333 75.1491 71.4 75.4958 71.4C75.6158 71.4 75.7158 71.4067 75.7958 71.42C75.8891 71.4467 75.9424 71.56 75.9558 71.76C75.9558 71.8533 75.9291 71.94 75.8758 72.02C75.8224 72.1133 75.7424 72.16 75.6358 72.16C75.2491 72.1333 74.8891 72.1133 74.5558 72.1C74.2358 72.1 73.8958 72.1 73.5358 72.1C73.1758 72.1 72.8358 72.1 72.5158 72.1C72.1958 72.1133 71.8424 72.1333 71.4558 72.16ZM76.7758 67.56C77.2958 67.56 77.7291 67.4333 78.0758 67.18C78.4224 66.9133 78.6958 66.58 78.8958 66.18C79.1091 65.7667 79.2558 65.3267 79.3358 64.86C79.4291 64.38 79.4758 63.9333 79.4758 63.52C79.4758 62.8933 79.3758 62.2933 79.1758 61.72C78.9891 61.1333 78.6824 60.6533 78.2558 60.28C77.8424 59.8933 77.2958 59.7 76.6158 59.7C76.1091 59.7 75.6891 59.8067 75.3558 60.02C75.0224 60.22 74.7224 60.46 74.4558 60.74V66.1C74.6024 66.4467 74.8691 66.78 75.2558 67.1C75.6558 67.4067 76.1624 67.56 76.7758 67.56ZM86.5778 68.34C86.1778 68.34 85.7978 68.24 85.4378 68.04C85.0778 67.84 84.7778 67.5333 84.5378 67.12C84.3111 66.7067 84.1978 66.1867 84.1978 65.56V59.68L83.0378 59.72C82.9445 59.72 82.8711 59.6867 82.8178 59.62C82.7778 59.54 82.7578 59.4533 82.7578 59.36C82.7578 59.0933 82.8511 58.94 83.0378 58.9C83.5311 58.8067 83.9045 58.6533 84.1578 58.44C84.4111 58.2133 84.6045 57.9467 84.7378 57.64C84.8845 57.3333 85.0178 57 85.1378 56.64C85.1778 56.5333 85.2378 56.4667 85.3178 56.44C85.3978 56.4 85.4845 56.38 85.5778 56.38C85.6578 56.38 85.7445 56.4 85.8378 56.44C85.9445 56.48 85.9978 56.5533 85.9978 56.66L85.8578 58.94L88.1978 58.8C88.3178 58.7867 88.3978 58.82 88.4378 58.9C88.4778 58.98 88.4978 59.0733 88.4978 59.18C88.4978 59.3133 88.4711 59.4467 88.4178 59.58C88.3778 59.7133 88.3245 59.78 88.2578 59.78L86.0178 59.72V65.8C86.0178 66.1867 86.0978 66.54 86.2578 66.86C86.4311 67.18 86.7378 67.34 87.1778 67.34C87.3245 67.34 87.4911 67.3267 87.6778 67.3C87.8645 67.2733 88.0645 67.2133 88.2778 67.12C88.3311 67.0933 88.3845 67.0733 88.4378 67.06C88.4911 67.0333 88.5445 67.02 88.5978 67.02C88.7045 67.02 88.7845 67.0667 88.8378 67.16C88.8911 67.24 88.9378 67.3267 88.9778 67.42C89.0178 67.54 88.9845 67.6333 88.8778 67.7C88.4645 67.9667 88.0845 68.14 87.7378 68.22C87.3911 68.3 87.0045 68.34 86.5778 68.34Z" fill="#001324"/>
</svg>
