<svg width="125" height="125" viewBox="0 0 125 125" fill="none" xmlns="http://www.w3.org/2000/svg">
<mask id="path-1-inside-1_19_5" fill="white">
<path fill-rule="evenodd" clip-rule="evenodd" d="M25 100L0 100L0 5C0 2.23858 2.23858 0 5 0L100 0V25C113.807 25 125 36.1929 125 50C125 63.8071 113.807 75 100 75V100H75C75 113.807 63.8071 125 50 125C36.1929 125 25 113.807 25 100Z"/>
</mask>
<path fill-rule="evenodd" clip-rule="evenodd" d="M25 100L0 100L0 5C0 2.23858 2.23858 0 5 0L100 0V25C113.807 25 125 36.1929 125 50C125 63.8071 113.807 75 100 75V100H75C75 113.807 63.8071 125 50 125C36.1929 125 25 113.807 25 100Z" fill="#FFAFAF"/>
<path d="M0 100H-2V102H0V100ZM25 100H27V98H25V100ZM100 0H102V-2H100V0ZM100 25H98V27H100V25ZM100 75V73H98V75H100ZM100 100V102H102V100H100ZM75 100V98H73V100H75ZM0 102L25 102V98L0 98V102ZM-2 5L-2 100H2L2 5H-2ZM5 -2C1.13401 -2 -2 1.13401 -2 5H2C2 3.34315 3.34315 2 5 2V-2ZM100 -2L5 -2V2L100 2V-2ZM102 25V0H98V25H102ZM127 50C127 35.0883 114.912 23 100 23V27C112.703 27 123 37.2975 123 50H127ZM100 77C114.912 77 127 64.9117 127 50H123C123 62.7025 112.703 73 100 73V77ZM102 100V75H98V100H102ZM75 102H100V98H75V102ZM73 100C73 112.703 62.7025 123 50 123V127C64.9117 127 77 114.912 77 100H73ZM50 123C37.2974 123 27 112.703 27 100H23C23 114.912 35.0883 127 50 127V123Z" fill="white" mask="url(#path-1-inside-1_19_5)"/>
<path d="M21.464 59.072C21.304 59.072 21.192 59.016 21.128 58.904C21.064 58.792 21.032 58.672 21.032 58.544C21.048 58.272 21.112 58.12 21.224 58.088C21.336 58.056 21.472 58.04 21.632 58.04C22.144 58.04 22.504 57.952 22.712 57.776C22.92 57.584 23.048 57.352 23.096 57.08C23.16 56.792 23.192 56.496 23.192 56.192V46.664C23.192 46.36 23.16 46.072 23.096 45.8C23.048 45.512 22.92 45.28 22.712 45.104C22.504 44.912 22.144 44.816 21.632 44.816C21.472 44.816 21.336 44.8 21.224 44.768C21.112 44.736 21.048 44.584 21.032 44.312C21.032 44.184 21.064 44.064 21.128 43.952C21.192 43.84 21.304 43.784 21.464 43.784C21.976 43.8 22.456 43.816 22.904 43.832C23.352 43.848 23.816 43.856 24.296 43.856C25.272 43.856 26.272 43.832 27.296 43.784C27.456 43.784 27.568 43.84 27.632 43.952C27.696 44.064 27.728 44.184 27.728 44.312C27.712 44.584 27.648 44.736 27.536 44.768C27.44 44.8 27.304 44.816 27.128 44.816C26.632 44.816 26.272 44.912 26.048 45.104C25.84 45.28 25.712 45.512 25.664 45.8C25.616 46.072 25.584 46.36 25.568 46.664V50.912H33.104V46.664C33.104 46.36 33.072 46.072 33.008 45.8C32.96 45.512 32.832 45.28 32.624 45.104C32.416 44.912 32.056 44.816 31.544 44.816C31.384 44.816 31.24 44.8 31.112 44.768C31 44.736 30.936 44.584 30.92 44.312C30.92 44.184 30.952 44.064 31.016 43.952C31.096 43.84 31.208 43.784 31.352 43.784C32.392 43.832 33.392 43.856 34.352 43.856C34.832 43.856 35.296 43.848 35.744 43.832C36.208 43.816 36.696 43.8 37.208 43.784C37.352 43.784 37.456 43.84 37.52 43.952C37.6 44.064 37.64 44.184 37.64 44.312C37.624 44.584 37.56 44.736 37.448 44.768C37.336 44.8 37.2 44.816 37.04 44.816C36.544 44.816 36.184 44.912 35.96 45.104C35.736 45.28 35.6 45.512 35.552 45.8C35.504 46.072 35.472 46.36 35.456 46.664V56.192C35.472 56.496 35.504 56.792 35.552 57.08C35.6 57.352 35.736 57.584 35.96 57.776C36.184 57.952 36.544 58.04 37.04 58.04C37.2 58.04 37.336 58.056 37.448 58.088C37.56 58.12 37.624 58.272 37.64 58.544C37.64 58.672 37.6 58.792 37.52 58.904C37.456 59.016 37.352 59.072 37.208 59.072C36.696 59.04 36.208 59.016 35.744 59C35.28 59 34.808 59 34.328 59C33.384 59 32.392 59.024 31.352 59.072C31.208 59.072 31.096 59.016 31.016 58.904C30.952 58.792 30.92 58.672 30.92 58.544C30.936 58.272 31 58.12 31.112 58.088C31.24 58.056 31.384 58.04 31.544 58.04C32.056 58.04 32.416 57.952 32.624 57.776C32.832 57.584 32.96 57.352 33.008 57.08C33.072 56.792 33.104 56.496 33.104 56.192V51.944H25.568V56.192C25.584 56.496 25.616 56.792 25.664 57.08C25.712 57.352 25.84 57.584 26.048 57.776C26.272 57.952 26.632 58.04 27.128 58.04C27.304 58.04 27.44 58.056 27.536 58.088C27.648 58.12 27.712 58.272 27.728 58.544C27.728 58.672 27.696 58.792 27.632 58.904C27.568 59.016 27.456 59.072 27.296 59.072C26.272 59.024 25.28 59 24.32 59C23.84 59 23.368 59 22.904 59C22.456 59.016 21.976 59.04 21.464 59.072ZM42.671 59.072C42.511 59.072 42.399 59.016 42.335 58.904C42.271 58.792 42.239 58.672 42.239 58.544C42.255 58.272 42.319 58.12 42.431 58.088C42.543 58.056 42.679 58.04 42.839 58.04C43.351 58.04 43.711 57.952 43.919 57.776C44.127 57.584 44.255 57.352 44.303 57.08C44.367 56.792 44.399 56.496 44.399 56.192V44.744H42.743C42.199 44.76 41.775 44.88 41.471 45.104C41.167 45.312 40.943 45.648 40.799 46.112C40.655 46.56 40.527 47.144 40.415 47.864C40.399 48.008 40.295 48.12 40.103 48.2C39.927 48.264 39.751 48.296 39.575 48.296C39.463 48.296 39.335 48.256 39.191 48.176C39.063 48.096 38.999 47.976 38.999 47.816L39.071 44.432C39.071 44.208 39.135 44.056 39.263 43.976C39.391 43.896 39.543 43.856 39.719 43.856H51.455C51.631 43.856 51.775 43.896 51.887 43.976C52.015 44.056 52.079 44.208 52.079 44.432L52.175 47.816C52.175 47.976 52.103 48.096 51.959 48.176C51.831 48.256 51.703 48.296 51.575 48.296C51.415 48.296 51.247 48.264 51.071 48.2C50.895 48.12 50.791 48.008 50.759 47.864C50.647 47.144 50.511 46.56 50.351 46.112C50.207 45.648 49.983 45.312 49.679 45.104C49.391 44.88 48.967 44.76 48.407 44.744H46.775V56.192C46.791 56.496 46.823 56.792 46.871 57.08C46.919 57.352 47.047 57.584 47.255 57.776C47.479 57.952 47.839 58.04 48.335 58.04C48.495 58.04 48.631 58.056 48.743 58.088C48.855 58.12 48.919 58.272 48.935 58.544C48.935 58.672 48.903 58.792 48.839 58.904C48.775 59.016 48.663 59.072 48.503 59.072C47.991 59.04 47.503 59.016 47.039 59C46.591 59 46.135 59 45.671 59C44.711 59 43.711 59.024 42.671 59.072ZM62.7564 59.12C62.6604 59.12 62.5644 59.096 62.4684 59.048C62.3724 59.016 62.3004 58.96 62.2524 58.88L56.8524 46.664H56.7804L56.8284 56.192C56.8444 56.496 56.8684 56.792 56.9004 57.08C56.9484 57.352 57.0764 57.584 57.2844 57.776C57.4924 57.952 57.8444 58.04 58.3404 58.04C58.5164 58.04 58.6604 58.056 58.7724 58.088C58.8844 58.12 58.9484 58.272 58.9644 58.544C58.9644 58.672 58.9244 58.792 58.8444 58.904C58.7804 59.016 58.6764 59.072 58.5324 59.072C58.1964 59.056 57.9244 59.04 57.7164 59.024C57.5084 59.024 57.3084 59.016 57.1164 59C56.9244 59 56.6684 59 56.3484 59C55.8684 59 55.4764 59 55.1724 59C54.8844 59.016 54.4844 59.04 53.9724 59.072C53.8124 59.072 53.7004 59.016 53.6364 58.904C53.5724 58.792 53.5404 58.672 53.5404 58.544C53.5564 58.272 53.6204 58.12 53.7324 58.088C53.8444 58.056 53.9804 58.04 54.1404 58.04C54.6524 58.04 55.0044 57.952 55.1964 57.776C55.4044 57.584 55.5324 57.352 55.5804 57.08C55.6284 56.792 55.6524 56.496 55.6524 56.192L55.7004 46.664C55.7004 46.152 55.6444 45.776 55.5324 45.536C55.4204 45.28 55.2444 45.104 55.0044 45.008C54.7644 44.896 54.4604 44.808 54.0924 44.744C53.8684 44.696 53.7084 44.656 53.6124 44.624C53.5324 44.592 53.4924 44.448 53.4924 44.192C53.4924 43.92 53.5884 43.776 53.7804 43.76C53.9724 43.728 54.1964 43.712 54.4524 43.712C55.2364 43.712 55.9244 43.776 56.5164 43.904C57.1244 44.032 57.6524 44.28 58.1004 44.648C58.5484 45 58.9164 45.536 59.2044 46.256L63.3324 55.52H63.4044L68.1324 43.856H69.5004C69.9804 43.856 70.4444 43.848 70.8924 43.832C71.3564 43.816 71.8444 43.8 72.3564 43.784C72.5164 43.784 72.6284 43.84 72.6924 43.952C72.7564 44.064 72.7884 44.184 72.7884 44.312C72.7724 44.584 72.7084 44.736 72.5964 44.768C72.4844 44.8 72.3484 44.816 72.1884 44.816C71.6924 44.816 71.3324 44.912 71.1084 45.104C70.9004 45.28 70.7724 45.512 70.7244 45.8C70.6764 46.072 70.6444 46.36 70.6284 46.664V56.192C70.6444 56.496 70.6764 56.792 70.7244 57.08C70.7724 57.352 70.9004 57.584 71.1084 57.776C71.3324 57.952 71.6924 58.04 72.1884 58.04C72.3484 58.04 72.4844 58.056 72.5964 58.088C72.7084 58.12 72.7724 58.272 72.7884 58.544C72.7884 58.672 72.7564 58.792 72.6924 58.904C72.6284 59.016 72.5164 59.072 72.3564 59.072C71.8444 59.04 71.3564 59.016 70.8924 59C70.4284 59 69.9564 59 69.4764 59C68.5484 59 67.5644 59.024 66.5244 59.072C66.3644 59.072 66.2524 59.016 66.1884 58.904C66.1244 58.792 66.0924 58.672 66.0924 58.544C66.1084 58.272 66.1724 58.12 66.2844 58.088C66.3964 58.056 66.5324 58.04 66.6924 58.04C67.2044 58.04 67.5644 57.952 67.7724 57.776C67.9804 57.584 68.1084 57.352 68.1564 57.08C68.2204 56.792 68.2524 56.496 68.2524 56.192V46.664H68.1804L63.2364 58.88C63.2044 58.96 63.1404 59.016 63.0444 59.048C62.9484 59.096 62.8524 59.12 62.7564 59.12ZM75.2525 59.072C75.1085 59.072 75.0045 59.016 74.9405 58.904C74.8765 58.792 74.8445 58.672 74.8445 58.544C74.8605 58.272 74.9245 58.12 75.0365 58.088C75.1485 58.056 75.2845 58.04 75.4445 58.04C75.9565 58.04 76.3165 57.952 76.5245 57.776C76.7325 57.584 76.8605 57.352 76.9085 57.08C76.9725 56.792 77.0045 56.496 77.0045 56.192V46.664C77.0045 46.36 76.9725 46.072 76.9085 45.8C76.8605 45.512 76.7325 45.28 76.5245 45.104C76.3165 44.912 75.9565 44.816 75.4445 44.816C75.2845 44.816 75.1485 44.8 75.0365 44.768C74.9245 44.736 74.8605 44.584 74.8445 44.312C74.8445 44.184 74.8765 44.064 74.9405 43.952C75.0045 43.84 75.1085 43.784 75.2525 43.784C75.7805 43.8 76.2685 43.816 76.7165 43.832C77.1645 43.848 77.6285 43.856 78.1085 43.856C79.0845 43.856 80.0845 43.832 81.1085 43.784C81.2685 43.784 81.3805 43.84 81.4445 43.952C81.5085 44.064 81.5405 44.184 81.5405 44.312C81.5245 44.584 81.4605 44.736 81.3485 44.768C81.2365 44.8 81.1005 44.816 80.9405 44.816C80.4445 44.816 80.0845 44.912 79.8605 45.104C79.6525 45.28 79.5245 45.512 79.4765 45.8C79.4285 46.072 79.3965 46.36 79.3805 46.664V56.552C79.3965 56.76 79.4285 56.984 79.4765 57.224C79.5245 57.464 79.6605 57.664 79.8845 57.824C80.1245 57.984 80.5165 58.056 81.0605 58.04H83.2205C83.7805 58.024 84.2045 57.936 84.4925 57.776C84.7965 57.6 85.0365 57.312 85.2125 56.912C85.3885 56.512 85.5805 55.96 85.7885 55.256C85.8525 55.096 85.9565 54.992 86.1005 54.944C86.2605 54.896 86.4285 54.888 86.6045 54.92C86.7325 54.936 86.8605 54.992 86.9885 55.088C87.1325 55.184 87.1965 55.312 87.1805 55.472L86.7005 58.496C86.6525 58.72 86.5725 58.864 86.4605 58.928C86.3645 58.976 86.2125 59 86.0045 59H78.1325C77.6525 59 77.1805 59 76.7165 59C76.2685 59.016 75.7805 59.04 75.2525 59.072Z" fill="#001324"/>
</svg>
