<svg width="125" height="125" viewBox="0 0 125 125" fill="none" xmlns="http://www.w3.org/2000/svg">
<mask id="path-1-inside-1_3_26" fill="white">
<path fill-rule="evenodd" clip-rule="evenodd" d="M78 25H100V50C113.807 50 125 61.1929 125 75C125 88.8071 113.807 100 100 100V125H0V100C13.8071 100 25 88.8071 25 75C25 61.1929 13.8071 50 0 50V25H28C28 11.1929 39.1929 0 53 0C66.8071 0 78 11.1929 78 25Z"/>
</mask>
<path fill-rule="evenodd" clip-rule="evenodd" d="M78 25H100V50C113.807 50 125 61.1929 125 75C125 88.8071 113.807 100 100 100V125H0V100C13.8071 100 25 88.8071 25 75C25 61.1929 13.8071 50 0 50V25H28C28 11.1929 39.1929 0 53 0C66.8071 0 78 11.1929 78 25Z" fill="#9FD1FF"/>
<path d="M78 25H76V27H78V25ZM100 25H102V23H100V25ZM100 50H98V52H100V50ZM100 100V98H98V100H100ZM100 125V127H102V125H100ZM0 125H-2V127H0V125ZM0 100V98H-2V100H0ZM0 50H-2V52H0V50ZM0 25V23H-2V25H0ZM28 25V27H30V25H28ZM78 27H100V23H78V27ZM98 25V50H102V25H98ZM100 52C112.703 52 123 62.2975 123 75H127C127 60.0883 114.912 48 100 48V52ZM123 75C123 87.7025 112.703 98 100 98V102C114.912 102 127 89.9117 127 75H123ZM98 100V125H102V100H98ZM100 123H0V127H100V123ZM2 125V100H-2V125H2ZM0 102C14.9117 102 27 89.9117 27 75H23C23 87.7025 12.7026 98 0 98V102ZM27 75C27 60.0883 14.9117 48 0 48V52C12.7026 52 23 62.2975 23 75H27ZM2 50V25H-2V50H2ZM0 27H28V23H0V27ZM30 25C30 12.2975 40.2975 2 53 2V-2C38.0883 -2 26 10.0883 26 25H30ZM53 2C65.7026 2 76 12.2975 76 25H80C80 10.0883 67.9117 -2 53 -2V2Z" fill="white" mask="url(#path-1-inside-1_3_26)"/>
<path d="M35.464 83.072C35.304 83.072 35.192 83.016 35.128 82.904C35.064 82.792 35.032 82.672 35.032 82.544C35.048 82.272 35.112 82.12 35.224 82.088C35.336 82.056 35.472 82.04 35.632 82.04C36.144 82.04 36.504 81.952 36.712 81.776C36.92 81.584 37.048 81.352 37.096 81.08C37.16 80.792 37.192 80.496 37.192 80.192V70.688C37.192 70.384 37.16 70.088 37.096 69.8C37.048 69.512 36.92 69.28 36.712 69.104C36.504 68.912 36.144 68.816 35.632 68.816C35.472 68.816 35.336 68.8 35.224 68.768C35.112 68.736 35.048 68.584 35.032 68.312C35.032 68.184 35.064 68.064 35.128 67.952C35.192 67.84 35.304 67.784 35.464 67.784C35.976 67.8 36.456 67.816 36.904 67.832C37.368 67.848 37.84 67.856 38.32 67.856H42.448C43.744 67.872 44.792 68.072 45.592 68.456C46.408 68.84 47 69.328 47.368 69.92C47.736 70.512 47.92 71.128 47.92 71.768C47.92 72.616 47.576 73.416 46.888 74.168C46.216 74.92 45.264 75.456 44.032 75.776C44.64 76.736 45.256 77.704 45.88 78.68C46.504 79.64 47.224 80.544 48.04 81.392C48.264 81.568 48.48 81.712 48.688 81.824C48.912 81.936 49.176 82.008 49.48 82.04C49.608 82.056 49.736 82.08 49.864 82.112C49.992 82.128 50.064 82.272 50.08 82.544C50.08 82.672 50.048 82.792 49.984 82.904C49.92 83.016 49.808 83.072 49.648 83.072C49.312 83.056 49.04 83.04 48.832 83.024C48.64 83.024 48.448 83.016 48.256 83C48.064 83 47.808 83 47.488 83C46.832 82.872 46.272 82.64 45.808 82.304C45.36 81.968 44.92 81.504 44.488 80.912C44.04 80.304 43.624 79.688 43.24 79.064C42.856 78.44 42.48 77.832 42.112 77.24C41.904 76.904 41.688 76.664 41.464 76.52C41.256 76.36 40.856 76.28 40.264 76.28H39.568V80.192C39.584 80.496 39.616 80.792 39.664 81.08C39.712 81.352 39.84 81.584 40.048 81.776C40.272 81.952 40.632 82.04 41.128 82.04C41.288 82.04 41.424 82.056 41.536 82.088C41.648 82.12 41.712 82.272 41.728 82.544C41.728 82.672 41.696 82.792 41.632 82.904C41.568 83.016 41.456 83.072 41.296 83.072C40.272 83.024 39.272 83 38.296 83C37.816 83 37.352 83 36.904 83C36.456 83.016 35.976 83.04 35.464 83.072ZM39.568 75.344H41.68C42.496 75.344 43.136 75.232 43.6 75.008C44.08 74.784 44.44 74.496 44.68 74.144C44.92 73.792 45.072 73.424 45.136 73.04C45.216 72.656 45.256 72.304 45.256 71.984C45.256 71.456 45.136 70.944 44.896 70.448C44.672 69.952 44.264 69.544 43.672 69.224C43.096 68.904 42.288 68.744 41.248 68.744C40.56 68.744 40.104 68.88 39.88 69.152C39.672 69.408 39.568 69.936 39.568 70.736V75.344ZM56.1391 83.288C54.9071 83.288 53.8671 83.024 53.0191 82.496C52.1871 81.968 51.5631 81.264 51.1471 80.384C50.7311 79.504 50.5231 78.544 50.5231 77.504C50.5231 76.8 50.6431 76.12 50.8831 75.464C51.1391 74.792 51.4991 74.184 51.9631 73.64C52.4271 73.08 52.9871 72.64 53.6431 72.32C54.2991 72 55.0431 71.84 55.8751 71.84C57.3471 71.84 58.4511 72.224 59.1871 72.992C59.9391 73.744 60.3711 74.704 60.4831 75.872C60.4831 76.432 60.3231 76.8 60.0031 76.976C59.6991 77.152 59.2991 77.24 58.8031 77.24H52.9711C52.9711 78.168 53.0991 79 53.3551 79.736C53.6111 80.456 54.0111 81.032 54.5551 81.464C55.1151 81.88 55.8511 82.088 56.7631 82.088C57.4351 82.088 58.0111 81.944 58.4911 81.656C58.9711 81.368 59.4351 80.864 59.8831 80.144C60.0111 79.984 60.1871 79.976 60.4111 80.12C60.5391 80.184 60.6191 80.288 60.6511 80.432C60.6831 80.56 60.6671 80.672 60.6031 80.768C60.1071 81.552 59.4831 82.168 58.7311 82.616C57.9791 83.064 57.1151 83.288 56.1391 83.288ZM52.9711 76.328H56.8831C57.2671 76.328 57.5711 76.256 57.7951 76.112C58.0351 75.952 58.1631 75.688 58.1791 75.32C58.1791 74.632 57.9871 74.024 57.6031 73.496C57.2351 72.952 56.6591 72.68 55.8751 72.68C55.0751 72.68 54.4031 73 53.8591 73.64C53.3311 74.28 53.0351 75.176 52.9711 76.328ZM65.6179 83.288C64.6419 83.288 63.8579 83.008 63.2659 82.448C62.6899 81.888 62.4019 81.216 62.4019 80.432C62.4019 79.616 62.6099 78.976 63.0259 78.512C63.4579 78.048 64.0179 77.704 64.7059 77.48C65.4099 77.256 66.1699 77.104 66.9859 77.024C67.8179 76.944 68.6259 76.88 69.4099 76.832V74.936C69.4099 74.184 69.2179 73.6 68.8339 73.184C68.4659 72.752 67.8339 72.536 66.9379 72.536C66.4899 72.536 66.0659 72.68 65.6659 72.968C65.2819 73.256 65.0899 73.672 65.0899 74.216C65.0899 74.472 65.1539 74.688 65.2819 74.864C65.4099 75.04 65.5379 75.176 65.6659 75.272C65.7939 75.368 65.8579 75.432 65.8579 75.464C65.8579 75.528 65.7619 75.648 65.5699 75.824C65.3939 75.984 65.1459 76.064 64.8259 76.064C64.3299 76.064 63.9459 75.88 63.6739 75.512C63.4019 75.144 63.2659 74.736 63.2659 74.288C63.2659 73.68 63.4499 73.2 63.8179 72.848C64.2019 72.496 64.6899 72.24 65.2819 72.08C65.8739 71.92 66.4739 71.84 67.0819 71.84C67.8019 71.84 68.4979 71.928 69.1699 72.104C69.8579 72.28 70.4179 72.616 70.8499 73.112C71.2979 73.608 71.5219 74.352 71.5219 75.344V80.936C71.5379 81.096 71.5779 81.288 71.6419 81.512C71.7059 81.736 71.8259 81.936 72.0019 82.112C72.1939 82.272 72.4499 82.352 72.7699 82.352C72.8819 82.352 72.9699 82.376 73.0339 82.424C73.0979 82.456 73.1299 82.56 73.1299 82.736C73.1299 82.88 73.0499 82.992 72.8899 83.072C72.7299 83.152 72.5459 83.208 72.3379 83.24C72.1299 83.272 71.9539 83.288 71.8099 83.288C71.2179 83.288 70.6899 83.12 70.2259 82.784C69.7619 82.432 69.4899 81.952 69.4099 81.344C69.0579 81.984 68.5299 82.472 67.8259 82.808C67.1379 83.128 66.4019 83.288 65.6179 83.288ZM66.3859 81.992C66.9299 81.992 67.4259 81.856 67.8739 81.584C68.3379 81.312 68.7059 80.944 68.9779 80.48C69.2659 80 69.4099 79.472 69.4099 78.896V77.528C67.7619 77.64 66.5859 77.904 65.8819 78.32C65.1779 78.736 64.8259 79.416 64.8259 80.36C64.8259 81.448 65.3459 81.992 66.3859 81.992ZM79.7316 83.288C78.0836 83.288 76.7956 82.768 75.8676 81.728C74.9556 80.672 74.4996 79.28 74.4996 77.552C74.5476 76.448 74.8196 75.472 75.3156 74.624C75.8276 73.776 76.4996 73.112 77.3316 72.632C78.1796 72.136 79.1156 71.872 80.1396 71.84C80.6996 71.84 81.2676 71.912 81.8436 72.056C82.4356 72.184 82.9236 72.432 83.3076 72.8C83.7076 73.152 83.9076 73.664 83.9076 74.336C83.9076 74.8 83.7636 75.232 83.4756 75.632C83.1876 76.016 82.7876 76.208 82.2756 76.208C81.9236 76.208 81.6516 76.12 81.4596 75.944C81.2676 75.768 81.1716 75.64 81.1716 75.56C81.1716 75.528 81.2356 75.464 81.3636 75.368C81.5076 75.256 81.6436 75.112 81.7716 74.936C81.8996 74.744 81.9636 74.512 81.9636 74.24C81.9636 73.728 81.7796 73.352 81.4116 73.112C81.0436 72.872 80.6276 72.744 80.1636 72.728C79.4596 72.728 78.8916 72.872 78.4596 73.16C78.0436 73.448 77.7236 73.832 77.4996 74.312C77.2756 74.776 77.1236 75.288 77.0436 75.848C76.9796 76.408 76.9476 76.952 76.9476 77.48C76.9476 78.36 77.0836 79.152 77.3556 79.856C77.6276 80.544 78.0116 81.088 78.5076 81.488C79.0036 81.888 79.5956 82.088 80.2836 82.088C80.9876 82.088 81.5796 81.936 82.0596 81.632C82.5396 81.328 82.9796 80.88 83.3796 80.288C83.4916 80.128 83.6596 80.112 83.8836 80.24C83.9956 80.304 84.0756 80.392 84.1236 80.504C84.1716 80.616 84.1556 80.728 84.0756 80.84C83.5476 81.592 82.8916 82.192 82.1076 82.64C81.3236 83.072 80.5316 83.288 79.7316 83.288ZM90.0903 83.408C89.6103 83.408 89.1543 83.288 88.7223 83.048C88.2903 82.808 87.9303 82.44 87.6423 81.944C87.3703 81.448 87.2343 80.824 87.2343 80.072V73.016L85.8423 73.064C85.7303 73.064 85.6423 73.024 85.5783 72.944C85.5303 72.848 85.5063 72.744 85.5063 72.632C85.5063 72.312 85.6183 72.128 85.8423 72.08C86.4343 71.968 86.8823 71.784 87.1863 71.528C87.4903 71.256 87.7223 70.936 87.8823 70.568C88.0583 70.2 88.2183 69.8 88.3623 69.368C88.4103 69.24 88.4823 69.16 88.5783 69.128C88.6743 69.08 88.7783 69.056 88.8903 69.056C88.9863 69.056 89.0903 69.08 89.2023 69.128C89.3303 69.176 89.3943 69.264 89.3943 69.392L89.2263 72.128L92.0343 71.96C92.1783 71.944 92.2743 71.984 92.3223 72.08C92.3703 72.176 92.3943 72.288 92.3943 72.416C92.3943 72.576 92.3623 72.736 92.2983 72.896C92.2503 73.056 92.1863 73.136 92.1063 73.136L89.4183 73.064V80.36C89.4183 80.824 89.5143 81.248 89.7063 81.632C89.9143 82.016 90.2823 82.208 90.8103 82.208C90.9863 82.208 91.1863 82.192 91.4103 82.16C91.6343 82.128 91.8743 82.056 92.1303 81.944C92.1943 81.912 92.2583 81.888 92.3223 81.872C92.3863 81.84 92.4503 81.824 92.5143 81.824C92.6423 81.824 92.7383 81.88 92.8023 81.992C92.8663 82.088 92.9223 82.192 92.9703 82.304C93.0183 82.448 92.9783 82.56 92.8503 82.64C92.3543 82.96 91.8983 83.168 91.4823 83.264C91.0663 83.36 90.6023 83.408 90.0903 83.408Z" fill="#001324"/>
</svg>
